%TF.GenerationSoftware,KiCad,Pcbnew,7.0.8*%
%TF.CreationDate,2024-02-28T15:08:07-05:00*%
%TF.ProjectId,rcl57_debug_psu,72636c35-375f-4646-9562-75675f707375,rev?*%
%TF.SameCoordinates,Original*%
%TF.FileFunction,Legend,Top*%
%TF.FilePolarity,Positive*%
%FSLAX46Y46*%
G04 Gerber Fmt 4.6, Leading zero omitted, Abs format (unit mm)*
G04 Created by KiCad (PCBNEW 7.0.8) date 2024-02-28 15:08:07*
%MOMM*%
%LPD*%
G01*
G04 APERTURE LIST*
%ADD10C,0.500000*%
%ADD11C,0.750000*%
%ADD12C,0.250000*%
%ADD13C,0.200000*%
%ADD14C,0.300000*%
%ADD15C,0.150000*%
%ADD16C,0.120000*%
%ADD17C,0.400000*%
%TA.AperFunction,Profile*%
%ADD18C,0.050000*%
%TD*%
G04 APERTURE END LIST*
D10*
X161200000Y-116200000D02*
X161200000Y-116700000D01*
X166200000Y-116200000D02*
X166200000Y-116700000D01*
D11*
X157700000Y-85500000D02*
X157700000Y-90300000D01*
D10*
X156000000Y-116700000D02*
X163800000Y-116700000D01*
X172600000Y-114400000D02*
X174100000Y-114400000D01*
X166200000Y-116700000D02*
X168800000Y-116700001D01*
X174100000Y-114400000D02*
X174100000Y-110800000D01*
X168800000Y-116200000D02*
X168800000Y-116700001D01*
X163800000Y-116200000D02*
X163800000Y-116700000D01*
D11*
X162800000Y-85600000D02*
X162800000Y-90400000D01*
D10*
X172600000Y-111800000D02*
X174100000Y-111800000D01*
X158600000Y-116200000D02*
X158600000Y-116700000D01*
X156000000Y-114300000D02*
X156000000Y-116700000D01*
D12*
X169512092Y-116064619D02*
X170028758Y-117064619D01*
X170028758Y-117064619D02*
X170545425Y-116064619D01*
X171062091Y-117064619D02*
X171062091Y-116064619D01*
X171062091Y-116064619D02*
X171431139Y-116064619D01*
X171431139Y-116064619D02*
X171652567Y-116112238D01*
X171652567Y-116112238D02*
X171800186Y-116207476D01*
X171800186Y-116207476D02*
X171873996Y-116302714D01*
X171873996Y-116302714D02*
X171947805Y-116493190D01*
X171947805Y-116493190D02*
X171947805Y-116636047D01*
X171947805Y-116636047D02*
X171873996Y-116826523D01*
X171873996Y-116826523D02*
X171800186Y-116921761D01*
X171800186Y-116921761D02*
X171652567Y-117017000D01*
X171652567Y-117017000D02*
X171431139Y-117064619D01*
X171431139Y-117064619D02*
X171062091Y-117064619D01*
X172612091Y-117064619D02*
X172612091Y-116064619D01*
X172612091Y-116064619D02*
X172981139Y-116064619D01*
X172981139Y-116064619D02*
X173202567Y-116112238D01*
X173202567Y-116112238D02*
X173350186Y-116207476D01*
X173350186Y-116207476D02*
X173423996Y-116302714D01*
X173423996Y-116302714D02*
X173497805Y-116493190D01*
X173497805Y-116493190D02*
X173497805Y-116636047D01*
X173497805Y-116636047D02*
X173423996Y-116826523D01*
X173423996Y-116826523D02*
X173350186Y-116921761D01*
X173350186Y-116921761D02*
X173202567Y-117017000D01*
X173202567Y-117017000D02*
X172981139Y-117064619D01*
X172981139Y-117064619D02*
X172612091Y-117064619D01*
D13*
X158186339Y-110067219D02*
X158186339Y-109067219D01*
X158186339Y-109067219D02*
X158541101Y-109067219D01*
X158541101Y-109067219D02*
X158753958Y-109114838D01*
X158753958Y-109114838D02*
X158895863Y-109210076D01*
X158895863Y-109210076D02*
X158966816Y-109305314D01*
X158966816Y-109305314D02*
X159037768Y-109495790D01*
X159037768Y-109495790D02*
X159037768Y-109638647D01*
X159037768Y-109638647D02*
X158966816Y-109829123D01*
X158966816Y-109829123D02*
X158895863Y-109924361D01*
X158895863Y-109924361D02*
X158753958Y-110019600D01*
X158753958Y-110019600D02*
X158541101Y-110067219D01*
X158541101Y-110067219D02*
X158186339Y-110067219D01*
X161663006Y-109971980D02*
X161592054Y-110019600D01*
X161592054Y-110019600D02*
X161379196Y-110067219D01*
X161379196Y-110067219D02*
X161237292Y-110067219D01*
X161237292Y-110067219D02*
X161024435Y-110019600D01*
X161024435Y-110019600D02*
X160882530Y-109924361D01*
X160882530Y-109924361D02*
X160811577Y-109829123D01*
X160811577Y-109829123D02*
X160740625Y-109638647D01*
X160740625Y-109638647D02*
X160740625Y-109495790D01*
X160740625Y-109495790D02*
X160811577Y-109305314D01*
X160811577Y-109305314D02*
X160882530Y-109210076D01*
X160882530Y-109210076D02*
X161024435Y-109114838D01*
X161024435Y-109114838D02*
X161237292Y-109067219D01*
X161237292Y-109067219D02*
X161379196Y-109067219D01*
X161379196Y-109067219D02*
X161592054Y-109114838D01*
X161592054Y-109114838D02*
X161663006Y-109162457D01*
X163223958Y-109067219D02*
X164075387Y-109067219D01*
X163649673Y-110067219D02*
X163649673Y-109067219D01*
X166558720Y-110067219D02*
X166062053Y-109591028D01*
X165707291Y-110067219D02*
X165707291Y-109067219D01*
X165707291Y-109067219D02*
X166274910Y-109067219D01*
X166274910Y-109067219D02*
X166416815Y-109114838D01*
X166416815Y-109114838D02*
X166487768Y-109162457D01*
X166487768Y-109162457D02*
X166558720Y-109257695D01*
X166558720Y-109257695D02*
X166558720Y-109400552D01*
X166558720Y-109400552D02*
X166487768Y-109495790D01*
X166487768Y-109495790D02*
X166416815Y-109543409D01*
X166416815Y-109543409D02*
X166274910Y-109591028D01*
X166274910Y-109591028D02*
X165707291Y-109591028D01*
X168829196Y-109543409D02*
X169042053Y-109591028D01*
X169042053Y-109591028D02*
X169113006Y-109638647D01*
X169113006Y-109638647D02*
X169183958Y-109733885D01*
X169183958Y-109733885D02*
X169183958Y-109876742D01*
X169183958Y-109876742D02*
X169113006Y-109971980D01*
X169113006Y-109971980D02*
X169042053Y-110019600D01*
X169042053Y-110019600D02*
X168900148Y-110067219D01*
X168900148Y-110067219D02*
X168332529Y-110067219D01*
X168332529Y-110067219D02*
X168332529Y-109067219D01*
X168332529Y-109067219D02*
X168829196Y-109067219D01*
X168829196Y-109067219D02*
X168971101Y-109114838D01*
X168971101Y-109114838D02*
X169042053Y-109162457D01*
X169042053Y-109162457D02*
X169113006Y-109257695D01*
X169113006Y-109257695D02*
X169113006Y-109352933D01*
X169113006Y-109352933D02*
X169042053Y-109448171D01*
X169042053Y-109448171D02*
X168971101Y-109495790D01*
X168971101Y-109495790D02*
X168829196Y-109543409D01*
X168829196Y-109543409D02*
X168332529Y-109543409D01*
X170106339Y-109067219D02*
X170248244Y-109067219D01*
X170248244Y-109067219D02*
X170390148Y-109114838D01*
X170390148Y-109114838D02*
X170461101Y-109162457D01*
X170461101Y-109162457D02*
X170532053Y-109257695D01*
X170532053Y-109257695D02*
X170603006Y-109448171D01*
X170603006Y-109448171D02*
X170603006Y-109686266D01*
X170603006Y-109686266D02*
X170532053Y-109876742D01*
X170532053Y-109876742D02*
X170461101Y-109971980D01*
X170461101Y-109971980D02*
X170390148Y-110019600D01*
X170390148Y-110019600D02*
X170248244Y-110067219D01*
X170248244Y-110067219D02*
X170106339Y-110067219D01*
X170106339Y-110067219D02*
X169964434Y-110019600D01*
X169964434Y-110019600D02*
X169893482Y-109971980D01*
X169893482Y-109971980D02*
X169822529Y-109876742D01*
X169822529Y-109876742D02*
X169751577Y-109686266D01*
X169751577Y-109686266D02*
X169751577Y-109448171D01*
X169751577Y-109448171D02*
X169822529Y-109257695D01*
X169822529Y-109257695D02*
X169893482Y-109162457D01*
X169893482Y-109162457D02*
X169964434Y-109114838D01*
X169964434Y-109114838D02*
X170106339Y-109067219D01*
D12*
X156542857Y-81876142D02*
X156142857Y-81304714D01*
X155857143Y-81876142D02*
X155857143Y-80676142D01*
X155857143Y-80676142D02*
X156314286Y-80676142D01*
X156314286Y-80676142D02*
X156428571Y-80733285D01*
X156428571Y-80733285D02*
X156485714Y-80790428D01*
X156485714Y-80790428D02*
X156542857Y-80904714D01*
X156542857Y-80904714D02*
X156542857Y-81076142D01*
X156542857Y-81076142D02*
X156485714Y-81190428D01*
X156485714Y-81190428D02*
X156428571Y-81247571D01*
X156428571Y-81247571D02*
X156314286Y-81304714D01*
X156314286Y-81304714D02*
X155857143Y-81304714D01*
X157742857Y-81761857D02*
X157685714Y-81819000D01*
X157685714Y-81819000D02*
X157514286Y-81876142D01*
X157514286Y-81876142D02*
X157400000Y-81876142D01*
X157400000Y-81876142D02*
X157228571Y-81819000D01*
X157228571Y-81819000D02*
X157114286Y-81704714D01*
X157114286Y-81704714D02*
X157057143Y-81590428D01*
X157057143Y-81590428D02*
X157000000Y-81361857D01*
X157000000Y-81361857D02*
X157000000Y-81190428D01*
X157000000Y-81190428D02*
X157057143Y-80961857D01*
X157057143Y-80961857D02*
X157114286Y-80847571D01*
X157114286Y-80847571D02*
X157228571Y-80733285D01*
X157228571Y-80733285D02*
X157400000Y-80676142D01*
X157400000Y-80676142D02*
X157514286Y-80676142D01*
X157514286Y-80676142D02*
X157685714Y-80733285D01*
X157685714Y-80733285D02*
X157742857Y-80790428D01*
X158828571Y-81876142D02*
X158257143Y-81876142D01*
X158257143Y-81876142D02*
X158257143Y-80676142D01*
X159800000Y-80676142D02*
X159228572Y-80676142D01*
X159228572Y-80676142D02*
X159171429Y-81247571D01*
X159171429Y-81247571D02*
X159228572Y-81190428D01*
X159228572Y-81190428D02*
X159342858Y-81133285D01*
X159342858Y-81133285D02*
X159628572Y-81133285D01*
X159628572Y-81133285D02*
X159742858Y-81190428D01*
X159742858Y-81190428D02*
X159800000Y-81247571D01*
X159800000Y-81247571D02*
X159857143Y-81361857D01*
X159857143Y-81361857D02*
X159857143Y-81647571D01*
X159857143Y-81647571D02*
X159800000Y-81761857D01*
X159800000Y-81761857D02*
X159742858Y-81819000D01*
X159742858Y-81819000D02*
X159628572Y-81876142D01*
X159628572Y-81876142D02*
X159342858Y-81876142D01*
X159342858Y-81876142D02*
X159228572Y-81819000D01*
X159228572Y-81819000D02*
X159171429Y-81761857D01*
X160257143Y-80676142D02*
X161057143Y-80676142D01*
X161057143Y-80676142D02*
X160542857Y-81876142D01*
X162314286Y-80676142D02*
X163057143Y-80676142D01*
X163057143Y-80676142D02*
X162657143Y-81133285D01*
X162657143Y-81133285D02*
X162828572Y-81133285D01*
X162828572Y-81133285D02*
X162942858Y-81190428D01*
X162942858Y-81190428D02*
X163000000Y-81247571D01*
X163000000Y-81247571D02*
X163057143Y-81361857D01*
X163057143Y-81361857D02*
X163057143Y-81647571D01*
X163057143Y-81647571D02*
X163000000Y-81761857D01*
X163000000Y-81761857D02*
X162942858Y-81819000D01*
X162942858Y-81819000D02*
X162828572Y-81876142D01*
X162828572Y-81876142D02*
X162485715Y-81876142D01*
X162485715Y-81876142D02*
X162371429Y-81819000D01*
X162371429Y-81819000D02*
X162314286Y-81761857D01*
X163571429Y-81761857D02*
X163628572Y-81819000D01*
X163628572Y-81819000D02*
X163571429Y-81876142D01*
X163571429Y-81876142D02*
X163514286Y-81819000D01*
X163514286Y-81819000D02*
X163571429Y-81761857D01*
X163571429Y-81761857D02*
X163571429Y-81876142D01*
X164028572Y-80676142D02*
X164828572Y-80676142D01*
X164828572Y-80676142D02*
X164314286Y-81876142D01*
X165114286Y-80676142D02*
X165514286Y-81876142D01*
X165514286Y-81876142D02*
X165914286Y-80676142D01*
X157485713Y-83808142D02*
X156914285Y-83808142D01*
X156914285Y-83808142D02*
X156914285Y-82608142D01*
X157885714Y-83808142D02*
X157885714Y-83008142D01*
X157885714Y-82608142D02*
X157828571Y-82665285D01*
X157828571Y-82665285D02*
X157885714Y-82722428D01*
X157885714Y-82722428D02*
X157942857Y-82665285D01*
X157942857Y-82665285D02*
X157885714Y-82608142D01*
X157885714Y-82608142D02*
X157885714Y-82722428D01*
X158457143Y-83808142D02*
X158457143Y-82608142D01*
X158457143Y-82608142D02*
X158914286Y-82608142D01*
X158914286Y-82608142D02*
X159028571Y-82665285D01*
X159028571Y-82665285D02*
X159085714Y-82722428D01*
X159085714Y-82722428D02*
X159142857Y-82836714D01*
X159142857Y-82836714D02*
X159142857Y-83008142D01*
X159142857Y-83008142D02*
X159085714Y-83122428D01*
X159085714Y-83122428D02*
X159028571Y-83179571D01*
X159028571Y-83179571D02*
X158914286Y-83236714D01*
X158914286Y-83236714D02*
X158457143Y-83236714D01*
X159828571Y-83808142D02*
X159714286Y-83751000D01*
X159714286Y-83751000D02*
X159657143Y-83693857D01*
X159657143Y-83693857D02*
X159600000Y-83579571D01*
X159600000Y-83579571D02*
X159600000Y-83236714D01*
X159600000Y-83236714D02*
X159657143Y-83122428D01*
X159657143Y-83122428D02*
X159714286Y-83065285D01*
X159714286Y-83065285D02*
X159828571Y-83008142D01*
X159828571Y-83008142D02*
X160000000Y-83008142D01*
X160000000Y-83008142D02*
X160114286Y-83065285D01*
X160114286Y-83065285D02*
X160171429Y-83122428D01*
X160171429Y-83122428D02*
X160228571Y-83236714D01*
X160228571Y-83236714D02*
X160228571Y-83579571D01*
X160228571Y-83579571D02*
X160171429Y-83693857D01*
X160171429Y-83693857D02*
X160114286Y-83751000D01*
X160114286Y-83751000D02*
X160000000Y-83808142D01*
X160000000Y-83808142D02*
X159828571Y-83808142D01*
X161657143Y-83808142D02*
X161657143Y-82608142D01*
X161657143Y-82608142D02*
X162114286Y-82608142D01*
X162114286Y-82608142D02*
X162228571Y-82665285D01*
X162228571Y-82665285D02*
X162285714Y-82722428D01*
X162285714Y-82722428D02*
X162342857Y-82836714D01*
X162342857Y-82836714D02*
X162342857Y-83008142D01*
X162342857Y-83008142D02*
X162285714Y-83122428D01*
X162285714Y-83122428D02*
X162228571Y-83179571D01*
X162228571Y-83179571D02*
X162114286Y-83236714D01*
X162114286Y-83236714D02*
X161657143Y-83236714D01*
X162800000Y-83751000D02*
X162971429Y-83808142D01*
X162971429Y-83808142D02*
X163257143Y-83808142D01*
X163257143Y-83808142D02*
X163371429Y-83751000D01*
X163371429Y-83751000D02*
X163428571Y-83693857D01*
X163428571Y-83693857D02*
X163485714Y-83579571D01*
X163485714Y-83579571D02*
X163485714Y-83465285D01*
X163485714Y-83465285D02*
X163428571Y-83351000D01*
X163428571Y-83351000D02*
X163371429Y-83293857D01*
X163371429Y-83293857D02*
X163257143Y-83236714D01*
X163257143Y-83236714D02*
X163028571Y-83179571D01*
X163028571Y-83179571D02*
X162914286Y-83122428D01*
X162914286Y-83122428D02*
X162857143Y-83065285D01*
X162857143Y-83065285D02*
X162800000Y-82951000D01*
X162800000Y-82951000D02*
X162800000Y-82836714D01*
X162800000Y-82836714D02*
X162857143Y-82722428D01*
X162857143Y-82722428D02*
X162914286Y-82665285D01*
X162914286Y-82665285D02*
X163028571Y-82608142D01*
X163028571Y-82608142D02*
X163314286Y-82608142D01*
X163314286Y-82608142D02*
X163485714Y-82665285D01*
X164000000Y-82608142D02*
X164000000Y-83579571D01*
X164000000Y-83579571D02*
X164057143Y-83693857D01*
X164057143Y-83693857D02*
X164114286Y-83751000D01*
X164114286Y-83751000D02*
X164228571Y-83808142D01*
X164228571Y-83808142D02*
X164457143Y-83808142D01*
X164457143Y-83808142D02*
X164571428Y-83751000D01*
X164571428Y-83751000D02*
X164628571Y-83693857D01*
X164628571Y-83693857D02*
X164685714Y-83579571D01*
X164685714Y-83579571D02*
X164685714Y-82608142D01*
X170578758Y-104440142D02*
X169893044Y-104440142D01*
X170235901Y-104440142D02*
X170235901Y-103240142D01*
X170235901Y-103240142D02*
X170121615Y-103411571D01*
X170121615Y-103411571D02*
X170007330Y-103525857D01*
X170007330Y-103525857D02*
X169893044Y-103583000D01*
X170978758Y-103240142D02*
X171264472Y-104440142D01*
X171264472Y-104440142D02*
X171493044Y-103583000D01*
X171493044Y-103583000D02*
X171721615Y-104440142D01*
X171721615Y-104440142D02*
X172007330Y-103240142D01*
X174464619Y-109280765D02*
X173988428Y-109797431D01*
X174464619Y-110166479D02*
X173464619Y-110166479D01*
X173464619Y-110166479D02*
X173464619Y-109576003D01*
X173464619Y-109576003D02*
X173512238Y-109428384D01*
X173512238Y-109428384D02*
X173559857Y-109354574D01*
X173559857Y-109354574D02*
X173655095Y-109280765D01*
X173655095Y-109280765D02*
X173797952Y-109280765D01*
X173797952Y-109280765D02*
X173893190Y-109354574D01*
X173893190Y-109354574D02*
X173940809Y-109428384D01*
X173940809Y-109428384D02*
X173988428Y-109576003D01*
X173988428Y-109576003D02*
X173988428Y-110166479D01*
X174417000Y-108690288D02*
X174464619Y-108468860D01*
X174464619Y-108468860D02*
X174464619Y-108099812D01*
X174464619Y-108099812D02*
X174417000Y-107952193D01*
X174417000Y-107952193D02*
X174369380Y-107878384D01*
X174369380Y-107878384D02*
X174274142Y-107804574D01*
X174274142Y-107804574D02*
X174178904Y-107804574D01*
X174178904Y-107804574D02*
X174083666Y-107878384D01*
X174083666Y-107878384D02*
X174036047Y-107952193D01*
X174036047Y-107952193D02*
X173988428Y-108099812D01*
X173988428Y-108099812D02*
X173940809Y-108395050D01*
X173940809Y-108395050D02*
X173893190Y-108542669D01*
X173893190Y-108542669D02*
X173845571Y-108616479D01*
X173845571Y-108616479D02*
X173750333Y-108690288D01*
X173750333Y-108690288D02*
X173655095Y-108690288D01*
X173655095Y-108690288D02*
X173559857Y-108616479D01*
X173559857Y-108616479D02*
X173512238Y-108542669D01*
X173512238Y-108542669D02*
X173464619Y-108395050D01*
X173464619Y-108395050D02*
X173464619Y-108026003D01*
X173464619Y-108026003D02*
X173512238Y-107804574D01*
X173464619Y-107361717D02*
X173464619Y-106476003D01*
X174464619Y-106918860D02*
X173464619Y-106918860D01*
D13*
X156210052Y-89188094D02*
X156271957Y-89002380D01*
X156271957Y-89002380D02*
X156333861Y-88940475D01*
X156333861Y-88940475D02*
X156457671Y-88878571D01*
X156457671Y-88878571D02*
X156643385Y-88878571D01*
X156643385Y-88878571D02*
X156767195Y-88940475D01*
X156767195Y-88940475D02*
X156829100Y-89002380D01*
X156829100Y-89002380D02*
X156891004Y-89126190D01*
X156891004Y-89126190D02*
X156891004Y-89621428D01*
X156891004Y-89621428D02*
X155591004Y-89621428D01*
X155591004Y-89621428D02*
X155591004Y-89188094D01*
X155591004Y-89188094D02*
X155652909Y-89064285D01*
X155652909Y-89064285D02*
X155714814Y-89002380D01*
X155714814Y-89002380D02*
X155838623Y-88940475D01*
X155838623Y-88940475D02*
X155962433Y-88940475D01*
X155962433Y-88940475D02*
X156086242Y-89002380D01*
X156086242Y-89002380D02*
X156148147Y-89064285D01*
X156148147Y-89064285D02*
X156210052Y-89188094D01*
X156210052Y-89188094D02*
X156210052Y-89621428D01*
X156891004Y-87702380D02*
X156891004Y-88321428D01*
X156891004Y-88321428D02*
X155591004Y-88321428D01*
X156891004Y-87269047D02*
X155591004Y-87269047D01*
X156891004Y-86526190D02*
X156148147Y-87083332D01*
X155591004Y-86526190D02*
X156333861Y-87269047D01*
X156395766Y-85969047D02*
X156395766Y-84978571D01*
X156891004Y-85473809D02*
X155900528Y-85473809D01*
D12*
X155512238Y-112654574D02*
X155464619Y-112802193D01*
X155464619Y-112802193D02*
X155464619Y-113023622D01*
X155464619Y-113023622D02*
X155512238Y-113245050D01*
X155512238Y-113245050D02*
X155607476Y-113392669D01*
X155607476Y-113392669D02*
X155702714Y-113466479D01*
X155702714Y-113466479D02*
X155893190Y-113540288D01*
X155893190Y-113540288D02*
X156036047Y-113540288D01*
X156036047Y-113540288D02*
X156226523Y-113466479D01*
X156226523Y-113466479D02*
X156321761Y-113392669D01*
X156321761Y-113392669D02*
X156417000Y-113245050D01*
X156417000Y-113245050D02*
X156464619Y-113023622D01*
X156464619Y-113023622D02*
X156464619Y-112876003D01*
X156464619Y-112876003D02*
X156417000Y-112654574D01*
X156417000Y-112654574D02*
X156369380Y-112580765D01*
X156369380Y-112580765D02*
X156036047Y-112580765D01*
X156036047Y-112580765D02*
X156036047Y-112876003D01*
X156464619Y-111916479D02*
X155464619Y-111916479D01*
X155464619Y-111916479D02*
X156464619Y-111030765D01*
X156464619Y-111030765D02*
X155464619Y-111030765D01*
X156464619Y-110292669D02*
X155464619Y-110292669D01*
X155464619Y-110292669D02*
X155464619Y-109923621D01*
X155464619Y-109923621D02*
X155512238Y-109702193D01*
X155512238Y-109702193D02*
X155607476Y-109554574D01*
X155607476Y-109554574D02*
X155702714Y-109480764D01*
X155702714Y-109480764D02*
X155893190Y-109406955D01*
X155893190Y-109406955D02*
X156036047Y-109406955D01*
X156036047Y-109406955D02*
X156226523Y-109480764D01*
X156226523Y-109480764D02*
X156321761Y-109554574D01*
X156321761Y-109554574D02*
X156417000Y-109702193D01*
X156417000Y-109702193D02*
X156464619Y-109923621D01*
X156464619Y-109923621D02*
X156464619Y-110292669D01*
D13*
X164991004Y-88940476D02*
X164371957Y-89373809D01*
X164991004Y-89683333D02*
X163691004Y-89683333D01*
X163691004Y-89683333D02*
X163691004Y-89188095D01*
X163691004Y-89188095D02*
X163752909Y-89064285D01*
X163752909Y-89064285D02*
X163814814Y-89002380D01*
X163814814Y-89002380D02*
X163938623Y-88940476D01*
X163938623Y-88940476D02*
X164124338Y-88940476D01*
X164124338Y-88940476D02*
X164248147Y-89002380D01*
X164248147Y-89002380D02*
X164310052Y-89064285D01*
X164310052Y-89064285D02*
X164371957Y-89188095D01*
X164371957Y-89188095D02*
X164371957Y-89683333D01*
X164310052Y-88383333D02*
X164310052Y-87949999D01*
X164991004Y-87764285D02*
X164991004Y-88383333D01*
X164991004Y-88383333D02*
X163691004Y-88383333D01*
X163691004Y-88383333D02*
X163691004Y-87764285D01*
X164991004Y-87207143D02*
X163691004Y-87207143D01*
X163691004Y-87207143D02*
X163691004Y-86897619D01*
X163691004Y-86897619D02*
X163752909Y-86711905D01*
X163752909Y-86711905D02*
X163876719Y-86588095D01*
X163876719Y-86588095D02*
X164000528Y-86526190D01*
X164000528Y-86526190D02*
X164248147Y-86464286D01*
X164248147Y-86464286D02*
X164433861Y-86464286D01*
X164433861Y-86464286D02*
X164681480Y-86526190D01*
X164681480Y-86526190D02*
X164805290Y-86588095D01*
X164805290Y-86588095D02*
X164929100Y-86711905D01*
X164929100Y-86711905D02*
X164991004Y-86897619D01*
X164991004Y-86897619D02*
X164991004Y-87207143D01*
X164495766Y-85907143D02*
X164495766Y-84916667D01*
D14*
X167698733Y-91033332D02*
X167698733Y-89966666D01*
X168232066Y-90499999D02*
X167165400Y-90499999D01*
X167698733Y-88233332D02*
X167698733Y-87166666D01*
D15*
X162054819Y-103219047D02*
X161578628Y-103552380D01*
X162054819Y-103790475D02*
X161054819Y-103790475D01*
X161054819Y-103790475D02*
X161054819Y-103409523D01*
X161054819Y-103409523D02*
X161102438Y-103314285D01*
X161102438Y-103314285D02*
X161150057Y-103266666D01*
X161150057Y-103266666D02*
X161245295Y-103219047D01*
X161245295Y-103219047D02*
X161388152Y-103219047D01*
X161388152Y-103219047D02*
X161483390Y-103266666D01*
X161483390Y-103266666D02*
X161531009Y-103314285D01*
X161531009Y-103314285D02*
X161578628Y-103409523D01*
X161578628Y-103409523D02*
X161578628Y-103790475D01*
X162054819Y-102266666D02*
X162054819Y-102838094D01*
X162054819Y-102552380D02*
X161054819Y-102552380D01*
X161054819Y-102552380D02*
X161197676Y-102647618D01*
X161197676Y-102647618D02*
X161292914Y-102742856D01*
X161292914Y-102742856D02*
X161340533Y-102838094D01*
X161054819Y-101647618D02*
X161054819Y-101552380D01*
X161054819Y-101552380D02*
X161102438Y-101457142D01*
X161102438Y-101457142D02*
X161150057Y-101409523D01*
X161150057Y-101409523D02*
X161245295Y-101361904D01*
X161245295Y-101361904D02*
X161435771Y-101314285D01*
X161435771Y-101314285D02*
X161673866Y-101314285D01*
X161673866Y-101314285D02*
X161864342Y-101361904D01*
X161864342Y-101361904D02*
X161959580Y-101409523D01*
X161959580Y-101409523D02*
X162007200Y-101457142D01*
X162007200Y-101457142D02*
X162054819Y-101552380D01*
X162054819Y-101552380D02*
X162054819Y-101647618D01*
X162054819Y-101647618D02*
X162007200Y-101742856D01*
X162007200Y-101742856D02*
X161959580Y-101790475D01*
X161959580Y-101790475D02*
X161864342Y-101838094D01*
X161864342Y-101838094D02*
X161673866Y-101885713D01*
X161673866Y-101885713D02*
X161435771Y-101885713D01*
X161435771Y-101885713D02*
X161245295Y-101838094D01*
X161245295Y-101838094D02*
X161150057Y-101790475D01*
X161150057Y-101790475D02*
X161102438Y-101742856D01*
X161102438Y-101742856D02*
X161054819Y-101647618D01*
X161150057Y-100933332D02*
X161102438Y-100885713D01*
X161102438Y-100885713D02*
X161054819Y-100790475D01*
X161054819Y-100790475D02*
X161054819Y-100552380D01*
X161054819Y-100552380D02*
X161102438Y-100457142D01*
X161102438Y-100457142D02*
X161150057Y-100409523D01*
X161150057Y-100409523D02*
X161245295Y-100361904D01*
X161245295Y-100361904D02*
X161340533Y-100361904D01*
X161340533Y-100361904D02*
X161483390Y-100409523D01*
X161483390Y-100409523D02*
X162054819Y-100980951D01*
X162054819Y-100980951D02*
X162054819Y-100361904D01*
X167954819Y-94619047D02*
X167478628Y-94952380D01*
X167954819Y-95190475D02*
X166954819Y-95190475D01*
X166954819Y-95190475D02*
X166954819Y-94809523D01*
X166954819Y-94809523D02*
X167002438Y-94714285D01*
X167002438Y-94714285D02*
X167050057Y-94666666D01*
X167050057Y-94666666D02*
X167145295Y-94619047D01*
X167145295Y-94619047D02*
X167288152Y-94619047D01*
X167288152Y-94619047D02*
X167383390Y-94666666D01*
X167383390Y-94666666D02*
X167431009Y-94714285D01*
X167431009Y-94714285D02*
X167478628Y-94809523D01*
X167478628Y-94809523D02*
X167478628Y-95190475D01*
X167954819Y-93666666D02*
X167954819Y-94238094D01*
X167954819Y-93952380D02*
X166954819Y-93952380D01*
X166954819Y-93952380D02*
X167097676Y-94047618D01*
X167097676Y-94047618D02*
X167192914Y-94142856D01*
X167192914Y-94142856D02*
X167240533Y-94238094D01*
X166954819Y-93047618D02*
X166954819Y-92952380D01*
X166954819Y-92952380D02*
X167002438Y-92857142D01*
X167002438Y-92857142D02*
X167050057Y-92809523D01*
X167050057Y-92809523D02*
X167145295Y-92761904D01*
X167145295Y-92761904D02*
X167335771Y-92714285D01*
X167335771Y-92714285D02*
X167573866Y-92714285D01*
X167573866Y-92714285D02*
X167764342Y-92761904D01*
X167764342Y-92761904D02*
X167859580Y-92809523D01*
X167859580Y-92809523D02*
X167907200Y-92857142D01*
X167907200Y-92857142D02*
X167954819Y-92952380D01*
X167954819Y-92952380D02*
X167954819Y-93047618D01*
X167954819Y-93047618D02*
X167907200Y-93142856D01*
X167907200Y-93142856D02*
X167859580Y-93190475D01*
X167859580Y-93190475D02*
X167764342Y-93238094D01*
X167764342Y-93238094D02*
X167573866Y-93285713D01*
X167573866Y-93285713D02*
X167335771Y-93285713D01*
X167335771Y-93285713D02*
X167145295Y-93238094D01*
X167145295Y-93238094D02*
X167050057Y-93190475D01*
X167050057Y-93190475D02*
X167002438Y-93142856D01*
X167002438Y-93142856D02*
X166954819Y-93047618D01*
X167954819Y-91761904D02*
X167954819Y-92333332D01*
X167954819Y-92047618D02*
X166954819Y-92047618D01*
X166954819Y-92047618D02*
X167097676Y-92142856D01*
X167097676Y-92142856D02*
X167192914Y-92238094D01*
X167192914Y-92238094D02*
X167240533Y-92333332D01*
X167859580Y-98919047D02*
X167907200Y-98966666D01*
X167907200Y-98966666D02*
X167954819Y-99109523D01*
X167954819Y-99109523D02*
X167954819Y-99204761D01*
X167954819Y-99204761D02*
X167907200Y-99347618D01*
X167907200Y-99347618D02*
X167811961Y-99442856D01*
X167811961Y-99442856D02*
X167716723Y-99490475D01*
X167716723Y-99490475D02*
X167526247Y-99538094D01*
X167526247Y-99538094D02*
X167383390Y-99538094D01*
X167383390Y-99538094D02*
X167192914Y-99490475D01*
X167192914Y-99490475D02*
X167097676Y-99442856D01*
X167097676Y-99442856D02*
X167002438Y-99347618D01*
X167002438Y-99347618D02*
X166954819Y-99204761D01*
X166954819Y-99204761D02*
X166954819Y-99109523D01*
X166954819Y-99109523D02*
X167002438Y-98966666D01*
X167002438Y-98966666D02*
X167050057Y-98919047D01*
X167954819Y-97966666D02*
X167954819Y-98538094D01*
X167954819Y-98252380D02*
X166954819Y-98252380D01*
X166954819Y-98252380D02*
X167097676Y-98347618D01*
X167097676Y-98347618D02*
X167192914Y-98442856D01*
X167192914Y-98442856D02*
X167240533Y-98538094D01*
X166954819Y-97347618D02*
X166954819Y-97252380D01*
X166954819Y-97252380D02*
X167002438Y-97157142D01*
X167002438Y-97157142D02*
X167050057Y-97109523D01*
X167050057Y-97109523D02*
X167145295Y-97061904D01*
X167145295Y-97061904D02*
X167335771Y-97014285D01*
X167335771Y-97014285D02*
X167573866Y-97014285D01*
X167573866Y-97014285D02*
X167764342Y-97061904D01*
X167764342Y-97061904D02*
X167859580Y-97109523D01*
X167859580Y-97109523D02*
X167907200Y-97157142D01*
X167907200Y-97157142D02*
X167954819Y-97252380D01*
X167954819Y-97252380D02*
X167954819Y-97347618D01*
X167954819Y-97347618D02*
X167907200Y-97442856D01*
X167907200Y-97442856D02*
X167859580Y-97490475D01*
X167859580Y-97490475D02*
X167764342Y-97538094D01*
X167764342Y-97538094D02*
X167573866Y-97585713D01*
X167573866Y-97585713D02*
X167335771Y-97585713D01*
X167335771Y-97585713D02*
X167145295Y-97538094D01*
X167145295Y-97538094D02*
X167050057Y-97490475D01*
X167050057Y-97490475D02*
X167002438Y-97442856D01*
X167002438Y-97442856D02*
X166954819Y-97347618D01*
X167954819Y-96061904D02*
X167954819Y-96633332D01*
X167954819Y-96347618D02*
X166954819Y-96347618D01*
X166954819Y-96347618D02*
X167097676Y-96442856D01*
X167097676Y-96442856D02*
X167192914Y-96538094D01*
X167192914Y-96538094D02*
X167240533Y-96633332D01*
X160185714Y-94754819D02*
X160185714Y-95564342D01*
X160185714Y-95564342D02*
X160233333Y-95659580D01*
X160233333Y-95659580D02*
X160280952Y-95707200D01*
X160280952Y-95707200D02*
X160376190Y-95754819D01*
X160376190Y-95754819D02*
X160566666Y-95754819D01*
X160566666Y-95754819D02*
X160661904Y-95707200D01*
X160661904Y-95707200D02*
X160709523Y-95659580D01*
X160709523Y-95659580D02*
X160757142Y-95564342D01*
X160757142Y-95564342D02*
X160757142Y-94754819D01*
X161757142Y-95754819D02*
X161185714Y-95754819D01*
X161471428Y-95754819D02*
X161471428Y-94754819D01*
X161471428Y-94754819D02*
X161376190Y-94897676D01*
X161376190Y-94897676D02*
X161280952Y-94992914D01*
X161280952Y-94992914D02*
X161185714Y-95040533D01*
X162376190Y-94754819D02*
X162471428Y-94754819D01*
X162471428Y-94754819D02*
X162566666Y-94802438D01*
X162566666Y-94802438D02*
X162614285Y-94850057D01*
X162614285Y-94850057D02*
X162661904Y-94945295D01*
X162661904Y-94945295D02*
X162709523Y-95135771D01*
X162709523Y-95135771D02*
X162709523Y-95373866D01*
X162709523Y-95373866D02*
X162661904Y-95564342D01*
X162661904Y-95564342D02*
X162614285Y-95659580D01*
X162614285Y-95659580D02*
X162566666Y-95707200D01*
X162566666Y-95707200D02*
X162471428Y-95754819D01*
X162471428Y-95754819D02*
X162376190Y-95754819D01*
X162376190Y-95754819D02*
X162280952Y-95707200D01*
X162280952Y-95707200D02*
X162233333Y-95659580D01*
X162233333Y-95659580D02*
X162185714Y-95564342D01*
X162185714Y-95564342D02*
X162138095Y-95373866D01*
X162138095Y-95373866D02*
X162138095Y-95135771D01*
X162138095Y-95135771D02*
X162185714Y-94945295D01*
X162185714Y-94945295D02*
X162233333Y-94850057D01*
X162233333Y-94850057D02*
X162280952Y-94802438D01*
X162280952Y-94802438D02*
X162376190Y-94754819D01*
X163661904Y-95754819D02*
X163090476Y-95754819D01*
X163376190Y-95754819D02*
X163376190Y-94754819D01*
X163376190Y-94754819D02*
X163280952Y-94897676D01*
X163280952Y-94897676D02*
X163185714Y-94992914D01*
X163185714Y-94992914D02*
X163090476Y-95040533D01*
X168054819Y-103790475D02*
X167054819Y-103790475D01*
X167054819Y-103790475D02*
X167054819Y-103552380D01*
X167054819Y-103552380D02*
X167102438Y-103409523D01*
X167102438Y-103409523D02*
X167197676Y-103314285D01*
X167197676Y-103314285D02*
X167292914Y-103266666D01*
X167292914Y-103266666D02*
X167483390Y-103219047D01*
X167483390Y-103219047D02*
X167626247Y-103219047D01*
X167626247Y-103219047D02*
X167816723Y-103266666D01*
X167816723Y-103266666D02*
X167911961Y-103314285D01*
X167911961Y-103314285D02*
X168007200Y-103409523D01*
X168007200Y-103409523D02*
X168054819Y-103552380D01*
X168054819Y-103552380D02*
X168054819Y-103790475D01*
X168054819Y-102266666D02*
X168054819Y-102838094D01*
X168054819Y-102552380D02*
X167054819Y-102552380D01*
X167054819Y-102552380D02*
X167197676Y-102647618D01*
X167197676Y-102647618D02*
X167292914Y-102742856D01*
X167292914Y-102742856D02*
X167340533Y-102838094D01*
X167054819Y-101647618D02*
X167054819Y-101552380D01*
X167054819Y-101552380D02*
X167102438Y-101457142D01*
X167102438Y-101457142D02*
X167150057Y-101409523D01*
X167150057Y-101409523D02*
X167245295Y-101361904D01*
X167245295Y-101361904D02*
X167435771Y-101314285D01*
X167435771Y-101314285D02*
X167673866Y-101314285D01*
X167673866Y-101314285D02*
X167864342Y-101361904D01*
X167864342Y-101361904D02*
X167959580Y-101409523D01*
X167959580Y-101409523D02*
X168007200Y-101457142D01*
X168007200Y-101457142D02*
X168054819Y-101552380D01*
X168054819Y-101552380D02*
X168054819Y-101647618D01*
X168054819Y-101647618D02*
X168007200Y-101742856D01*
X168007200Y-101742856D02*
X167959580Y-101790475D01*
X167959580Y-101790475D02*
X167864342Y-101838094D01*
X167864342Y-101838094D02*
X167673866Y-101885713D01*
X167673866Y-101885713D02*
X167435771Y-101885713D01*
X167435771Y-101885713D02*
X167245295Y-101838094D01*
X167245295Y-101838094D02*
X167150057Y-101790475D01*
X167150057Y-101790475D02*
X167102438Y-101742856D01*
X167102438Y-101742856D02*
X167054819Y-101647618D01*
X168054819Y-100361904D02*
X168054819Y-100933332D01*
X168054819Y-100647618D02*
X167054819Y-100647618D01*
X167054819Y-100647618D02*
X167197676Y-100742856D01*
X167197676Y-100742856D02*
X167292914Y-100838094D01*
X167292914Y-100838094D02*
X167340533Y-100933332D01*
X156679580Y-98919047D02*
X156727200Y-98966666D01*
X156727200Y-98966666D02*
X156774819Y-99109523D01*
X156774819Y-99109523D02*
X156774819Y-99204761D01*
X156774819Y-99204761D02*
X156727200Y-99347618D01*
X156727200Y-99347618D02*
X156631961Y-99442856D01*
X156631961Y-99442856D02*
X156536723Y-99490475D01*
X156536723Y-99490475D02*
X156346247Y-99538094D01*
X156346247Y-99538094D02*
X156203390Y-99538094D01*
X156203390Y-99538094D02*
X156012914Y-99490475D01*
X156012914Y-99490475D02*
X155917676Y-99442856D01*
X155917676Y-99442856D02*
X155822438Y-99347618D01*
X155822438Y-99347618D02*
X155774819Y-99204761D01*
X155774819Y-99204761D02*
X155774819Y-99109523D01*
X155774819Y-99109523D02*
X155822438Y-98966666D01*
X155822438Y-98966666D02*
X155870057Y-98919047D01*
X156774819Y-97966666D02*
X156774819Y-98538094D01*
X156774819Y-98252380D02*
X155774819Y-98252380D01*
X155774819Y-98252380D02*
X155917676Y-98347618D01*
X155917676Y-98347618D02*
X156012914Y-98442856D01*
X156012914Y-98442856D02*
X156060533Y-98538094D01*
X155774819Y-97347618D02*
X155774819Y-97252380D01*
X155774819Y-97252380D02*
X155822438Y-97157142D01*
X155822438Y-97157142D02*
X155870057Y-97109523D01*
X155870057Y-97109523D02*
X155965295Y-97061904D01*
X155965295Y-97061904D02*
X156155771Y-97014285D01*
X156155771Y-97014285D02*
X156393866Y-97014285D01*
X156393866Y-97014285D02*
X156584342Y-97061904D01*
X156584342Y-97061904D02*
X156679580Y-97109523D01*
X156679580Y-97109523D02*
X156727200Y-97157142D01*
X156727200Y-97157142D02*
X156774819Y-97252380D01*
X156774819Y-97252380D02*
X156774819Y-97347618D01*
X156774819Y-97347618D02*
X156727200Y-97442856D01*
X156727200Y-97442856D02*
X156679580Y-97490475D01*
X156679580Y-97490475D02*
X156584342Y-97538094D01*
X156584342Y-97538094D02*
X156393866Y-97585713D01*
X156393866Y-97585713D02*
X156155771Y-97585713D01*
X156155771Y-97585713D02*
X155965295Y-97538094D01*
X155965295Y-97538094D02*
X155870057Y-97490475D01*
X155870057Y-97490475D02*
X155822438Y-97442856D01*
X155822438Y-97442856D02*
X155774819Y-97347618D01*
X155870057Y-96633332D02*
X155822438Y-96585713D01*
X155822438Y-96585713D02*
X155774819Y-96490475D01*
X155774819Y-96490475D02*
X155774819Y-96252380D01*
X155774819Y-96252380D02*
X155822438Y-96157142D01*
X155822438Y-96157142D02*
X155870057Y-96109523D01*
X155870057Y-96109523D02*
X155965295Y-96061904D01*
X155965295Y-96061904D02*
X156060533Y-96061904D01*
X156060533Y-96061904D02*
X156203390Y-96109523D01*
X156203390Y-96109523D02*
X156774819Y-96680951D01*
X156774819Y-96680951D02*
X156774819Y-96061904D01*
D16*
%TO.C,J103*%
X156345000Y-93805000D02*
X156345000Y-92475000D01*
X157675000Y-93805000D02*
X156345000Y-93805000D01*
X158945000Y-93805000D02*
X164085000Y-93805000D01*
X158945000Y-93805000D02*
X158945000Y-91145000D01*
X164085000Y-93805000D02*
X164085000Y-91145000D01*
X158945000Y-91145000D02*
X164085000Y-91145000D01*
%TO.C,R102*%
X164035000Y-101872936D02*
X164035000Y-102327064D01*
X162565000Y-101872936D02*
X162565000Y-102327064D01*
%TO.C,R101*%
X165065000Y-93727064D02*
X165065000Y-93272936D01*
X166535000Y-93727064D02*
X166535000Y-93272936D01*
%TO.C,J102*%
X173860000Y-85740000D02*
X172610000Y-85740000D01*
X173560000Y-86040000D02*
X168840000Y-86040000D01*
X172250000Y-86040000D02*
X172250000Y-86650000D01*
X170950000Y-86040000D02*
X170950000Y-86650000D01*
X168840000Y-86040000D02*
X168840000Y-92160000D01*
X172950000Y-86650000D02*
X169450000Y-86650000D01*
X169450000Y-86650000D02*
X169450000Y-91550000D01*
X173860000Y-86990000D02*
X173860000Y-85740000D01*
X173760000Y-87500000D02*
X173560000Y-87500000D01*
X173760000Y-87800000D02*
X173760000Y-87500000D01*
X173660000Y-87800000D02*
X173660000Y-87500000D01*
X173560000Y-87800000D02*
X173760000Y-87800000D01*
X173560000Y-88600000D02*
X172950000Y-88600000D01*
X172950000Y-88600000D02*
X172950000Y-86650000D01*
X169950000Y-89000000D02*
X169950000Y-89200000D01*
X169450000Y-89000000D02*
X169950000Y-89000000D01*
X169450000Y-89100000D02*
X169950000Y-89100000D01*
X169950000Y-89200000D02*
X169450000Y-89200000D01*
X172950000Y-89600000D02*
X173560000Y-89600000D01*
X172950000Y-91550000D02*
X172950000Y-89600000D01*
X169450000Y-91550000D02*
X172950000Y-91550000D01*
X173560000Y-92160000D02*
X173560000Y-86040000D01*
X172250000Y-92160000D02*
X172250000Y-91550000D01*
X170950000Y-92160000D02*
X170950000Y-91550000D01*
X168840000Y-92160000D02*
X173560000Y-92160000D01*
%TO.C,C101*%
X165065000Y-98061252D02*
X165065000Y-97538748D01*
X166535000Y-98061252D02*
X166535000Y-97538748D01*
%TO.C,U101*%
X161000000Y-99410000D02*
X162800000Y-99410000D01*
X162800000Y-96190000D02*
X160350000Y-96190000D01*
%TO.C,J202*%
X157320000Y-115805000D02*
X157320000Y-114475000D01*
X158650000Y-115805000D02*
X157320000Y-115805000D01*
%TO.C,D101*%
X164840000Y-103960000D02*
X166760000Y-103960000D01*
X166760000Y-103960000D02*
X166760000Y-101100000D01*
X164840000Y-101100000D02*
X164840000Y-103960000D01*
%TO.C,C102*%
X157265000Y-98061252D02*
X157265000Y-97538748D01*
X158735000Y-98061252D02*
X158735000Y-97538748D01*
%TO.C,J101*%
X169075000Y-102350000D02*
X172625000Y-102350000D01*
X172625000Y-102350000D02*
X172625000Y-99450000D01*
X169075000Y-100200000D02*
X169075000Y-102350000D01*
X169075000Y-99900000D02*
X169075000Y-99300000D01*
X169825000Y-99900000D02*
X169075000Y-99900000D01*
X169075000Y-96200000D02*
X169075000Y-94050000D01*
X169075000Y-94050000D02*
X172625000Y-94050000D01*
X172625000Y-94050000D02*
X172625000Y-96950000D01*
%TD*%
D13*
X206995858Y-143226028D02*
X206995858Y-141726028D01*
X206995858Y-141726028D02*
X207853001Y-143226028D01*
X207853001Y-143226028D02*
X207853001Y-141726028D01*
X208781573Y-143226028D02*
X208638716Y-143154600D01*
X208638716Y-143154600D02*
X208567287Y-143083171D01*
X208567287Y-143083171D02*
X208495859Y-142940314D01*
X208495859Y-142940314D02*
X208495859Y-142511742D01*
X208495859Y-142511742D02*
X208567287Y-142368885D01*
X208567287Y-142368885D02*
X208638716Y-142297457D01*
X208638716Y-142297457D02*
X208781573Y-142226028D01*
X208781573Y-142226028D02*
X208995859Y-142226028D01*
X208995859Y-142226028D02*
X209138716Y-142297457D01*
X209138716Y-142297457D02*
X209210145Y-142368885D01*
X209210145Y-142368885D02*
X209281573Y-142511742D01*
X209281573Y-142511742D02*
X209281573Y-142940314D01*
X209281573Y-142940314D02*
X209210145Y-143083171D01*
X209210145Y-143083171D02*
X209138716Y-143154600D01*
X209138716Y-143154600D02*
X208995859Y-143226028D01*
X208995859Y-143226028D02*
X208781573Y-143226028D01*
X207281573Y-137769028D02*
X207424430Y-137769028D01*
X207424430Y-137769028D02*
X207567287Y-137840457D01*
X207567287Y-137840457D02*
X207638716Y-137911885D01*
X207638716Y-137911885D02*
X207710144Y-138054742D01*
X207710144Y-138054742D02*
X207781573Y-138340457D01*
X207781573Y-138340457D02*
X207781573Y-138697600D01*
X207781573Y-138697600D02*
X207710144Y-138983314D01*
X207710144Y-138983314D02*
X207638716Y-139126171D01*
X207638716Y-139126171D02*
X207567287Y-139197600D01*
X207567287Y-139197600D02*
X207424430Y-139269028D01*
X207424430Y-139269028D02*
X207281573Y-139269028D01*
X207281573Y-139269028D02*
X207138716Y-139197600D01*
X207138716Y-139197600D02*
X207067287Y-139126171D01*
X207067287Y-139126171D02*
X206995858Y-138983314D01*
X206995858Y-138983314D02*
X206924430Y-138697600D01*
X206924430Y-138697600D02*
X206924430Y-138340457D01*
X206924430Y-138340457D02*
X206995858Y-138054742D01*
X206995858Y-138054742D02*
X207067287Y-137911885D01*
X207067287Y-137911885D02*
X207138716Y-137840457D01*
X207138716Y-137840457D02*
X207281573Y-137769028D01*
X208424429Y-139126171D02*
X208495858Y-139197600D01*
X208495858Y-139197600D02*
X208424429Y-139269028D01*
X208424429Y-139269028D02*
X208353001Y-139197600D01*
X208353001Y-139197600D02*
X208424429Y-139126171D01*
X208424429Y-139126171D02*
X208424429Y-139269028D01*
X208995858Y-137769028D02*
X209924430Y-137769028D01*
X209924430Y-137769028D02*
X209424430Y-138340457D01*
X209424430Y-138340457D02*
X209638715Y-138340457D01*
X209638715Y-138340457D02*
X209781573Y-138411885D01*
X209781573Y-138411885D02*
X209853001Y-138483314D01*
X209853001Y-138483314D02*
X209924430Y-138626171D01*
X209924430Y-138626171D02*
X209924430Y-138983314D01*
X209924430Y-138983314D02*
X209853001Y-139126171D01*
X209853001Y-139126171D02*
X209781573Y-139197600D01*
X209781573Y-139197600D02*
X209638715Y-139269028D01*
X209638715Y-139269028D02*
X209210144Y-139269028D01*
X209210144Y-139269028D02*
X209067287Y-139197600D01*
X209067287Y-139197600D02*
X208995858Y-139126171D01*
X210853001Y-137769028D02*
X210995858Y-137769028D01*
X210995858Y-137769028D02*
X211138715Y-137840457D01*
X211138715Y-137840457D02*
X211210144Y-137911885D01*
X211210144Y-137911885D02*
X211281572Y-138054742D01*
X211281572Y-138054742D02*
X211353001Y-138340457D01*
X211353001Y-138340457D02*
X211353001Y-138697600D01*
X211353001Y-138697600D02*
X211281572Y-138983314D01*
X211281572Y-138983314D02*
X211210144Y-139126171D01*
X211210144Y-139126171D02*
X211138715Y-139197600D01*
X211138715Y-139197600D02*
X210995858Y-139269028D01*
X210995858Y-139269028D02*
X210853001Y-139269028D01*
X210853001Y-139269028D02*
X210710144Y-139197600D01*
X210710144Y-139197600D02*
X210638715Y-139126171D01*
X210638715Y-139126171D02*
X210567286Y-138983314D01*
X210567286Y-138983314D02*
X210495858Y-138697600D01*
X210495858Y-138697600D02*
X210495858Y-138340457D01*
X210495858Y-138340457D02*
X210567286Y-138054742D01*
X210567286Y-138054742D02*
X210638715Y-137911885D01*
X210638715Y-137911885D02*
X210710144Y-137840457D01*
X210710144Y-137840457D02*
X210853001Y-137769028D01*
X212281572Y-137769028D02*
X212424429Y-137769028D01*
X212424429Y-137769028D02*
X212567286Y-137840457D01*
X212567286Y-137840457D02*
X212638715Y-137911885D01*
X212638715Y-137911885D02*
X212710143Y-138054742D01*
X212710143Y-138054742D02*
X212781572Y-138340457D01*
X212781572Y-138340457D02*
X212781572Y-138697600D01*
X212781572Y-138697600D02*
X212710143Y-138983314D01*
X212710143Y-138983314D02*
X212638715Y-139126171D01*
X212638715Y-139126171D02*
X212567286Y-139197600D01*
X212567286Y-139197600D02*
X212424429Y-139269028D01*
X212424429Y-139269028D02*
X212281572Y-139269028D01*
X212281572Y-139269028D02*
X212138715Y-139197600D01*
X212138715Y-139197600D02*
X212067286Y-139126171D01*
X212067286Y-139126171D02*
X211995857Y-138983314D01*
X211995857Y-138983314D02*
X211924429Y-138697600D01*
X211924429Y-138697600D02*
X211924429Y-138340457D01*
X211924429Y-138340457D02*
X211995857Y-138054742D01*
X211995857Y-138054742D02*
X212067286Y-137911885D01*
X212067286Y-137911885D02*
X212138715Y-137840457D01*
X212138715Y-137840457D02*
X212281572Y-137769028D01*
X213710143Y-137769028D02*
X213853000Y-137769028D01*
X213853000Y-137769028D02*
X213995857Y-137840457D01*
X213995857Y-137840457D02*
X214067286Y-137911885D01*
X214067286Y-137911885D02*
X214138714Y-138054742D01*
X214138714Y-138054742D02*
X214210143Y-138340457D01*
X214210143Y-138340457D02*
X214210143Y-138697600D01*
X214210143Y-138697600D02*
X214138714Y-138983314D01*
X214138714Y-138983314D02*
X214067286Y-139126171D01*
X214067286Y-139126171D02*
X213995857Y-139197600D01*
X213995857Y-139197600D02*
X213853000Y-139269028D01*
X213853000Y-139269028D02*
X213710143Y-139269028D01*
X213710143Y-139269028D02*
X213567286Y-139197600D01*
X213567286Y-139197600D02*
X213495857Y-139126171D01*
X213495857Y-139126171D02*
X213424428Y-138983314D01*
X213424428Y-138983314D02*
X213353000Y-138697600D01*
X213353000Y-138697600D02*
X213353000Y-138340457D01*
X213353000Y-138340457D02*
X213424428Y-138054742D01*
X213424428Y-138054742D02*
X213495857Y-137911885D01*
X213495857Y-137911885D02*
X213567286Y-137840457D01*
X213567286Y-137840457D02*
X213710143Y-137769028D01*
X215995856Y-139269028D02*
X215995856Y-138269028D01*
X215995856Y-138411885D02*
X216067285Y-138340457D01*
X216067285Y-138340457D02*
X216210142Y-138269028D01*
X216210142Y-138269028D02*
X216424428Y-138269028D01*
X216424428Y-138269028D02*
X216567285Y-138340457D01*
X216567285Y-138340457D02*
X216638714Y-138483314D01*
X216638714Y-138483314D02*
X216638714Y-139269028D01*
X216638714Y-138483314D02*
X216710142Y-138340457D01*
X216710142Y-138340457D02*
X216852999Y-138269028D01*
X216852999Y-138269028D02*
X217067285Y-138269028D01*
X217067285Y-138269028D02*
X217210142Y-138340457D01*
X217210142Y-138340457D02*
X217281571Y-138483314D01*
X217281571Y-138483314D02*
X217281571Y-139269028D01*
X217995856Y-139269028D02*
X217995856Y-138269028D01*
X217995856Y-138411885D02*
X218067285Y-138340457D01*
X218067285Y-138340457D02*
X218210142Y-138269028D01*
X218210142Y-138269028D02*
X218424428Y-138269028D01*
X218424428Y-138269028D02*
X218567285Y-138340457D01*
X218567285Y-138340457D02*
X218638714Y-138483314D01*
X218638714Y-138483314D02*
X218638714Y-139269028D01*
X218638714Y-138483314D02*
X218710142Y-138340457D01*
X218710142Y-138340457D02*
X218852999Y-138269028D01*
X218852999Y-138269028D02*
X219067285Y-138269028D01*
X219067285Y-138269028D02*
X219210142Y-138340457D01*
X219210142Y-138340457D02*
X219281571Y-138483314D01*
X219281571Y-138483314D02*
X219281571Y-139269028D01*
X207781573Y-131355028D02*
X206924430Y-131355028D01*
X207353001Y-131355028D02*
X207353001Y-129855028D01*
X207353001Y-129855028D02*
X207210144Y-130069314D01*
X207210144Y-130069314D02*
X207067287Y-130212171D01*
X207067287Y-130212171D02*
X206924430Y-130283600D01*
X208424429Y-131212171D02*
X208495858Y-131283600D01*
X208495858Y-131283600D02*
X208424429Y-131355028D01*
X208424429Y-131355028D02*
X208353001Y-131283600D01*
X208353001Y-131283600D02*
X208424429Y-131212171D01*
X208424429Y-131212171D02*
X208424429Y-131355028D01*
X209781573Y-129855028D02*
X209495858Y-129855028D01*
X209495858Y-129855028D02*
X209353001Y-129926457D01*
X209353001Y-129926457D02*
X209281573Y-129997885D01*
X209281573Y-129997885D02*
X209138715Y-130212171D01*
X209138715Y-130212171D02*
X209067287Y-130497885D01*
X209067287Y-130497885D02*
X209067287Y-131069314D01*
X209067287Y-131069314D02*
X209138715Y-131212171D01*
X209138715Y-131212171D02*
X209210144Y-131283600D01*
X209210144Y-131283600D02*
X209353001Y-131355028D01*
X209353001Y-131355028D02*
X209638715Y-131355028D01*
X209638715Y-131355028D02*
X209781573Y-131283600D01*
X209781573Y-131283600D02*
X209853001Y-131212171D01*
X209853001Y-131212171D02*
X209924430Y-131069314D01*
X209924430Y-131069314D02*
X209924430Y-130712171D01*
X209924430Y-130712171D02*
X209853001Y-130569314D01*
X209853001Y-130569314D02*
X209781573Y-130497885D01*
X209781573Y-130497885D02*
X209638715Y-130426457D01*
X209638715Y-130426457D02*
X209353001Y-130426457D01*
X209353001Y-130426457D02*
X209210144Y-130497885D01*
X209210144Y-130497885D02*
X209138715Y-130569314D01*
X209138715Y-130569314D02*
X209067287Y-130712171D01*
X210853001Y-129855028D02*
X210995858Y-129855028D01*
X210995858Y-129855028D02*
X211138715Y-129926457D01*
X211138715Y-129926457D02*
X211210144Y-129997885D01*
X211210144Y-129997885D02*
X211281572Y-130140742D01*
X211281572Y-130140742D02*
X211353001Y-130426457D01*
X211353001Y-130426457D02*
X211353001Y-130783600D01*
X211353001Y-130783600D02*
X211281572Y-131069314D01*
X211281572Y-131069314D02*
X211210144Y-131212171D01*
X211210144Y-131212171D02*
X211138715Y-131283600D01*
X211138715Y-131283600D02*
X210995858Y-131355028D01*
X210995858Y-131355028D02*
X210853001Y-131355028D01*
X210853001Y-131355028D02*
X210710144Y-131283600D01*
X210710144Y-131283600D02*
X210638715Y-131212171D01*
X210638715Y-131212171D02*
X210567286Y-131069314D01*
X210567286Y-131069314D02*
X210495858Y-130783600D01*
X210495858Y-130783600D02*
X210495858Y-130426457D01*
X210495858Y-130426457D02*
X210567286Y-130140742D01*
X210567286Y-130140742D02*
X210638715Y-129997885D01*
X210638715Y-129997885D02*
X210710144Y-129926457D01*
X210710144Y-129926457D02*
X210853001Y-129855028D01*
X212281572Y-129855028D02*
X212424429Y-129855028D01*
X212424429Y-129855028D02*
X212567286Y-129926457D01*
X212567286Y-129926457D02*
X212638715Y-129997885D01*
X212638715Y-129997885D02*
X212710143Y-130140742D01*
X212710143Y-130140742D02*
X212781572Y-130426457D01*
X212781572Y-130426457D02*
X212781572Y-130783600D01*
X212781572Y-130783600D02*
X212710143Y-131069314D01*
X212710143Y-131069314D02*
X212638715Y-131212171D01*
X212638715Y-131212171D02*
X212567286Y-131283600D01*
X212567286Y-131283600D02*
X212424429Y-131355028D01*
X212424429Y-131355028D02*
X212281572Y-131355028D01*
X212281572Y-131355028D02*
X212138715Y-131283600D01*
X212138715Y-131283600D02*
X212067286Y-131212171D01*
X212067286Y-131212171D02*
X211995857Y-131069314D01*
X211995857Y-131069314D02*
X211924429Y-130783600D01*
X211924429Y-130783600D02*
X211924429Y-130426457D01*
X211924429Y-130426457D02*
X211995857Y-130140742D01*
X211995857Y-130140742D02*
X212067286Y-129997885D01*
X212067286Y-129997885D02*
X212138715Y-129926457D01*
X212138715Y-129926457D02*
X212281572Y-129855028D01*
X213710143Y-129855028D02*
X213853000Y-129855028D01*
X213853000Y-129855028D02*
X213995857Y-129926457D01*
X213995857Y-129926457D02*
X214067286Y-129997885D01*
X214067286Y-129997885D02*
X214138714Y-130140742D01*
X214138714Y-130140742D02*
X214210143Y-130426457D01*
X214210143Y-130426457D02*
X214210143Y-130783600D01*
X214210143Y-130783600D02*
X214138714Y-131069314D01*
X214138714Y-131069314D02*
X214067286Y-131212171D01*
X214067286Y-131212171D02*
X213995857Y-131283600D01*
X213995857Y-131283600D02*
X213853000Y-131355028D01*
X213853000Y-131355028D02*
X213710143Y-131355028D01*
X213710143Y-131355028D02*
X213567286Y-131283600D01*
X213567286Y-131283600D02*
X213495857Y-131212171D01*
X213495857Y-131212171D02*
X213424428Y-131069314D01*
X213424428Y-131069314D02*
X213353000Y-130783600D01*
X213353000Y-130783600D02*
X213353000Y-130426457D01*
X213353000Y-130426457D02*
X213424428Y-130140742D01*
X213424428Y-130140742D02*
X213495857Y-129997885D01*
X213495857Y-129997885D02*
X213567286Y-129926457D01*
X213567286Y-129926457D02*
X213710143Y-129855028D01*
X215995856Y-131355028D02*
X215995856Y-130355028D01*
X215995856Y-130497885D02*
X216067285Y-130426457D01*
X216067285Y-130426457D02*
X216210142Y-130355028D01*
X216210142Y-130355028D02*
X216424428Y-130355028D01*
X216424428Y-130355028D02*
X216567285Y-130426457D01*
X216567285Y-130426457D02*
X216638714Y-130569314D01*
X216638714Y-130569314D02*
X216638714Y-131355028D01*
X216638714Y-130569314D02*
X216710142Y-130426457D01*
X216710142Y-130426457D02*
X216852999Y-130355028D01*
X216852999Y-130355028D02*
X217067285Y-130355028D01*
X217067285Y-130355028D02*
X217210142Y-130426457D01*
X217210142Y-130426457D02*
X217281571Y-130569314D01*
X217281571Y-130569314D02*
X217281571Y-131355028D01*
X217995856Y-131355028D02*
X217995856Y-130355028D01*
X217995856Y-130497885D02*
X218067285Y-130426457D01*
X218067285Y-130426457D02*
X218210142Y-130355028D01*
X218210142Y-130355028D02*
X218424428Y-130355028D01*
X218424428Y-130355028D02*
X218567285Y-130426457D01*
X218567285Y-130426457D02*
X218638714Y-130569314D01*
X218638714Y-130569314D02*
X218638714Y-131355028D01*
X218638714Y-130569314D02*
X218710142Y-130426457D01*
X218710142Y-130426457D02*
X218852999Y-130355028D01*
X218852999Y-130355028D02*
X219067285Y-130355028D01*
X219067285Y-130355028D02*
X219210142Y-130426457D01*
X219210142Y-130426457D02*
X219281571Y-130569314D01*
X219281571Y-130569314D02*
X219281571Y-131355028D01*
X182053001Y-143226028D02*
X182053001Y-141726028D01*
X182767287Y-143226028D02*
X182767287Y-142226028D01*
X182767287Y-142368885D02*
X182838716Y-142297457D01*
X182838716Y-142297457D02*
X182981573Y-142226028D01*
X182981573Y-142226028D02*
X183195859Y-142226028D01*
X183195859Y-142226028D02*
X183338716Y-142297457D01*
X183338716Y-142297457D02*
X183410145Y-142440314D01*
X183410145Y-142440314D02*
X183410145Y-143226028D01*
X183410145Y-142440314D02*
X183481573Y-142297457D01*
X183481573Y-142297457D02*
X183624430Y-142226028D01*
X183624430Y-142226028D02*
X183838716Y-142226028D01*
X183838716Y-142226028D02*
X183981573Y-142297457D01*
X183981573Y-142297457D02*
X184053002Y-142440314D01*
X184053002Y-142440314D02*
X184053002Y-143226028D01*
X184767287Y-142226028D02*
X184767287Y-143726028D01*
X184767287Y-142297457D02*
X184910145Y-142226028D01*
X184910145Y-142226028D02*
X185195859Y-142226028D01*
X185195859Y-142226028D02*
X185338716Y-142297457D01*
X185338716Y-142297457D02*
X185410145Y-142368885D01*
X185410145Y-142368885D02*
X185481573Y-142511742D01*
X185481573Y-142511742D02*
X185481573Y-142940314D01*
X185481573Y-142940314D02*
X185410145Y-143083171D01*
X185410145Y-143083171D02*
X185338716Y-143154600D01*
X185338716Y-143154600D02*
X185195859Y-143226028D01*
X185195859Y-143226028D02*
X184910145Y-143226028D01*
X184910145Y-143226028D02*
X184767287Y-143154600D01*
X186695859Y-143154600D02*
X186553002Y-143226028D01*
X186553002Y-143226028D02*
X186267288Y-143226028D01*
X186267288Y-143226028D02*
X186124430Y-143154600D01*
X186124430Y-143154600D02*
X186053002Y-143011742D01*
X186053002Y-143011742D02*
X186053002Y-142440314D01*
X186053002Y-142440314D02*
X186124430Y-142297457D01*
X186124430Y-142297457D02*
X186267288Y-142226028D01*
X186267288Y-142226028D02*
X186553002Y-142226028D01*
X186553002Y-142226028D02*
X186695859Y-142297457D01*
X186695859Y-142297457D02*
X186767288Y-142440314D01*
X186767288Y-142440314D02*
X186767288Y-142583171D01*
X186767288Y-142583171D02*
X186053002Y-142726028D01*
X188053002Y-143226028D02*
X188053002Y-141726028D01*
X188053002Y-143154600D02*
X187910144Y-143226028D01*
X187910144Y-143226028D02*
X187624430Y-143226028D01*
X187624430Y-143226028D02*
X187481573Y-143154600D01*
X187481573Y-143154600D02*
X187410144Y-143083171D01*
X187410144Y-143083171D02*
X187338716Y-142940314D01*
X187338716Y-142940314D02*
X187338716Y-142511742D01*
X187338716Y-142511742D02*
X187410144Y-142368885D01*
X187410144Y-142368885D02*
X187481573Y-142297457D01*
X187481573Y-142297457D02*
X187624430Y-142226028D01*
X187624430Y-142226028D02*
X187910144Y-142226028D01*
X187910144Y-142226028D02*
X188053002Y-142297457D01*
X189410145Y-143226028D02*
X189410145Y-142440314D01*
X189410145Y-142440314D02*
X189338716Y-142297457D01*
X189338716Y-142297457D02*
X189195859Y-142226028D01*
X189195859Y-142226028D02*
X188910145Y-142226028D01*
X188910145Y-142226028D02*
X188767287Y-142297457D01*
X189410145Y-143154600D02*
X189267287Y-143226028D01*
X189267287Y-143226028D02*
X188910145Y-143226028D01*
X188910145Y-143226028D02*
X188767287Y-143154600D01*
X188767287Y-143154600D02*
X188695859Y-143011742D01*
X188695859Y-143011742D02*
X188695859Y-142868885D01*
X188695859Y-142868885D02*
X188767287Y-142726028D01*
X188767287Y-142726028D02*
X188910145Y-142654600D01*
X188910145Y-142654600D02*
X189267287Y-142654600D01*
X189267287Y-142654600D02*
X189410145Y-142583171D01*
X190124430Y-142226028D02*
X190124430Y-143226028D01*
X190124430Y-142368885D02*
X190195859Y-142297457D01*
X190195859Y-142297457D02*
X190338716Y-142226028D01*
X190338716Y-142226028D02*
X190553002Y-142226028D01*
X190553002Y-142226028D02*
X190695859Y-142297457D01*
X190695859Y-142297457D02*
X190767288Y-142440314D01*
X190767288Y-142440314D02*
X190767288Y-143226028D01*
X192124431Y-143154600D02*
X191981573Y-143226028D01*
X191981573Y-143226028D02*
X191695859Y-143226028D01*
X191695859Y-143226028D02*
X191553002Y-143154600D01*
X191553002Y-143154600D02*
X191481573Y-143083171D01*
X191481573Y-143083171D02*
X191410145Y-142940314D01*
X191410145Y-142940314D02*
X191410145Y-142511742D01*
X191410145Y-142511742D02*
X191481573Y-142368885D01*
X191481573Y-142368885D02*
X191553002Y-142297457D01*
X191553002Y-142297457D02*
X191695859Y-142226028D01*
X191695859Y-142226028D02*
X191981573Y-142226028D01*
X191981573Y-142226028D02*
X192124431Y-142297457D01*
X193338716Y-143154600D02*
X193195859Y-143226028D01*
X193195859Y-143226028D02*
X192910145Y-143226028D01*
X192910145Y-143226028D02*
X192767287Y-143154600D01*
X192767287Y-143154600D02*
X192695859Y-143011742D01*
X192695859Y-143011742D02*
X192695859Y-142440314D01*
X192695859Y-142440314D02*
X192767287Y-142297457D01*
X192767287Y-142297457D02*
X192910145Y-142226028D01*
X192910145Y-142226028D02*
X193195859Y-142226028D01*
X193195859Y-142226028D02*
X193338716Y-142297457D01*
X193338716Y-142297457D02*
X193410145Y-142440314D01*
X193410145Y-142440314D02*
X193410145Y-142583171D01*
X193410145Y-142583171D02*
X192695859Y-142726028D01*
X196053001Y-143083171D02*
X195981573Y-143154600D01*
X195981573Y-143154600D02*
X195767287Y-143226028D01*
X195767287Y-143226028D02*
X195624430Y-143226028D01*
X195624430Y-143226028D02*
X195410144Y-143154600D01*
X195410144Y-143154600D02*
X195267287Y-143011742D01*
X195267287Y-143011742D02*
X195195858Y-142868885D01*
X195195858Y-142868885D02*
X195124430Y-142583171D01*
X195124430Y-142583171D02*
X195124430Y-142368885D01*
X195124430Y-142368885D02*
X195195858Y-142083171D01*
X195195858Y-142083171D02*
X195267287Y-141940314D01*
X195267287Y-141940314D02*
X195410144Y-141797457D01*
X195410144Y-141797457D02*
X195624430Y-141726028D01*
X195624430Y-141726028D02*
X195767287Y-141726028D01*
X195767287Y-141726028D02*
X195981573Y-141797457D01*
X195981573Y-141797457D02*
X196053001Y-141868885D01*
X196910144Y-143226028D02*
X196767287Y-143154600D01*
X196767287Y-143154600D02*
X196695858Y-143083171D01*
X196695858Y-143083171D02*
X196624430Y-142940314D01*
X196624430Y-142940314D02*
X196624430Y-142511742D01*
X196624430Y-142511742D02*
X196695858Y-142368885D01*
X196695858Y-142368885D02*
X196767287Y-142297457D01*
X196767287Y-142297457D02*
X196910144Y-142226028D01*
X196910144Y-142226028D02*
X197124430Y-142226028D01*
X197124430Y-142226028D02*
X197267287Y-142297457D01*
X197267287Y-142297457D02*
X197338716Y-142368885D01*
X197338716Y-142368885D02*
X197410144Y-142511742D01*
X197410144Y-142511742D02*
X197410144Y-142940314D01*
X197410144Y-142940314D02*
X197338716Y-143083171D01*
X197338716Y-143083171D02*
X197267287Y-143154600D01*
X197267287Y-143154600D02*
X197124430Y-143226028D01*
X197124430Y-143226028D02*
X196910144Y-143226028D01*
X198053001Y-142226028D02*
X198053001Y-143226028D01*
X198053001Y-142368885D02*
X198124430Y-142297457D01*
X198124430Y-142297457D02*
X198267287Y-142226028D01*
X198267287Y-142226028D02*
X198481573Y-142226028D01*
X198481573Y-142226028D02*
X198624430Y-142297457D01*
X198624430Y-142297457D02*
X198695859Y-142440314D01*
X198695859Y-142440314D02*
X198695859Y-143226028D01*
X199195859Y-142226028D02*
X199767287Y-142226028D01*
X199410144Y-141726028D02*
X199410144Y-143011742D01*
X199410144Y-143011742D02*
X199481573Y-143154600D01*
X199481573Y-143154600D02*
X199624430Y-143226028D01*
X199624430Y-143226028D02*
X199767287Y-143226028D01*
X200267287Y-143226028D02*
X200267287Y-142226028D01*
X200267287Y-142511742D02*
X200338716Y-142368885D01*
X200338716Y-142368885D02*
X200410145Y-142297457D01*
X200410145Y-142297457D02*
X200553002Y-142226028D01*
X200553002Y-142226028D02*
X200695859Y-142226028D01*
X201410144Y-143226028D02*
X201267287Y-143154600D01*
X201267287Y-143154600D02*
X201195858Y-143083171D01*
X201195858Y-143083171D02*
X201124430Y-142940314D01*
X201124430Y-142940314D02*
X201124430Y-142511742D01*
X201124430Y-142511742D02*
X201195858Y-142368885D01*
X201195858Y-142368885D02*
X201267287Y-142297457D01*
X201267287Y-142297457D02*
X201410144Y-142226028D01*
X201410144Y-142226028D02*
X201624430Y-142226028D01*
X201624430Y-142226028D02*
X201767287Y-142297457D01*
X201767287Y-142297457D02*
X201838716Y-142368885D01*
X201838716Y-142368885D02*
X201910144Y-142511742D01*
X201910144Y-142511742D02*
X201910144Y-142940314D01*
X201910144Y-142940314D02*
X201838716Y-143083171D01*
X201838716Y-143083171D02*
X201767287Y-143154600D01*
X201767287Y-143154600D02*
X201624430Y-143226028D01*
X201624430Y-143226028D02*
X201410144Y-143226028D01*
X202767287Y-143226028D02*
X202624430Y-143154600D01*
X202624430Y-143154600D02*
X202553001Y-143011742D01*
X202553001Y-143011742D02*
X202553001Y-141726028D01*
X203338715Y-143083171D02*
X203410144Y-143154600D01*
X203410144Y-143154600D02*
X203338715Y-143226028D01*
X203338715Y-143226028D02*
X203267287Y-143154600D01*
X203267287Y-143154600D02*
X203338715Y-143083171D01*
X203338715Y-143083171D02*
X203338715Y-143226028D01*
X203338715Y-142297457D02*
X203410144Y-142368885D01*
X203410144Y-142368885D02*
X203338715Y-142440314D01*
X203338715Y-142440314D02*
X203267287Y-142368885D01*
X203267287Y-142368885D02*
X203338715Y-142297457D01*
X203338715Y-142297457D02*
X203338715Y-142440314D01*
X182053001Y-139269028D02*
X182053001Y-137769028D01*
X182053001Y-137769028D02*
X182553001Y-138840457D01*
X182553001Y-138840457D02*
X183053001Y-137769028D01*
X183053001Y-137769028D02*
X183053001Y-139269028D01*
X183767287Y-139269028D02*
X183767287Y-138269028D01*
X183767287Y-137769028D02*
X183695859Y-137840457D01*
X183695859Y-137840457D02*
X183767287Y-137911885D01*
X183767287Y-137911885D02*
X183838716Y-137840457D01*
X183838716Y-137840457D02*
X183767287Y-137769028D01*
X183767287Y-137769028D02*
X183767287Y-137911885D01*
X184481573Y-138269028D02*
X184481573Y-139269028D01*
X184481573Y-138411885D02*
X184553002Y-138340457D01*
X184553002Y-138340457D02*
X184695859Y-138269028D01*
X184695859Y-138269028D02*
X184910145Y-138269028D01*
X184910145Y-138269028D02*
X185053002Y-138340457D01*
X185053002Y-138340457D02*
X185124431Y-138483314D01*
X185124431Y-138483314D02*
X185124431Y-139269028D01*
X186981573Y-139269028D02*
X186981573Y-137769028D01*
X187624431Y-139269028D02*
X187624431Y-138483314D01*
X187624431Y-138483314D02*
X187553002Y-138340457D01*
X187553002Y-138340457D02*
X187410145Y-138269028D01*
X187410145Y-138269028D02*
X187195859Y-138269028D01*
X187195859Y-138269028D02*
X187053002Y-138340457D01*
X187053002Y-138340457D02*
X186981573Y-138411885D01*
X188553002Y-139269028D02*
X188410145Y-139197600D01*
X188410145Y-139197600D02*
X188338716Y-139126171D01*
X188338716Y-139126171D02*
X188267288Y-138983314D01*
X188267288Y-138983314D02*
X188267288Y-138554742D01*
X188267288Y-138554742D02*
X188338716Y-138411885D01*
X188338716Y-138411885D02*
X188410145Y-138340457D01*
X188410145Y-138340457D02*
X188553002Y-138269028D01*
X188553002Y-138269028D02*
X188767288Y-138269028D01*
X188767288Y-138269028D02*
X188910145Y-138340457D01*
X188910145Y-138340457D02*
X188981574Y-138411885D01*
X188981574Y-138411885D02*
X189053002Y-138554742D01*
X189053002Y-138554742D02*
X189053002Y-138983314D01*
X189053002Y-138983314D02*
X188981574Y-139126171D01*
X188981574Y-139126171D02*
X188910145Y-139197600D01*
X188910145Y-139197600D02*
X188767288Y-139269028D01*
X188767288Y-139269028D02*
X188553002Y-139269028D01*
X189910145Y-139269028D02*
X189767288Y-139197600D01*
X189767288Y-139197600D02*
X189695859Y-139054742D01*
X189695859Y-139054742D02*
X189695859Y-137769028D01*
X191053002Y-139197600D02*
X190910145Y-139269028D01*
X190910145Y-139269028D02*
X190624431Y-139269028D01*
X190624431Y-139269028D02*
X190481573Y-139197600D01*
X190481573Y-139197600D02*
X190410145Y-139054742D01*
X190410145Y-139054742D02*
X190410145Y-138483314D01*
X190410145Y-138483314D02*
X190481573Y-138340457D01*
X190481573Y-138340457D02*
X190624431Y-138269028D01*
X190624431Y-138269028D02*
X190910145Y-138269028D01*
X190910145Y-138269028D02*
X191053002Y-138340457D01*
X191053002Y-138340457D02*
X191124431Y-138483314D01*
X191124431Y-138483314D02*
X191124431Y-138626171D01*
X191124431Y-138626171D02*
X190410145Y-138769028D01*
X193553002Y-139269028D02*
X193553002Y-137769028D01*
X193553002Y-139197600D02*
X193410144Y-139269028D01*
X193410144Y-139269028D02*
X193124430Y-139269028D01*
X193124430Y-139269028D02*
X192981573Y-139197600D01*
X192981573Y-139197600D02*
X192910144Y-139126171D01*
X192910144Y-139126171D02*
X192838716Y-138983314D01*
X192838716Y-138983314D02*
X192838716Y-138554742D01*
X192838716Y-138554742D02*
X192910144Y-138411885D01*
X192910144Y-138411885D02*
X192981573Y-138340457D01*
X192981573Y-138340457D02*
X193124430Y-138269028D01*
X193124430Y-138269028D02*
X193410144Y-138269028D01*
X193410144Y-138269028D02*
X193553002Y-138340457D01*
X194267287Y-139269028D02*
X194267287Y-138269028D01*
X194267287Y-137769028D02*
X194195859Y-137840457D01*
X194195859Y-137840457D02*
X194267287Y-137911885D01*
X194267287Y-137911885D02*
X194338716Y-137840457D01*
X194338716Y-137840457D02*
X194267287Y-137769028D01*
X194267287Y-137769028D02*
X194267287Y-137911885D01*
X195624431Y-139269028D02*
X195624431Y-138483314D01*
X195624431Y-138483314D02*
X195553002Y-138340457D01*
X195553002Y-138340457D02*
X195410145Y-138269028D01*
X195410145Y-138269028D02*
X195124431Y-138269028D01*
X195124431Y-138269028D02*
X194981573Y-138340457D01*
X195624431Y-139197600D02*
X195481573Y-139269028D01*
X195481573Y-139269028D02*
X195124431Y-139269028D01*
X195124431Y-139269028D02*
X194981573Y-139197600D01*
X194981573Y-139197600D02*
X194910145Y-139054742D01*
X194910145Y-139054742D02*
X194910145Y-138911885D01*
X194910145Y-138911885D02*
X194981573Y-138769028D01*
X194981573Y-138769028D02*
X195124431Y-138697600D01*
X195124431Y-138697600D02*
X195481573Y-138697600D01*
X195481573Y-138697600D02*
X195624431Y-138626171D01*
X196338716Y-139269028D02*
X196338716Y-138269028D01*
X196338716Y-138411885D02*
X196410145Y-138340457D01*
X196410145Y-138340457D02*
X196553002Y-138269028D01*
X196553002Y-138269028D02*
X196767288Y-138269028D01*
X196767288Y-138269028D02*
X196910145Y-138340457D01*
X196910145Y-138340457D02*
X196981574Y-138483314D01*
X196981574Y-138483314D02*
X196981574Y-139269028D01*
X196981574Y-138483314D02*
X197053002Y-138340457D01*
X197053002Y-138340457D02*
X197195859Y-138269028D01*
X197195859Y-138269028D02*
X197410145Y-138269028D01*
X197410145Y-138269028D02*
X197553002Y-138340457D01*
X197553002Y-138340457D02*
X197624431Y-138483314D01*
X197624431Y-138483314D02*
X197624431Y-139269028D01*
X198910145Y-139197600D02*
X198767288Y-139269028D01*
X198767288Y-139269028D02*
X198481574Y-139269028D01*
X198481574Y-139269028D02*
X198338716Y-139197600D01*
X198338716Y-139197600D02*
X198267288Y-139054742D01*
X198267288Y-139054742D02*
X198267288Y-138483314D01*
X198267288Y-138483314D02*
X198338716Y-138340457D01*
X198338716Y-138340457D02*
X198481574Y-138269028D01*
X198481574Y-138269028D02*
X198767288Y-138269028D01*
X198767288Y-138269028D02*
X198910145Y-138340457D01*
X198910145Y-138340457D02*
X198981574Y-138483314D01*
X198981574Y-138483314D02*
X198981574Y-138626171D01*
X198981574Y-138626171D02*
X198267288Y-138769028D01*
X199410145Y-138269028D02*
X199981573Y-138269028D01*
X199624430Y-137769028D02*
X199624430Y-139054742D01*
X199624430Y-139054742D02*
X199695859Y-139197600D01*
X199695859Y-139197600D02*
X199838716Y-139269028D01*
X199838716Y-139269028D02*
X199981573Y-139269028D01*
X201053002Y-139197600D02*
X200910145Y-139269028D01*
X200910145Y-139269028D02*
X200624431Y-139269028D01*
X200624431Y-139269028D02*
X200481573Y-139197600D01*
X200481573Y-139197600D02*
X200410145Y-139054742D01*
X200410145Y-139054742D02*
X200410145Y-138483314D01*
X200410145Y-138483314D02*
X200481573Y-138340457D01*
X200481573Y-138340457D02*
X200624431Y-138269028D01*
X200624431Y-138269028D02*
X200910145Y-138269028D01*
X200910145Y-138269028D02*
X201053002Y-138340457D01*
X201053002Y-138340457D02*
X201124431Y-138483314D01*
X201124431Y-138483314D02*
X201124431Y-138626171D01*
X201124431Y-138626171D02*
X200410145Y-138769028D01*
X201767287Y-139269028D02*
X201767287Y-138269028D01*
X201767287Y-138554742D02*
X201838716Y-138411885D01*
X201838716Y-138411885D02*
X201910145Y-138340457D01*
X201910145Y-138340457D02*
X202053002Y-138269028D01*
X202053002Y-138269028D02*
X202195859Y-138269028D01*
X202695858Y-139126171D02*
X202767287Y-139197600D01*
X202767287Y-139197600D02*
X202695858Y-139269028D01*
X202695858Y-139269028D02*
X202624430Y-139197600D01*
X202624430Y-139197600D02*
X202695858Y-139126171D01*
X202695858Y-139126171D02*
X202695858Y-139269028D01*
X202695858Y-138340457D02*
X202767287Y-138411885D01*
X202767287Y-138411885D02*
X202695858Y-138483314D01*
X202695858Y-138483314D02*
X202624430Y-138411885D01*
X202624430Y-138411885D02*
X202695858Y-138340457D01*
X202695858Y-138340457D02*
X202695858Y-138483314D01*
X182553001Y-130569314D02*
X182767287Y-130640742D01*
X182767287Y-130640742D02*
X182838716Y-130712171D01*
X182838716Y-130712171D02*
X182910144Y-130855028D01*
X182910144Y-130855028D02*
X182910144Y-131069314D01*
X182910144Y-131069314D02*
X182838716Y-131212171D01*
X182838716Y-131212171D02*
X182767287Y-131283600D01*
X182767287Y-131283600D02*
X182624430Y-131355028D01*
X182624430Y-131355028D02*
X182053001Y-131355028D01*
X182053001Y-131355028D02*
X182053001Y-129855028D01*
X182053001Y-129855028D02*
X182553001Y-129855028D01*
X182553001Y-129855028D02*
X182695859Y-129926457D01*
X182695859Y-129926457D02*
X182767287Y-129997885D01*
X182767287Y-129997885D02*
X182838716Y-130140742D01*
X182838716Y-130140742D02*
X182838716Y-130283600D01*
X182838716Y-130283600D02*
X182767287Y-130426457D01*
X182767287Y-130426457D02*
X182695859Y-130497885D01*
X182695859Y-130497885D02*
X182553001Y-130569314D01*
X182553001Y-130569314D02*
X182053001Y-130569314D01*
X183767287Y-131355028D02*
X183624430Y-131283600D01*
X183624430Y-131283600D02*
X183553001Y-131212171D01*
X183553001Y-131212171D02*
X183481573Y-131069314D01*
X183481573Y-131069314D02*
X183481573Y-130640742D01*
X183481573Y-130640742D02*
X183553001Y-130497885D01*
X183553001Y-130497885D02*
X183624430Y-130426457D01*
X183624430Y-130426457D02*
X183767287Y-130355028D01*
X183767287Y-130355028D02*
X183981573Y-130355028D01*
X183981573Y-130355028D02*
X184124430Y-130426457D01*
X184124430Y-130426457D02*
X184195859Y-130497885D01*
X184195859Y-130497885D02*
X184267287Y-130640742D01*
X184267287Y-130640742D02*
X184267287Y-131069314D01*
X184267287Y-131069314D02*
X184195859Y-131212171D01*
X184195859Y-131212171D02*
X184124430Y-131283600D01*
X184124430Y-131283600D02*
X183981573Y-131355028D01*
X183981573Y-131355028D02*
X183767287Y-131355028D01*
X185553002Y-131355028D02*
X185553002Y-130569314D01*
X185553002Y-130569314D02*
X185481573Y-130426457D01*
X185481573Y-130426457D02*
X185338716Y-130355028D01*
X185338716Y-130355028D02*
X185053002Y-130355028D01*
X185053002Y-130355028D02*
X184910144Y-130426457D01*
X185553002Y-131283600D02*
X185410144Y-131355028D01*
X185410144Y-131355028D02*
X185053002Y-131355028D01*
X185053002Y-131355028D02*
X184910144Y-131283600D01*
X184910144Y-131283600D02*
X184838716Y-131140742D01*
X184838716Y-131140742D02*
X184838716Y-130997885D01*
X184838716Y-130997885D02*
X184910144Y-130855028D01*
X184910144Y-130855028D02*
X185053002Y-130783600D01*
X185053002Y-130783600D02*
X185410144Y-130783600D01*
X185410144Y-130783600D02*
X185553002Y-130712171D01*
X186267287Y-131355028D02*
X186267287Y-130355028D01*
X186267287Y-130640742D02*
X186338716Y-130497885D01*
X186338716Y-130497885D02*
X186410145Y-130426457D01*
X186410145Y-130426457D02*
X186553002Y-130355028D01*
X186553002Y-130355028D02*
X186695859Y-130355028D01*
X187838716Y-131355028D02*
X187838716Y-129855028D01*
X187838716Y-131283600D02*
X187695858Y-131355028D01*
X187695858Y-131355028D02*
X187410144Y-131355028D01*
X187410144Y-131355028D02*
X187267287Y-131283600D01*
X187267287Y-131283600D02*
X187195858Y-131212171D01*
X187195858Y-131212171D02*
X187124430Y-131069314D01*
X187124430Y-131069314D02*
X187124430Y-130640742D01*
X187124430Y-130640742D02*
X187195858Y-130497885D01*
X187195858Y-130497885D02*
X187267287Y-130426457D01*
X187267287Y-130426457D02*
X187410144Y-130355028D01*
X187410144Y-130355028D02*
X187695858Y-130355028D01*
X187695858Y-130355028D02*
X187838716Y-130426457D01*
X189481573Y-129855028D02*
X190338716Y-129855028D01*
X189910144Y-131355028D02*
X189910144Y-129855028D01*
X190838715Y-131355028D02*
X190838715Y-129855028D01*
X191481573Y-131355028D02*
X191481573Y-130569314D01*
X191481573Y-130569314D02*
X191410144Y-130426457D01*
X191410144Y-130426457D02*
X191267287Y-130355028D01*
X191267287Y-130355028D02*
X191053001Y-130355028D01*
X191053001Y-130355028D02*
X190910144Y-130426457D01*
X190910144Y-130426457D02*
X190838715Y-130497885D01*
X192195858Y-131355028D02*
X192195858Y-130355028D01*
X192195858Y-129855028D02*
X192124430Y-129926457D01*
X192124430Y-129926457D02*
X192195858Y-129997885D01*
X192195858Y-129997885D02*
X192267287Y-129926457D01*
X192267287Y-129926457D02*
X192195858Y-129855028D01*
X192195858Y-129855028D02*
X192195858Y-129997885D01*
X193553002Y-131283600D02*
X193410144Y-131355028D01*
X193410144Y-131355028D02*
X193124430Y-131355028D01*
X193124430Y-131355028D02*
X192981573Y-131283600D01*
X192981573Y-131283600D02*
X192910144Y-131212171D01*
X192910144Y-131212171D02*
X192838716Y-131069314D01*
X192838716Y-131069314D02*
X192838716Y-130640742D01*
X192838716Y-130640742D02*
X192910144Y-130497885D01*
X192910144Y-130497885D02*
X192981573Y-130426457D01*
X192981573Y-130426457D02*
X193124430Y-130355028D01*
X193124430Y-130355028D02*
X193410144Y-130355028D01*
X193410144Y-130355028D02*
X193553002Y-130426457D01*
X194195858Y-131355028D02*
X194195858Y-129855028D01*
X194338716Y-130783600D02*
X194767287Y-131355028D01*
X194767287Y-130355028D02*
X194195858Y-130926457D01*
X195410144Y-130355028D02*
X195410144Y-131355028D01*
X195410144Y-130497885D02*
X195481573Y-130426457D01*
X195481573Y-130426457D02*
X195624430Y-130355028D01*
X195624430Y-130355028D02*
X195838716Y-130355028D01*
X195838716Y-130355028D02*
X195981573Y-130426457D01*
X195981573Y-130426457D02*
X196053002Y-130569314D01*
X196053002Y-130569314D02*
X196053002Y-131355028D01*
X197338716Y-131283600D02*
X197195859Y-131355028D01*
X197195859Y-131355028D02*
X196910145Y-131355028D01*
X196910145Y-131355028D02*
X196767287Y-131283600D01*
X196767287Y-131283600D02*
X196695859Y-131140742D01*
X196695859Y-131140742D02*
X196695859Y-130569314D01*
X196695859Y-130569314D02*
X196767287Y-130426457D01*
X196767287Y-130426457D02*
X196910145Y-130355028D01*
X196910145Y-130355028D02*
X197195859Y-130355028D01*
X197195859Y-130355028D02*
X197338716Y-130426457D01*
X197338716Y-130426457D02*
X197410145Y-130569314D01*
X197410145Y-130569314D02*
X197410145Y-130712171D01*
X197410145Y-130712171D02*
X196695859Y-130855028D01*
X197981573Y-131283600D02*
X198124430Y-131355028D01*
X198124430Y-131355028D02*
X198410144Y-131355028D01*
X198410144Y-131355028D02*
X198553001Y-131283600D01*
X198553001Y-131283600D02*
X198624430Y-131140742D01*
X198624430Y-131140742D02*
X198624430Y-131069314D01*
X198624430Y-131069314D02*
X198553001Y-130926457D01*
X198553001Y-130926457D02*
X198410144Y-130855028D01*
X198410144Y-130855028D02*
X198195859Y-130855028D01*
X198195859Y-130855028D02*
X198053001Y-130783600D01*
X198053001Y-130783600D02*
X197981573Y-130640742D01*
X197981573Y-130640742D02*
X197981573Y-130569314D01*
X197981573Y-130569314D02*
X198053001Y-130426457D01*
X198053001Y-130426457D02*
X198195859Y-130355028D01*
X198195859Y-130355028D02*
X198410144Y-130355028D01*
X198410144Y-130355028D02*
X198553001Y-130426457D01*
X199195859Y-131283600D02*
X199338716Y-131355028D01*
X199338716Y-131355028D02*
X199624430Y-131355028D01*
X199624430Y-131355028D02*
X199767287Y-131283600D01*
X199767287Y-131283600D02*
X199838716Y-131140742D01*
X199838716Y-131140742D02*
X199838716Y-131069314D01*
X199838716Y-131069314D02*
X199767287Y-130926457D01*
X199767287Y-130926457D02*
X199624430Y-130855028D01*
X199624430Y-130855028D02*
X199410145Y-130855028D01*
X199410145Y-130855028D02*
X199267287Y-130783600D01*
X199267287Y-130783600D02*
X199195859Y-130640742D01*
X199195859Y-130640742D02*
X199195859Y-130569314D01*
X199195859Y-130569314D02*
X199267287Y-130426457D01*
X199267287Y-130426457D02*
X199410145Y-130355028D01*
X199410145Y-130355028D02*
X199624430Y-130355028D01*
X199624430Y-130355028D02*
X199767287Y-130426457D01*
X200481573Y-131212171D02*
X200553002Y-131283600D01*
X200553002Y-131283600D02*
X200481573Y-131355028D01*
X200481573Y-131355028D02*
X200410145Y-131283600D01*
X200410145Y-131283600D02*
X200481573Y-131212171D01*
X200481573Y-131212171D02*
X200481573Y-131355028D01*
X200481573Y-130426457D02*
X200553002Y-130497885D01*
X200553002Y-130497885D02*
X200481573Y-130569314D01*
X200481573Y-130569314D02*
X200410145Y-130497885D01*
X200410145Y-130497885D02*
X200481573Y-130426457D01*
X200481573Y-130426457D02*
X200481573Y-130569314D01*
X147895863Y-143226028D02*
X147895863Y-141726028D01*
X147895863Y-141726028D02*
X148753006Y-143226028D01*
X148753006Y-143226028D02*
X148753006Y-141726028D01*
X149681578Y-143226028D02*
X149538721Y-143154600D01*
X149538721Y-143154600D02*
X149467292Y-143083171D01*
X149467292Y-143083171D02*
X149395864Y-142940314D01*
X149395864Y-142940314D02*
X149395864Y-142511742D01*
X149395864Y-142511742D02*
X149467292Y-142368885D01*
X149467292Y-142368885D02*
X149538721Y-142297457D01*
X149538721Y-142297457D02*
X149681578Y-142226028D01*
X149681578Y-142226028D02*
X149895864Y-142226028D01*
X149895864Y-142226028D02*
X150038721Y-142297457D01*
X150038721Y-142297457D02*
X150110150Y-142368885D01*
X150110150Y-142368885D02*
X150181578Y-142511742D01*
X150181578Y-142511742D02*
X150181578Y-142940314D01*
X150181578Y-142940314D02*
X150110150Y-143083171D01*
X150110150Y-143083171D02*
X150038721Y-143154600D01*
X150038721Y-143154600D02*
X149895864Y-143226028D01*
X149895864Y-143226028D02*
X149681578Y-143226028D01*
X150824435Y-142226028D02*
X150824435Y-143226028D01*
X150824435Y-142368885D02*
X150895864Y-142297457D01*
X150895864Y-142297457D02*
X151038721Y-142226028D01*
X151038721Y-142226028D02*
X151253007Y-142226028D01*
X151253007Y-142226028D02*
X151395864Y-142297457D01*
X151395864Y-142297457D02*
X151467293Y-142440314D01*
X151467293Y-142440314D02*
X151467293Y-143226028D01*
X152753007Y-143154600D02*
X152610150Y-143226028D01*
X152610150Y-143226028D02*
X152324436Y-143226028D01*
X152324436Y-143226028D02*
X152181578Y-143154600D01*
X152181578Y-143154600D02*
X152110150Y-143011742D01*
X152110150Y-143011742D02*
X152110150Y-142440314D01*
X152110150Y-142440314D02*
X152181578Y-142297457D01*
X152181578Y-142297457D02*
X152324436Y-142226028D01*
X152324436Y-142226028D02*
X152610150Y-142226028D01*
X152610150Y-142226028D02*
X152753007Y-142297457D01*
X152753007Y-142297457D02*
X152824436Y-142440314D01*
X152824436Y-142440314D02*
X152824436Y-142583171D01*
X152824436Y-142583171D02*
X152110150Y-142726028D01*
X148181578Y-137769028D02*
X148324435Y-137769028D01*
X148324435Y-137769028D02*
X148467292Y-137840457D01*
X148467292Y-137840457D02*
X148538721Y-137911885D01*
X148538721Y-137911885D02*
X148610149Y-138054742D01*
X148610149Y-138054742D02*
X148681578Y-138340457D01*
X148681578Y-138340457D02*
X148681578Y-138697600D01*
X148681578Y-138697600D02*
X148610149Y-138983314D01*
X148610149Y-138983314D02*
X148538721Y-139126171D01*
X148538721Y-139126171D02*
X148467292Y-139197600D01*
X148467292Y-139197600D02*
X148324435Y-139269028D01*
X148324435Y-139269028D02*
X148181578Y-139269028D01*
X148181578Y-139269028D02*
X148038721Y-139197600D01*
X148038721Y-139197600D02*
X147967292Y-139126171D01*
X147967292Y-139126171D02*
X147895863Y-138983314D01*
X147895863Y-138983314D02*
X147824435Y-138697600D01*
X147824435Y-138697600D02*
X147824435Y-138340457D01*
X147824435Y-138340457D02*
X147895863Y-138054742D01*
X147895863Y-138054742D02*
X147967292Y-137911885D01*
X147967292Y-137911885D02*
X148038721Y-137840457D01*
X148038721Y-137840457D02*
X148181578Y-137769028D01*
X149324434Y-139126171D02*
X149395863Y-139197600D01*
X149395863Y-139197600D02*
X149324434Y-139269028D01*
X149324434Y-139269028D02*
X149253006Y-139197600D01*
X149253006Y-139197600D02*
X149324434Y-139126171D01*
X149324434Y-139126171D02*
X149324434Y-139269028D01*
X149967292Y-137911885D02*
X150038720Y-137840457D01*
X150038720Y-137840457D02*
X150181578Y-137769028D01*
X150181578Y-137769028D02*
X150538720Y-137769028D01*
X150538720Y-137769028D02*
X150681578Y-137840457D01*
X150681578Y-137840457D02*
X150753006Y-137911885D01*
X150753006Y-137911885D02*
X150824435Y-138054742D01*
X150824435Y-138054742D02*
X150824435Y-138197600D01*
X150824435Y-138197600D02*
X150753006Y-138411885D01*
X150753006Y-138411885D02*
X149895863Y-139269028D01*
X149895863Y-139269028D02*
X150824435Y-139269028D01*
X151753006Y-137769028D02*
X151895863Y-137769028D01*
X151895863Y-137769028D02*
X152038720Y-137840457D01*
X152038720Y-137840457D02*
X152110149Y-137911885D01*
X152110149Y-137911885D02*
X152181577Y-138054742D01*
X152181577Y-138054742D02*
X152253006Y-138340457D01*
X152253006Y-138340457D02*
X152253006Y-138697600D01*
X152253006Y-138697600D02*
X152181577Y-138983314D01*
X152181577Y-138983314D02*
X152110149Y-139126171D01*
X152110149Y-139126171D02*
X152038720Y-139197600D01*
X152038720Y-139197600D02*
X151895863Y-139269028D01*
X151895863Y-139269028D02*
X151753006Y-139269028D01*
X151753006Y-139269028D02*
X151610149Y-139197600D01*
X151610149Y-139197600D02*
X151538720Y-139126171D01*
X151538720Y-139126171D02*
X151467291Y-138983314D01*
X151467291Y-138983314D02*
X151395863Y-138697600D01*
X151395863Y-138697600D02*
X151395863Y-138340457D01*
X151395863Y-138340457D02*
X151467291Y-138054742D01*
X151467291Y-138054742D02*
X151538720Y-137911885D01*
X151538720Y-137911885D02*
X151610149Y-137840457D01*
X151610149Y-137840457D02*
X151753006Y-137769028D01*
X153181577Y-137769028D02*
X153324434Y-137769028D01*
X153324434Y-137769028D02*
X153467291Y-137840457D01*
X153467291Y-137840457D02*
X153538720Y-137911885D01*
X153538720Y-137911885D02*
X153610148Y-138054742D01*
X153610148Y-138054742D02*
X153681577Y-138340457D01*
X153681577Y-138340457D02*
X153681577Y-138697600D01*
X153681577Y-138697600D02*
X153610148Y-138983314D01*
X153610148Y-138983314D02*
X153538720Y-139126171D01*
X153538720Y-139126171D02*
X153467291Y-139197600D01*
X153467291Y-139197600D02*
X153324434Y-139269028D01*
X153324434Y-139269028D02*
X153181577Y-139269028D01*
X153181577Y-139269028D02*
X153038720Y-139197600D01*
X153038720Y-139197600D02*
X152967291Y-139126171D01*
X152967291Y-139126171D02*
X152895862Y-138983314D01*
X152895862Y-138983314D02*
X152824434Y-138697600D01*
X152824434Y-138697600D02*
X152824434Y-138340457D01*
X152824434Y-138340457D02*
X152895862Y-138054742D01*
X152895862Y-138054742D02*
X152967291Y-137911885D01*
X152967291Y-137911885D02*
X153038720Y-137840457D01*
X153038720Y-137840457D02*
X153181577Y-137769028D01*
X154610148Y-137769028D02*
X154753005Y-137769028D01*
X154753005Y-137769028D02*
X154895862Y-137840457D01*
X154895862Y-137840457D02*
X154967291Y-137911885D01*
X154967291Y-137911885D02*
X155038719Y-138054742D01*
X155038719Y-138054742D02*
X155110148Y-138340457D01*
X155110148Y-138340457D02*
X155110148Y-138697600D01*
X155110148Y-138697600D02*
X155038719Y-138983314D01*
X155038719Y-138983314D02*
X154967291Y-139126171D01*
X154967291Y-139126171D02*
X154895862Y-139197600D01*
X154895862Y-139197600D02*
X154753005Y-139269028D01*
X154753005Y-139269028D02*
X154610148Y-139269028D01*
X154610148Y-139269028D02*
X154467291Y-139197600D01*
X154467291Y-139197600D02*
X154395862Y-139126171D01*
X154395862Y-139126171D02*
X154324433Y-138983314D01*
X154324433Y-138983314D02*
X154253005Y-138697600D01*
X154253005Y-138697600D02*
X154253005Y-138340457D01*
X154253005Y-138340457D02*
X154324433Y-138054742D01*
X154324433Y-138054742D02*
X154395862Y-137911885D01*
X154395862Y-137911885D02*
X154467291Y-137840457D01*
X154467291Y-137840457D02*
X154610148Y-137769028D01*
X156895861Y-139269028D02*
X156895861Y-138269028D01*
X156895861Y-138411885D02*
X156967290Y-138340457D01*
X156967290Y-138340457D02*
X157110147Y-138269028D01*
X157110147Y-138269028D02*
X157324433Y-138269028D01*
X157324433Y-138269028D02*
X157467290Y-138340457D01*
X157467290Y-138340457D02*
X157538719Y-138483314D01*
X157538719Y-138483314D02*
X157538719Y-139269028D01*
X157538719Y-138483314D02*
X157610147Y-138340457D01*
X157610147Y-138340457D02*
X157753004Y-138269028D01*
X157753004Y-138269028D02*
X157967290Y-138269028D01*
X157967290Y-138269028D02*
X158110147Y-138340457D01*
X158110147Y-138340457D02*
X158181576Y-138483314D01*
X158181576Y-138483314D02*
X158181576Y-139269028D01*
X158895861Y-139269028D02*
X158895861Y-138269028D01*
X158895861Y-138411885D02*
X158967290Y-138340457D01*
X158967290Y-138340457D02*
X159110147Y-138269028D01*
X159110147Y-138269028D02*
X159324433Y-138269028D01*
X159324433Y-138269028D02*
X159467290Y-138340457D01*
X159467290Y-138340457D02*
X159538719Y-138483314D01*
X159538719Y-138483314D02*
X159538719Y-139269028D01*
X159538719Y-138483314D02*
X159610147Y-138340457D01*
X159610147Y-138340457D02*
X159753004Y-138269028D01*
X159753004Y-138269028D02*
X159967290Y-138269028D01*
X159967290Y-138269028D02*
X160110147Y-138340457D01*
X160110147Y-138340457D02*
X160181576Y-138483314D01*
X160181576Y-138483314D02*
X160181576Y-139269028D01*
X163110147Y-137697600D02*
X161824433Y-139626171D01*
X165038719Y-137769028D02*
X165181576Y-137769028D01*
X165181576Y-137769028D02*
X165324433Y-137840457D01*
X165324433Y-137840457D02*
X165395862Y-137911885D01*
X165395862Y-137911885D02*
X165467290Y-138054742D01*
X165467290Y-138054742D02*
X165538719Y-138340457D01*
X165538719Y-138340457D02*
X165538719Y-138697600D01*
X165538719Y-138697600D02*
X165467290Y-138983314D01*
X165467290Y-138983314D02*
X165395862Y-139126171D01*
X165395862Y-139126171D02*
X165324433Y-139197600D01*
X165324433Y-139197600D02*
X165181576Y-139269028D01*
X165181576Y-139269028D02*
X165038719Y-139269028D01*
X165038719Y-139269028D02*
X164895862Y-139197600D01*
X164895862Y-139197600D02*
X164824433Y-139126171D01*
X164824433Y-139126171D02*
X164753004Y-138983314D01*
X164753004Y-138983314D02*
X164681576Y-138697600D01*
X164681576Y-138697600D02*
X164681576Y-138340457D01*
X164681576Y-138340457D02*
X164753004Y-138054742D01*
X164753004Y-138054742D02*
X164824433Y-137911885D01*
X164824433Y-137911885D02*
X164895862Y-137840457D01*
X164895862Y-137840457D02*
X165038719Y-137769028D01*
X166181575Y-139126171D02*
X166253004Y-139197600D01*
X166253004Y-139197600D02*
X166181575Y-139269028D01*
X166181575Y-139269028D02*
X166110147Y-139197600D01*
X166110147Y-139197600D02*
X166181575Y-139126171D01*
X166181575Y-139126171D02*
X166181575Y-139269028D01*
X166824433Y-137911885D02*
X166895861Y-137840457D01*
X166895861Y-137840457D02*
X167038719Y-137769028D01*
X167038719Y-137769028D02*
X167395861Y-137769028D01*
X167395861Y-137769028D02*
X167538719Y-137840457D01*
X167538719Y-137840457D02*
X167610147Y-137911885D01*
X167610147Y-137911885D02*
X167681576Y-138054742D01*
X167681576Y-138054742D02*
X167681576Y-138197600D01*
X167681576Y-138197600D02*
X167610147Y-138411885D01*
X167610147Y-138411885D02*
X166753004Y-139269028D01*
X166753004Y-139269028D02*
X167681576Y-139269028D01*
X168610147Y-137769028D02*
X168753004Y-137769028D01*
X168753004Y-137769028D02*
X168895861Y-137840457D01*
X168895861Y-137840457D02*
X168967290Y-137911885D01*
X168967290Y-137911885D02*
X169038718Y-138054742D01*
X169038718Y-138054742D02*
X169110147Y-138340457D01*
X169110147Y-138340457D02*
X169110147Y-138697600D01*
X169110147Y-138697600D02*
X169038718Y-138983314D01*
X169038718Y-138983314D02*
X168967290Y-139126171D01*
X168967290Y-139126171D02*
X168895861Y-139197600D01*
X168895861Y-139197600D02*
X168753004Y-139269028D01*
X168753004Y-139269028D02*
X168610147Y-139269028D01*
X168610147Y-139269028D02*
X168467290Y-139197600D01*
X168467290Y-139197600D02*
X168395861Y-139126171D01*
X168395861Y-139126171D02*
X168324432Y-138983314D01*
X168324432Y-138983314D02*
X168253004Y-138697600D01*
X168253004Y-138697600D02*
X168253004Y-138340457D01*
X168253004Y-138340457D02*
X168324432Y-138054742D01*
X168324432Y-138054742D02*
X168395861Y-137911885D01*
X168395861Y-137911885D02*
X168467290Y-137840457D01*
X168467290Y-137840457D02*
X168610147Y-137769028D01*
X170038718Y-137769028D02*
X170181575Y-137769028D01*
X170181575Y-137769028D02*
X170324432Y-137840457D01*
X170324432Y-137840457D02*
X170395861Y-137911885D01*
X170395861Y-137911885D02*
X170467289Y-138054742D01*
X170467289Y-138054742D02*
X170538718Y-138340457D01*
X170538718Y-138340457D02*
X170538718Y-138697600D01*
X170538718Y-138697600D02*
X170467289Y-138983314D01*
X170467289Y-138983314D02*
X170395861Y-139126171D01*
X170395861Y-139126171D02*
X170324432Y-139197600D01*
X170324432Y-139197600D02*
X170181575Y-139269028D01*
X170181575Y-139269028D02*
X170038718Y-139269028D01*
X170038718Y-139269028D02*
X169895861Y-139197600D01*
X169895861Y-139197600D02*
X169824432Y-139126171D01*
X169824432Y-139126171D02*
X169753003Y-138983314D01*
X169753003Y-138983314D02*
X169681575Y-138697600D01*
X169681575Y-138697600D02*
X169681575Y-138340457D01*
X169681575Y-138340457D02*
X169753003Y-138054742D01*
X169753003Y-138054742D02*
X169824432Y-137911885D01*
X169824432Y-137911885D02*
X169895861Y-137840457D01*
X169895861Y-137840457D02*
X170038718Y-137769028D01*
X171467289Y-137769028D02*
X171610146Y-137769028D01*
X171610146Y-137769028D02*
X171753003Y-137840457D01*
X171753003Y-137840457D02*
X171824432Y-137911885D01*
X171824432Y-137911885D02*
X171895860Y-138054742D01*
X171895860Y-138054742D02*
X171967289Y-138340457D01*
X171967289Y-138340457D02*
X171967289Y-138697600D01*
X171967289Y-138697600D02*
X171895860Y-138983314D01*
X171895860Y-138983314D02*
X171824432Y-139126171D01*
X171824432Y-139126171D02*
X171753003Y-139197600D01*
X171753003Y-139197600D02*
X171610146Y-139269028D01*
X171610146Y-139269028D02*
X171467289Y-139269028D01*
X171467289Y-139269028D02*
X171324432Y-139197600D01*
X171324432Y-139197600D02*
X171253003Y-139126171D01*
X171253003Y-139126171D02*
X171181574Y-138983314D01*
X171181574Y-138983314D02*
X171110146Y-138697600D01*
X171110146Y-138697600D02*
X171110146Y-138340457D01*
X171110146Y-138340457D02*
X171181574Y-138054742D01*
X171181574Y-138054742D02*
X171253003Y-137911885D01*
X171253003Y-137911885D02*
X171324432Y-137840457D01*
X171324432Y-137840457D02*
X171467289Y-137769028D01*
X173753002Y-139269028D02*
X173753002Y-138269028D01*
X173753002Y-138411885D02*
X173824431Y-138340457D01*
X173824431Y-138340457D02*
X173967288Y-138269028D01*
X173967288Y-138269028D02*
X174181574Y-138269028D01*
X174181574Y-138269028D02*
X174324431Y-138340457D01*
X174324431Y-138340457D02*
X174395860Y-138483314D01*
X174395860Y-138483314D02*
X174395860Y-139269028D01*
X174395860Y-138483314D02*
X174467288Y-138340457D01*
X174467288Y-138340457D02*
X174610145Y-138269028D01*
X174610145Y-138269028D02*
X174824431Y-138269028D01*
X174824431Y-138269028D02*
X174967288Y-138340457D01*
X174967288Y-138340457D02*
X175038717Y-138483314D01*
X175038717Y-138483314D02*
X175038717Y-139269028D01*
X175753002Y-139269028D02*
X175753002Y-138269028D01*
X175753002Y-138411885D02*
X175824431Y-138340457D01*
X175824431Y-138340457D02*
X175967288Y-138269028D01*
X175967288Y-138269028D02*
X176181574Y-138269028D01*
X176181574Y-138269028D02*
X176324431Y-138340457D01*
X176324431Y-138340457D02*
X176395860Y-138483314D01*
X176395860Y-138483314D02*
X176395860Y-139269028D01*
X176395860Y-138483314D02*
X176467288Y-138340457D01*
X176467288Y-138340457D02*
X176610145Y-138269028D01*
X176610145Y-138269028D02*
X176824431Y-138269028D01*
X176824431Y-138269028D02*
X176967288Y-138340457D01*
X176967288Y-138340457D02*
X177038717Y-138483314D01*
X177038717Y-138483314D02*
X177038717Y-139269028D01*
X182053001Y-147183028D02*
X182053001Y-145683028D01*
X182053001Y-145683028D02*
X182624430Y-145683028D01*
X182624430Y-145683028D02*
X182767287Y-145754457D01*
X182767287Y-145754457D02*
X182838716Y-145825885D01*
X182838716Y-145825885D02*
X182910144Y-145968742D01*
X182910144Y-145968742D02*
X182910144Y-146183028D01*
X182910144Y-146183028D02*
X182838716Y-146325885D01*
X182838716Y-146325885D02*
X182767287Y-146397314D01*
X182767287Y-146397314D02*
X182624430Y-146468742D01*
X182624430Y-146468742D02*
X182053001Y-146468742D01*
X183767287Y-147183028D02*
X183624430Y-147111600D01*
X183624430Y-147111600D02*
X183553001Y-146968742D01*
X183553001Y-146968742D02*
X183553001Y-145683028D01*
X184981573Y-147183028D02*
X184981573Y-146397314D01*
X184981573Y-146397314D02*
X184910144Y-146254457D01*
X184910144Y-146254457D02*
X184767287Y-146183028D01*
X184767287Y-146183028D02*
X184481573Y-146183028D01*
X184481573Y-146183028D02*
X184338715Y-146254457D01*
X184981573Y-147111600D02*
X184838715Y-147183028D01*
X184838715Y-147183028D02*
X184481573Y-147183028D01*
X184481573Y-147183028D02*
X184338715Y-147111600D01*
X184338715Y-147111600D02*
X184267287Y-146968742D01*
X184267287Y-146968742D02*
X184267287Y-146825885D01*
X184267287Y-146825885D02*
X184338715Y-146683028D01*
X184338715Y-146683028D02*
X184481573Y-146611600D01*
X184481573Y-146611600D02*
X184838715Y-146611600D01*
X184838715Y-146611600D02*
X184981573Y-146540171D01*
X185481573Y-146183028D02*
X186053001Y-146183028D01*
X185695858Y-145683028D02*
X185695858Y-146968742D01*
X185695858Y-146968742D02*
X185767287Y-147111600D01*
X185767287Y-147111600D02*
X185910144Y-147183028D01*
X185910144Y-147183028D02*
X186053001Y-147183028D01*
X187124430Y-147111600D02*
X186981573Y-147183028D01*
X186981573Y-147183028D02*
X186695859Y-147183028D01*
X186695859Y-147183028D02*
X186553001Y-147111600D01*
X186553001Y-147111600D02*
X186481573Y-146968742D01*
X186481573Y-146968742D02*
X186481573Y-146397314D01*
X186481573Y-146397314D02*
X186553001Y-146254457D01*
X186553001Y-146254457D02*
X186695859Y-146183028D01*
X186695859Y-146183028D02*
X186981573Y-146183028D01*
X186981573Y-146183028D02*
X187124430Y-146254457D01*
X187124430Y-146254457D02*
X187195859Y-146397314D01*
X187195859Y-146397314D02*
X187195859Y-146540171D01*
X187195859Y-146540171D02*
X186481573Y-146683028D01*
X188481573Y-147183028D02*
X188481573Y-145683028D01*
X188481573Y-147111600D02*
X188338715Y-147183028D01*
X188338715Y-147183028D02*
X188053001Y-147183028D01*
X188053001Y-147183028D02*
X187910144Y-147111600D01*
X187910144Y-147111600D02*
X187838715Y-147040171D01*
X187838715Y-147040171D02*
X187767287Y-146897314D01*
X187767287Y-146897314D02*
X187767287Y-146468742D01*
X187767287Y-146468742D02*
X187838715Y-146325885D01*
X187838715Y-146325885D02*
X187910144Y-146254457D01*
X187910144Y-146254457D02*
X188053001Y-146183028D01*
X188053001Y-146183028D02*
X188338715Y-146183028D01*
X188338715Y-146183028D02*
X188481573Y-146254457D01*
X190838715Y-146397314D02*
X191053001Y-146468742D01*
X191053001Y-146468742D02*
X191124430Y-146540171D01*
X191124430Y-146540171D02*
X191195858Y-146683028D01*
X191195858Y-146683028D02*
X191195858Y-146897314D01*
X191195858Y-146897314D02*
X191124430Y-147040171D01*
X191124430Y-147040171D02*
X191053001Y-147111600D01*
X191053001Y-147111600D02*
X190910144Y-147183028D01*
X190910144Y-147183028D02*
X190338715Y-147183028D01*
X190338715Y-147183028D02*
X190338715Y-145683028D01*
X190338715Y-145683028D02*
X190838715Y-145683028D01*
X190838715Y-145683028D02*
X190981573Y-145754457D01*
X190981573Y-145754457D02*
X191053001Y-145825885D01*
X191053001Y-145825885D02*
X191124430Y-145968742D01*
X191124430Y-145968742D02*
X191124430Y-146111600D01*
X191124430Y-146111600D02*
X191053001Y-146254457D01*
X191053001Y-146254457D02*
X190981573Y-146325885D01*
X190981573Y-146325885D02*
X190838715Y-146397314D01*
X190838715Y-146397314D02*
X190338715Y-146397314D01*
X192053001Y-147183028D02*
X191910144Y-147111600D01*
X191910144Y-147111600D02*
X191838715Y-147040171D01*
X191838715Y-147040171D02*
X191767287Y-146897314D01*
X191767287Y-146897314D02*
X191767287Y-146468742D01*
X191767287Y-146468742D02*
X191838715Y-146325885D01*
X191838715Y-146325885D02*
X191910144Y-146254457D01*
X191910144Y-146254457D02*
X192053001Y-146183028D01*
X192053001Y-146183028D02*
X192267287Y-146183028D01*
X192267287Y-146183028D02*
X192410144Y-146254457D01*
X192410144Y-146254457D02*
X192481573Y-146325885D01*
X192481573Y-146325885D02*
X192553001Y-146468742D01*
X192553001Y-146468742D02*
X192553001Y-146897314D01*
X192553001Y-146897314D02*
X192481573Y-147040171D01*
X192481573Y-147040171D02*
X192410144Y-147111600D01*
X192410144Y-147111600D02*
X192267287Y-147183028D01*
X192267287Y-147183028D02*
X192053001Y-147183028D01*
X193838716Y-147183028D02*
X193838716Y-146397314D01*
X193838716Y-146397314D02*
X193767287Y-146254457D01*
X193767287Y-146254457D02*
X193624430Y-146183028D01*
X193624430Y-146183028D02*
X193338716Y-146183028D01*
X193338716Y-146183028D02*
X193195858Y-146254457D01*
X193838716Y-147111600D02*
X193695858Y-147183028D01*
X193695858Y-147183028D02*
X193338716Y-147183028D01*
X193338716Y-147183028D02*
X193195858Y-147111600D01*
X193195858Y-147111600D02*
X193124430Y-146968742D01*
X193124430Y-146968742D02*
X193124430Y-146825885D01*
X193124430Y-146825885D02*
X193195858Y-146683028D01*
X193195858Y-146683028D02*
X193338716Y-146611600D01*
X193338716Y-146611600D02*
X193695858Y-146611600D01*
X193695858Y-146611600D02*
X193838716Y-146540171D01*
X194553001Y-147183028D02*
X194553001Y-146183028D01*
X194553001Y-146468742D02*
X194624430Y-146325885D01*
X194624430Y-146325885D02*
X194695859Y-146254457D01*
X194695859Y-146254457D02*
X194838716Y-146183028D01*
X194838716Y-146183028D02*
X194981573Y-146183028D01*
X196124430Y-147183028D02*
X196124430Y-145683028D01*
X196124430Y-147111600D02*
X195981572Y-147183028D01*
X195981572Y-147183028D02*
X195695858Y-147183028D01*
X195695858Y-147183028D02*
X195553001Y-147111600D01*
X195553001Y-147111600D02*
X195481572Y-147040171D01*
X195481572Y-147040171D02*
X195410144Y-146897314D01*
X195410144Y-146897314D02*
X195410144Y-146468742D01*
X195410144Y-146468742D02*
X195481572Y-146325885D01*
X195481572Y-146325885D02*
X195553001Y-146254457D01*
X195553001Y-146254457D02*
X195695858Y-146183028D01*
X195695858Y-146183028D02*
X195981572Y-146183028D01*
X195981572Y-146183028D02*
X196124430Y-146254457D01*
X197981572Y-146397314D02*
X198481572Y-146397314D01*
X198695858Y-147183028D02*
X197981572Y-147183028D01*
X197981572Y-147183028D02*
X197981572Y-145683028D01*
X197981572Y-145683028D02*
X198695858Y-145683028D01*
X199981573Y-147183028D02*
X199981573Y-145683028D01*
X199981573Y-147111600D02*
X199838715Y-147183028D01*
X199838715Y-147183028D02*
X199553001Y-147183028D01*
X199553001Y-147183028D02*
X199410144Y-147111600D01*
X199410144Y-147111600D02*
X199338715Y-147040171D01*
X199338715Y-147040171D02*
X199267287Y-146897314D01*
X199267287Y-146897314D02*
X199267287Y-146468742D01*
X199267287Y-146468742D02*
X199338715Y-146325885D01*
X199338715Y-146325885D02*
X199410144Y-146254457D01*
X199410144Y-146254457D02*
X199553001Y-146183028D01*
X199553001Y-146183028D02*
X199838715Y-146183028D01*
X199838715Y-146183028D02*
X199981573Y-146254457D01*
X201338716Y-146183028D02*
X201338716Y-147397314D01*
X201338716Y-147397314D02*
X201267287Y-147540171D01*
X201267287Y-147540171D02*
X201195858Y-147611600D01*
X201195858Y-147611600D02*
X201053001Y-147683028D01*
X201053001Y-147683028D02*
X200838716Y-147683028D01*
X200838716Y-147683028D02*
X200695858Y-147611600D01*
X201338716Y-147111600D02*
X201195858Y-147183028D01*
X201195858Y-147183028D02*
X200910144Y-147183028D01*
X200910144Y-147183028D02*
X200767287Y-147111600D01*
X200767287Y-147111600D02*
X200695858Y-147040171D01*
X200695858Y-147040171D02*
X200624430Y-146897314D01*
X200624430Y-146897314D02*
X200624430Y-146468742D01*
X200624430Y-146468742D02*
X200695858Y-146325885D01*
X200695858Y-146325885D02*
X200767287Y-146254457D01*
X200767287Y-146254457D02*
X200910144Y-146183028D01*
X200910144Y-146183028D02*
X201195858Y-146183028D01*
X201195858Y-146183028D02*
X201338716Y-146254457D01*
X202624430Y-147111600D02*
X202481573Y-147183028D01*
X202481573Y-147183028D02*
X202195859Y-147183028D01*
X202195859Y-147183028D02*
X202053001Y-147111600D01*
X202053001Y-147111600D02*
X201981573Y-146968742D01*
X201981573Y-146968742D02*
X201981573Y-146397314D01*
X201981573Y-146397314D02*
X202053001Y-146254457D01*
X202053001Y-146254457D02*
X202195859Y-146183028D01*
X202195859Y-146183028D02*
X202481573Y-146183028D01*
X202481573Y-146183028D02*
X202624430Y-146254457D01*
X202624430Y-146254457D02*
X202695859Y-146397314D01*
X202695859Y-146397314D02*
X202695859Y-146540171D01*
X202695859Y-146540171D02*
X201981573Y-146683028D01*
X203338715Y-147040171D02*
X203410144Y-147111600D01*
X203410144Y-147111600D02*
X203338715Y-147183028D01*
X203338715Y-147183028D02*
X203267287Y-147111600D01*
X203267287Y-147111600D02*
X203338715Y-147040171D01*
X203338715Y-147040171D02*
X203338715Y-147183028D01*
X203338715Y-146254457D02*
X203410144Y-146325885D01*
X203410144Y-146325885D02*
X203338715Y-146397314D01*
X203338715Y-146397314D02*
X203267287Y-146325885D01*
X203267287Y-146325885D02*
X203338715Y-146254457D01*
X203338715Y-146254457D02*
X203338715Y-146397314D01*
X147824435Y-133954885D02*
X147895863Y-133883457D01*
X147895863Y-133883457D02*
X148038721Y-133812028D01*
X148038721Y-133812028D02*
X148395863Y-133812028D01*
X148395863Y-133812028D02*
X148538721Y-133883457D01*
X148538721Y-133883457D02*
X148610149Y-133954885D01*
X148610149Y-133954885D02*
X148681578Y-134097742D01*
X148681578Y-134097742D02*
X148681578Y-134240600D01*
X148681578Y-134240600D02*
X148610149Y-134454885D01*
X148610149Y-134454885D02*
X147753006Y-135312028D01*
X147753006Y-135312028D02*
X148681578Y-135312028D01*
X149610149Y-133812028D02*
X149753006Y-133812028D01*
X149753006Y-133812028D02*
X149895863Y-133883457D01*
X149895863Y-133883457D02*
X149967292Y-133954885D01*
X149967292Y-133954885D02*
X150038720Y-134097742D01*
X150038720Y-134097742D02*
X150110149Y-134383457D01*
X150110149Y-134383457D02*
X150110149Y-134740600D01*
X150110149Y-134740600D02*
X150038720Y-135026314D01*
X150038720Y-135026314D02*
X149967292Y-135169171D01*
X149967292Y-135169171D02*
X149895863Y-135240600D01*
X149895863Y-135240600D02*
X149753006Y-135312028D01*
X149753006Y-135312028D02*
X149610149Y-135312028D01*
X149610149Y-135312028D02*
X149467292Y-135240600D01*
X149467292Y-135240600D02*
X149395863Y-135169171D01*
X149395863Y-135169171D02*
X149324434Y-135026314D01*
X149324434Y-135026314D02*
X149253006Y-134740600D01*
X149253006Y-134740600D02*
X149253006Y-134383457D01*
X149253006Y-134383457D02*
X149324434Y-134097742D01*
X149324434Y-134097742D02*
X149395863Y-133954885D01*
X149395863Y-133954885D02*
X149467292Y-133883457D01*
X149467292Y-133883457D02*
X149610149Y-133812028D01*
X150753005Y-135169171D02*
X150824434Y-135240600D01*
X150824434Y-135240600D02*
X150753005Y-135312028D01*
X150753005Y-135312028D02*
X150681577Y-135240600D01*
X150681577Y-135240600D02*
X150753005Y-135169171D01*
X150753005Y-135169171D02*
X150753005Y-135312028D01*
X151753006Y-133812028D02*
X151895863Y-133812028D01*
X151895863Y-133812028D02*
X152038720Y-133883457D01*
X152038720Y-133883457D02*
X152110149Y-133954885D01*
X152110149Y-133954885D02*
X152181577Y-134097742D01*
X152181577Y-134097742D02*
X152253006Y-134383457D01*
X152253006Y-134383457D02*
X152253006Y-134740600D01*
X152253006Y-134740600D02*
X152181577Y-135026314D01*
X152181577Y-135026314D02*
X152110149Y-135169171D01*
X152110149Y-135169171D02*
X152038720Y-135240600D01*
X152038720Y-135240600D02*
X151895863Y-135312028D01*
X151895863Y-135312028D02*
X151753006Y-135312028D01*
X151753006Y-135312028D02*
X151610149Y-135240600D01*
X151610149Y-135240600D02*
X151538720Y-135169171D01*
X151538720Y-135169171D02*
X151467291Y-135026314D01*
X151467291Y-135026314D02*
X151395863Y-134740600D01*
X151395863Y-134740600D02*
X151395863Y-134383457D01*
X151395863Y-134383457D02*
X151467291Y-134097742D01*
X151467291Y-134097742D02*
X151538720Y-133954885D01*
X151538720Y-133954885D02*
X151610149Y-133883457D01*
X151610149Y-133883457D02*
X151753006Y-133812028D01*
X153181577Y-133812028D02*
X153324434Y-133812028D01*
X153324434Y-133812028D02*
X153467291Y-133883457D01*
X153467291Y-133883457D02*
X153538720Y-133954885D01*
X153538720Y-133954885D02*
X153610148Y-134097742D01*
X153610148Y-134097742D02*
X153681577Y-134383457D01*
X153681577Y-134383457D02*
X153681577Y-134740600D01*
X153681577Y-134740600D02*
X153610148Y-135026314D01*
X153610148Y-135026314D02*
X153538720Y-135169171D01*
X153538720Y-135169171D02*
X153467291Y-135240600D01*
X153467291Y-135240600D02*
X153324434Y-135312028D01*
X153324434Y-135312028D02*
X153181577Y-135312028D01*
X153181577Y-135312028D02*
X153038720Y-135240600D01*
X153038720Y-135240600D02*
X152967291Y-135169171D01*
X152967291Y-135169171D02*
X152895862Y-135026314D01*
X152895862Y-135026314D02*
X152824434Y-134740600D01*
X152824434Y-134740600D02*
X152824434Y-134383457D01*
X152824434Y-134383457D02*
X152895862Y-134097742D01*
X152895862Y-134097742D02*
X152967291Y-133954885D01*
X152967291Y-133954885D02*
X153038720Y-133883457D01*
X153038720Y-133883457D02*
X153181577Y-133812028D01*
X154610148Y-133812028D02*
X154753005Y-133812028D01*
X154753005Y-133812028D02*
X154895862Y-133883457D01*
X154895862Y-133883457D02*
X154967291Y-133954885D01*
X154967291Y-133954885D02*
X155038719Y-134097742D01*
X155038719Y-134097742D02*
X155110148Y-134383457D01*
X155110148Y-134383457D02*
X155110148Y-134740600D01*
X155110148Y-134740600D02*
X155038719Y-135026314D01*
X155038719Y-135026314D02*
X154967291Y-135169171D01*
X154967291Y-135169171D02*
X154895862Y-135240600D01*
X154895862Y-135240600D02*
X154753005Y-135312028D01*
X154753005Y-135312028D02*
X154610148Y-135312028D01*
X154610148Y-135312028D02*
X154467291Y-135240600D01*
X154467291Y-135240600D02*
X154395862Y-135169171D01*
X154395862Y-135169171D02*
X154324433Y-135026314D01*
X154324433Y-135026314D02*
X154253005Y-134740600D01*
X154253005Y-134740600D02*
X154253005Y-134383457D01*
X154253005Y-134383457D02*
X154324433Y-134097742D01*
X154324433Y-134097742D02*
X154395862Y-133954885D01*
X154395862Y-133954885D02*
X154467291Y-133883457D01*
X154467291Y-133883457D02*
X154610148Y-133812028D01*
X156038719Y-133812028D02*
X156181576Y-133812028D01*
X156181576Y-133812028D02*
X156324433Y-133883457D01*
X156324433Y-133883457D02*
X156395862Y-133954885D01*
X156395862Y-133954885D02*
X156467290Y-134097742D01*
X156467290Y-134097742D02*
X156538719Y-134383457D01*
X156538719Y-134383457D02*
X156538719Y-134740600D01*
X156538719Y-134740600D02*
X156467290Y-135026314D01*
X156467290Y-135026314D02*
X156395862Y-135169171D01*
X156395862Y-135169171D02*
X156324433Y-135240600D01*
X156324433Y-135240600D02*
X156181576Y-135312028D01*
X156181576Y-135312028D02*
X156038719Y-135312028D01*
X156038719Y-135312028D02*
X155895862Y-135240600D01*
X155895862Y-135240600D02*
X155824433Y-135169171D01*
X155824433Y-135169171D02*
X155753004Y-135026314D01*
X155753004Y-135026314D02*
X155681576Y-134740600D01*
X155681576Y-134740600D02*
X155681576Y-134383457D01*
X155681576Y-134383457D02*
X155753004Y-134097742D01*
X155753004Y-134097742D02*
X155824433Y-133954885D01*
X155824433Y-133954885D02*
X155895862Y-133883457D01*
X155895862Y-133883457D02*
X156038719Y-133812028D01*
X158324432Y-135312028D02*
X158324432Y-134312028D01*
X158324432Y-134454885D02*
X158395861Y-134383457D01*
X158395861Y-134383457D02*
X158538718Y-134312028D01*
X158538718Y-134312028D02*
X158753004Y-134312028D01*
X158753004Y-134312028D02*
X158895861Y-134383457D01*
X158895861Y-134383457D02*
X158967290Y-134526314D01*
X158967290Y-134526314D02*
X158967290Y-135312028D01*
X158967290Y-134526314D02*
X159038718Y-134383457D01*
X159038718Y-134383457D02*
X159181575Y-134312028D01*
X159181575Y-134312028D02*
X159395861Y-134312028D01*
X159395861Y-134312028D02*
X159538718Y-134383457D01*
X159538718Y-134383457D02*
X159610147Y-134526314D01*
X159610147Y-134526314D02*
X159610147Y-135312028D01*
X160324432Y-135312028D02*
X160324432Y-134312028D01*
X160324432Y-134454885D02*
X160395861Y-134383457D01*
X160395861Y-134383457D02*
X160538718Y-134312028D01*
X160538718Y-134312028D02*
X160753004Y-134312028D01*
X160753004Y-134312028D02*
X160895861Y-134383457D01*
X160895861Y-134383457D02*
X160967290Y-134526314D01*
X160967290Y-134526314D02*
X160967290Y-135312028D01*
X160967290Y-134526314D02*
X161038718Y-134383457D01*
X161038718Y-134383457D02*
X161181575Y-134312028D01*
X161181575Y-134312028D02*
X161395861Y-134312028D01*
X161395861Y-134312028D02*
X161538718Y-134383457D01*
X161538718Y-134383457D02*
X161610147Y-134526314D01*
X161610147Y-134526314D02*
X161610147Y-135312028D01*
X163324432Y-135312028D02*
X164110147Y-134312028D01*
X163324432Y-134312028D02*
X164110147Y-135312028D01*
X165681575Y-133812028D02*
X166610147Y-133812028D01*
X166610147Y-133812028D02*
X166110147Y-134383457D01*
X166110147Y-134383457D02*
X166324432Y-134383457D01*
X166324432Y-134383457D02*
X166467290Y-134454885D01*
X166467290Y-134454885D02*
X166538718Y-134526314D01*
X166538718Y-134526314D02*
X166610147Y-134669171D01*
X166610147Y-134669171D02*
X166610147Y-135026314D01*
X166610147Y-135026314D02*
X166538718Y-135169171D01*
X166538718Y-135169171D02*
X166467290Y-135240600D01*
X166467290Y-135240600D02*
X166324432Y-135312028D01*
X166324432Y-135312028D02*
X165895861Y-135312028D01*
X165895861Y-135312028D02*
X165753004Y-135240600D01*
X165753004Y-135240600D02*
X165681575Y-135169171D01*
X167110146Y-133812028D02*
X168110146Y-133812028D01*
X168110146Y-133812028D02*
X167467289Y-135312028D01*
X168681574Y-135169171D02*
X168753003Y-135240600D01*
X168753003Y-135240600D02*
X168681574Y-135312028D01*
X168681574Y-135312028D02*
X168610146Y-135240600D01*
X168610146Y-135240600D02*
X168681574Y-135169171D01*
X168681574Y-135169171D02*
X168681574Y-135312028D01*
X170110146Y-133812028D02*
X169395860Y-133812028D01*
X169395860Y-133812028D02*
X169324432Y-134526314D01*
X169324432Y-134526314D02*
X169395860Y-134454885D01*
X169395860Y-134454885D02*
X169538718Y-134383457D01*
X169538718Y-134383457D02*
X169895860Y-134383457D01*
X169895860Y-134383457D02*
X170038718Y-134454885D01*
X170038718Y-134454885D02*
X170110146Y-134526314D01*
X170110146Y-134526314D02*
X170181575Y-134669171D01*
X170181575Y-134669171D02*
X170181575Y-135026314D01*
X170181575Y-135026314D02*
X170110146Y-135169171D01*
X170110146Y-135169171D02*
X170038718Y-135240600D01*
X170038718Y-135240600D02*
X169895860Y-135312028D01*
X169895860Y-135312028D02*
X169538718Y-135312028D01*
X169538718Y-135312028D02*
X169395860Y-135240600D01*
X169395860Y-135240600D02*
X169324432Y-135169171D01*
X171110146Y-133812028D02*
X171253003Y-133812028D01*
X171253003Y-133812028D02*
X171395860Y-133883457D01*
X171395860Y-133883457D02*
X171467289Y-133954885D01*
X171467289Y-133954885D02*
X171538717Y-134097742D01*
X171538717Y-134097742D02*
X171610146Y-134383457D01*
X171610146Y-134383457D02*
X171610146Y-134740600D01*
X171610146Y-134740600D02*
X171538717Y-135026314D01*
X171538717Y-135026314D02*
X171467289Y-135169171D01*
X171467289Y-135169171D02*
X171395860Y-135240600D01*
X171395860Y-135240600D02*
X171253003Y-135312028D01*
X171253003Y-135312028D02*
X171110146Y-135312028D01*
X171110146Y-135312028D02*
X170967289Y-135240600D01*
X170967289Y-135240600D02*
X170895860Y-135169171D01*
X170895860Y-135169171D02*
X170824431Y-135026314D01*
X170824431Y-135026314D02*
X170753003Y-134740600D01*
X170753003Y-134740600D02*
X170753003Y-134383457D01*
X170753003Y-134383457D02*
X170824431Y-134097742D01*
X170824431Y-134097742D02*
X170895860Y-133954885D01*
X170895860Y-133954885D02*
X170967289Y-133883457D01*
X170967289Y-133883457D02*
X171110146Y-133812028D01*
X172538717Y-133812028D02*
X172681574Y-133812028D01*
X172681574Y-133812028D02*
X172824431Y-133883457D01*
X172824431Y-133883457D02*
X172895860Y-133954885D01*
X172895860Y-133954885D02*
X172967288Y-134097742D01*
X172967288Y-134097742D02*
X173038717Y-134383457D01*
X173038717Y-134383457D02*
X173038717Y-134740600D01*
X173038717Y-134740600D02*
X172967288Y-135026314D01*
X172967288Y-135026314D02*
X172895860Y-135169171D01*
X172895860Y-135169171D02*
X172824431Y-135240600D01*
X172824431Y-135240600D02*
X172681574Y-135312028D01*
X172681574Y-135312028D02*
X172538717Y-135312028D01*
X172538717Y-135312028D02*
X172395860Y-135240600D01*
X172395860Y-135240600D02*
X172324431Y-135169171D01*
X172324431Y-135169171D02*
X172253002Y-135026314D01*
X172253002Y-135026314D02*
X172181574Y-134740600D01*
X172181574Y-134740600D02*
X172181574Y-134383457D01*
X172181574Y-134383457D02*
X172253002Y-134097742D01*
X172253002Y-134097742D02*
X172324431Y-133954885D01*
X172324431Y-133954885D02*
X172395860Y-133883457D01*
X172395860Y-133883457D02*
X172538717Y-133812028D01*
X173967288Y-133812028D02*
X174110145Y-133812028D01*
X174110145Y-133812028D02*
X174253002Y-133883457D01*
X174253002Y-133883457D02*
X174324431Y-133954885D01*
X174324431Y-133954885D02*
X174395859Y-134097742D01*
X174395859Y-134097742D02*
X174467288Y-134383457D01*
X174467288Y-134383457D02*
X174467288Y-134740600D01*
X174467288Y-134740600D02*
X174395859Y-135026314D01*
X174395859Y-135026314D02*
X174324431Y-135169171D01*
X174324431Y-135169171D02*
X174253002Y-135240600D01*
X174253002Y-135240600D02*
X174110145Y-135312028D01*
X174110145Y-135312028D02*
X173967288Y-135312028D01*
X173967288Y-135312028D02*
X173824431Y-135240600D01*
X173824431Y-135240600D02*
X173753002Y-135169171D01*
X173753002Y-135169171D02*
X173681573Y-135026314D01*
X173681573Y-135026314D02*
X173610145Y-134740600D01*
X173610145Y-134740600D02*
X173610145Y-134383457D01*
X173610145Y-134383457D02*
X173681573Y-134097742D01*
X173681573Y-134097742D02*
X173753002Y-133954885D01*
X173753002Y-133954885D02*
X173824431Y-133883457D01*
X173824431Y-133883457D02*
X173967288Y-133812028D01*
X176253001Y-135312028D02*
X176253001Y-134312028D01*
X176253001Y-134454885D02*
X176324430Y-134383457D01*
X176324430Y-134383457D02*
X176467287Y-134312028D01*
X176467287Y-134312028D02*
X176681573Y-134312028D01*
X176681573Y-134312028D02*
X176824430Y-134383457D01*
X176824430Y-134383457D02*
X176895859Y-134526314D01*
X176895859Y-134526314D02*
X176895859Y-135312028D01*
X176895859Y-134526314D02*
X176967287Y-134383457D01*
X176967287Y-134383457D02*
X177110144Y-134312028D01*
X177110144Y-134312028D02*
X177324430Y-134312028D01*
X177324430Y-134312028D02*
X177467287Y-134383457D01*
X177467287Y-134383457D02*
X177538716Y-134526314D01*
X177538716Y-134526314D02*
X177538716Y-135312028D01*
X178253001Y-135312028D02*
X178253001Y-134312028D01*
X178253001Y-134454885D02*
X178324430Y-134383457D01*
X178324430Y-134383457D02*
X178467287Y-134312028D01*
X178467287Y-134312028D02*
X178681573Y-134312028D01*
X178681573Y-134312028D02*
X178824430Y-134383457D01*
X178824430Y-134383457D02*
X178895859Y-134526314D01*
X178895859Y-134526314D02*
X178895859Y-135312028D01*
X178895859Y-134526314D02*
X178967287Y-134383457D01*
X178967287Y-134383457D02*
X179110144Y-134312028D01*
X179110144Y-134312028D02*
X179324430Y-134312028D01*
X179324430Y-134312028D02*
X179467287Y-134383457D01*
X179467287Y-134383457D02*
X179538716Y-134526314D01*
X179538716Y-134526314D02*
X179538716Y-135312028D01*
X147824435Y-129997885D02*
X147895863Y-129926457D01*
X147895863Y-129926457D02*
X148038721Y-129855028D01*
X148038721Y-129855028D02*
X148395863Y-129855028D01*
X148395863Y-129855028D02*
X148538721Y-129926457D01*
X148538721Y-129926457D02*
X148610149Y-129997885D01*
X148610149Y-129997885D02*
X148681578Y-130140742D01*
X148681578Y-130140742D02*
X148681578Y-130283600D01*
X148681578Y-130283600D02*
X148610149Y-130497885D01*
X148610149Y-130497885D02*
X147753006Y-131355028D01*
X147753006Y-131355028D02*
X148681578Y-131355028D01*
X147895863Y-151140028D02*
X147895863Y-149640028D01*
X147895863Y-149640028D02*
X148753006Y-151140028D01*
X148753006Y-151140028D02*
X148753006Y-149640028D01*
X149681578Y-151140028D02*
X149538721Y-151068600D01*
X149538721Y-151068600D02*
X149467292Y-150997171D01*
X149467292Y-150997171D02*
X149395864Y-150854314D01*
X149395864Y-150854314D02*
X149395864Y-150425742D01*
X149395864Y-150425742D02*
X149467292Y-150282885D01*
X149467292Y-150282885D02*
X149538721Y-150211457D01*
X149538721Y-150211457D02*
X149681578Y-150140028D01*
X149681578Y-150140028D02*
X149895864Y-150140028D01*
X149895864Y-150140028D02*
X150038721Y-150211457D01*
X150038721Y-150211457D02*
X150110150Y-150282885D01*
X150110150Y-150282885D02*
X150181578Y-150425742D01*
X150181578Y-150425742D02*
X150181578Y-150854314D01*
X150181578Y-150854314D02*
X150110150Y-150997171D01*
X150110150Y-150997171D02*
X150038721Y-151068600D01*
X150038721Y-151068600D02*
X149895864Y-151140028D01*
X149895864Y-151140028D02*
X149681578Y-151140028D01*
X115238720Y-150354314D02*
X115738720Y-150354314D01*
X115953006Y-151140028D02*
X115238720Y-151140028D01*
X115238720Y-151140028D02*
X115238720Y-149640028D01*
X115238720Y-149640028D02*
X115953006Y-149640028D01*
X117238721Y-151140028D02*
X117238721Y-149640028D01*
X117238721Y-151068600D02*
X117095863Y-151140028D01*
X117095863Y-151140028D02*
X116810149Y-151140028D01*
X116810149Y-151140028D02*
X116667292Y-151068600D01*
X116667292Y-151068600D02*
X116595863Y-150997171D01*
X116595863Y-150997171D02*
X116524435Y-150854314D01*
X116524435Y-150854314D02*
X116524435Y-150425742D01*
X116524435Y-150425742D02*
X116595863Y-150282885D01*
X116595863Y-150282885D02*
X116667292Y-150211457D01*
X116667292Y-150211457D02*
X116810149Y-150140028D01*
X116810149Y-150140028D02*
X117095863Y-150140028D01*
X117095863Y-150140028D02*
X117238721Y-150211457D01*
X118595864Y-150140028D02*
X118595864Y-151354314D01*
X118595864Y-151354314D02*
X118524435Y-151497171D01*
X118524435Y-151497171D02*
X118453006Y-151568600D01*
X118453006Y-151568600D02*
X118310149Y-151640028D01*
X118310149Y-151640028D02*
X118095864Y-151640028D01*
X118095864Y-151640028D02*
X117953006Y-151568600D01*
X118595864Y-151068600D02*
X118453006Y-151140028D01*
X118453006Y-151140028D02*
X118167292Y-151140028D01*
X118167292Y-151140028D02*
X118024435Y-151068600D01*
X118024435Y-151068600D02*
X117953006Y-150997171D01*
X117953006Y-150997171D02*
X117881578Y-150854314D01*
X117881578Y-150854314D02*
X117881578Y-150425742D01*
X117881578Y-150425742D02*
X117953006Y-150282885D01*
X117953006Y-150282885D02*
X118024435Y-150211457D01*
X118024435Y-150211457D02*
X118167292Y-150140028D01*
X118167292Y-150140028D02*
X118453006Y-150140028D01*
X118453006Y-150140028D02*
X118595864Y-150211457D01*
X119881578Y-151068600D02*
X119738721Y-151140028D01*
X119738721Y-151140028D02*
X119453007Y-151140028D01*
X119453007Y-151140028D02*
X119310149Y-151068600D01*
X119310149Y-151068600D02*
X119238721Y-150925742D01*
X119238721Y-150925742D02*
X119238721Y-150354314D01*
X119238721Y-150354314D02*
X119310149Y-150211457D01*
X119310149Y-150211457D02*
X119453007Y-150140028D01*
X119453007Y-150140028D02*
X119738721Y-150140028D01*
X119738721Y-150140028D02*
X119881578Y-150211457D01*
X119881578Y-150211457D02*
X119953007Y-150354314D01*
X119953007Y-150354314D02*
X119953007Y-150497171D01*
X119953007Y-150497171D02*
X119238721Y-150640028D01*
X122381578Y-151068600D02*
X122238720Y-151140028D01*
X122238720Y-151140028D02*
X121953006Y-151140028D01*
X121953006Y-151140028D02*
X121810149Y-151068600D01*
X121810149Y-151068600D02*
X121738720Y-150997171D01*
X121738720Y-150997171D02*
X121667292Y-150854314D01*
X121667292Y-150854314D02*
X121667292Y-150425742D01*
X121667292Y-150425742D02*
X121738720Y-150282885D01*
X121738720Y-150282885D02*
X121810149Y-150211457D01*
X121810149Y-150211457D02*
X121953006Y-150140028D01*
X121953006Y-150140028D02*
X122238720Y-150140028D01*
X122238720Y-150140028D02*
X122381578Y-150211457D01*
X123667292Y-151140028D02*
X123667292Y-150354314D01*
X123667292Y-150354314D02*
X123595863Y-150211457D01*
X123595863Y-150211457D02*
X123453006Y-150140028D01*
X123453006Y-150140028D02*
X123167292Y-150140028D01*
X123167292Y-150140028D02*
X123024434Y-150211457D01*
X123667292Y-151068600D02*
X123524434Y-151140028D01*
X123524434Y-151140028D02*
X123167292Y-151140028D01*
X123167292Y-151140028D02*
X123024434Y-151068600D01*
X123024434Y-151068600D02*
X122953006Y-150925742D01*
X122953006Y-150925742D02*
X122953006Y-150782885D01*
X122953006Y-150782885D02*
X123024434Y-150640028D01*
X123024434Y-150640028D02*
X123167292Y-150568600D01*
X123167292Y-150568600D02*
X123524434Y-150568600D01*
X123524434Y-150568600D02*
X123667292Y-150497171D01*
X124381577Y-151140028D02*
X124381577Y-150140028D01*
X124381577Y-150425742D02*
X124453006Y-150282885D01*
X124453006Y-150282885D02*
X124524435Y-150211457D01*
X124524435Y-150211457D02*
X124667292Y-150140028D01*
X124667292Y-150140028D02*
X124810149Y-150140028D01*
X125953006Y-151140028D02*
X125953006Y-149640028D01*
X125953006Y-151068600D02*
X125810148Y-151140028D01*
X125810148Y-151140028D02*
X125524434Y-151140028D01*
X125524434Y-151140028D02*
X125381577Y-151068600D01*
X125381577Y-151068600D02*
X125310148Y-150997171D01*
X125310148Y-150997171D02*
X125238720Y-150854314D01*
X125238720Y-150854314D02*
X125238720Y-150425742D01*
X125238720Y-150425742D02*
X125310148Y-150282885D01*
X125310148Y-150282885D02*
X125381577Y-150211457D01*
X125381577Y-150211457D02*
X125524434Y-150140028D01*
X125524434Y-150140028D02*
X125810148Y-150140028D01*
X125810148Y-150140028D02*
X125953006Y-150211457D01*
X128453006Y-151068600D02*
X128310148Y-151140028D01*
X128310148Y-151140028D02*
X128024434Y-151140028D01*
X128024434Y-151140028D02*
X127881577Y-151068600D01*
X127881577Y-151068600D02*
X127810148Y-150997171D01*
X127810148Y-150997171D02*
X127738720Y-150854314D01*
X127738720Y-150854314D02*
X127738720Y-150425742D01*
X127738720Y-150425742D02*
X127810148Y-150282885D01*
X127810148Y-150282885D02*
X127881577Y-150211457D01*
X127881577Y-150211457D02*
X128024434Y-150140028D01*
X128024434Y-150140028D02*
X128310148Y-150140028D01*
X128310148Y-150140028D02*
X128453006Y-150211457D01*
X129310148Y-151140028D02*
X129167291Y-151068600D01*
X129167291Y-151068600D02*
X129095862Y-150997171D01*
X129095862Y-150997171D02*
X129024434Y-150854314D01*
X129024434Y-150854314D02*
X129024434Y-150425742D01*
X129024434Y-150425742D02*
X129095862Y-150282885D01*
X129095862Y-150282885D02*
X129167291Y-150211457D01*
X129167291Y-150211457D02*
X129310148Y-150140028D01*
X129310148Y-150140028D02*
X129524434Y-150140028D01*
X129524434Y-150140028D02*
X129667291Y-150211457D01*
X129667291Y-150211457D02*
X129738720Y-150282885D01*
X129738720Y-150282885D02*
X129810148Y-150425742D01*
X129810148Y-150425742D02*
X129810148Y-150854314D01*
X129810148Y-150854314D02*
X129738720Y-150997171D01*
X129738720Y-150997171D02*
X129667291Y-151068600D01*
X129667291Y-151068600D02*
X129524434Y-151140028D01*
X129524434Y-151140028D02*
X129310148Y-151140028D01*
X130453005Y-150140028D02*
X130453005Y-151140028D01*
X130453005Y-150282885D02*
X130524434Y-150211457D01*
X130524434Y-150211457D02*
X130667291Y-150140028D01*
X130667291Y-150140028D02*
X130881577Y-150140028D01*
X130881577Y-150140028D02*
X131024434Y-150211457D01*
X131024434Y-150211457D02*
X131095863Y-150354314D01*
X131095863Y-150354314D02*
X131095863Y-151140028D01*
X131810148Y-150140028D02*
X131810148Y-151140028D01*
X131810148Y-150282885D02*
X131881577Y-150211457D01*
X131881577Y-150211457D02*
X132024434Y-150140028D01*
X132024434Y-150140028D02*
X132238720Y-150140028D01*
X132238720Y-150140028D02*
X132381577Y-150211457D01*
X132381577Y-150211457D02*
X132453006Y-150354314D01*
X132453006Y-150354314D02*
X132453006Y-151140028D01*
X133738720Y-151068600D02*
X133595863Y-151140028D01*
X133595863Y-151140028D02*
X133310149Y-151140028D01*
X133310149Y-151140028D02*
X133167291Y-151068600D01*
X133167291Y-151068600D02*
X133095863Y-150925742D01*
X133095863Y-150925742D02*
X133095863Y-150354314D01*
X133095863Y-150354314D02*
X133167291Y-150211457D01*
X133167291Y-150211457D02*
X133310149Y-150140028D01*
X133310149Y-150140028D02*
X133595863Y-150140028D01*
X133595863Y-150140028D02*
X133738720Y-150211457D01*
X133738720Y-150211457D02*
X133810149Y-150354314D01*
X133810149Y-150354314D02*
X133810149Y-150497171D01*
X133810149Y-150497171D02*
X133095863Y-150640028D01*
X135095863Y-151068600D02*
X134953005Y-151140028D01*
X134953005Y-151140028D02*
X134667291Y-151140028D01*
X134667291Y-151140028D02*
X134524434Y-151068600D01*
X134524434Y-151068600D02*
X134453005Y-150997171D01*
X134453005Y-150997171D02*
X134381577Y-150854314D01*
X134381577Y-150854314D02*
X134381577Y-150425742D01*
X134381577Y-150425742D02*
X134453005Y-150282885D01*
X134453005Y-150282885D02*
X134524434Y-150211457D01*
X134524434Y-150211457D02*
X134667291Y-150140028D01*
X134667291Y-150140028D02*
X134953005Y-150140028D01*
X134953005Y-150140028D02*
X135095863Y-150211457D01*
X135524434Y-150140028D02*
X136095862Y-150140028D01*
X135738719Y-149640028D02*
X135738719Y-150925742D01*
X135738719Y-150925742D02*
X135810148Y-151068600D01*
X135810148Y-151068600D02*
X135953005Y-151140028D01*
X135953005Y-151140028D02*
X136095862Y-151140028D01*
X136810148Y-151140028D02*
X136667291Y-151068600D01*
X136667291Y-151068600D02*
X136595862Y-150997171D01*
X136595862Y-150997171D02*
X136524434Y-150854314D01*
X136524434Y-150854314D02*
X136524434Y-150425742D01*
X136524434Y-150425742D02*
X136595862Y-150282885D01*
X136595862Y-150282885D02*
X136667291Y-150211457D01*
X136667291Y-150211457D02*
X136810148Y-150140028D01*
X136810148Y-150140028D02*
X137024434Y-150140028D01*
X137024434Y-150140028D02*
X137167291Y-150211457D01*
X137167291Y-150211457D02*
X137238720Y-150282885D01*
X137238720Y-150282885D02*
X137310148Y-150425742D01*
X137310148Y-150425742D02*
X137310148Y-150854314D01*
X137310148Y-150854314D02*
X137238720Y-150997171D01*
X137238720Y-150997171D02*
X137167291Y-151068600D01*
X137167291Y-151068600D02*
X137024434Y-151140028D01*
X137024434Y-151140028D02*
X136810148Y-151140028D01*
X137953005Y-151140028D02*
X137953005Y-150140028D01*
X137953005Y-150425742D02*
X138024434Y-150282885D01*
X138024434Y-150282885D02*
X138095863Y-150211457D01*
X138095863Y-150211457D02*
X138238720Y-150140028D01*
X138238720Y-150140028D02*
X138381577Y-150140028D01*
X138810148Y-151068600D02*
X138953005Y-151140028D01*
X138953005Y-151140028D02*
X139238719Y-151140028D01*
X139238719Y-151140028D02*
X139381576Y-151068600D01*
X139381576Y-151068600D02*
X139453005Y-150925742D01*
X139453005Y-150925742D02*
X139453005Y-150854314D01*
X139453005Y-150854314D02*
X139381576Y-150711457D01*
X139381576Y-150711457D02*
X139238719Y-150640028D01*
X139238719Y-150640028D02*
X139024434Y-150640028D01*
X139024434Y-150640028D02*
X138881576Y-150568600D01*
X138881576Y-150568600D02*
X138810148Y-150425742D01*
X138810148Y-150425742D02*
X138810148Y-150354314D01*
X138810148Y-150354314D02*
X138881576Y-150211457D01*
X138881576Y-150211457D02*
X139024434Y-150140028D01*
X139024434Y-150140028D02*
X139238719Y-150140028D01*
X139238719Y-150140028D02*
X139381576Y-150211457D01*
X140095862Y-150997171D02*
X140167291Y-151068600D01*
X140167291Y-151068600D02*
X140095862Y-151140028D01*
X140095862Y-151140028D02*
X140024434Y-151068600D01*
X140024434Y-151068600D02*
X140095862Y-150997171D01*
X140095862Y-150997171D02*
X140095862Y-151140028D01*
X140095862Y-150211457D02*
X140167291Y-150282885D01*
X140167291Y-150282885D02*
X140095862Y-150354314D01*
X140095862Y-150354314D02*
X140024434Y-150282885D01*
X140024434Y-150282885D02*
X140095862Y-150211457D01*
X140095862Y-150211457D02*
X140095862Y-150354314D01*
X206995858Y-147183028D02*
X206995858Y-145683028D01*
X206995858Y-145683028D02*
X207853001Y-147183028D01*
X207853001Y-147183028D02*
X207853001Y-145683028D01*
X208781573Y-147183028D02*
X208638716Y-147111600D01*
X208638716Y-147111600D02*
X208567287Y-147040171D01*
X208567287Y-147040171D02*
X208495859Y-146897314D01*
X208495859Y-146897314D02*
X208495859Y-146468742D01*
X208495859Y-146468742D02*
X208567287Y-146325885D01*
X208567287Y-146325885D02*
X208638716Y-146254457D01*
X208638716Y-146254457D02*
X208781573Y-146183028D01*
X208781573Y-146183028D02*
X208995859Y-146183028D01*
X208995859Y-146183028D02*
X209138716Y-146254457D01*
X209138716Y-146254457D02*
X209210145Y-146325885D01*
X209210145Y-146325885D02*
X209281573Y-146468742D01*
X209281573Y-146468742D02*
X209281573Y-146897314D01*
X209281573Y-146897314D02*
X209210145Y-147040171D01*
X209210145Y-147040171D02*
X209138716Y-147111600D01*
X209138716Y-147111600D02*
X208995859Y-147183028D01*
X208995859Y-147183028D02*
X208781573Y-147183028D01*
X116095863Y-147040171D02*
X116024435Y-147111600D01*
X116024435Y-147111600D02*
X115810149Y-147183028D01*
X115810149Y-147183028D02*
X115667292Y-147183028D01*
X115667292Y-147183028D02*
X115453006Y-147111600D01*
X115453006Y-147111600D02*
X115310149Y-146968742D01*
X115310149Y-146968742D02*
X115238720Y-146825885D01*
X115238720Y-146825885D02*
X115167292Y-146540171D01*
X115167292Y-146540171D02*
X115167292Y-146325885D01*
X115167292Y-146325885D02*
X115238720Y-146040171D01*
X115238720Y-146040171D02*
X115310149Y-145897314D01*
X115310149Y-145897314D02*
X115453006Y-145754457D01*
X115453006Y-145754457D02*
X115667292Y-145683028D01*
X115667292Y-145683028D02*
X115810149Y-145683028D01*
X115810149Y-145683028D02*
X116024435Y-145754457D01*
X116024435Y-145754457D02*
X116095863Y-145825885D01*
X117381578Y-147183028D02*
X117381578Y-146397314D01*
X117381578Y-146397314D02*
X117310149Y-146254457D01*
X117310149Y-146254457D02*
X117167292Y-146183028D01*
X117167292Y-146183028D02*
X116881578Y-146183028D01*
X116881578Y-146183028D02*
X116738720Y-146254457D01*
X117381578Y-147111600D02*
X117238720Y-147183028D01*
X117238720Y-147183028D02*
X116881578Y-147183028D01*
X116881578Y-147183028D02*
X116738720Y-147111600D01*
X116738720Y-147111600D02*
X116667292Y-146968742D01*
X116667292Y-146968742D02*
X116667292Y-146825885D01*
X116667292Y-146825885D02*
X116738720Y-146683028D01*
X116738720Y-146683028D02*
X116881578Y-146611600D01*
X116881578Y-146611600D02*
X117238720Y-146611600D01*
X117238720Y-146611600D02*
X117381578Y-146540171D01*
X118024435Y-147111600D02*
X118167292Y-147183028D01*
X118167292Y-147183028D02*
X118453006Y-147183028D01*
X118453006Y-147183028D02*
X118595863Y-147111600D01*
X118595863Y-147111600D02*
X118667292Y-146968742D01*
X118667292Y-146968742D02*
X118667292Y-146897314D01*
X118667292Y-146897314D02*
X118595863Y-146754457D01*
X118595863Y-146754457D02*
X118453006Y-146683028D01*
X118453006Y-146683028D02*
X118238721Y-146683028D01*
X118238721Y-146683028D02*
X118095863Y-146611600D01*
X118095863Y-146611600D02*
X118024435Y-146468742D01*
X118024435Y-146468742D02*
X118024435Y-146397314D01*
X118024435Y-146397314D02*
X118095863Y-146254457D01*
X118095863Y-146254457D02*
X118238721Y-146183028D01*
X118238721Y-146183028D02*
X118453006Y-146183028D01*
X118453006Y-146183028D02*
X118595863Y-146254457D01*
X119095864Y-146183028D02*
X119667292Y-146183028D01*
X119310149Y-145683028D02*
X119310149Y-146968742D01*
X119310149Y-146968742D02*
X119381578Y-147111600D01*
X119381578Y-147111600D02*
X119524435Y-147183028D01*
X119524435Y-147183028D02*
X119667292Y-147183028D01*
X120738721Y-147111600D02*
X120595864Y-147183028D01*
X120595864Y-147183028D02*
X120310150Y-147183028D01*
X120310150Y-147183028D02*
X120167292Y-147111600D01*
X120167292Y-147111600D02*
X120095864Y-146968742D01*
X120095864Y-146968742D02*
X120095864Y-146397314D01*
X120095864Y-146397314D02*
X120167292Y-146254457D01*
X120167292Y-146254457D02*
X120310150Y-146183028D01*
X120310150Y-146183028D02*
X120595864Y-146183028D01*
X120595864Y-146183028D02*
X120738721Y-146254457D01*
X120738721Y-146254457D02*
X120810150Y-146397314D01*
X120810150Y-146397314D02*
X120810150Y-146540171D01*
X120810150Y-146540171D02*
X120095864Y-146683028D01*
X121667292Y-147183028D02*
X121524435Y-147111600D01*
X121524435Y-147111600D02*
X121453006Y-146968742D01*
X121453006Y-146968742D02*
X121453006Y-145683028D01*
X122453006Y-147183028D02*
X122310149Y-147111600D01*
X122310149Y-147111600D02*
X122238720Y-146968742D01*
X122238720Y-146968742D02*
X122238720Y-145683028D01*
X123667292Y-147183028D02*
X123667292Y-146397314D01*
X123667292Y-146397314D02*
X123595863Y-146254457D01*
X123595863Y-146254457D02*
X123453006Y-146183028D01*
X123453006Y-146183028D02*
X123167292Y-146183028D01*
X123167292Y-146183028D02*
X123024434Y-146254457D01*
X123667292Y-147111600D02*
X123524434Y-147183028D01*
X123524434Y-147183028D02*
X123167292Y-147183028D01*
X123167292Y-147183028D02*
X123024434Y-147111600D01*
X123024434Y-147111600D02*
X122953006Y-146968742D01*
X122953006Y-146968742D02*
X122953006Y-146825885D01*
X122953006Y-146825885D02*
X123024434Y-146683028D01*
X123024434Y-146683028D02*
X123167292Y-146611600D01*
X123167292Y-146611600D02*
X123524434Y-146611600D01*
X123524434Y-146611600D02*
X123667292Y-146540171D01*
X124167292Y-146183028D02*
X124738720Y-146183028D01*
X124381577Y-145683028D02*
X124381577Y-146968742D01*
X124381577Y-146968742D02*
X124453006Y-147111600D01*
X124453006Y-147111600D02*
X124595863Y-147183028D01*
X124595863Y-147183028D02*
X124738720Y-147183028D01*
X125810149Y-147111600D02*
X125667292Y-147183028D01*
X125667292Y-147183028D02*
X125381578Y-147183028D01*
X125381578Y-147183028D02*
X125238720Y-147111600D01*
X125238720Y-147111600D02*
X125167292Y-146968742D01*
X125167292Y-146968742D02*
X125167292Y-146397314D01*
X125167292Y-146397314D02*
X125238720Y-146254457D01*
X125238720Y-146254457D02*
X125381578Y-146183028D01*
X125381578Y-146183028D02*
X125667292Y-146183028D01*
X125667292Y-146183028D02*
X125810149Y-146254457D01*
X125810149Y-146254457D02*
X125881578Y-146397314D01*
X125881578Y-146397314D02*
X125881578Y-146540171D01*
X125881578Y-146540171D02*
X125167292Y-146683028D01*
X127167292Y-147183028D02*
X127167292Y-145683028D01*
X127167292Y-147111600D02*
X127024434Y-147183028D01*
X127024434Y-147183028D02*
X126738720Y-147183028D01*
X126738720Y-147183028D02*
X126595863Y-147111600D01*
X126595863Y-147111600D02*
X126524434Y-147040171D01*
X126524434Y-147040171D02*
X126453006Y-146897314D01*
X126453006Y-146897314D02*
X126453006Y-146468742D01*
X126453006Y-146468742D02*
X126524434Y-146325885D01*
X126524434Y-146325885D02*
X126595863Y-146254457D01*
X126595863Y-146254457D02*
X126738720Y-146183028D01*
X126738720Y-146183028D02*
X127024434Y-146183028D01*
X127024434Y-146183028D02*
X127167292Y-146254457D01*
X129024434Y-146183028D02*
X129024434Y-147683028D01*
X129024434Y-146254457D02*
X129167292Y-146183028D01*
X129167292Y-146183028D02*
X129453006Y-146183028D01*
X129453006Y-146183028D02*
X129595863Y-146254457D01*
X129595863Y-146254457D02*
X129667292Y-146325885D01*
X129667292Y-146325885D02*
X129738720Y-146468742D01*
X129738720Y-146468742D02*
X129738720Y-146897314D01*
X129738720Y-146897314D02*
X129667292Y-147040171D01*
X129667292Y-147040171D02*
X129595863Y-147111600D01*
X129595863Y-147111600D02*
X129453006Y-147183028D01*
X129453006Y-147183028D02*
X129167292Y-147183028D01*
X129167292Y-147183028D02*
X129024434Y-147111600D01*
X131024435Y-147183028D02*
X131024435Y-146397314D01*
X131024435Y-146397314D02*
X130953006Y-146254457D01*
X130953006Y-146254457D02*
X130810149Y-146183028D01*
X130810149Y-146183028D02*
X130524435Y-146183028D01*
X130524435Y-146183028D02*
X130381577Y-146254457D01*
X131024435Y-147111600D02*
X130881577Y-147183028D01*
X130881577Y-147183028D02*
X130524435Y-147183028D01*
X130524435Y-147183028D02*
X130381577Y-147111600D01*
X130381577Y-147111600D02*
X130310149Y-146968742D01*
X130310149Y-146968742D02*
X130310149Y-146825885D01*
X130310149Y-146825885D02*
X130381577Y-146683028D01*
X130381577Y-146683028D02*
X130524435Y-146611600D01*
X130524435Y-146611600D02*
X130881577Y-146611600D01*
X130881577Y-146611600D02*
X131024435Y-146540171D01*
X132381578Y-147183028D02*
X132381578Y-145683028D01*
X132381578Y-147111600D02*
X132238720Y-147183028D01*
X132238720Y-147183028D02*
X131953006Y-147183028D01*
X131953006Y-147183028D02*
X131810149Y-147111600D01*
X131810149Y-147111600D02*
X131738720Y-147040171D01*
X131738720Y-147040171D02*
X131667292Y-146897314D01*
X131667292Y-146897314D02*
X131667292Y-146468742D01*
X131667292Y-146468742D02*
X131738720Y-146325885D01*
X131738720Y-146325885D02*
X131810149Y-146254457D01*
X131810149Y-146254457D02*
X131953006Y-146183028D01*
X131953006Y-146183028D02*
X132238720Y-146183028D01*
X132238720Y-146183028D02*
X132381578Y-146254457D01*
X133024435Y-147111600D02*
X133167292Y-147183028D01*
X133167292Y-147183028D02*
X133453006Y-147183028D01*
X133453006Y-147183028D02*
X133595863Y-147111600D01*
X133595863Y-147111600D02*
X133667292Y-146968742D01*
X133667292Y-146968742D02*
X133667292Y-146897314D01*
X133667292Y-146897314D02*
X133595863Y-146754457D01*
X133595863Y-146754457D02*
X133453006Y-146683028D01*
X133453006Y-146683028D02*
X133238721Y-146683028D01*
X133238721Y-146683028D02*
X133095863Y-146611600D01*
X133095863Y-146611600D02*
X133024435Y-146468742D01*
X133024435Y-146468742D02*
X133024435Y-146397314D01*
X133024435Y-146397314D02*
X133095863Y-146254457D01*
X133095863Y-146254457D02*
X133238721Y-146183028D01*
X133238721Y-146183028D02*
X133453006Y-146183028D01*
X133453006Y-146183028D02*
X133595863Y-146254457D01*
X134310149Y-147040171D02*
X134381578Y-147111600D01*
X134381578Y-147111600D02*
X134310149Y-147183028D01*
X134310149Y-147183028D02*
X134238721Y-147111600D01*
X134238721Y-147111600D02*
X134310149Y-147040171D01*
X134310149Y-147040171D02*
X134310149Y-147183028D01*
X134310149Y-146254457D02*
X134381578Y-146325885D01*
X134381578Y-146325885D02*
X134310149Y-146397314D01*
X134310149Y-146397314D02*
X134238721Y-146325885D01*
X134238721Y-146325885D02*
X134310149Y-146254457D01*
X134310149Y-146254457D02*
X134310149Y-146397314D01*
D17*
X115406014Y-125326819D02*
X115691728Y-125422057D01*
X115691728Y-125422057D02*
X115786966Y-125517295D01*
X115786966Y-125517295D02*
X115882204Y-125707771D01*
X115882204Y-125707771D02*
X115882204Y-125993485D01*
X115882204Y-125993485D02*
X115786966Y-126183961D01*
X115786966Y-126183961D02*
X115691728Y-126279200D01*
X115691728Y-126279200D02*
X115501252Y-126374438D01*
X115501252Y-126374438D02*
X114739347Y-126374438D01*
X114739347Y-126374438D02*
X114739347Y-124374438D01*
X114739347Y-124374438D02*
X115406014Y-124374438D01*
X115406014Y-124374438D02*
X115596490Y-124469676D01*
X115596490Y-124469676D02*
X115691728Y-124564914D01*
X115691728Y-124564914D02*
X115786966Y-124755390D01*
X115786966Y-124755390D02*
X115786966Y-124945866D01*
X115786966Y-124945866D02*
X115691728Y-125136342D01*
X115691728Y-125136342D02*
X115596490Y-125231580D01*
X115596490Y-125231580D02*
X115406014Y-125326819D01*
X115406014Y-125326819D02*
X114739347Y-125326819D01*
X117120299Y-124374438D02*
X117501252Y-124374438D01*
X117501252Y-124374438D02*
X117691728Y-124469676D01*
X117691728Y-124469676D02*
X117882204Y-124660152D01*
X117882204Y-124660152D02*
X117977442Y-125041104D01*
X117977442Y-125041104D02*
X117977442Y-125707771D01*
X117977442Y-125707771D02*
X117882204Y-126088723D01*
X117882204Y-126088723D02*
X117691728Y-126279200D01*
X117691728Y-126279200D02*
X117501252Y-126374438D01*
X117501252Y-126374438D02*
X117120299Y-126374438D01*
X117120299Y-126374438D02*
X116929823Y-126279200D01*
X116929823Y-126279200D02*
X116739347Y-126088723D01*
X116739347Y-126088723D02*
X116644109Y-125707771D01*
X116644109Y-125707771D02*
X116644109Y-125041104D01*
X116644109Y-125041104D02*
X116739347Y-124660152D01*
X116739347Y-124660152D02*
X116929823Y-124469676D01*
X116929823Y-124469676D02*
X117120299Y-124374438D01*
X118739347Y-125803009D02*
X119691728Y-125803009D01*
X118548871Y-126374438D02*
X119215537Y-124374438D01*
X119215537Y-124374438D02*
X119882204Y-126374438D01*
X121691728Y-126374438D02*
X121025061Y-125422057D01*
X120548871Y-126374438D02*
X120548871Y-124374438D01*
X120548871Y-124374438D02*
X121310776Y-124374438D01*
X121310776Y-124374438D02*
X121501252Y-124469676D01*
X121501252Y-124469676D02*
X121596490Y-124564914D01*
X121596490Y-124564914D02*
X121691728Y-124755390D01*
X121691728Y-124755390D02*
X121691728Y-125041104D01*
X121691728Y-125041104D02*
X121596490Y-125231580D01*
X121596490Y-125231580D02*
X121501252Y-125326819D01*
X121501252Y-125326819D02*
X121310776Y-125422057D01*
X121310776Y-125422057D02*
X120548871Y-125422057D01*
X122548871Y-126374438D02*
X122548871Y-124374438D01*
X122548871Y-124374438D02*
X123025061Y-124374438D01*
X123025061Y-124374438D02*
X123310776Y-124469676D01*
X123310776Y-124469676D02*
X123501252Y-124660152D01*
X123501252Y-124660152D02*
X123596490Y-124850628D01*
X123596490Y-124850628D02*
X123691728Y-125231580D01*
X123691728Y-125231580D02*
X123691728Y-125517295D01*
X123691728Y-125517295D02*
X123596490Y-125898247D01*
X123596490Y-125898247D02*
X123501252Y-126088723D01*
X123501252Y-126088723D02*
X123310776Y-126279200D01*
X123310776Y-126279200D02*
X123025061Y-126374438D01*
X123025061Y-126374438D02*
X122548871Y-126374438D01*
X127215538Y-126183961D02*
X127120300Y-126279200D01*
X127120300Y-126279200D02*
X126834586Y-126374438D01*
X126834586Y-126374438D02*
X126644110Y-126374438D01*
X126644110Y-126374438D02*
X126358395Y-126279200D01*
X126358395Y-126279200D02*
X126167919Y-126088723D01*
X126167919Y-126088723D02*
X126072681Y-125898247D01*
X126072681Y-125898247D02*
X125977443Y-125517295D01*
X125977443Y-125517295D02*
X125977443Y-125231580D01*
X125977443Y-125231580D02*
X126072681Y-124850628D01*
X126072681Y-124850628D02*
X126167919Y-124660152D01*
X126167919Y-124660152D02*
X126358395Y-124469676D01*
X126358395Y-124469676D02*
X126644110Y-124374438D01*
X126644110Y-124374438D02*
X126834586Y-124374438D01*
X126834586Y-124374438D02*
X127120300Y-124469676D01*
X127120300Y-124469676D02*
X127215538Y-124564914D01*
X128072681Y-126374438D02*
X128072681Y-124374438D01*
X128072681Y-125326819D02*
X129215538Y-125326819D01*
X129215538Y-126374438D02*
X129215538Y-124374438D01*
X130072681Y-125803009D02*
X131025062Y-125803009D01*
X129882205Y-126374438D02*
X130548871Y-124374438D01*
X130548871Y-124374438D02*
X131215538Y-126374438D01*
X133025062Y-126374438D02*
X132358395Y-125422057D01*
X131882205Y-126374438D02*
X131882205Y-124374438D01*
X131882205Y-124374438D02*
X132644110Y-124374438D01*
X132644110Y-124374438D02*
X132834586Y-124469676D01*
X132834586Y-124469676D02*
X132929824Y-124564914D01*
X132929824Y-124564914D02*
X133025062Y-124755390D01*
X133025062Y-124755390D02*
X133025062Y-125041104D01*
X133025062Y-125041104D02*
X132929824Y-125231580D01*
X132929824Y-125231580D02*
X132834586Y-125326819D01*
X132834586Y-125326819D02*
X132644110Y-125422057D01*
X132644110Y-125422057D02*
X131882205Y-125422057D01*
X133786967Y-125803009D02*
X134739348Y-125803009D01*
X133596491Y-126374438D02*
X134263157Y-124374438D01*
X134263157Y-124374438D02*
X134929824Y-126374438D01*
X136739348Y-126183961D02*
X136644110Y-126279200D01*
X136644110Y-126279200D02*
X136358396Y-126374438D01*
X136358396Y-126374438D02*
X136167920Y-126374438D01*
X136167920Y-126374438D02*
X135882205Y-126279200D01*
X135882205Y-126279200D02*
X135691729Y-126088723D01*
X135691729Y-126088723D02*
X135596491Y-125898247D01*
X135596491Y-125898247D02*
X135501253Y-125517295D01*
X135501253Y-125517295D02*
X135501253Y-125231580D01*
X135501253Y-125231580D02*
X135596491Y-124850628D01*
X135596491Y-124850628D02*
X135691729Y-124660152D01*
X135691729Y-124660152D02*
X135882205Y-124469676D01*
X135882205Y-124469676D02*
X136167920Y-124374438D01*
X136167920Y-124374438D02*
X136358396Y-124374438D01*
X136358396Y-124374438D02*
X136644110Y-124469676D01*
X136644110Y-124469676D02*
X136739348Y-124564914D01*
X137310777Y-124374438D02*
X138453634Y-124374438D01*
X137882205Y-126374438D02*
X137882205Y-124374438D01*
X139120301Y-125326819D02*
X139786968Y-125326819D01*
X140072682Y-126374438D02*
X139120301Y-126374438D01*
X139120301Y-126374438D02*
X139120301Y-124374438D01*
X139120301Y-124374438D02*
X140072682Y-124374438D01*
X142072682Y-126374438D02*
X141406015Y-125422057D01*
X140929825Y-126374438D02*
X140929825Y-124374438D01*
X140929825Y-124374438D02*
X141691730Y-124374438D01*
X141691730Y-124374438D02*
X141882206Y-124469676D01*
X141882206Y-124469676D02*
X141977444Y-124564914D01*
X141977444Y-124564914D02*
X142072682Y-124755390D01*
X142072682Y-124755390D02*
X142072682Y-125041104D01*
X142072682Y-125041104D02*
X141977444Y-125231580D01*
X141977444Y-125231580D02*
X141882206Y-125326819D01*
X141882206Y-125326819D02*
X141691730Y-125422057D01*
X141691730Y-125422057D02*
X140929825Y-125422057D01*
X142929825Y-126374438D02*
X142929825Y-124374438D01*
X143786968Y-126279200D02*
X144072682Y-126374438D01*
X144072682Y-126374438D02*
X144548873Y-126374438D01*
X144548873Y-126374438D02*
X144739349Y-126279200D01*
X144739349Y-126279200D02*
X144834587Y-126183961D01*
X144834587Y-126183961D02*
X144929825Y-125993485D01*
X144929825Y-125993485D02*
X144929825Y-125803009D01*
X144929825Y-125803009D02*
X144834587Y-125612533D01*
X144834587Y-125612533D02*
X144739349Y-125517295D01*
X144739349Y-125517295D02*
X144548873Y-125422057D01*
X144548873Y-125422057D02*
X144167920Y-125326819D01*
X144167920Y-125326819D02*
X143977444Y-125231580D01*
X143977444Y-125231580D02*
X143882206Y-125136342D01*
X143882206Y-125136342D02*
X143786968Y-124945866D01*
X143786968Y-124945866D02*
X143786968Y-124755390D01*
X143786968Y-124755390D02*
X143882206Y-124564914D01*
X143882206Y-124564914D02*
X143977444Y-124469676D01*
X143977444Y-124469676D02*
X144167920Y-124374438D01*
X144167920Y-124374438D02*
X144644111Y-124374438D01*
X144644111Y-124374438D02*
X144929825Y-124469676D01*
X145501254Y-124374438D02*
X146644111Y-124374438D01*
X146072682Y-126374438D02*
X146072682Y-124374438D01*
X147310778Y-126374438D02*
X147310778Y-124374438D01*
X149406016Y-126183961D02*
X149310778Y-126279200D01*
X149310778Y-126279200D02*
X149025064Y-126374438D01*
X149025064Y-126374438D02*
X148834588Y-126374438D01*
X148834588Y-126374438D02*
X148548873Y-126279200D01*
X148548873Y-126279200D02*
X148358397Y-126088723D01*
X148358397Y-126088723D02*
X148263159Y-125898247D01*
X148263159Y-125898247D02*
X148167921Y-125517295D01*
X148167921Y-125517295D02*
X148167921Y-125231580D01*
X148167921Y-125231580D02*
X148263159Y-124850628D01*
X148263159Y-124850628D02*
X148358397Y-124660152D01*
X148358397Y-124660152D02*
X148548873Y-124469676D01*
X148548873Y-124469676D02*
X148834588Y-124374438D01*
X148834588Y-124374438D02*
X149025064Y-124374438D01*
X149025064Y-124374438D02*
X149310778Y-124469676D01*
X149310778Y-124469676D02*
X149406016Y-124564914D01*
X150167921Y-126279200D02*
X150453635Y-126374438D01*
X150453635Y-126374438D02*
X150929826Y-126374438D01*
X150929826Y-126374438D02*
X151120302Y-126279200D01*
X151120302Y-126279200D02*
X151215540Y-126183961D01*
X151215540Y-126183961D02*
X151310778Y-125993485D01*
X151310778Y-125993485D02*
X151310778Y-125803009D01*
X151310778Y-125803009D02*
X151215540Y-125612533D01*
X151215540Y-125612533D02*
X151120302Y-125517295D01*
X151120302Y-125517295D02*
X150929826Y-125422057D01*
X150929826Y-125422057D02*
X150548873Y-125326819D01*
X150548873Y-125326819D02*
X150358397Y-125231580D01*
X150358397Y-125231580D02*
X150263159Y-125136342D01*
X150263159Y-125136342D02*
X150167921Y-124945866D01*
X150167921Y-124945866D02*
X150167921Y-124755390D01*
X150167921Y-124755390D02*
X150263159Y-124564914D01*
X150263159Y-124564914D02*
X150358397Y-124469676D01*
X150358397Y-124469676D02*
X150548873Y-124374438D01*
X150548873Y-124374438D02*
X151025064Y-124374438D01*
X151025064Y-124374438D02*
X151310778Y-124469676D01*
D13*
X115738720Y-134526314D02*
X115953006Y-134597742D01*
X115953006Y-134597742D02*
X116024435Y-134669171D01*
X116024435Y-134669171D02*
X116095863Y-134812028D01*
X116095863Y-134812028D02*
X116095863Y-135026314D01*
X116095863Y-135026314D02*
X116024435Y-135169171D01*
X116024435Y-135169171D02*
X115953006Y-135240600D01*
X115953006Y-135240600D02*
X115810149Y-135312028D01*
X115810149Y-135312028D02*
X115238720Y-135312028D01*
X115238720Y-135312028D02*
X115238720Y-133812028D01*
X115238720Y-133812028D02*
X115738720Y-133812028D01*
X115738720Y-133812028D02*
X115881578Y-133883457D01*
X115881578Y-133883457D02*
X115953006Y-133954885D01*
X115953006Y-133954885D02*
X116024435Y-134097742D01*
X116024435Y-134097742D02*
X116024435Y-134240600D01*
X116024435Y-134240600D02*
X115953006Y-134383457D01*
X115953006Y-134383457D02*
X115881578Y-134454885D01*
X115881578Y-134454885D02*
X115738720Y-134526314D01*
X115738720Y-134526314D02*
X115238720Y-134526314D01*
X116953006Y-135312028D02*
X116810149Y-135240600D01*
X116810149Y-135240600D02*
X116738720Y-135169171D01*
X116738720Y-135169171D02*
X116667292Y-135026314D01*
X116667292Y-135026314D02*
X116667292Y-134597742D01*
X116667292Y-134597742D02*
X116738720Y-134454885D01*
X116738720Y-134454885D02*
X116810149Y-134383457D01*
X116810149Y-134383457D02*
X116953006Y-134312028D01*
X116953006Y-134312028D02*
X117167292Y-134312028D01*
X117167292Y-134312028D02*
X117310149Y-134383457D01*
X117310149Y-134383457D02*
X117381578Y-134454885D01*
X117381578Y-134454885D02*
X117453006Y-134597742D01*
X117453006Y-134597742D02*
X117453006Y-135026314D01*
X117453006Y-135026314D02*
X117381578Y-135169171D01*
X117381578Y-135169171D02*
X117310149Y-135240600D01*
X117310149Y-135240600D02*
X117167292Y-135312028D01*
X117167292Y-135312028D02*
X116953006Y-135312028D01*
X118738721Y-135312028D02*
X118738721Y-134526314D01*
X118738721Y-134526314D02*
X118667292Y-134383457D01*
X118667292Y-134383457D02*
X118524435Y-134312028D01*
X118524435Y-134312028D02*
X118238721Y-134312028D01*
X118238721Y-134312028D02*
X118095863Y-134383457D01*
X118738721Y-135240600D02*
X118595863Y-135312028D01*
X118595863Y-135312028D02*
X118238721Y-135312028D01*
X118238721Y-135312028D02*
X118095863Y-135240600D01*
X118095863Y-135240600D02*
X118024435Y-135097742D01*
X118024435Y-135097742D02*
X118024435Y-134954885D01*
X118024435Y-134954885D02*
X118095863Y-134812028D01*
X118095863Y-134812028D02*
X118238721Y-134740600D01*
X118238721Y-134740600D02*
X118595863Y-134740600D01*
X118595863Y-134740600D02*
X118738721Y-134669171D01*
X119453006Y-135312028D02*
X119453006Y-134312028D01*
X119453006Y-134597742D02*
X119524435Y-134454885D01*
X119524435Y-134454885D02*
X119595864Y-134383457D01*
X119595864Y-134383457D02*
X119738721Y-134312028D01*
X119738721Y-134312028D02*
X119881578Y-134312028D01*
X121024435Y-135312028D02*
X121024435Y-133812028D01*
X121024435Y-135240600D02*
X120881577Y-135312028D01*
X120881577Y-135312028D02*
X120595863Y-135312028D01*
X120595863Y-135312028D02*
X120453006Y-135240600D01*
X120453006Y-135240600D02*
X120381577Y-135169171D01*
X120381577Y-135169171D02*
X120310149Y-135026314D01*
X120310149Y-135026314D02*
X120310149Y-134597742D01*
X120310149Y-134597742D02*
X120381577Y-134454885D01*
X120381577Y-134454885D02*
X120453006Y-134383457D01*
X120453006Y-134383457D02*
X120595863Y-134312028D01*
X120595863Y-134312028D02*
X120881577Y-134312028D01*
X120881577Y-134312028D02*
X121024435Y-134383457D01*
X123095863Y-135312028D02*
X122953006Y-135240600D01*
X122953006Y-135240600D02*
X122881577Y-135169171D01*
X122881577Y-135169171D02*
X122810149Y-135026314D01*
X122810149Y-135026314D02*
X122810149Y-134597742D01*
X122810149Y-134597742D02*
X122881577Y-134454885D01*
X122881577Y-134454885D02*
X122953006Y-134383457D01*
X122953006Y-134383457D02*
X123095863Y-134312028D01*
X123095863Y-134312028D02*
X123310149Y-134312028D01*
X123310149Y-134312028D02*
X123453006Y-134383457D01*
X123453006Y-134383457D02*
X123524435Y-134454885D01*
X123524435Y-134454885D02*
X123595863Y-134597742D01*
X123595863Y-134597742D02*
X123595863Y-135026314D01*
X123595863Y-135026314D02*
X123524435Y-135169171D01*
X123524435Y-135169171D02*
X123453006Y-135240600D01*
X123453006Y-135240600D02*
X123310149Y-135312028D01*
X123310149Y-135312028D02*
X123095863Y-135312028D01*
X124095863Y-134312028D02*
X124453006Y-135312028D01*
X124453006Y-135312028D02*
X124810149Y-134312028D01*
X125953006Y-135240600D02*
X125810149Y-135312028D01*
X125810149Y-135312028D02*
X125524435Y-135312028D01*
X125524435Y-135312028D02*
X125381577Y-135240600D01*
X125381577Y-135240600D02*
X125310149Y-135097742D01*
X125310149Y-135097742D02*
X125310149Y-134526314D01*
X125310149Y-134526314D02*
X125381577Y-134383457D01*
X125381577Y-134383457D02*
X125524435Y-134312028D01*
X125524435Y-134312028D02*
X125810149Y-134312028D01*
X125810149Y-134312028D02*
X125953006Y-134383457D01*
X125953006Y-134383457D02*
X126024435Y-134526314D01*
X126024435Y-134526314D02*
X126024435Y-134669171D01*
X126024435Y-134669171D02*
X125310149Y-134812028D01*
X126667291Y-135312028D02*
X126667291Y-134312028D01*
X126667291Y-134597742D02*
X126738720Y-134454885D01*
X126738720Y-134454885D02*
X126810149Y-134383457D01*
X126810149Y-134383457D02*
X126953006Y-134312028D01*
X126953006Y-134312028D02*
X127095863Y-134312028D01*
X128238720Y-135312028D02*
X128238720Y-134526314D01*
X128238720Y-134526314D02*
X128167291Y-134383457D01*
X128167291Y-134383457D02*
X128024434Y-134312028D01*
X128024434Y-134312028D02*
X127738720Y-134312028D01*
X127738720Y-134312028D02*
X127595862Y-134383457D01*
X128238720Y-135240600D02*
X128095862Y-135312028D01*
X128095862Y-135312028D02*
X127738720Y-135312028D01*
X127738720Y-135312028D02*
X127595862Y-135240600D01*
X127595862Y-135240600D02*
X127524434Y-135097742D01*
X127524434Y-135097742D02*
X127524434Y-134954885D01*
X127524434Y-134954885D02*
X127595862Y-134812028D01*
X127595862Y-134812028D02*
X127738720Y-134740600D01*
X127738720Y-134740600D02*
X128095862Y-134740600D01*
X128095862Y-134740600D02*
X128238720Y-134669171D01*
X129167291Y-135312028D02*
X129024434Y-135240600D01*
X129024434Y-135240600D02*
X128953005Y-135097742D01*
X128953005Y-135097742D02*
X128953005Y-133812028D01*
X129953005Y-135312028D02*
X129810148Y-135240600D01*
X129810148Y-135240600D02*
X129738719Y-135097742D01*
X129738719Y-135097742D02*
X129738719Y-133812028D01*
X132310148Y-135312028D02*
X132310148Y-133812028D01*
X132310148Y-135240600D02*
X132167290Y-135312028D01*
X132167290Y-135312028D02*
X131881576Y-135312028D01*
X131881576Y-135312028D02*
X131738719Y-135240600D01*
X131738719Y-135240600D02*
X131667290Y-135169171D01*
X131667290Y-135169171D02*
X131595862Y-135026314D01*
X131595862Y-135026314D02*
X131595862Y-134597742D01*
X131595862Y-134597742D02*
X131667290Y-134454885D01*
X131667290Y-134454885D02*
X131738719Y-134383457D01*
X131738719Y-134383457D02*
X131881576Y-134312028D01*
X131881576Y-134312028D02*
X132167290Y-134312028D01*
X132167290Y-134312028D02*
X132310148Y-134383457D01*
X133024433Y-135312028D02*
X133024433Y-134312028D01*
X133024433Y-133812028D02*
X132953005Y-133883457D01*
X132953005Y-133883457D02*
X133024433Y-133954885D01*
X133024433Y-133954885D02*
X133095862Y-133883457D01*
X133095862Y-133883457D02*
X133024433Y-133812028D01*
X133024433Y-133812028D02*
X133024433Y-133954885D01*
X133738719Y-135312028D02*
X133738719Y-134312028D01*
X133738719Y-134454885D02*
X133810148Y-134383457D01*
X133810148Y-134383457D02*
X133953005Y-134312028D01*
X133953005Y-134312028D02*
X134167291Y-134312028D01*
X134167291Y-134312028D02*
X134310148Y-134383457D01*
X134310148Y-134383457D02*
X134381577Y-134526314D01*
X134381577Y-134526314D02*
X134381577Y-135312028D01*
X134381577Y-134526314D02*
X134453005Y-134383457D01*
X134453005Y-134383457D02*
X134595862Y-134312028D01*
X134595862Y-134312028D02*
X134810148Y-134312028D01*
X134810148Y-134312028D02*
X134953005Y-134383457D01*
X134953005Y-134383457D02*
X135024434Y-134526314D01*
X135024434Y-134526314D02*
X135024434Y-135312028D01*
X136310148Y-135240600D02*
X136167291Y-135312028D01*
X136167291Y-135312028D02*
X135881577Y-135312028D01*
X135881577Y-135312028D02*
X135738719Y-135240600D01*
X135738719Y-135240600D02*
X135667291Y-135097742D01*
X135667291Y-135097742D02*
X135667291Y-134526314D01*
X135667291Y-134526314D02*
X135738719Y-134383457D01*
X135738719Y-134383457D02*
X135881577Y-134312028D01*
X135881577Y-134312028D02*
X136167291Y-134312028D01*
X136167291Y-134312028D02*
X136310148Y-134383457D01*
X136310148Y-134383457D02*
X136381577Y-134526314D01*
X136381577Y-134526314D02*
X136381577Y-134669171D01*
X136381577Y-134669171D02*
X135667291Y-134812028D01*
X137024433Y-134312028D02*
X137024433Y-135312028D01*
X137024433Y-134454885D02*
X137095862Y-134383457D01*
X137095862Y-134383457D02*
X137238719Y-134312028D01*
X137238719Y-134312028D02*
X137453005Y-134312028D01*
X137453005Y-134312028D02*
X137595862Y-134383457D01*
X137595862Y-134383457D02*
X137667291Y-134526314D01*
X137667291Y-134526314D02*
X137667291Y-135312028D01*
X138310148Y-135240600D02*
X138453005Y-135312028D01*
X138453005Y-135312028D02*
X138738719Y-135312028D01*
X138738719Y-135312028D02*
X138881576Y-135240600D01*
X138881576Y-135240600D02*
X138953005Y-135097742D01*
X138953005Y-135097742D02*
X138953005Y-135026314D01*
X138953005Y-135026314D02*
X138881576Y-134883457D01*
X138881576Y-134883457D02*
X138738719Y-134812028D01*
X138738719Y-134812028D02*
X138524434Y-134812028D01*
X138524434Y-134812028D02*
X138381576Y-134740600D01*
X138381576Y-134740600D02*
X138310148Y-134597742D01*
X138310148Y-134597742D02*
X138310148Y-134526314D01*
X138310148Y-134526314D02*
X138381576Y-134383457D01*
X138381576Y-134383457D02*
X138524434Y-134312028D01*
X138524434Y-134312028D02*
X138738719Y-134312028D01*
X138738719Y-134312028D02*
X138881576Y-134383457D01*
X139595862Y-135312028D02*
X139595862Y-134312028D01*
X139595862Y-133812028D02*
X139524434Y-133883457D01*
X139524434Y-133883457D02*
X139595862Y-133954885D01*
X139595862Y-133954885D02*
X139667291Y-133883457D01*
X139667291Y-133883457D02*
X139595862Y-133812028D01*
X139595862Y-133812028D02*
X139595862Y-133954885D01*
X140524434Y-135312028D02*
X140381577Y-135240600D01*
X140381577Y-135240600D02*
X140310148Y-135169171D01*
X140310148Y-135169171D02*
X140238720Y-135026314D01*
X140238720Y-135026314D02*
X140238720Y-134597742D01*
X140238720Y-134597742D02*
X140310148Y-134454885D01*
X140310148Y-134454885D02*
X140381577Y-134383457D01*
X140381577Y-134383457D02*
X140524434Y-134312028D01*
X140524434Y-134312028D02*
X140738720Y-134312028D01*
X140738720Y-134312028D02*
X140881577Y-134383457D01*
X140881577Y-134383457D02*
X140953006Y-134454885D01*
X140953006Y-134454885D02*
X141024434Y-134597742D01*
X141024434Y-134597742D02*
X141024434Y-135026314D01*
X141024434Y-135026314D02*
X140953006Y-135169171D01*
X140953006Y-135169171D02*
X140881577Y-135240600D01*
X140881577Y-135240600D02*
X140738720Y-135312028D01*
X140738720Y-135312028D02*
X140524434Y-135312028D01*
X141667291Y-134312028D02*
X141667291Y-135312028D01*
X141667291Y-134454885D02*
X141738720Y-134383457D01*
X141738720Y-134383457D02*
X141881577Y-134312028D01*
X141881577Y-134312028D02*
X142095863Y-134312028D01*
X142095863Y-134312028D02*
X142238720Y-134383457D01*
X142238720Y-134383457D02*
X142310149Y-134526314D01*
X142310149Y-134526314D02*
X142310149Y-135312028D01*
X142953006Y-135240600D02*
X143095863Y-135312028D01*
X143095863Y-135312028D02*
X143381577Y-135312028D01*
X143381577Y-135312028D02*
X143524434Y-135240600D01*
X143524434Y-135240600D02*
X143595863Y-135097742D01*
X143595863Y-135097742D02*
X143595863Y-135026314D01*
X143595863Y-135026314D02*
X143524434Y-134883457D01*
X143524434Y-134883457D02*
X143381577Y-134812028D01*
X143381577Y-134812028D02*
X143167292Y-134812028D01*
X143167292Y-134812028D02*
X143024434Y-134740600D01*
X143024434Y-134740600D02*
X142953006Y-134597742D01*
X142953006Y-134597742D02*
X142953006Y-134526314D01*
X142953006Y-134526314D02*
X143024434Y-134383457D01*
X143024434Y-134383457D02*
X143167292Y-134312028D01*
X143167292Y-134312028D02*
X143381577Y-134312028D01*
X143381577Y-134312028D02*
X143524434Y-134383457D01*
X144238720Y-135169171D02*
X144310149Y-135240600D01*
X144310149Y-135240600D02*
X144238720Y-135312028D01*
X144238720Y-135312028D02*
X144167292Y-135240600D01*
X144167292Y-135240600D02*
X144238720Y-135169171D01*
X144238720Y-135169171D02*
X144238720Y-135312028D01*
X144238720Y-134383457D02*
X144310149Y-134454885D01*
X144310149Y-134454885D02*
X144238720Y-134526314D01*
X144238720Y-134526314D02*
X144167292Y-134454885D01*
X144167292Y-134454885D02*
X144238720Y-134383457D01*
X144238720Y-134383457D02*
X144238720Y-134526314D01*
X116095863Y-131212171D02*
X116024435Y-131283600D01*
X116024435Y-131283600D02*
X115810149Y-131355028D01*
X115810149Y-131355028D02*
X115667292Y-131355028D01*
X115667292Y-131355028D02*
X115453006Y-131283600D01*
X115453006Y-131283600D02*
X115310149Y-131140742D01*
X115310149Y-131140742D02*
X115238720Y-130997885D01*
X115238720Y-130997885D02*
X115167292Y-130712171D01*
X115167292Y-130712171D02*
X115167292Y-130497885D01*
X115167292Y-130497885D02*
X115238720Y-130212171D01*
X115238720Y-130212171D02*
X115310149Y-130069314D01*
X115310149Y-130069314D02*
X115453006Y-129926457D01*
X115453006Y-129926457D02*
X115667292Y-129855028D01*
X115667292Y-129855028D02*
X115810149Y-129855028D01*
X115810149Y-129855028D02*
X116024435Y-129926457D01*
X116024435Y-129926457D02*
X116095863Y-129997885D01*
X116953006Y-131355028D02*
X116810149Y-131283600D01*
X116810149Y-131283600D02*
X116738720Y-131212171D01*
X116738720Y-131212171D02*
X116667292Y-131069314D01*
X116667292Y-131069314D02*
X116667292Y-130640742D01*
X116667292Y-130640742D02*
X116738720Y-130497885D01*
X116738720Y-130497885D02*
X116810149Y-130426457D01*
X116810149Y-130426457D02*
X116953006Y-130355028D01*
X116953006Y-130355028D02*
X117167292Y-130355028D01*
X117167292Y-130355028D02*
X117310149Y-130426457D01*
X117310149Y-130426457D02*
X117381578Y-130497885D01*
X117381578Y-130497885D02*
X117453006Y-130640742D01*
X117453006Y-130640742D02*
X117453006Y-131069314D01*
X117453006Y-131069314D02*
X117381578Y-131212171D01*
X117381578Y-131212171D02*
X117310149Y-131283600D01*
X117310149Y-131283600D02*
X117167292Y-131355028D01*
X117167292Y-131355028D02*
X116953006Y-131355028D01*
X118095863Y-130355028D02*
X118095863Y-131855028D01*
X118095863Y-130426457D02*
X118238721Y-130355028D01*
X118238721Y-130355028D02*
X118524435Y-130355028D01*
X118524435Y-130355028D02*
X118667292Y-130426457D01*
X118667292Y-130426457D02*
X118738721Y-130497885D01*
X118738721Y-130497885D02*
X118810149Y-130640742D01*
X118810149Y-130640742D02*
X118810149Y-131069314D01*
X118810149Y-131069314D02*
X118738721Y-131212171D01*
X118738721Y-131212171D02*
X118667292Y-131283600D01*
X118667292Y-131283600D02*
X118524435Y-131355028D01*
X118524435Y-131355028D02*
X118238721Y-131355028D01*
X118238721Y-131355028D02*
X118095863Y-131283600D01*
X119453006Y-130355028D02*
X119453006Y-131855028D01*
X119453006Y-130426457D02*
X119595864Y-130355028D01*
X119595864Y-130355028D02*
X119881578Y-130355028D01*
X119881578Y-130355028D02*
X120024435Y-130426457D01*
X120024435Y-130426457D02*
X120095864Y-130497885D01*
X120095864Y-130497885D02*
X120167292Y-130640742D01*
X120167292Y-130640742D02*
X120167292Y-131069314D01*
X120167292Y-131069314D02*
X120095864Y-131212171D01*
X120095864Y-131212171D02*
X120024435Y-131283600D01*
X120024435Y-131283600D02*
X119881578Y-131355028D01*
X119881578Y-131355028D02*
X119595864Y-131355028D01*
X119595864Y-131355028D02*
X119453006Y-131283600D01*
X121381578Y-131283600D02*
X121238721Y-131355028D01*
X121238721Y-131355028D02*
X120953007Y-131355028D01*
X120953007Y-131355028D02*
X120810149Y-131283600D01*
X120810149Y-131283600D02*
X120738721Y-131140742D01*
X120738721Y-131140742D02*
X120738721Y-130569314D01*
X120738721Y-130569314D02*
X120810149Y-130426457D01*
X120810149Y-130426457D02*
X120953007Y-130355028D01*
X120953007Y-130355028D02*
X121238721Y-130355028D01*
X121238721Y-130355028D02*
X121381578Y-130426457D01*
X121381578Y-130426457D02*
X121453007Y-130569314D01*
X121453007Y-130569314D02*
X121453007Y-130712171D01*
X121453007Y-130712171D02*
X120738721Y-130855028D01*
X122095863Y-131355028D02*
X122095863Y-130355028D01*
X122095863Y-130640742D02*
X122167292Y-130497885D01*
X122167292Y-130497885D02*
X122238721Y-130426457D01*
X122238721Y-130426457D02*
X122381578Y-130355028D01*
X122381578Y-130355028D02*
X122524435Y-130355028D01*
X124881577Y-131355028D02*
X124167291Y-131355028D01*
X124167291Y-131355028D02*
X124167291Y-129855028D01*
X126024435Y-131355028D02*
X126024435Y-130569314D01*
X126024435Y-130569314D02*
X125953006Y-130426457D01*
X125953006Y-130426457D02*
X125810149Y-130355028D01*
X125810149Y-130355028D02*
X125524435Y-130355028D01*
X125524435Y-130355028D02*
X125381577Y-130426457D01*
X126024435Y-131283600D02*
X125881577Y-131355028D01*
X125881577Y-131355028D02*
X125524435Y-131355028D01*
X125524435Y-131355028D02*
X125381577Y-131283600D01*
X125381577Y-131283600D02*
X125310149Y-131140742D01*
X125310149Y-131140742D02*
X125310149Y-130997885D01*
X125310149Y-130997885D02*
X125381577Y-130855028D01*
X125381577Y-130855028D02*
X125524435Y-130783600D01*
X125524435Y-130783600D02*
X125881577Y-130783600D01*
X125881577Y-130783600D02*
X126024435Y-130712171D01*
X126595863Y-130355028D02*
X126953006Y-131355028D01*
X127310149Y-130355028D02*
X126953006Y-131355028D01*
X126953006Y-131355028D02*
X126810149Y-131712171D01*
X126810149Y-131712171D02*
X126738720Y-131783600D01*
X126738720Y-131783600D02*
X126595863Y-131855028D01*
X128453006Y-131283600D02*
X128310149Y-131355028D01*
X128310149Y-131355028D02*
X128024435Y-131355028D01*
X128024435Y-131355028D02*
X127881577Y-131283600D01*
X127881577Y-131283600D02*
X127810149Y-131140742D01*
X127810149Y-131140742D02*
X127810149Y-130569314D01*
X127810149Y-130569314D02*
X127881577Y-130426457D01*
X127881577Y-130426457D02*
X128024435Y-130355028D01*
X128024435Y-130355028D02*
X128310149Y-130355028D01*
X128310149Y-130355028D02*
X128453006Y-130426457D01*
X128453006Y-130426457D02*
X128524435Y-130569314D01*
X128524435Y-130569314D02*
X128524435Y-130712171D01*
X128524435Y-130712171D02*
X127810149Y-130855028D01*
X129167291Y-131355028D02*
X129167291Y-130355028D01*
X129167291Y-130640742D02*
X129238720Y-130497885D01*
X129238720Y-130497885D02*
X129310149Y-130426457D01*
X129310149Y-130426457D02*
X129453006Y-130355028D01*
X129453006Y-130355028D02*
X129595863Y-130355028D01*
X132095862Y-131212171D02*
X132024434Y-131283600D01*
X132024434Y-131283600D02*
X131810148Y-131355028D01*
X131810148Y-131355028D02*
X131667291Y-131355028D01*
X131667291Y-131355028D02*
X131453005Y-131283600D01*
X131453005Y-131283600D02*
X131310148Y-131140742D01*
X131310148Y-131140742D02*
X131238719Y-130997885D01*
X131238719Y-130997885D02*
X131167291Y-130712171D01*
X131167291Y-130712171D02*
X131167291Y-130497885D01*
X131167291Y-130497885D02*
X131238719Y-130212171D01*
X131238719Y-130212171D02*
X131310148Y-130069314D01*
X131310148Y-130069314D02*
X131453005Y-129926457D01*
X131453005Y-129926457D02*
X131667291Y-129855028D01*
X131667291Y-129855028D02*
X131810148Y-129855028D01*
X131810148Y-129855028D02*
X132024434Y-129926457D01*
X132024434Y-129926457D02*
X132095862Y-129997885D01*
X132953005Y-131355028D02*
X132810148Y-131283600D01*
X132810148Y-131283600D02*
X132738719Y-131212171D01*
X132738719Y-131212171D02*
X132667291Y-131069314D01*
X132667291Y-131069314D02*
X132667291Y-130640742D01*
X132667291Y-130640742D02*
X132738719Y-130497885D01*
X132738719Y-130497885D02*
X132810148Y-130426457D01*
X132810148Y-130426457D02*
X132953005Y-130355028D01*
X132953005Y-130355028D02*
X133167291Y-130355028D01*
X133167291Y-130355028D02*
X133310148Y-130426457D01*
X133310148Y-130426457D02*
X133381577Y-130497885D01*
X133381577Y-130497885D02*
X133453005Y-130640742D01*
X133453005Y-130640742D02*
X133453005Y-131069314D01*
X133453005Y-131069314D02*
X133381577Y-131212171D01*
X133381577Y-131212171D02*
X133310148Y-131283600D01*
X133310148Y-131283600D02*
X133167291Y-131355028D01*
X133167291Y-131355028D02*
X132953005Y-131355028D01*
X134738720Y-130355028D02*
X134738720Y-131355028D01*
X134095862Y-130355028D02*
X134095862Y-131140742D01*
X134095862Y-131140742D02*
X134167291Y-131283600D01*
X134167291Y-131283600D02*
X134310148Y-131355028D01*
X134310148Y-131355028D02*
X134524434Y-131355028D01*
X134524434Y-131355028D02*
X134667291Y-131283600D01*
X134667291Y-131283600D02*
X134738720Y-131212171D01*
X135453005Y-130355028D02*
X135453005Y-131355028D01*
X135453005Y-130497885D02*
X135524434Y-130426457D01*
X135524434Y-130426457D02*
X135667291Y-130355028D01*
X135667291Y-130355028D02*
X135881577Y-130355028D01*
X135881577Y-130355028D02*
X136024434Y-130426457D01*
X136024434Y-130426457D02*
X136095863Y-130569314D01*
X136095863Y-130569314D02*
X136095863Y-131355028D01*
X136595863Y-130355028D02*
X137167291Y-130355028D01*
X136810148Y-129855028D02*
X136810148Y-131140742D01*
X136810148Y-131140742D02*
X136881577Y-131283600D01*
X136881577Y-131283600D02*
X137024434Y-131355028D01*
X137024434Y-131355028D02*
X137167291Y-131355028D01*
X137667291Y-131212171D02*
X137738720Y-131283600D01*
X137738720Y-131283600D02*
X137667291Y-131355028D01*
X137667291Y-131355028D02*
X137595863Y-131283600D01*
X137595863Y-131283600D02*
X137667291Y-131212171D01*
X137667291Y-131212171D02*
X137667291Y-131355028D01*
X137667291Y-130426457D02*
X137738720Y-130497885D01*
X137738720Y-130497885D02*
X137667291Y-130569314D01*
X137667291Y-130569314D02*
X137595863Y-130497885D01*
X137595863Y-130497885D02*
X137667291Y-130426457D01*
X137667291Y-130426457D02*
X137667291Y-130569314D01*
X147895863Y-147183028D02*
X147895863Y-145683028D01*
X147895863Y-145683028D02*
X148753006Y-147183028D01*
X148753006Y-147183028D02*
X148753006Y-145683028D01*
X149681578Y-147183028D02*
X149538721Y-147111600D01*
X149538721Y-147111600D02*
X149467292Y-147040171D01*
X149467292Y-147040171D02*
X149395864Y-146897314D01*
X149395864Y-146897314D02*
X149395864Y-146468742D01*
X149395864Y-146468742D02*
X149467292Y-146325885D01*
X149467292Y-146325885D02*
X149538721Y-146254457D01*
X149538721Y-146254457D02*
X149681578Y-146183028D01*
X149681578Y-146183028D02*
X149895864Y-146183028D01*
X149895864Y-146183028D02*
X150038721Y-146254457D01*
X150038721Y-146254457D02*
X150110150Y-146325885D01*
X150110150Y-146325885D02*
X150181578Y-146468742D01*
X150181578Y-146468742D02*
X150181578Y-146897314D01*
X150181578Y-146897314D02*
X150110150Y-147040171D01*
X150110150Y-147040171D02*
X150038721Y-147111600D01*
X150038721Y-147111600D02*
X149895864Y-147183028D01*
X149895864Y-147183028D02*
X149681578Y-147183028D01*
X115238720Y-139269028D02*
X115238720Y-137769028D01*
X115238720Y-137769028D02*
X115738720Y-138840457D01*
X115738720Y-138840457D02*
X116238720Y-137769028D01*
X116238720Y-137769028D02*
X116238720Y-139269028D01*
X116953006Y-139269028D02*
X116953006Y-138269028D01*
X116953006Y-137769028D02*
X116881578Y-137840457D01*
X116881578Y-137840457D02*
X116953006Y-137911885D01*
X116953006Y-137911885D02*
X117024435Y-137840457D01*
X117024435Y-137840457D02*
X116953006Y-137769028D01*
X116953006Y-137769028D02*
X116953006Y-137911885D01*
X117667292Y-138269028D02*
X117667292Y-139269028D01*
X117667292Y-138411885D02*
X117738721Y-138340457D01*
X117738721Y-138340457D02*
X117881578Y-138269028D01*
X117881578Y-138269028D02*
X118095864Y-138269028D01*
X118095864Y-138269028D02*
X118238721Y-138340457D01*
X118238721Y-138340457D02*
X118310150Y-138483314D01*
X118310150Y-138483314D02*
X118310150Y-139269028D01*
X119953007Y-138269028D02*
X120524435Y-138269028D01*
X120167292Y-137769028D02*
X120167292Y-139054742D01*
X120167292Y-139054742D02*
X120238721Y-139197600D01*
X120238721Y-139197600D02*
X120381578Y-139269028D01*
X120381578Y-139269028D02*
X120524435Y-139269028D01*
X121024435Y-139269028D02*
X121024435Y-138269028D01*
X121024435Y-138554742D02*
X121095864Y-138411885D01*
X121095864Y-138411885D02*
X121167293Y-138340457D01*
X121167293Y-138340457D02*
X121310150Y-138269028D01*
X121310150Y-138269028D02*
X121453007Y-138269028D01*
X122595864Y-139269028D02*
X122595864Y-138483314D01*
X122595864Y-138483314D02*
X122524435Y-138340457D01*
X122524435Y-138340457D02*
X122381578Y-138269028D01*
X122381578Y-138269028D02*
X122095864Y-138269028D01*
X122095864Y-138269028D02*
X121953006Y-138340457D01*
X122595864Y-139197600D02*
X122453006Y-139269028D01*
X122453006Y-139269028D02*
X122095864Y-139269028D01*
X122095864Y-139269028D02*
X121953006Y-139197600D01*
X121953006Y-139197600D02*
X121881578Y-139054742D01*
X121881578Y-139054742D02*
X121881578Y-138911885D01*
X121881578Y-138911885D02*
X121953006Y-138769028D01*
X121953006Y-138769028D02*
X122095864Y-138697600D01*
X122095864Y-138697600D02*
X122453006Y-138697600D01*
X122453006Y-138697600D02*
X122595864Y-138626171D01*
X123953007Y-139197600D02*
X123810149Y-139269028D01*
X123810149Y-139269028D02*
X123524435Y-139269028D01*
X123524435Y-139269028D02*
X123381578Y-139197600D01*
X123381578Y-139197600D02*
X123310149Y-139126171D01*
X123310149Y-139126171D02*
X123238721Y-138983314D01*
X123238721Y-138983314D02*
X123238721Y-138554742D01*
X123238721Y-138554742D02*
X123310149Y-138411885D01*
X123310149Y-138411885D02*
X123381578Y-138340457D01*
X123381578Y-138340457D02*
X123524435Y-138269028D01*
X123524435Y-138269028D02*
X123810149Y-138269028D01*
X123810149Y-138269028D02*
X123953007Y-138340457D01*
X124595863Y-139269028D02*
X124595863Y-137769028D01*
X124738721Y-138697600D02*
X125167292Y-139269028D01*
X125167292Y-138269028D02*
X124595863Y-138840457D01*
X126881578Y-137697600D02*
X125595864Y-139626171D01*
X127310150Y-139197600D02*
X127453007Y-139269028D01*
X127453007Y-139269028D02*
X127738721Y-139269028D01*
X127738721Y-139269028D02*
X127881578Y-139197600D01*
X127881578Y-139197600D02*
X127953007Y-139054742D01*
X127953007Y-139054742D02*
X127953007Y-138983314D01*
X127953007Y-138983314D02*
X127881578Y-138840457D01*
X127881578Y-138840457D02*
X127738721Y-138769028D01*
X127738721Y-138769028D02*
X127524436Y-138769028D01*
X127524436Y-138769028D02*
X127381578Y-138697600D01*
X127381578Y-138697600D02*
X127310150Y-138554742D01*
X127310150Y-138554742D02*
X127310150Y-138483314D01*
X127310150Y-138483314D02*
X127381578Y-138340457D01*
X127381578Y-138340457D02*
X127524436Y-138269028D01*
X127524436Y-138269028D02*
X127738721Y-138269028D01*
X127738721Y-138269028D02*
X127881578Y-138340457D01*
X128595864Y-138269028D02*
X128595864Y-139769028D01*
X128595864Y-138340457D02*
X128738722Y-138269028D01*
X128738722Y-138269028D02*
X129024436Y-138269028D01*
X129024436Y-138269028D02*
X129167293Y-138340457D01*
X129167293Y-138340457D02*
X129238722Y-138411885D01*
X129238722Y-138411885D02*
X129310150Y-138554742D01*
X129310150Y-138554742D02*
X129310150Y-138983314D01*
X129310150Y-138983314D02*
X129238722Y-139126171D01*
X129238722Y-139126171D02*
X129167293Y-139197600D01*
X129167293Y-139197600D02*
X129024436Y-139269028D01*
X129024436Y-139269028D02*
X128738722Y-139269028D01*
X128738722Y-139269028D02*
X128595864Y-139197600D01*
X130595865Y-139269028D02*
X130595865Y-138483314D01*
X130595865Y-138483314D02*
X130524436Y-138340457D01*
X130524436Y-138340457D02*
X130381579Y-138269028D01*
X130381579Y-138269028D02*
X130095865Y-138269028D01*
X130095865Y-138269028D02*
X129953007Y-138340457D01*
X130595865Y-139197600D02*
X130453007Y-139269028D01*
X130453007Y-139269028D02*
X130095865Y-139269028D01*
X130095865Y-139269028D02*
X129953007Y-139197600D01*
X129953007Y-139197600D02*
X129881579Y-139054742D01*
X129881579Y-139054742D02*
X129881579Y-138911885D01*
X129881579Y-138911885D02*
X129953007Y-138769028D01*
X129953007Y-138769028D02*
X130095865Y-138697600D01*
X130095865Y-138697600D02*
X130453007Y-138697600D01*
X130453007Y-138697600D02*
X130595865Y-138626171D01*
X131953008Y-139197600D02*
X131810150Y-139269028D01*
X131810150Y-139269028D02*
X131524436Y-139269028D01*
X131524436Y-139269028D02*
X131381579Y-139197600D01*
X131381579Y-139197600D02*
X131310150Y-139126171D01*
X131310150Y-139126171D02*
X131238722Y-138983314D01*
X131238722Y-138983314D02*
X131238722Y-138554742D01*
X131238722Y-138554742D02*
X131310150Y-138411885D01*
X131310150Y-138411885D02*
X131381579Y-138340457D01*
X131381579Y-138340457D02*
X131524436Y-138269028D01*
X131524436Y-138269028D02*
X131810150Y-138269028D01*
X131810150Y-138269028D02*
X131953008Y-138340457D01*
X132595864Y-139269028D02*
X132595864Y-138269028D01*
X132595864Y-137769028D02*
X132524436Y-137840457D01*
X132524436Y-137840457D02*
X132595864Y-137911885D01*
X132595864Y-137911885D02*
X132667293Y-137840457D01*
X132667293Y-137840457D02*
X132595864Y-137769028D01*
X132595864Y-137769028D02*
X132595864Y-137911885D01*
X133310150Y-138269028D02*
X133310150Y-139269028D01*
X133310150Y-138411885D02*
X133381579Y-138340457D01*
X133381579Y-138340457D02*
X133524436Y-138269028D01*
X133524436Y-138269028D02*
X133738722Y-138269028D01*
X133738722Y-138269028D02*
X133881579Y-138340457D01*
X133881579Y-138340457D02*
X133953008Y-138483314D01*
X133953008Y-138483314D02*
X133953008Y-139269028D01*
X135310151Y-138269028D02*
X135310151Y-139483314D01*
X135310151Y-139483314D02*
X135238722Y-139626171D01*
X135238722Y-139626171D02*
X135167293Y-139697600D01*
X135167293Y-139697600D02*
X135024436Y-139769028D01*
X135024436Y-139769028D02*
X134810151Y-139769028D01*
X134810151Y-139769028D02*
X134667293Y-139697600D01*
X135310151Y-139197600D02*
X135167293Y-139269028D01*
X135167293Y-139269028D02*
X134881579Y-139269028D01*
X134881579Y-139269028D02*
X134738722Y-139197600D01*
X134738722Y-139197600D02*
X134667293Y-139126171D01*
X134667293Y-139126171D02*
X134595865Y-138983314D01*
X134595865Y-138983314D02*
X134595865Y-138554742D01*
X134595865Y-138554742D02*
X134667293Y-138411885D01*
X134667293Y-138411885D02*
X134738722Y-138340457D01*
X134738722Y-138340457D02*
X134881579Y-138269028D01*
X134881579Y-138269028D02*
X135167293Y-138269028D01*
X135167293Y-138269028D02*
X135310151Y-138340457D01*
X136024436Y-139126171D02*
X136095865Y-139197600D01*
X136095865Y-139197600D02*
X136024436Y-139269028D01*
X136024436Y-139269028D02*
X135953008Y-139197600D01*
X135953008Y-139197600D02*
X136024436Y-139126171D01*
X136024436Y-139126171D02*
X136024436Y-139269028D01*
X136024436Y-138340457D02*
X136095865Y-138411885D01*
X136095865Y-138411885D02*
X136024436Y-138483314D01*
X136024436Y-138483314D02*
X135953008Y-138411885D01*
X135953008Y-138411885D02*
X136024436Y-138340457D01*
X136024436Y-138340457D02*
X136024436Y-138483314D01*
X116095863Y-143083171D02*
X116024435Y-143154600D01*
X116024435Y-143154600D02*
X115810149Y-143226028D01*
X115810149Y-143226028D02*
X115667292Y-143226028D01*
X115667292Y-143226028D02*
X115453006Y-143154600D01*
X115453006Y-143154600D02*
X115310149Y-143011742D01*
X115310149Y-143011742D02*
X115238720Y-142868885D01*
X115238720Y-142868885D02*
X115167292Y-142583171D01*
X115167292Y-142583171D02*
X115167292Y-142368885D01*
X115167292Y-142368885D02*
X115238720Y-142083171D01*
X115238720Y-142083171D02*
X115310149Y-141940314D01*
X115310149Y-141940314D02*
X115453006Y-141797457D01*
X115453006Y-141797457D02*
X115667292Y-141726028D01*
X115667292Y-141726028D02*
X115810149Y-141726028D01*
X115810149Y-141726028D02*
X116024435Y-141797457D01*
X116024435Y-141797457D02*
X116095863Y-141868885D01*
X116953006Y-143226028D02*
X116810149Y-143154600D01*
X116810149Y-143154600D02*
X116738720Y-143083171D01*
X116738720Y-143083171D02*
X116667292Y-142940314D01*
X116667292Y-142940314D02*
X116667292Y-142511742D01*
X116667292Y-142511742D02*
X116738720Y-142368885D01*
X116738720Y-142368885D02*
X116810149Y-142297457D01*
X116810149Y-142297457D02*
X116953006Y-142226028D01*
X116953006Y-142226028D02*
X117167292Y-142226028D01*
X117167292Y-142226028D02*
X117310149Y-142297457D01*
X117310149Y-142297457D02*
X117381578Y-142368885D01*
X117381578Y-142368885D02*
X117453006Y-142511742D01*
X117453006Y-142511742D02*
X117453006Y-142940314D01*
X117453006Y-142940314D02*
X117381578Y-143083171D01*
X117381578Y-143083171D02*
X117310149Y-143154600D01*
X117310149Y-143154600D02*
X117167292Y-143226028D01*
X117167292Y-143226028D02*
X116953006Y-143226028D01*
X118095863Y-142226028D02*
X118095863Y-143726028D01*
X118095863Y-142297457D02*
X118238721Y-142226028D01*
X118238721Y-142226028D02*
X118524435Y-142226028D01*
X118524435Y-142226028D02*
X118667292Y-142297457D01*
X118667292Y-142297457D02*
X118738721Y-142368885D01*
X118738721Y-142368885D02*
X118810149Y-142511742D01*
X118810149Y-142511742D02*
X118810149Y-142940314D01*
X118810149Y-142940314D02*
X118738721Y-143083171D01*
X118738721Y-143083171D02*
X118667292Y-143154600D01*
X118667292Y-143154600D02*
X118524435Y-143226028D01*
X118524435Y-143226028D02*
X118238721Y-143226028D01*
X118238721Y-143226028D02*
X118095863Y-143154600D01*
X119453006Y-142226028D02*
X119453006Y-143726028D01*
X119453006Y-142297457D02*
X119595864Y-142226028D01*
X119595864Y-142226028D02*
X119881578Y-142226028D01*
X119881578Y-142226028D02*
X120024435Y-142297457D01*
X120024435Y-142297457D02*
X120095864Y-142368885D01*
X120095864Y-142368885D02*
X120167292Y-142511742D01*
X120167292Y-142511742D02*
X120167292Y-142940314D01*
X120167292Y-142940314D02*
X120095864Y-143083171D01*
X120095864Y-143083171D02*
X120024435Y-143154600D01*
X120024435Y-143154600D02*
X119881578Y-143226028D01*
X119881578Y-143226028D02*
X119595864Y-143226028D01*
X119595864Y-143226028D02*
X119453006Y-143154600D01*
X121381578Y-143154600D02*
X121238721Y-143226028D01*
X121238721Y-143226028D02*
X120953007Y-143226028D01*
X120953007Y-143226028D02*
X120810149Y-143154600D01*
X120810149Y-143154600D02*
X120738721Y-143011742D01*
X120738721Y-143011742D02*
X120738721Y-142440314D01*
X120738721Y-142440314D02*
X120810149Y-142297457D01*
X120810149Y-142297457D02*
X120953007Y-142226028D01*
X120953007Y-142226028D02*
X121238721Y-142226028D01*
X121238721Y-142226028D02*
X121381578Y-142297457D01*
X121381578Y-142297457D02*
X121453007Y-142440314D01*
X121453007Y-142440314D02*
X121453007Y-142583171D01*
X121453007Y-142583171D02*
X120738721Y-142726028D01*
X122095863Y-143226028D02*
X122095863Y-142226028D01*
X122095863Y-142511742D02*
X122167292Y-142368885D01*
X122167292Y-142368885D02*
X122238721Y-142297457D01*
X122238721Y-142297457D02*
X122381578Y-142226028D01*
X122381578Y-142226028D02*
X122524435Y-142226028D01*
X124667291Y-142440314D02*
X124167291Y-142440314D01*
X124167291Y-143226028D02*
X124167291Y-141726028D01*
X124167291Y-141726028D02*
X124881577Y-141726028D01*
X125453005Y-143226028D02*
X125453005Y-142226028D01*
X125453005Y-141726028D02*
X125381577Y-141797457D01*
X125381577Y-141797457D02*
X125453005Y-141868885D01*
X125453005Y-141868885D02*
X125524434Y-141797457D01*
X125524434Y-141797457D02*
X125453005Y-141726028D01*
X125453005Y-141726028D02*
X125453005Y-141868885D01*
X126167291Y-142226028D02*
X126167291Y-143226028D01*
X126167291Y-142368885D02*
X126238720Y-142297457D01*
X126238720Y-142297457D02*
X126381577Y-142226028D01*
X126381577Y-142226028D02*
X126595863Y-142226028D01*
X126595863Y-142226028D02*
X126738720Y-142297457D01*
X126738720Y-142297457D02*
X126810149Y-142440314D01*
X126810149Y-142440314D02*
X126810149Y-143226028D01*
X127524434Y-143226028D02*
X127524434Y-142226028D01*
X127524434Y-141726028D02*
X127453006Y-141797457D01*
X127453006Y-141797457D02*
X127524434Y-141868885D01*
X127524434Y-141868885D02*
X127595863Y-141797457D01*
X127595863Y-141797457D02*
X127524434Y-141726028D01*
X127524434Y-141726028D02*
X127524434Y-141868885D01*
X128167292Y-143154600D02*
X128310149Y-143226028D01*
X128310149Y-143226028D02*
X128595863Y-143226028D01*
X128595863Y-143226028D02*
X128738720Y-143154600D01*
X128738720Y-143154600D02*
X128810149Y-143011742D01*
X128810149Y-143011742D02*
X128810149Y-142940314D01*
X128810149Y-142940314D02*
X128738720Y-142797457D01*
X128738720Y-142797457D02*
X128595863Y-142726028D01*
X128595863Y-142726028D02*
X128381578Y-142726028D01*
X128381578Y-142726028D02*
X128238720Y-142654600D01*
X128238720Y-142654600D02*
X128167292Y-142511742D01*
X128167292Y-142511742D02*
X128167292Y-142440314D01*
X128167292Y-142440314D02*
X128238720Y-142297457D01*
X128238720Y-142297457D02*
X128381578Y-142226028D01*
X128381578Y-142226028D02*
X128595863Y-142226028D01*
X128595863Y-142226028D02*
X128738720Y-142297457D01*
X129453006Y-143226028D02*
X129453006Y-141726028D01*
X130095864Y-143226028D02*
X130095864Y-142440314D01*
X130095864Y-142440314D02*
X130024435Y-142297457D01*
X130024435Y-142297457D02*
X129881578Y-142226028D01*
X129881578Y-142226028D02*
X129667292Y-142226028D01*
X129667292Y-142226028D02*
X129524435Y-142297457D01*
X129524435Y-142297457D02*
X129453006Y-142368885D01*
X130810149Y-143083171D02*
X130881578Y-143154600D01*
X130881578Y-143154600D02*
X130810149Y-143226028D01*
X130810149Y-143226028D02*
X130738721Y-143154600D01*
X130738721Y-143154600D02*
X130810149Y-143083171D01*
X130810149Y-143083171D02*
X130810149Y-143226028D01*
X130810149Y-142297457D02*
X130881578Y-142368885D01*
X130881578Y-142368885D02*
X130810149Y-142440314D01*
X130810149Y-142440314D02*
X130738721Y-142368885D01*
X130738721Y-142368885D02*
X130810149Y-142297457D01*
X130810149Y-142297457D02*
X130810149Y-142440314D01*
D15*
%TO.C,H101*%
X160000000Y-102000000D02*
G75*
G03*
X160000000Y-102000000I-2000000J0D01*
G01*
%TO.C,H102*%
X174000000Y-83000000D02*
G75*
G03*
X174000000Y-83000000I-2000000J0D01*
G01*
%TD*%
D18*
X158000000Y-106200001D02*
G75*
G03*
X158000000Y-104999999I0J600001D01*
G01*
X170700000Y-105000000D02*
X175000000Y-105000000D01*
X155000000Y-105000000D02*
X158000000Y-104999999D01*
X155000000Y-117500000D02*
X155000000Y-106200000D01*
X169400000Y-105600000D02*
G75*
G03*
X169400000Y-105600000I-600000J0D01*
G01*
X162000000Y-105600000D02*
G75*
G03*
X162000000Y-105600000I-599999J0D01*
G01*
X175000000Y-105000000D02*
X175000000Y-80000000D01*
X170700000Y-106200000D02*
X175000000Y-106200000D01*
X175000000Y-106200000D02*
X175000000Y-117500000D01*
X163700000Y-105600000D02*
G75*
G03*
X163700000Y-105600000I-600000J0D01*
G01*
X167500000Y-105600000D02*
G75*
G03*
X167500000Y-105600000I-600000J0D01*
G01*
X155000000Y-98900000D02*
X155000000Y-105000000D01*
X165600000Y-105600000D02*
G75*
G03*
X165600000Y-105600000I-600000J0D01*
G01*
X175000000Y-80000000D02*
X155000000Y-80000000D01*
X160300000Y-105600000D02*
G75*
G03*
X160300000Y-105600000I-600000J0D01*
G01*
X170700000Y-105000000D02*
G75*
G03*
X170700000Y-106200000I0J-600000D01*
G01*
X155000000Y-80000000D02*
X155000000Y-98900000D01*
X175000000Y-117500000D02*
X155000000Y-117500000D01*
X155000000Y-106200000D02*
X158000000Y-106200001D01*
M02*
