M48
INCH
T1C0.0177
T2C0.0197
T3C0.0236
T4C0.0315
T5C0.0394
%
G90
G05
T1
X5.5118Y-4.3583
X5.5118Y-4.3071
X5.5118Y-4.4094
X5.563Y-4.4291
X5.6004Y-3.9862
X5.7559Y-3.185
X5.7992Y-4.4291
X5.874Y-4.4291
X5.9055Y-4.0079
T2
X5.4961Y-4.1811
X5.6378Y-3.7756
X5.6496Y-3.5709
X5.7087Y-4.2248
X5.7087Y-4.4291
X5.7559Y-4.0315
X5.7598Y-3.8583
T3
X5.5236Y-3.4409
X5.6811Y-3.2402
X5.7126Y-3.4409
X5.7165Y-3.2402
X5.8189Y-3.5315
X5.8543Y-3.5315
X5.8543Y-3.9016
X5.878Y-3.9291
T4
X5.4291Y-4.5512
X5.5079Y-4.5512
X5.5866Y-4.5512
X5.6654Y-4.5512
X5.7441Y-4.5512
X5.8228Y-4.5512
X5.9016Y-4.5512
X5.9803Y-4.5512
T5
X5.4Y-3.2341
X5.4Y-3.3341
X5.4Y-3.4341
X5.4Y-3.5341
X5.4Y-3.6341
X5.4Y-3.7341
X5.4Y-3.8341
X5.4Y-3.9341
X5.4Y-4.0341
X5.4Y-4.1341
X5.4Y-4.2341
X5.4Y-4.3341
X5.4Y-4.4341
X5.9984Y-3.2341
X5.9984Y-3.3341
X5.9984Y-3.4341
X5.9984Y-3.5341
X5.9984Y-3.6341
X5.9984Y-3.7341
X5.9984Y-3.8341
X5.9984Y-3.9341
X5.9984Y-4.0341
X5.9984Y-4.1341
X5.9984Y-4.2341
X5.9984Y-4.3341
X5.9984Y-4.4341
T0
M30
