%TF.GenerationSoftware,KiCad,Pcbnew,7.0.8*%
%TF.CreationDate,2024-04-19T17:39:30-04:00*%
%TF.ProjectId,rcl57_mcu,72636c35-375f-46d6-9375-2e6b69636164,rev?*%
%TF.SameCoordinates,Original*%
%TF.FileFunction,Copper,L1,Top*%
%TF.FilePolarity,Positive*%
%FSLAX46Y46*%
G04 Gerber Fmt 4.6, Leading zero omitted, Abs format (unit mm)*
G04 Created by KiCad (PCBNEW 7.0.8) date 2024-04-19 17:39:30*
%MOMM*%
%LPD*%
G01*
G04 APERTURE LIST*
G04 Aperture macros list*
%AMRoundRect*
0 Rectangle with rounded corners*
0 $1 Rounding radius*
0 $2 $3 $4 $5 $6 $7 $8 $9 X,Y pos of 4 corners*
0 Add a 4 corners polygon primitive as box body*
4,1,4,$2,$3,$4,$5,$6,$7,$8,$9,$2,$3,0*
0 Add four circle primitives for the rounded corners*
1,1,$1+$1,$2,$3*
1,1,$1+$1,$4,$5*
1,1,$1+$1,$6,$7*
1,1,$1+$1,$8,$9*
0 Add four rect primitives between the rounded corners*
20,1,$1+$1,$2,$3,$4,$5,0*
20,1,$1+$1,$4,$5,$6,$7,0*
20,1,$1+$1,$6,$7,$8,$9,0*
20,1,$1+$1,$8,$9,$2,$3,0*%
%AMRotRect*
0 Rectangle, with rotation*
0 The origin of the aperture is its center*
0 $1 length*
0 $2 width*
0 $3 Rotation angle, in degrees counterclockwise*
0 Add horizontal line*
21,1,$1,$2,0,0,$3*%
G04 Aperture macros list end*
%TA.AperFunction,SMDPad,CuDef*%
%ADD10RoundRect,0.062500X0.380070X-0.291682X-0.291682X0.380070X-0.380070X0.291682X0.291682X-0.380070X0*%
%TD*%
%TA.AperFunction,SMDPad,CuDef*%
%ADD11RoundRect,0.062500X0.380070X0.291682X0.291682X0.380070X-0.380070X-0.291682X-0.291682X-0.380070X0*%
%TD*%
%TA.AperFunction,SMDPad,CuDef*%
%ADD12RotRect,4.100000X4.100000X135.000000*%
%TD*%
%TA.AperFunction,SMDPad,CuDef*%
%ADD13RoundRect,0.150000X-0.512500X-0.150000X0.512500X-0.150000X0.512500X0.150000X-0.512500X0.150000X0*%
%TD*%
%TA.AperFunction,ComponentPad*%
%ADD14R,1.350000X1.350000*%
%TD*%
%TA.AperFunction,ComponentPad*%
%ADD15O,1.350000X1.350000*%
%TD*%
%TA.AperFunction,SMDPad,CuDef*%
%ADD16RoundRect,0.250000X0.450000X-0.350000X0.450000X0.350000X-0.450000X0.350000X-0.450000X-0.350000X0*%
%TD*%
%TA.AperFunction,SMDPad,CuDef*%
%ADD17RoundRect,0.150000X-0.150000X0.650000X-0.150000X-0.650000X0.150000X-0.650000X0.150000X0.650000X0*%
%TD*%
%TA.AperFunction,SMDPad,CuDef*%
%ADD18RoundRect,0.150000X-0.600000X-0.150000X0.600000X-0.150000X0.600000X0.150000X-0.600000X0.150000X0*%
%TD*%
%TA.AperFunction,ComponentPad*%
%ADD19R,1.700000X1.700000*%
%TD*%
%TA.AperFunction,ComponentPad*%
%ADD20O,1.700000X1.700000*%
%TD*%
%TA.AperFunction,ComponentPad*%
%ADD21C,1.700000*%
%TD*%
%TA.AperFunction,ViaPad*%
%ADD22C,0.900000*%
%TD*%
%TA.AperFunction,ViaPad*%
%ADD23C,1.200000*%
%TD*%
%TA.AperFunction,ViaPad*%
%ADD24C,1.000000*%
%TD*%
%TA.AperFunction,Conductor*%
%ADD25C,0.250000*%
%TD*%
%TA.AperFunction,Conductor*%
%ADD26C,0.350000*%
%TD*%
%TA.AperFunction,Conductor*%
%ADD27C,0.300000*%
%TD*%
%TA.AperFunction,Conductor*%
%ADD28C,1.000000*%
%TD*%
%TA.AperFunction,Conductor*%
%ADD29C,0.450000*%
%TD*%
%TA.AperFunction,Conductor*%
%ADD30C,0.500000*%
%TD*%
G04 APERTURE END LIST*
D10*
%TO.P,U1,1,VDD*%
%TO.N,+3V3*%
X145452201Y-110730214D03*
%TO.P,U1,2,PD0*%
%TO.N,unconnected-(U1-PD0-Pad2)*%
X145805754Y-110376661D03*
%TO.P,U1,3,PD1*%
%TO.N,unconnected-(U1-PD1-Pad3)*%
X146159308Y-110023107D03*
%TO.P,U1,4,NRST*%
%TO.N,/NRST*%
X146512861Y-109669554D03*
%TO.P,U1,5,VSSA*%
%TO.N,GND*%
X146866414Y-109316000D03*
%TO.P,U1,6,VDDA*%
%TO.N,+3V3*%
X147219968Y-108962447D03*
%TO.P,U1,7,PA0*%
%TO.N,/K1*%
X147573521Y-108608894D03*
%TO.P,U1,8,PA1*%
%TO.N,/K2*%
X147927075Y-108255340D03*
%TO.P,U1,9,PA2*%
%TO.N,/K3*%
X148280628Y-107901787D03*
D11*
%TO.P,U1,10,PA3*%
%TO.N,/K4*%
X148280628Y-106717383D03*
%TO.P,U1,11,PA4*%
%TO.N,/K5*%
X147927075Y-106363830D03*
%TO.P,U1,12,PA5*%
%TO.N,/D_DRIVE*%
X147573521Y-106010276D03*
%TO.P,U1,13,PA6*%
%TO.N,/A_DRIVE*%
X147219968Y-105656723D03*
%TO.P,U1,14,PA7*%
%TO.N,/B_DRIVE*%
X146866414Y-105303170D03*
%TO.P,U1,15,PB0*%
%TO.N,/MEMIO*%
X146512861Y-104949616D03*
%TO.P,U1,16,PB1*%
%TO.N,unconnected-(U1-PB1-Pad16)*%
X146159308Y-104596063D03*
%TO.P,U1,17,PB2*%
%TO.N,unconnected-(U1-PB2-Pad17)*%
X145805754Y-104242509D03*
%TO.P,U1,18,VSS*%
%TO.N,GND*%
X145452201Y-103888956D03*
D10*
%TO.P,U1,19,VDD*%
%TO.N,+3V3*%
X144267797Y-103888956D03*
%TO.P,U1,20,PA8*%
%TO.N,/C_DRIVE*%
X143914244Y-104242509D03*
%TO.P,U1,21,PA9*%
%TO.N,/E_DRIVE*%
X143560690Y-104596063D03*
%TO.P,U1,22,PA10*%
%TO.N,/F_DRIVE*%
X143207137Y-104949616D03*
%TO.P,U1,23,PA11*%
%TO.N,/G_DRIVE*%
X142853584Y-105303170D03*
%TO.P,U1,24,PA12*%
%TO.N,/P_DRIVE*%
X142500030Y-105656723D03*
%TO.P,U1,25,PA13*%
%TO.N,/SWDIO*%
X142146477Y-106010276D03*
%TO.P,U1,26,VSS*%
%TO.N,GND*%
X141792923Y-106363830D03*
%TO.P,U1,27,VDD*%
%TO.N,+3V3*%
X141439370Y-106717383D03*
D11*
%TO.P,U1,28,PA14*%
%TO.N,/SWCLK*%
X141439370Y-107901787D03*
%TO.P,U1,29,PA15*%
%TO.N,/LATCH*%
X141792923Y-108255340D03*
%TO.P,U1,30,PB3*%
%TO.N,/SCLK*%
X142146477Y-108608894D03*
%TO.P,U1,31,PB4*%
%TO.N,/DIRECT*%
X142500030Y-108962447D03*
%TO.P,U1,32,PB5*%
%TO.N,/SDATA*%
X142853584Y-109316000D03*
%TO.P,U1,33,PB6*%
%TO.N,/U1TXD*%
X143207137Y-109669554D03*
%TO.P,U1,34,PB7*%
%TO.N,/U1RXD*%
X143560690Y-110023107D03*
%TO.P,U1,35,BOOT0*%
%TO.N,/BOOT0*%
X143914244Y-110376661D03*
%TO.P,U1,36,VSS*%
%TO.N,GND*%
X144267797Y-110730214D03*
D12*
%TO.P,U1,37,VSS*%
X144859999Y-107309585D03*
%TD*%
D13*
%TO.P,Q2,1,GA*%
%TO.N,/C_DRIVE*%
X147562500Y-91250000D03*
%TO.P,Q2,2,SB*%
%TO.N,+3V3*%
X147562500Y-92200000D03*
%TO.P,Q2,3,GB*%
%TO.N,/B_DRIVE*%
X147562500Y-93150000D03*
%TO.P,Q2,4,DB*%
%TO.N,/SB*%
X149837500Y-93150000D03*
%TO.P,Q2,5,SA*%
%TO.N,+3V3*%
X149837500Y-92200000D03*
%TO.P,Q2,6,DA*%
%TO.N,/SC*%
X149837500Y-91250000D03*
%TD*%
D14*
%TO.P,J3,1,Pin_1*%
%TO.N,/SWDIO*%
X137900000Y-115600000D03*
D15*
%TO.P,J3,2,Pin_2*%
%TO.N,/SWCLK*%
X139900000Y-115600000D03*
%TO.P,J3,3,Pin_3*%
%TO.N,/U1TXD*%
X141900000Y-115600000D03*
%TO.P,J3,4,Pin_4*%
%TO.N,/U1RXD*%
X143900000Y-115600000D03*
%TO.P,J3,5,Pin_5*%
%TO.N,/BOOT0*%
X145900000Y-115600000D03*
%TO.P,J3,6,Pin_6*%
%TO.N,/NRST*%
X147900000Y-115600000D03*
%TO.P,J3,7,Pin_7*%
%TO.N,+3V3*%
X149900000Y-115600000D03*
%TO.P,J3,8,Pin_8*%
%TO.N,GND*%
X151900000Y-115600000D03*
%TD*%
D13*
%TO.P,Q4,1,GA*%
%TO.N,/F_DRIVE*%
X147562500Y-86250000D03*
%TO.P,Q4,2,SB*%
%TO.N,+3V3*%
X147562500Y-87200000D03*
%TO.P,Q4,3,GB*%
%TO.N,/E_DRIVE*%
X147562500Y-88150000D03*
%TO.P,Q4,4,DB*%
%TO.N,/SE*%
X149837500Y-88150000D03*
%TO.P,Q4,5,SA*%
%TO.N,+3V3*%
X149837500Y-87200000D03*
%TO.P,Q4,6,DA*%
%TO.N,/SF*%
X149837500Y-86250000D03*
%TD*%
D16*
%TO.P,R3,1*%
%TO.N,+3V3*%
X142700000Y-99700000D03*
%TO.P,R3,2*%
%TO.N,/MEMIO*%
X142700000Y-97700000D03*
%TD*%
D13*
%TO.P,Q3,1,GA*%
%TO.N,/A_DRIVE*%
X147562500Y-95150000D03*
%TO.P,Q3,2,SB*%
%TO.N,+3V3*%
X147562500Y-96100000D03*
%TO.P,Q3,3,GB*%
%TO.N,/D_DRIVE*%
X147562500Y-97050000D03*
%TO.P,Q3,4,DB*%
%TO.N,/D12SD*%
X149837500Y-97050000D03*
%TO.P,Q3,5,SA*%
%TO.N,+3V3*%
X149837500Y-96100000D03*
%TO.P,Q3,6,DA*%
%TO.N,/SA*%
X149837500Y-95150000D03*
%TD*%
D17*
%TO.P,U4,1,SCIO*%
%TO.N,/MEMIO*%
X144150000Y-92362500D03*
%TO.P,U4,2,V_{CC}*%
%TO.N,+3V3*%
X142250000Y-92362500D03*
%TO.P,U4,3,V_{SS}*%
%TO.N,GND*%
X143200000Y-94237500D03*
%TD*%
D13*
%TO.P,Q1,6,DA*%
%TO.N,/D1SP*%
X149837500Y-82350000D03*
%TO.P,Q1,5,SA*%
%TO.N,+3V3*%
X149837500Y-83300000D03*
%TO.P,Q1,4,DB*%
%TO.N,/SG*%
X149837500Y-84250000D03*
%TO.P,Q1,3,GB*%
%TO.N,/G_DRIVE*%
X147562500Y-84250000D03*
%TO.P,Q1,2,SB*%
%TO.N,+3V3*%
X147562500Y-83300000D03*
%TO.P,Q1,1,GA*%
%TO.N,/P_DRIVE*%
X147562500Y-82350000D03*
%TD*%
D18*
%TO.P,U3,1,IN*%
%TO.N,+BATT*%
X140122500Y-83300000D03*
%TO.P,U3,2,GND*%
%TO.N,GND*%
X140122500Y-84250000D03*
D13*
%TO.P,U3,3,EN*%
%TO.N,+BATT*%
X140122500Y-85200000D03*
%TO.P,U3,4,NC*%
%TO.N,GND*%
X142397500Y-85200000D03*
D18*
%TO.P,U3,5,OUT*%
%TO.N,+3V3*%
X142397500Y-83300000D03*
%TD*%
D19*
%TO.P,J1,1,Pin_1*%
%TO.N,+BATT*%
X137160000Y-82147058D03*
D20*
%TO.P,J1,2,Pin_2*%
%TO.N,/D1SP*%
X137160000Y-84687058D03*
%TO.P,J1,3,Pin_3*%
%TO.N,/D2*%
X137160000Y-87227058D03*
%TO.P,J1,4,Pin_4*%
%TO.N,/D3*%
X137160000Y-89767058D03*
%TO.P,J1,5,Pin_5*%
%TO.N,/D4*%
X137160000Y-92307058D03*
%TO.P,J1,6,Pin_6*%
%TO.N,/D5*%
X137160000Y-94847058D03*
%TO.P,J1,7,Pin_7*%
%TO.N,/D6*%
X137160000Y-97387058D03*
%TO.P,J1,8,Pin_8*%
%TO.N,/D7*%
X137160000Y-99927058D03*
%TO.P,J1,9,Pin_9*%
%TO.N,/D8*%
X137160000Y-102467058D03*
%TO.P,J1,10,Pin_10*%
%TO.N,GND*%
X137160000Y-105007058D03*
%TO.P,J1,11,Pin_11*%
%TO.N,/D9*%
X137160000Y-107547058D03*
%TO.P,J1,12,Pin_12*%
%TO.N,/D10*%
X137160000Y-110087058D03*
%TO.P,J1,13,Pin_13*%
%TO.N,/D11*%
X137160000Y-112627058D03*
%TD*%
D21*
%TO.P,J2,1,Pin_1*%
%TO.N,/SG*%
X152360000Y-82147056D03*
D20*
%TO.P,J2,2,Pin_2*%
%TO.N,/SF*%
X152360000Y-84687056D03*
%TO.P,J2,3,Pin_3*%
%TO.N,/SE*%
X152360000Y-87227056D03*
%TO.P,J2,4,Pin_4*%
%TO.N,/SC*%
X152360000Y-89767056D03*
%TO.P,J2,5,Pin_5*%
%TO.N,/SB*%
X152360000Y-92307056D03*
%TO.P,J2,6,Pin_6*%
%TO.N,/SA*%
X152360000Y-94847056D03*
%TO.P,J2,7,Pin_7*%
%TO.N,/D12SD*%
X152360000Y-97387056D03*
%TO.P,J2,8,Pin_8*%
%TO.N,unconnected-(J2-Pin_8-Pad8)*%
X152360000Y-99927056D03*
%TO.P,J2,9,Pin_9*%
%TO.N,/K5*%
X152360000Y-102467056D03*
%TO.P,J2,10,Pin_10*%
%TO.N,/K4*%
X152360000Y-105007056D03*
%TO.P,J2,11,Pin_11*%
%TO.N,/K3*%
X152360000Y-107547056D03*
%TO.P,J2,12,Pin_12*%
%TO.N,/K2*%
X152360000Y-110087056D03*
%TO.P,J2,13,Pin_13*%
%TO.N,/K1*%
X152360000Y-112627056D03*
%TD*%
D22*
%TO.N,GND*%
X149200000Y-112500000D03*
D23*
X145100000Y-87400000D03*
X140300000Y-87400000D03*
D24*
X145000000Y-107309585D03*
X146300000Y-98000000D03*
X143200000Y-95900000D03*
D23*
%TO.N,+3V3*%
X145200000Y-82300000D03*
X148700000Y-99100000D03*
D24*
X145000000Y-112500000D03*
D23*
X147800000Y-89700000D03*
X148700000Y-89700000D03*
D24*
X139600002Y-106200000D03*
D23*
X144300000Y-82300000D03*
X149300000Y-99800000D03*
D24*
X146200000Y-102400000D03*
X143500000Y-90700000D03*
D22*
%TO.N,/NRST*%
X147300000Y-112500000D03*
%TO.N,/D1SP*%
X146200000Y-80900000D03*
%TO.N,/D12SD*%
X150000000Y-101800000D03*
X142250000Y-101250000D03*
%TO.N,/LATCH*%
X140000000Y-109400000D03*
%TO.N,/SCLK*%
X139999994Y-110700000D03*
%TO.N,/SDATA*%
X141300000Y-112500000D03*
%TO.N,/DIRECT*%
X140000000Y-112000000D03*
%TD*%
D25*
%TO.N,+3V3*%
X142800000Y-99700000D02*
X142700000Y-99700000D01*
X144300000Y-101600000D02*
X144300000Y-101200000D01*
X144300000Y-101200000D02*
X142800000Y-99700000D01*
%TO.N,/K2*%
X152347056Y-110100000D02*
X152359999Y-110087057D01*
X149771735Y-110100000D02*
X152347056Y-110100000D01*
X147927075Y-108255340D02*
X149771735Y-110100000D01*
%TO.N,/K3*%
X151247059Y-108700000D02*
X152400000Y-107547059D01*
X149078841Y-108700000D02*
X151247059Y-108700000D01*
X148280628Y-107901787D02*
X149078841Y-108700000D01*
%TO.N,+3V3*%
X145700000Y-113500000D02*
X145000000Y-112800000D01*
X145000000Y-112800000D02*
X145000000Y-112500000D01*
X147900000Y-113500000D02*
X145700000Y-113500000D01*
X148300000Y-113100000D02*
X147900000Y-113500000D01*
X148300000Y-110042477D02*
X148300000Y-113100000D01*
X147219969Y-108962446D02*
X148300000Y-110042477D01*
%TO.N,/U1TXD*%
X142225000Y-113175000D02*
X141900000Y-113500000D01*
X141900000Y-113500000D02*
X141900000Y-115600000D01*
X143207136Y-109669554D02*
X142225000Y-110651690D01*
X142225000Y-110651690D02*
X142225000Y-113175000D01*
%TO.N,/SWCLK*%
X139125000Y-108675000D02*
X139125000Y-113425000D01*
X139125000Y-113425000D02*
X139900000Y-114200000D01*
X139900000Y-114200000D02*
X139900000Y-115600000D01*
X140200000Y-107600000D02*
X139125000Y-108675000D01*
X141439372Y-107901787D02*
X141137585Y-107600000D01*
X141137585Y-107600000D02*
X140200000Y-107600000D01*
%TO.N,GND*%
X144859999Y-107309585D02*
X144684631Y-107484953D01*
X144684631Y-110315369D02*
X144227122Y-110772878D01*
X146866415Y-109316000D02*
X144859999Y-107309585D01*
X144684631Y-107484953D02*
X144684631Y-110315369D01*
D26*
X141260000Y-85200000D02*
X141260000Y-84250000D01*
X142397500Y-85200000D02*
X141260000Y-85200000D01*
D25*
X144859999Y-107309585D02*
X142738679Y-107309583D01*
X144859999Y-104516514D02*
X145452200Y-103924313D01*
D26*
X140122500Y-84250000D02*
X141260000Y-84250000D01*
X141260000Y-85540000D02*
X141260000Y-85200000D01*
X140300000Y-86500000D02*
X141260000Y-85540000D01*
X140300000Y-87400000D02*
X140300000Y-86500000D01*
D25*
X144859999Y-107309585D02*
X144859999Y-104516514D01*
D27*
X143200000Y-94237500D02*
X143200000Y-95900000D01*
D25*
X145452200Y-103924313D02*
X145452200Y-103888956D01*
X142738679Y-107309583D02*
X141792923Y-106363830D01*
D26*
%TO.N,+3V3*%
X143700000Y-102200000D02*
X143500000Y-102400000D01*
D28*
X144300000Y-82300000D02*
X145200000Y-82300000D01*
D29*
X148700000Y-96100000D02*
X148700000Y-92200000D01*
D27*
X143500000Y-90700000D02*
X142900000Y-90700000D01*
D26*
X148700000Y-83300000D02*
X147562500Y-83300000D01*
D27*
X148700000Y-96100000D02*
X149837500Y-96100000D01*
D26*
X148700000Y-87200000D02*
X149837500Y-87200000D01*
X147562500Y-92200000D02*
X148700000Y-92200000D01*
D30*
X144300000Y-82300000D02*
X144300000Y-82600000D01*
D29*
X148700000Y-99200000D02*
X148700000Y-96100000D01*
D28*
X148700000Y-99200000D02*
X149300000Y-99800000D01*
D27*
X148700000Y-96100000D02*
X147562500Y-96100000D01*
D26*
X148700000Y-83300000D02*
X149837500Y-83300000D01*
D25*
X143500000Y-103121155D02*
X144267798Y-103888953D01*
D30*
X144300000Y-82600000D02*
X143600000Y-83300000D01*
D25*
X145000000Y-112500000D02*
X145000000Y-111182413D01*
D30*
X143600000Y-83300000D02*
X142410000Y-83300000D01*
D26*
X145400000Y-101600000D02*
X144300000Y-101600000D01*
D27*
X142900000Y-90700000D02*
X142250000Y-91350000D01*
X142250000Y-91350000D02*
X142250000Y-92362500D01*
D29*
X148700000Y-89700000D02*
X148700000Y-87200000D01*
D25*
X140921989Y-106200000D02*
X139600002Y-106200000D01*
D26*
X144300000Y-101600000D02*
X143700000Y-102200000D01*
D25*
X143500000Y-102400000D02*
X143500000Y-103121155D01*
X145000000Y-111182413D02*
X145452201Y-110730212D01*
D26*
X148700000Y-92200000D02*
X149837500Y-92200000D01*
X148700000Y-87200000D02*
X147562500Y-87200000D01*
D28*
X148700000Y-99100000D02*
X148700000Y-99200000D01*
D25*
X141439370Y-106717381D02*
X140921989Y-106200000D01*
D29*
X148700000Y-87200000D02*
X148700000Y-83300000D01*
D26*
X146200000Y-102400000D02*
X145400000Y-101600000D01*
%TO.N,+BATT*%
X139000000Y-85202944D02*
X138700000Y-84902944D01*
X137312943Y-82300001D02*
X137160000Y-82147058D01*
D30*
X138312943Y-83300001D02*
X137312943Y-82300001D01*
D26*
X140119556Y-85202944D02*
X139000000Y-85202944D01*
D30*
X140122500Y-83300000D02*
X138312943Y-83300001D01*
D26*
X138700000Y-84902944D02*
X138700000Y-83300001D01*
D25*
%TO.N,/NRST*%
X146512863Y-109669554D02*
X147300000Y-110456691D01*
X147300000Y-110456691D02*
X147300000Y-112499998D01*
D27*
%TO.N,/D1SP*%
X149100000Y-80900000D02*
X149837500Y-81637500D01*
X146200000Y-80900000D02*
X149100000Y-80900000D01*
X149837500Y-81637500D02*
X149837500Y-82350000D01*
%TO.N,/SG*%
X149837500Y-84250000D02*
X150650000Y-84250000D01*
X150650000Y-84250000D02*
X152360000Y-82540000D01*
X152360000Y-82540000D02*
X152360000Y-82147056D01*
%TO.N,/SF*%
X149837500Y-86250000D02*
X150797056Y-86250000D01*
X150797056Y-86250000D02*
X152360000Y-84687056D01*
%TO.N,/SE*%
X151437056Y-88150000D02*
X152360000Y-87227056D01*
X149837500Y-88150000D02*
X151437056Y-88150000D01*
%TO.N,/SC*%
X150877056Y-91250000D02*
X152360000Y-89767056D01*
X149837500Y-91250000D02*
X150877056Y-91250000D01*
%TO.N,/SB*%
X149837500Y-93150000D02*
X151517056Y-93150000D01*
X151517056Y-93150000D02*
X152360000Y-92307056D01*
%TO.N,/SA*%
X149837500Y-95150000D02*
X152057056Y-95150000D01*
X152057056Y-95150000D02*
X152360000Y-94847056D01*
%TO.N,/D12SD*%
X151012944Y-97387056D02*
X152360000Y-97387056D01*
X151000000Y-97400000D02*
X151012944Y-97387056D01*
X150650000Y-97050000D02*
X151000000Y-97400000D01*
X149837500Y-97050000D02*
X150650000Y-97050000D01*
D25*
%TO.N,/K5*%
X147927075Y-106363830D02*
X151823849Y-102467056D01*
X151823849Y-102467056D02*
X152359999Y-102467056D01*
%TO.N,/K4*%
X152352941Y-105000000D02*
X152359999Y-105007058D01*
X148280628Y-106717383D02*
X149998011Y-105000000D01*
X149998011Y-105000000D02*
X152352941Y-105000000D01*
%TO.N,/K1*%
X147573521Y-108608894D02*
X151591685Y-112627058D01*
X151591685Y-112627058D02*
X152359999Y-112627058D01*
%TO.N,/SWDIO*%
X142146478Y-106010274D02*
X141336204Y-105200000D01*
X138575000Y-113425000D02*
X137900000Y-114100000D01*
X141336204Y-105200000D02*
X139200000Y-105200000D01*
X137900000Y-114100000D02*
X137900000Y-115600000D01*
X138575000Y-105825000D02*
X138575000Y-113425000D01*
X139200000Y-105200000D02*
X138575000Y-105825000D01*
%TO.N,/SWCLK*%
X139700000Y-115580000D02*
X139720000Y-115600000D01*
%TO.N,/U1RXD*%
X143560691Y-110023107D02*
X142800000Y-110783798D01*
X142800000Y-110783798D02*
X142800000Y-113100000D01*
X142800000Y-113100000D02*
X143900000Y-114200000D01*
X143900000Y-114200000D02*
X143900000Y-115600000D01*
%TO.N,/BOOT0*%
X143400000Y-110890905D02*
X143914244Y-110376661D01*
X143400000Y-112600000D02*
X143400000Y-110890905D01*
X145900000Y-115100000D02*
X143400000Y-112600000D01*
X145900000Y-115600000D02*
X145900000Y-115100000D01*
%TO.N,/P_DRIVE*%
X139000000Y-102156689D02*
X139000000Y-90100000D01*
X139000000Y-90100000D02*
X140675000Y-88425000D01*
X140683148Y-88425000D02*
X141225000Y-87883148D01*
X142500031Y-105656720D02*
X139000000Y-102156689D01*
X146750000Y-82350000D02*
X147562500Y-82350000D01*
X140675000Y-88425000D02*
X140683148Y-88425000D01*
X141225000Y-87883148D02*
X141225000Y-87875000D01*
X141225000Y-87875000D02*
X146750000Y-82350000D01*
%TO.N,/G_DRIVE*%
X139600000Y-102049585D02*
X139600000Y-90300000D01*
X145650000Y-84250000D02*
X147562500Y-84250000D01*
X142853584Y-105303169D02*
X139600000Y-102049585D01*
X139600000Y-90300000D02*
X145650000Y-84250000D01*
%TO.N,/A_DRIVE*%
X145275000Y-98575000D02*
X145275000Y-95925000D01*
X148400000Y-104476691D02*
X148400000Y-101700000D01*
X147219968Y-105656723D02*
X148400000Y-104476691D01*
X146050000Y-95150000D02*
X147562500Y-95150000D01*
X145275000Y-95925000D02*
X146050000Y-95150000D01*
X148400000Y-101700000D02*
X145275000Y-98575000D01*
%TO.N,/D_DRIVE*%
X149000000Y-101500000D02*
X147562500Y-100062500D01*
X147573521Y-106010276D02*
X149000000Y-104583797D01*
X149000000Y-104583797D02*
X149000000Y-101500000D01*
X147562500Y-100062500D02*
X147562500Y-97050000D01*
%TO.N,/C_DRIVE*%
X143914245Y-104242508D02*
X141400000Y-101728263D01*
X145000000Y-89000000D02*
X147250000Y-91250000D01*
X143500000Y-89000000D02*
X145000000Y-89000000D01*
X147250000Y-91250000D02*
X147562500Y-91250000D01*
X141400000Y-91100000D02*
X143500000Y-89000000D01*
X141400000Y-101728263D02*
X141400000Y-91100000D01*
%TO.N,/B_DRIVE*%
X147800000Y-104369584D02*
X146866414Y-105303170D01*
X145950000Y-93150000D02*
X144700000Y-94400000D01*
X144700000Y-98800000D02*
X147800000Y-101900000D01*
X147562500Y-93150000D02*
X145950000Y-93150000D01*
X147800000Y-101900000D02*
X147800000Y-104369584D01*
X144700000Y-94400000D02*
X144700000Y-98800000D01*
%TO.N,/F_DRIVE*%
X140200000Y-90500000D02*
X144450000Y-86250000D01*
X140200000Y-101942477D02*
X140200000Y-90500000D01*
X144450000Y-86250000D02*
X147562500Y-86250000D01*
X143207138Y-104949615D02*
X140200000Y-101942477D01*
%TO.N,/E_DRIVE*%
X143100000Y-88500000D02*
X140800000Y-90800000D01*
X140800000Y-101835373D02*
X143560690Y-104596063D01*
X140800000Y-90800000D02*
X140800000Y-101835373D01*
X147562500Y-88150000D02*
X146403125Y-88150000D01*
X146053125Y-88500000D02*
X143100000Y-88500000D01*
X146403125Y-88150000D02*
X146053125Y-88500000D01*
%TO.N,/MEMIO*%
X147200000Y-102100000D02*
X144150000Y-99050000D01*
X146512861Y-104949616D02*
X147200000Y-104262477D01*
X142700000Y-97700000D02*
X144150000Y-97700000D01*
X144150000Y-99050000D02*
X144150000Y-92362500D01*
X147200000Y-104262477D02*
X147200000Y-102100000D01*
%TO.N,/LATCH*%
X141792924Y-108255340D02*
X140648264Y-109400000D01*
X140648264Y-109400000D02*
X140000000Y-109400000D01*
%TO.N,/SCLK*%
X140055372Y-110700000D02*
X139999994Y-110700000D01*
X142146478Y-108608894D02*
X140055372Y-110700000D01*
%TO.N,/SDATA*%
X141700000Y-111200000D02*
X141300000Y-111600000D01*
X141300000Y-111600000D02*
X141300000Y-112500000D01*
X141700000Y-110469584D02*
X141700000Y-111200000D01*
X142853584Y-109316000D02*
X141700000Y-110469584D01*
%TO.N,/DIRECT*%
X141100000Y-110900000D02*
X140000000Y-112000000D01*
X141100000Y-110362477D02*
X141100000Y-110900000D01*
X142500030Y-108962447D02*
X141100000Y-110362477D01*
%TD*%
M02*
