%TF.GenerationSoftware,KiCad,Pcbnew,7.0.8*%
%TF.CreationDate,2024-04-19T17:39:30-04:00*%
%TF.ProjectId,rcl57_mcu,72636c35-375f-46d6-9375-2e6b69636164,rev?*%
%TF.SameCoordinates,Original*%
%TF.FileFunction,Copper,L2,Inr*%
%TF.FilePolarity,Positive*%
%FSLAX46Y46*%
G04 Gerber Fmt 4.6, Leading zero omitted, Abs format (unit mm)*
G04 Created by KiCad (PCBNEW 7.0.8) date 2024-04-19 17:39:30*
%MOMM*%
%LPD*%
G01*
G04 APERTURE LIST*
%TA.AperFunction,ComponentPad*%
%ADD10R,1.350000X1.350000*%
%TD*%
%TA.AperFunction,ComponentPad*%
%ADD11O,1.350000X1.350000*%
%TD*%
%TA.AperFunction,ComponentPad*%
%ADD12R,1.700000X1.700000*%
%TD*%
%TA.AperFunction,ComponentPad*%
%ADD13O,1.700000X1.700000*%
%TD*%
%TA.AperFunction,ComponentPad*%
%ADD14C,1.700000*%
%TD*%
%TA.AperFunction,ViaPad*%
%ADD15C,0.900000*%
%TD*%
%TA.AperFunction,ViaPad*%
%ADD16C,1.200000*%
%TD*%
%TA.AperFunction,ViaPad*%
%ADD17C,1.000000*%
%TD*%
%TA.AperFunction,Conductor*%
%ADD18C,0.350000*%
%TD*%
%TA.AperFunction,Conductor*%
%ADD19C,1.000000*%
%TD*%
%TA.AperFunction,Conductor*%
%ADD20C,0.250000*%
%TD*%
G04 APERTURE END LIST*
D10*
%TO.N,/SWDIO*%
%TO.C,J3*%
X137900000Y-115600000D03*
D11*
%TO.N,/SWCLK*%
X139900000Y-115600000D03*
%TO.N,/U1TXD*%
X141900000Y-115600000D03*
%TO.N,/U1RXD*%
X143900000Y-115600000D03*
%TO.N,/BOOT0*%
X145900000Y-115600000D03*
%TO.N,/NRST*%
X147900000Y-115600000D03*
%TO.N,+3V3*%
X149900000Y-115600000D03*
%TO.N,GND*%
X151900000Y-115600000D03*
%TD*%
D12*
%TO.N,+BATT*%
%TO.C,J1*%
X137160000Y-82147058D03*
D13*
%TO.N,/D1SP*%
X137160000Y-84687058D03*
%TO.N,/D2*%
X137160000Y-87227058D03*
%TO.N,/D3*%
X137160000Y-89767058D03*
%TO.N,/D4*%
X137160000Y-92307058D03*
%TO.N,/D5*%
X137160000Y-94847058D03*
%TO.N,/D6*%
X137160000Y-97387058D03*
%TO.N,/D7*%
X137160000Y-99927058D03*
%TO.N,/D8*%
X137160000Y-102467058D03*
%TO.N,GND*%
X137160000Y-105007058D03*
%TO.N,/D9*%
X137160000Y-107547058D03*
%TO.N,/D10*%
X137160000Y-110087058D03*
%TO.N,/D11*%
X137160000Y-112627058D03*
%TD*%
D14*
%TO.N,/SG*%
%TO.C,J2*%
X152360000Y-82147056D03*
D13*
%TO.N,/SF*%
X152360000Y-84687056D03*
%TO.N,/SE*%
X152360000Y-87227056D03*
%TO.N,/SC*%
X152360000Y-89767056D03*
%TO.N,/SB*%
X152360000Y-92307056D03*
%TO.N,/SA*%
X152360000Y-94847056D03*
%TO.N,/D12SD*%
X152360000Y-97387056D03*
%TO.N,unconnected-(J2-Pin_8-Pad8)*%
X152360000Y-99927056D03*
%TO.N,/K5*%
X152360000Y-102467056D03*
%TO.N,/K4*%
X152360000Y-105007056D03*
%TO.N,/K3*%
X152360000Y-107547056D03*
%TO.N,/K2*%
X152360000Y-110087056D03*
%TO.N,/K1*%
X152360000Y-112627056D03*
%TD*%
D15*
%TO.N,GND*%
X149200000Y-112500000D03*
D16*
X145100000Y-87400000D03*
X140300000Y-87400000D03*
D17*
X145000000Y-107309585D03*
X146300000Y-98000000D03*
X143200000Y-95900000D03*
D16*
%TO.N,+3V3*%
X145200000Y-82300000D03*
X148700000Y-99100000D03*
D17*
X145000000Y-112500000D03*
D16*
X147800000Y-89700000D03*
X148700000Y-89700000D03*
D17*
X139600002Y-106200000D03*
D16*
X144300000Y-82300000D03*
X149300000Y-99800000D03*
D17*
X146200000Y-102400000D03*
X143500000Y-90700000D03*
D15*
%TO.N,/NRST*%
X147300000Y-112500000D03*
%TO.N,/D1SP*%
X146200000Y-80900000D03*
%TO.N,/D12SD*%
X150000000Y-101800000D03*
X142250000Y-101250000D03*
%TO.N,/LATCH*%
X140000000Y-109400000D03*
%TO.N,/SCLK*%
X139999994Y-110700000D03*
%TO.N,/SDATA*%
X141300000Y-112500000D03*
%TO.N,/DIRECT*%
X140000000Y-112000000D03*
%TD*%
D18*
%TO.N,GND*%
X142007056Y-105007056D02*
X144309585Y-107309585D01*
X138500000Y-105007056D02*
X142007056Y-105007056D01*
X144309585Y-107309585D02*
X145000000Y-107309585D01*
X149200000Y-110200000D02*
X146309585Y-107309585D01*
X146309585Y-107309585D02*
X145000000Y-107309585D01*
X149200000Y-112500000D02*
X149200000Y-110200000D01*
D19*
X151900000Y-114900000D02*
X151900000Y-115600000D01*
X149500000Y-112500000D02*
X151900000Y-114900000D01*
X149200000Y-112500000D02*
X149500000Y-112500000D01*
X137160000Y-105007058D02*
X138500000Y-105007056D01*
D20*
X145090415Y-107400000D02*
X145000000Y-107309585D01*
D18*
%TO.N,/D1SP*%
X137186472Y-84687057D02*
X137160000Y-84687057D01*
%TD*%
%TA.AperFunction,Conductor*%
%TO.N,GND*%
G36*
X145365956Y-81019685D02*
G01*
X145411711Y-81072489D01*
X145415959Y-81083046D01*
X145454389Y-81192874D01*
X145457950Y-81262653D01*
X145423221Y-81323280D01*
X145361228Y-81355507D01*
X145325193Y-81357231D01*
X145200000Y-81344901D01*
X145013668Y-81363252D01*
X145013666Y-81363253D01*
X144834502Y-81417602D01*
X144834494Y-81417605D01*
X144808451Y-81431526D01*
X144740048Y-81445767D01*
X144691549Y-81431526D01*
X144665505Y-81417605D01*
X144665497Y-81417602D01*
X144486333Y-81363253D01*
X144486331Y-81363252D01*
X144300000Y-81344901D01*
X144113668Y-81363252D01*
X144113666Y-81363253D01*
X143934497Y-81417604D01*
X143769376Y-81505862D01*
X143769373Y-81505864D01*
X143624642Y-81624642D01*
X143505864Y-81769373D01*
X143505862Y-81769376D01*
X143417604Y-81934497D01*
X143363253Y-82113666D01*
X143363252Y-82113668D01*
X143344901Y-82300000D01*
X143363252Y-82486331D01*
X143363253Y-82486333D01*
X143417604Y-82665502D01*
X143505862Y-82830623D01*
X143505864Y-82830626D01*
X143624642Y-82975357D01*
X143769373Y-83094135D01*
X143769376Y-83094137D01*
X143881807Y-83154232D01*
X143934499Y-83182396D01*
X144113666Y-83236746D01*
X144113668Y-83236747D01*
X144130374Y-83238392D01*
X144300000Y-83255099D01*
X144486331Y-83236747D01*
X144665501Y-83182396D01*
X144691545Y-83168474D01*
X144759947Y-83154232D01*
X144808454Y-83168474D01*
X144834499Y-83182396D01*
X145013666Y-83236746D01*
X145013668Y-83236747D01*
X145030374Y-83238392D01*
X145200000Y-83255099D01*
X145386331Y-83236747D01*
X145565501Y-83182396D01*
X145730625Y-83094136D01*
X145875357Y-82975357D01*
X145994136Y-82830625D01*
X146082396Y-82665501D01*
X146136747Y-82486331D01*
X146155099Y-82300000D01*
X146136747Y-82113669D01*
X146082396Y-81934499D01*
X146055876Y-81884884D01*
X146041635Y-81816483D01*
X146066635Y-81751239D01*
X146122939Y-81709868D01*
X146179118Y-81703212D01*
X146200000Y-81705565D01*
X146200000Y-81705564D01*
X146200001Y-81705565D01*
X146200004Y-81705565D01*
X146379249Y-81685369D01*
X146379252Y-81685368D01*
X146379255Y-81685368D01*
X146549522Y-81625789D01*
X146702262Y-81529816D01*
X146829816Y-81402262D01*
X146925789Y-81249522D01*
X146984041Y-81083044D01*
X147024763Y-81026270D01*
X147089715Y-81000522D01*
X147101083Y-81000000D01*
X150876000Y-81000000D01*
X150943039Y-81019685D01*
X150988794Y-81072489D01*
X151000000Y-81124000D01*
X151000000Y-101504314D01*
X150980315Y-101571353D01*
X150927511Y-101617108D01*
X150858353Y-101627052D01*
X150794797Y-101598027D01*
X150758959Y-101545269D01*
X150725790Y-101450480D01*
X150725789Y-101450478D01*
X150629816Y-101297738D01*
X150502262Y-101170184D01*
X150349523Y-101074211D01*
X150179254Y-101014631D01*
X150179249Y-101014630D01*
X150000004Y-100994435D01*
X149999996Y-100994435D01*
X149820750Y-101014630D01*
X149820745Y-101014631D01*
X149650476Y-101074211D01*
X149497737Y-101170184D01*
X149370184Y-101297737D01*
X149274211Y-101450476D01*
X149214631Y-101620745D01*
X149214630Y-101620750D01*
X149194435Y-101799996D01*
X149194435Y-101800003D01*
X149214630Y-101979249D01*
X149214631Y-101979254D01*
X149274211Y-102149523D01*
X149370184Y-102302262D01*
X149497738Y-102429816D01*
X149650478Y-102525789D01*
X149799131Y-102577805D01*
X149820745Y-102585368D01*
X149820750Y-102585369D01*
X149999996Y-102605565D01*
X150000000Y-102605565D01*
X150000004Y-102605565D01*
X150179249Y-102585369D01*
X150179252Y-102585368D01*
X150179255Y-102585368D01*
X150349522Y-102525789D01*
X150502262Y-102429816D01*
X150629816Y-102302262D01*
X150725789Y-102149522D01*
X150758958Y-102054731D01*
X150799680Y-101997954D01*
X150864633Y-101972207D01*
X150933194Y-101985663D01*
X150983597Y-102034050D01*
X151000000Y-102095685D01*
X151000000Y-113676000D01*
X150980315Y-113743039D01*
X150927511Y-113788794D01*
X150876000Y-113800000D01*
X138624000Y-113800000D01*
X138556961Y-113780315D01*
X138511206Y-113727511D01*
X138500000Y-113676000D01*
X138500000Y-110700003D01*
X139194429Y-110700003D01*
X139214624Y-110879249D01*
X139214625Y-110879254D01*
X139274205Y-111049523D01*
X139342342Y-111157961D01*
X139370178Y-111202262D01*
X139430232Y-111262316D01*
X139430238Y-111262322D01*
X139463722Y-111323646D01*
X139458737Y-111393337D01*
X139430238Y-111437684D01*
X139370183Y-111497739D01*
X139274211Y-111650476D01*
X139214631Y-111820745D01*
X139214630Y-111820750D01*
X139194435Y-111999996D01*
X139194435Y-112000003D01*
X139214630Y-112179249D01*
X139214631Y-112179254D01*
X139274211Y-112349523D01*
X139368760Y-112499996D01*
X139370184Y-112502262D01*
X139497738Y-112629816D01*
X139574109Y-112677803D01*
X139635608Y-112716446D01*
X139650478Y-112725789D01*
X139776003Y-112769712D01*
X139820745Y-112785368D01*
X139820750Y-112785369D01*
X139999996Y-112805565D01*
X140000000Y-112805565D01*
X140000004Y-112805565D01*
X140179249Y-112785369D01*
X140179252Y-112785368D01*
X140179255Y-112785368D01*
X140349522Y-112725789D01*
X140366559Y-112715083D01*
X140433794Y-112696081D01*
X140500630Y-112716446D01*
X140545846Y-112769712D01*
X140549575Y-112779120D01*
X140574209Y-112849519D01*
X140574211Y-112849522D01*
X140670184Y-113002262D01*
X140797738Y-113129816D01*
X140950478Y-113225789D01*
X140992840Y-113240612D01*
X141120745Y-113285368D01*
X141120750Y-113285369D01*
X141299996Y-113305565D01*
X141300000Y-113305565D01*
X141300004Y-113305565D01*
X141479249Y-113285369D01*
X141479252Y-113285368D01*
X141479255Y-113285368D01*
X141649522Y-113225789D01*
X141802262Y-113129816D01*
X141929816Y-113002262D01*
X142025789Y-112849522D01*
X142085368Y-112679255D01*
X142085531Y-112677807D01*
X142105565Y-112500003D01*
X142105565Y-112500000D01*
X144144815Y-112500000D01*
X144163503Y-112677805D01*
X144163504Y-112677807D01*
X144218747Y-112847829D01*
X144218750Y-112847835D01*
X144308141Y-113002665D01*
X144349812Y-113048946D01*
X144427764Y-113135521D01*
X144427767Y-113135523D01*
X144427770Y-113135526D01*
X144572407Y-113240612D01*
X144735733Y-113313329D01*
X144910609Y-113350500D01*
X144910610Y-113350500D01*
X145089389Y-113350500D01*
X145089391Y-113350500D01*
X145264267Y-113313329D01*
X145427593Y-113240612D01*
X145572230Y-113135526D01*
X145577372Y-113129816D01*
X145598148Y-113106741D01*
X145691859Y-113002665D01*
X145781250Y-112847835D01*
X145836497Y-112677803D01*
X145855185Y-112500003D01*
X146494435Y-112500003D01*
X146514630Y-112679249D01*
X146514631Y-112679254D01*
X146574211Y-112849523D01*
X146670184Y-113002262D01*
X146797738Y-113129816D01*
X146950478Y-113225789D01*
X146992840Y-113240612D01*
X147120745Y-113285368D01*
X147120750Y-113285369D01*
X147299996Y-113305565D01*
X147300000Y-113305565D01*
X147300004Y-113305565D01*
X147479249Y-113285369D01*
X147479252Y-113285368D01*
X147479255Y-113285368D01*
X147649522Y-113225789D01*
X147802262Y-113129816D01*
X147929816Y-113002262D01*
X148025789Y-112849522D01*
X148085368Y-112679255D01*
X148085531Y-112677807D01*
X148105565Y-112500003D01*
X148105565Y-112499996D01*
X148085369Y-112320750D01*
X148085368Y-112320745D01*
X148025789Y-112150478D01*
X147929816Y-111997738D01*
X147802262Y-111870184D01*
X147793175Y-111864474D01*
X147649523Y-111774211D01*
X147479254Y-111714631D01*
X147479249Y-111714630D01*
X147300004Y-111694435D01*
X147299996Y-111694435D01*
X147120750Y-111714630D01*
X147120745Y-111714631D01*
X146950476Y-111774211D01*
X146797737Y-111870184D01*
X146670184Y-111997737D01*
X146574211Y-112150476D01*
X146514631Y-112320745D01*
X146514630Y-112320750D01*
X146494435Y-112499996D01*
X146494435Y-112500003D01*
X145855185Y-112500003D01*
X145855185Y-112500000D01*
X145836497Y-112322197D01*
X145781250Y-112152165D01*
X145691859Y-111997335D01*
X145645003Y-111945296D01*
X145572235Y-111864478D01*
X145572232Y-111864476D01*
X145572231Y-111864475D01*
X145572230Y-111864474D01*
X145427593Y-111759388D01*
X145264267Y-111686671D01*
X145264265Y-111686670D01*
X145136594Y-111659533D01*
X145089391Y-111649500D01*
X144910609Y-111649500D01*
X144879954Y-111656015D01*
X144735733Y-111686670D01*
X144735728Y-111686672D01*
X144572408Y-111759387D01*
X144427768Y-111864475D01*
X144308140Y-111997336D01*
X144218750Y-112152164D01*
X144218747Y-112152170D01*
X144163504Y-112322192D01*
X144163503Y-112322194D01*
X144144815Y-112500000D01*
X142105565Y-112500000D01*
X142105565Y-112499996D01*
X142085369Y-112320750D01*
X142085368Y-112320745D01*
X142025789Y-112150478D01*
X141929816Y-111997738D01*
X141802262Y-111870184D01*
X141793175Y-111864474D01*
X141649523Y-111774211D01*
X141479254Y-111714631D01*
X141479249Y-111714630D01*
X141300004Y-111694435D01*
X141299996Y-111694435D01*
X141120750Y-111714630D01*
X141120745Y-111714631D01*
X140950474Y-111774212D01*
X140933436Y-111784918D01*
X140866199Y-111803918D01*
X140799364Y-111783550D01*
X140754151Y-111730281D01*
X140750423Y-111720878D01*
X140725789Y-111650478D01*
X140725174Y-111649500D01*
X140629816Y-111497738D01*
X140569756Y-111437678D01*
X140536271Y-111376355D01*
X140541255Y-111306663D01*
X140569756Y-111262316D01*
X140629810Y-111202262D01*
X140725783Y-111049522D01*
X140785362Y-110879255D01*
X140805559Y-110700000D01*
X140785362Y-110520745D01*
X140725783Y-110350478D01*
X140629810Y-110197738D01*
X140569756Y-110137684D01*
X140536271Y-110076361D01*
X140541255Y-110006669D01*
X140569756Y-109962322D01*
X140569762Y-109962316D01*
X140629816Y-109902262D01*
X140725789Y-109749522D01*
X140785368Y-109579255D01*
X140805565Y-109400000D01*
X140785368Y-109220745D01*
X140725789Y-109050478D01*
X140629816Y-108897738D01*
X140502262Y-108770184D01*
X140349523Y-108674211D01*
X140179254Y-108614631D01*
X140179249Y-108614630D01*
X140000004Y-108594435D01*
X139999996Y-108594435D01*
X139820750Y-108614630D01*
X139820745Y-108614631D01*
X139650476Y-108674211D01*
X139497737Y-108770184D01*
X139370184Y-108897737D01*
X139274211Y-109050476D01*
X139214631Y-109220745D01*
X139214630Y-109220750D01*
X139194435Y-109399996D01*
X139194435Y-109400003D01*
X139214630Y-109579249D01*
X139214631Y-109579254D01*
X139274211Y-109749523D01*
X139370184Y-109902262D01*
X139430238Y-109962316D01*
X139463723Y-110023639D01*
X139458739Y-110093331D01*
X139430238Y-110137678D01*
X139370178Y-110197737D01*
X139274205Y-110350476D01*
X139214625Y-110520745D01*
X139214624Y-110520750D01*
X139194429Y-110699996D01*
X139194429Y-110700003D01*
X138500000Y-110700003D01*
X138500000Y-106236782D01*
X138510252Y-106201866D01*
X138507272Y-106195949D01*
X138739186Y-106195949D01*
X138742977Y-106201847D01*
X138747321Y-106223820D01*
X138763505Y-106377805D01*
X138763506Y-106377807D01*
X138818749Y-106547829D01*
X138818752Y-106547835D01*
X138908143Y-106702665D01*
X138949814Y-106748946D01*
X139027766Y-106835521D01*
X139027769Y-106835523D01*
X139027772Y-106835526D01*
X139172409Y-106940612D01*
X139335735Y-107013329D01*
X139510611Y-107050500D01*
X139510612Y-107050500D01*
X139689391Y-107050500D01*
X139689393Y-107050500D01*
X139864269Y-107013329D01*
X140027595Y-106940612D01*
X140172232Y-106835526D01*
X140291861Y-106702665D01*
X140381252Y-106547835D01*
X140436499Y-106377803D01*
X140455187Y-106200000D01*
X140436499Y-106022197D01*
X140381252Y-105852165D01*
X140291861Y-105697335D01*
X140245005Y-105645296D01*
X140172237Y-105564478D01*
X140172234Y-105564476D01*
X140172233Y-105564475D01*
X140172232Y-105564474D01*
X140027595Y-105459388D01*
X139864269Y-105386671D01*
X139864267Y-105386670D01*
X139736596Y-105359533D01*
X139689393Y-105349500D01*
X139510611Y-105349500D01*
X139479956Y-105356015D01*
X139335735Y-105386670D01*
X139335730Y-105386672D01*
X139172410Y-105459387D01*
X139027770Y-105564475D01*
X138908142Y-105697336D01*
X138818752Y-105852164D01*
X138818749Y-105852170D01*
X138763506Y-106022192D01*
X138763505Y-106022194D01*
X138747321Y-106176179D01*
X138739186Y-106195949D01*
X138507272Y-106195949D01*
X138502023Y-106185524D01*
X138500000Y-106163217D01*
X138500000Y-102400000D01*
X145344815Y-102400000D01*
X145363503Y-102577805D01*
X145363504Y-102577807D01*
X145418747Y-102747829D01*
X145418750Y-102747835D01*
X145508141Y-102902665D01*
X145549812Y-102948946D01*
X145627764Y-103035521D01*
X145627767Y-103035523D01*
X145627770Y-103035526D01*
X145772407Y-103140612D01*
X145935733Y-103213329D01*
X146110609Y-103250500D01*
X146110610Y-103250500D01*
X146289389Y-103250500D01*
X146289391Y-103250500D01*
X146464267Y-103213329D01*
X146627593Y-103140612D01*
X146772230Y-103035526D01*
X146891859Y-102902665D01*
X146981250Y-102747835D01*
X147036497Y-102577803D01*
X147055185Y-102400000D01*
X147036497Y-102222197D01*
X146981250Y-102052165D01*
X146891859Y-101897335D01*
X146804221Y-101800003D01*
X146772235Y-101764478D01*
X146772232Y-101764476D01*
X146772231Y-101764475D01*
X146772230Y-101764474D01*
X146627593Y-101659388D01*
X146464267Y-101586671D01*
X146464265Y-101586670D01*
X146336594Y-101559533D01*
X146289391Y-101549500D01*
X146110609Y-101549500D01*
X146079954Y-101556015D01*
X145935733Y-101586670D01*
X145935728Y-101586672D01*
X145772408Y-101659387D01*
X145627768Y-101764475D01*
X145508140Y-101897336D01*
X145418750Y-102052164D01*
X145418747Y-102052170D01*
X145363504Y-102222192D01*
X145363503Y-102222194D01*
X145344815Y-102400000D01*
X138500000Y-102400000D01*
X138500000Y-101250003D01*
X141444435Y-101250003D01*
X141464630Y-101429249D01*
X141464631Y-101429254D01*
X141524211Y-101599523D01*
X141561827Y-101659388D01*
X141620184Y-101752262D01*
X141747738Y-101879816D01*
X141900478Y-101975789D01*
X141963822Y-101997954D01*
X142070745Y-102035368D01*
X142070750Y-102035369D01*
X142249996Y-102055565D01*
X142250000Y-102055565D01*
X142250004Y-102055565D01*
X142429249Y-102035369D01*
X142429252Y-102035368D01*
X142429255Y-102035368D01*
X142599522Y-101975789D01*
X142752262Y-101879816D01*
X142879816Y-101752262D01*
X142975789Y-101599522D01*
X143035368Y-101429255D01*
X143035369Y-101429249D01*
X143055565Y-101250003D01*
X143055565Y-101249996D01*
X143035369Y-101070750D01*
X143035368Y-101070745D01*
X143015733Y-101014631D01*
X142975789Y-100900478D01*
X142879816Y-100747738D01*
X142752262Y-100620184D01*
X142599523Y-100524211D01*
X142429254Y-100464631D01*
X142429249Y-100464630D01*
X142250004Y-100444435D01*
X142249996Y-100444435D01*
X142070750Y-100464630D01*
X142070745Y-100464631D01*
X141900476Y-100524211D01*
X141747737Y-100620184D01*
X141620184Y-100747737D01*
X141524211Y-100900476D01*
X141464631Y-101070745D01*
X141464630Y-101070750D01*
X141444435Y-101249996D01*
X141444435Y-101250003D01*
X138500000Y-101250003D01*
X138500000Y-99100000D01*
X147744901Y-99100000D01*
X147763252Y-99286331D01*
X147763253Y-99286333D01*
X147817604Y-99465502D01*
X147905862Y-99630623D01*
X147905864Y-99630626D01*
X148024642Y-99775357D01*
X148054670Y-99800000D01*
X148169375Y-99894136D01*
X148322097Y-99975767D01*
X148371939Y-100024728D01*
X148382302Y-100049128D01*
X148417604Y-100165502D01*
X148505862Y-100330623D01*
X148505864Y-100330626D01*
X148624642Y-100475357D01*
X148769373Y-100594135D01*
X148769376Y-100594137D01*
X148934497Y-100682395D01*
X148934499Y-100682396D01*
X149113666Y-100736746D01*
X149113668Y-100736747D01*
X149130374Y-100738392D01*
X149300000Y-100755099D01*
X149486331Y-100736747D01*
X149665501Y-100682396D01*
X149830625Y-100594136D01*
X149975357Y-100475357D01*
X150094136Y-100330625D01*
X150182396Y-100165501D01*
X150236747Y-99986331D01*
X150255099Y-99800000D01*
X150236747Y-99613669D01*
X150182396Y-99434499D01*
X150182395Y-99434497D01*
X150094137Y-99269376D01*
X150094135Y-99269373D01*
X149975357Y-99124642D01*
X149830626Y-99005864D01*
X149830623Y-99005862D01*
X149677904Y-98924233D01*
X149628060Y-98875271D01*
X149617698Y-98850875D01*
X149582396Y-98734499D01*
X149582394Y-98734496D01*
X149582394Y-98734494D01*
X149494137Y-98569376D01*
X149494135Y-98569373D01*
X149375357Y-98424642D01*
X149230626Y-98305864D01*
X149230623Y-98305862D01*
X149065502Y-98217604D01*
X148886333Y-98163253D01*
X148886331Y-98163252D01*
X148700000Y-98144901D01*
X148513668Y-98163252D01*
X148513666Y-98163253D01*
X148334497Y-98217604D01*
X148169376Y-98305862D01*
X148169373Y-98305864D01*
X148024642Y-98424642D01*
X147905864Y-98569373D01*
X147905862Y-98569376D01*
X147817604Y-98734497D01*
X147763253Y-98913666D01*
X147763252Y-98913668D01*
X147744901Y-99100000D01*
X138500000Y-99100000D01*
X138500000Y-90700000D01*
X142644815Y-90700000D01*
X142663503Y-90877805D01*
X142663504Y-90877807D01*
X142718747Y-91047829D01*
X142718750Y-91047835D01*
X142808141Y-91202665D01*
X142849812Y-91248946D01*
X142927764Y-91335521D01*
X142927767Y-91335523D01*
X142927770Y-91335526D01*
X143072407Y-91440612D01*
X143235733Y-91513329D01*
X143410609Y-91550500D01*
X143410610Y-91550500D01*
X143589389Y-91550500D01*
X143589391Y-91550500D01*
X143764267Y-91513329D01*
X143927593Y-91440612D01*
X144072230Y-91335526D01*
X144191859Y-91202665D01*
X144281250Y-91047835D01*
X144336497Y-90877803D01*
X144355185Y-90700000D01*
X144336497Y-90522197D01*
X144281250Y-90352165D01*
X144191859Y-90197335D01*
X144145003Y-90145296D01*
X144072235Y-90064478D01*
X144072232Y-90064476D01*
X144072231Y-90064475D01*
X144072230Y-90064474D01*
X143927593Y-89959388D01*
X143764267Y-89886671D01*
X143764265Y-89886670D01*
X143636594Y-89859533D01*
X143589391Y-89849500D01*
X143410609Y-89849500D01*
X143379954Y-89856015D01*
X143235733Y-89886670D01*
X143235728Y-89886672D01*
X143072408Y-89959387D01*
X142927768Y-90064475D01*
X142808140Y-90197336D01*
X142718750Y-90352164D01*
X142718747Y-90352170D01*
X142663504Y-90522192D01*
X142663503Y-90522194D01*
X142644815Y-90700000D01*
X138500000Y-90700000D01*
X138500000Y-89700000D01*
X146844901Y-89700000D01*
X146863252Y-89886331D01*
X146863253Y-89886333D01*
X146917604Y-90065502D01*
X147005862Y-90230623D01*
X147005864Y-90230626D01*
X147124642Y-90375357D01*
X147269373Y-90494135D01*
X147269376Y-90494137D01*
X147381807Y-90554232D01*
X147434499Y-90582396D01*
X147613666Y-90636746D01*
X147613668Y-90636747D01*
X147630374Y-90638392D01*
X147800000Y-90655099D01*
X147986331Y-90636747D01*
X148165501Y-90582396D01*
X148191545Y-90568474D01*
X148259947Y-90554232D01*
X148308454Y-90568474D01*
X148334499Y-90582396D01*
X148513666Y-90636746D01*
X148513668Y-90636747D01*
X148530374Y-90638392D01*
X148700000Y-90655099D01*
X148886331Y-90636747D01*
X149065501Y-90582396D01*
X149230625Y-90494136D01*
X149375357Y-90375357D01*
X149494136Y-90230625D01*
X149582396Y-90065501D01*
X149636747Y-89886331D01*
X149655099Y-89700000D01*
X149636747Y-89513669D01*
X149582396Y-89334499D01*
X149494136Y-89169375D01*
X149494135Y-89169373D01*
X149375357Y-89024642D01*
X149230626Y-88905864D01*
X149230623Y-88905862D01*
X149065502Y-88817604D01*
X148886333Y-88763253D01*
X148886331Y-88763252D01*
X148700000Y-88744901D01*
X148513668Y-88763252D01*
X148513666Y-88763253D01*
X148334502Y-88817602D01*
X148334494Y-88817605D01*
X148308451Y-88831526D01*
X148240048Y-88845767D01*
X148191549Y-88831526D01*
X148165505Y-88817605D01*
X148165497Y-88817602D01*
X147986333Y-88763253D01*
X147986331Y-88763252D01*
X147800000Y-88744901D01*
X147613668Y-88763252D01*
X147613666Y-88763253D01*
X147434497Y-88817604D01*
X147269376Y-88905862D01*
X147269373Y-88905864D01*
X147124642Y-89024642D01*
X147005864Y-89169373D01*
X147005862Y-89169376D01*
X146917604Y-89334497D01*
X146863253Y-89513666D01*
X146863252Y-89513668D01*
X146844901Y-89700000D01*
X138500000Y-89700000D01*
X138500000Y-81124000D01*
X138519685Y-81056961D01*
X138572489Y-81011206D01*
X138624000Y-81000000D01*
X145298917Y-81000000D01*
X145365956Y-81019685D01*
G37*
%TD.AperFunction*%
%TD*%
M02*
