%TF.GenerationSoftware,KiCad,Pcbnew,7.0.8*%
%TF.CreationDate,2024-04-19T17:39:30-04:00*%
%TF.ProjectId,rcl57_mcu,72636c35-375f-46d6-9375-2e6b69636164,rev?*%
%TF.SameCoordinates,Original*%
%TF.FileFunction,Copper,L4,Bot*%
%TF.FilePolarity,Positive*%
%FSLAX46Y46*%
G04 Gerber Fmt 4.6, Leading zero omitted, Abs format (unit mm)*
G04 Created by KiCad (PCBNEW 7.0.8) date 2024-04-19 17:39:30*
%MOMM*%
%LPD*%
G01*
G04 APERTURE LIST*
G04 Aperture macros list*
%AMRoundRect*
0 Rectangle with rounded corners*
0 $1 Rounding radius*
0 $2 $3 $4 $5 $6 $7 $8 $9 X,Y pos of 4 corners*
0 Add a 4 corners polygon primitive as box body*
4,1,4,$2,$3,$4,$5,$6,$7,$8,$9,$2,$3,0*
0 Add four circle primitives for the rounded corners*
1,1,$1+$1,$2,$3*
1,1,$1+$1,$4,$5*
1,1,$1+$1,$6,$7*
1,1,$1+$1,$8,$9*
0 Add four rect primitives between the rounded corners*
20,1,$1+$1,$2,$3,$4,$5,0*
20,1,$1+$1,$4,$5,$6,$7,0*
20,1,$1+$1,$6,$7,$8,$9,0*
20,1,$1+$1,$8,$9,$2,$3,0*%
%AMRotRect*
0 Rectangle, with rotation*
0 The origin of the aperture is its center*
0 $1 length*
0 $2 width*
0 $3 Rotation angle, in degrees counterclockwise*
0 Add horizontal line*
21,1,$1,$2,0,0,$3*%
G04 Aperture macros list end*
%TA.AperFunction,ComponentPad*%
%ADD10R,1.350000X1.350000*%
%TD*%
%TA.AperFunction,ComponentPad*%
%ADD11O,1.350000X1.350000*%
%TD*%
%TA.AperFunction,SMDPad,CuDef*%
%ADD12RoundRect,0.250000X0.350000X0.450000X-0.350000X0.450000X-0.350000X-0.450000X0.350000X-0.450000X0*%
%TD*%
%TA.AperFunction,SMDPad,CuDef*%
%ADD13RoundRect,0.250000X0.475000X-0.250000X0.475000X0.250000X-0.475000X0.250000X-0.475000X-0.250000X0*%
%TD*%
%TA.AperFunction,SMDPad,CuDef*%
%ADD14RoundRect,0.250000X-0.475000X0.250000X-0.475000X-0.250000X0.475000X-0.250000X0.475000X0.250000X0*%
%TD*%
%TA.AperFunction,SMDPad,CuDef*%
%ADD15R,0.800000X0.480000*%
%TD*%
%TA.AperFunction,SMDPad,CuDef*%
%ADD16R,0.900000X0.320000*%
%TD*%
%TA.AperFunction,SMDPad,CuDef*%
%ADD17RoundRect,0.250000X-0.159099X0.512652X-0.512652X0.159099X0.159099X-0.512652X0.512652X-0.159099X0*%
%TD*%
%TA.AperFunction,ComponentPad*%
%ADD18R,1.700000X1.700000*%
%TD*%
%TA.AperFunction,ComponentPad*%
%ADD19O,1.700000X1.700000*%
%TD*%
%TA.AperFunction,SMDPad,CuDef*%
%ADD20RoundRect,0.250000X-0.450000X0.350000X-0.450000X-0.350000X0.450000X-0.350000X0.450000X0.350000X0*%
%TD*%
%TA.AperFunction,SMDPad,CuDef*%
%ADD21RoundRect,0.100000X-0.388909X-0.530330X0.530330X0.388909X0.388909X0.530330X-0.530330X-0.388909X0*%
%TD*%
%TA.AperFunction,SMDPad,CuDef*%
%ADD22RotRect,3.200000X5.000000X45.000000*%
%TD*%
%TA.AperFunction,ComponentPad*%
%ADD23C,1.700000*%
%TD*%
%TA.AperFunction,SMDPad,CuDef*%
%ADD24RoundRect,0.250000X0.250000X0.475000X-0.250000X0.475000X-0.250000X-0.475000X0.250000X-0.475000X0*%
%TD*%
%TA.AperFunction,ViaPad*%
%ADD25C,0.900000*%
%TD*%
%TA.AperFunction,ViaPad*%
%ADD26C,1.200000*%
%TD*%
%TA.AperFunction,ViaPad*%
%ADD27C,1.000000*%
%TD*%
%TA.AperFunction,Conductor*%
%ADD28C,0.250000*%
%TD*%
%TA.AperFunction,Conductor*%
%ADD29C,0.300000*%
%TD*%
%TA.AperFunction,Conductor*%
%ADD30C,0.350000*%
%TD*%
%TA.AperFunction,Conductor*%
%ADD31C,1.000000*%
%TD*%
G04 APERTURE END LIST*
D10*
%TO.P,J3,1,Pin_1*%
%TO.N,/SWDIO*%
X137900000Y-115600000D03*
D11*
%TO.P,J3,2,Pin_2*%
%TO.N,/SWCLK*%
X139900000Y-115600000D03*
%TO.P,J3,3,Pin_3*%
%TO.N,/U1TXD*%
X141900000Y-115600000D03*
%TO.P,J3,4,Pin_4*%
%TO.N,/U1RXD*%
X143900000Y-115600000D03*
%TO.P,J3,5,Pin_5*%
%TO.N,/BOOT0*%
X145900000Y-115600000D03*
%TO.P,J3,6,Pin_6*%
%TO.N,/NRST*%
X147900000Y-115600000D03*
%TO.P,J3,7,Pin_7*%
%TO.N,+3V3*%
X149900000Y-115600000D03*
%TO.P,J3,8,Pin_8*%
%TO.N,GND*%
X151900000Y-115600000D03*
%TD*%
D12*
%TO.P,R4,1*%
%TO.N,/D12SD*%
X149300000Y-104400000D03*
%TO.P,R4,2*%
%TO.N,/DIRECT*%
X147300000Y-104400000D03*
%TD*%
D13*
%TO.P,C2,1*%
%TO.N,+3V3*%
X145000000Y-110850000D03*
%TO.P,C2,2*%
%TO.N,GND*%
X145000000Y-108950000D03*
%TD*%
D14*
%TO.P,C3,1*%
%TO.N,+3V3*%
X142900000Y-83950000D03*
%TO.P,C3,2*%
%TO.N,GND*%
X142900000Y-85850000D03*
%TD*%
%TO.P,C5,1*%
%TO.N,+BATT*%
X140300000Y-83950000D03*
%TO.P,C5,2*%
%TO.N,GND*%
X140300000Y-85850000D03*
%TD*%
D15*
%TO.P,RN1,1,R1*%
%TO.N,/K5*%
X149200000Y-106240000D03*
D16*
%TO.P,RN1,2,R2*%
%TO.N,/K4*%
X149200000Y-106960000D03*
%TO.P,RN1,3,R3*%
%TO.N,/K3*%
X149200000Y-107600000D03*
%TO.P,RN1,4,R4*%
%TO.N,/K2*%
X149200000Y-108240000D03*
D15*
%TO.P,RN1,5,common1*%
%TO.N,GND*%
X149200000Y-108960000D03*
%TO.P,RN1,6,R5*%
%TO.N,/BOOT0*%
X147400000Y-108960000D03*
D16*
%TO.P,RN1,7,R6*%
%TO.N,/K1*%
X147400000Y-108240000D03*
%TO.P,RN1,8,R7*%
%TO.N,unconnected-(RN1-R7-Pad8)*%
X147400000Y-107600000D03*
%TO.P,RN1,9,R8*%
%TO.N,unconnected-(RN1-R8-Pad9)*%
X147400000Y-106960000D03*
D15*
%TO.P,RN1,10,common2*%
%TO.N,GND*%
X147400000Y-106240000D03*
%TD*%
D14*
%TO.P,C6,1*%
%TO.N,+3V3*%
X145100000Y-83950000D03*
%TO.P,C6,2*%
%TO.N,GND*%
X145100000Y-85850000D03*
%TD*%
D17*
%TO.P,C4,1*%
%TO.N,+3V3*%
X141971751Y-92128249D03*
%TO.P,C4,2*%
%TO.N,GND*%
X140628249Y-93471751D03*
%TD*%
D18*
%TO.P,J1,1,Pin_1*%
%TO.N,+BATT*%
X137160000Y-82147058D03*
D19*
%TO.P,J1,2,Pin_2*%
%TO.N,/D1SP*%
X137160000Y-84687058D03*
%TO.P,J1,3,Pin_3*%
%TO.N,/D2*%
X137160000Y-87227058D03*
%TO.P,J1,4,Pin_4*%
%TO.N,/D3*%
X137160000Y-89767058D03*
%TO.P,J1,5,Pin_5*%
%TO.N,/D4*%
X137160000Y-92307058D03*
%TO.P,J1,6,Pin_6*%
%TO.N,/D5*%
X137160000Y-94847058D03*
%TO.P,J1,7,Pin_7*%
%TO.N,/D6*%
X137160000Y-97387058D03*
%TO.P,J1,8,Pin_8*%
%TO.N,/D7*%
X137160000Y-99927058D03*
%TO.P,J1,9,Pin_9*%
%TO.N,/D8*%
X137160000Y-102467058D03*
%TO.P,J1,10,Pin_10*%
%TO.N,GND*%
X137160000Y-105007058D03*
%TO.P,J1,11,Pin_11*%
%TO.N,/D9*%
X137160000Y-107547058D03*
%TO.P,J1,12,Pin_12*%
%TO.N,/D10*%
X137160000Y-110087058D03*
%TO.P,J1,13,Pin_13*%
%TO.N,/D11*%
X137160000Y-112627058D03*
%TD*%
D20*
%TO.P,R1,2*%
%TO.N,GND*%
X147300000Y-85900000D03*
%TO.P,R1,1*%
%TO.N,Net-(U2-IREF)*%
X147300000Y-83900000D03*
%TD*%
D21*
%TO.P,U2,1,GND*%
%TO.N,GND*%
X145354974Y-101207895D03*
%TO.P,U2,2,SIN*%
%TO.N,/SDATA*%
X144895354Y-100748275D03*
%TO.P,U2,3,SCLK*%
%TO.N,/SCLK*%
X144435735Y-100288656D03*
%TO.P,U2,4,LATCH*%
%TO.N,/LATCH*%
X143976116Y-99829037D03*
%TO.P,U2,5,OUT0*%
%TO.N,/D12SD*%
X143516496Y-99369417D03*
%TO.P,U2,6,OUT1*%
%TO.N,/D11*%
X143056877Y-98909798D03*
%TO.P,U2,7,OUT2*%
%TO.N,/D10*%
X142597257Y-98450178D03*
%TO.P,U2,8,OUT3*%
%TO.N,/D9*%
X142137638Y-97990559D03*
%TO.P,U2,9,OUT4*%
%TO.N,/D8*%
X141678018Y-97530939D03*
%TO.P,U2,10,OUT5*%
%TO.N,/D7*%
X141218399Y-97071320D03*
%TO.P,U2,11,OUT6*%
%TO.N,/D6*%
X140758780Y-96611701D03*
%TO.P,U2,12,OUT7*%
%TO.N,/D5*%
X140299160Y-96152081D03*
%TO.P,U2,13,OUT8*%
%TO.N,/D4*%
X144365024Y-92086217D03*
%TO.P,U2,14,OUT9*%
%TO.N,/D3*%
X144824644Y-92545837D03*
%TO.P,U2,15,OUT10*%
%TO.N,/D2*%
X145284263Y-93005456D03*
%TO.P,U2,16,OUT11*%
%TO.N,/D1SP*%
X145743882Y-93465075D03*
%TO.P,U2,17,OUT12*%
%TO.N,unconnected-(U2-OUT12-Pad17)*%
X146203502Y-93924695D03*
%TO.P,U2,18,OUT13*%
%TO.N,unconnected-(U2-OUT13-Pad18)*%
X146663121Y-94384314D03*
%TO.P,U2,19,OUT14*%
%TO.N,unconnected-(U2-OUT14-Pad19)*%
X147122741Y-94843934D03*
%TO.P,U2,20,OUT15*%
%TO.N,unconnected-(U2-OUT15-Pad20)*%
X147582360Y-95303553D03*
%TO.P,U2,21,BLANK*%
%TO.N,GND*%
X148041980Y-95763173D03*
%TO.P,U2,22,SOUT*%
%TO.N,unconnected-(U2-SOUT-Pad22)*%
X148501599Y-96222792D03*
%TO.P,U2,23,IREF*%
%TO.N,Net-(U2-IREF)*%
X148961218Y-96682411D03*
%TO.P,U2,24,VCC*%
%TO.N,+3V3*%
X149420838Y-97142031D03*
D22*
%TO.P,U2,25,GND*%
%TO.N,GND*%
X144859999Y-96647056D03*
%TD*%
D23*
%TO.P,J2,1,Pin_1*%
%TO.N,/SG*%
X152360000Y-82147056D03*
D19*
%TO.P,J2,2,Pin_2*%
%TO.N,/SF*%
X152360000Y-84687056D03*
%TO.P,J2,3,Pin_3*%
%TO.N,/SE*%
X152360000Y-87227056D03*
%TO.P,J2,4,Pin_4*%
%TO.N,/SC*%
X152360000Y-89767056D03*
%TO.P,J2,5,Pin_5*%
%TO.N,/SB*%
X152360000Y-92307056D03*
%TO.P,J2,6,Pin_6*%
%TO.N,/SA*%
X152360000Y-94847056D03*
%TO.P,J2,7,Pin_7*%
%TO.N,/D12SD*%
X152360000Y-97387056D03*
%TO.P,J2,8,Pin_8*%
%TO.N,unconnected-(J2-Pin_8-Pad8)*%
X152360000Y-99927056D03*
%TO.P,J2,9,Pin_9*%
%TO.N,/K5*%
X152360000Y-102467056D03*
%TO.P,J2,10,Pin_10*%
%TO.N,/K4*%
X152360000Y-105007056D03*
%TO.P,J2,11,Pin_11*%
%TO.N,/K3*%
X152360000Y-107547056D03*
%TO.P,J2,12,Pin_12*%
%TO.N,/K2*%
X152360000Y-110087056D03*
%TO.P,J2,13,Pin_13*%
%TO.N,/K1*%
X152360000Y-112627056D03*
%TD*%
D24*
%TO.P,C1,1*%
%TO.N,GND*%
X149250000Y-110900000D03*
%TO.P,C1,2*%
%TO.N,/NRST*%
X147350000Y-110900000D03*
%TD*%
D25*
%TO.N,GND*%
X149200000Y-112500000D03*
D26*
X145100000Y-87400000D03*
X140300000Y-87400000D03*
D27*
X145000000Y-107309585D03*
X146300000Y-98000000D03*
X143200000Y-95900000D03*
D26*
%TO.N,+3V3*%
X145200000Y-82300000D03*
X148700000Y-99100000D03*
D27*
X145000000Y-112500000D03*
D26*
X147800000Y-89700000D03*
X148700000Y-89700000D03*
D27*
X139600002Y-106200000D03*
D26*
X144300000Y-82300000D03*
X149300000Y-99800000D03*
D27*
X146200000Y-102400000D03*
X143500000Y-90700000D03*
D25*
%TO.N,/NRST*%
X147300000Y-112500000D03*
%TO.N,/D1SP*%
X146200000Y-80900000D03*
%TO.N,/D12SD*%
X150000000Y-101800000D03*
X142250000Y-101250000D03*
%TO.N,/LATCH*%
X140000000Y-109400000D03*
%TO.N,/SCLK*%
X139999994Y-110700000D03*
%TO.N,/SDATA*%
X141300000Y-112500000D03*
%TO.N,/DIRECT*%
X140000000Y-112000000D03*
%TD*%
D28*
%TO.N,/LATCH*%
X141900000Y-107500000D02*
X140000000Y-109400000D01*
X141900000Y-103600000D02*
X141900000Y-107500000D01*
X143100000Y-100705155D02*
X143100000Y-102400000D01*
X143984955Y-99820200D02*
X143100000Y-100705155D01*
X143100000Y-102400000D02*
X141900000Y-103600000D01*
%TO.N,/SDATA*%
X143100000Y-108900000D02*
X141300000Y-110700000D01*
X143100000Y-104600000D02*
X143100000Y-108900000D01*
X144100000Y-101543630D02*
X144100000Y-103600000D01*
X144904194Y-100739436D02*
X144100000Y-101543630D01*
X144100000Y-103600000D02*
X143100000Y-104600000D01*
X141300000Y-110700000D02*
X141300000Y-112500000D01*
%TO.N,/SCLK*%
X142500000Y-104000000D02*
X142500000Y-108199994D01*
X143600000Y-102900000D02*
X142500000Y-104000000D01*
X144444575Y-100279818D02*
X143600000Y-101124393D01*
X143600000Y-101124393D02*
X143600000Y-102900000D01*
X142500000Y-108199994D02*
X139999994Y-110700000D01*
%TO.N,/D6*%
X139770481Y-97600000D02*
X140767619Y-96602862D01*
X137372942Y-97600000D02*
X139770481Y-97600000D01*
X137160000Y-97387058D02*
X137372942Y-97600000D01*
%TO.N,/D4*%
X142851241Y-93600000D02*
X144365024Y-92086217D01*
X140807058Y-92307058D02*
X142100000Y-93600000D01*
X142100000Y-93600000D02*
X142851241Y-93600000D01*
X137160000Y-92307058D02*
X140807058Y-92307058D01*
D29*
%TO.N,/D12SD*%
X152112944Y-97387056D02*
X152360000Y-97387056D01*
X150700000Y-98800000D02*
X152112944Y-97387056D01*
X150700000Y-101100000D02*
X150700000Y-98800000D01*
X150000000Y-101800000D02*
X150700000Y-101100000D01*
%TO.N,Net-(U2-IREF)*%
X148500000Y-83900000D02*
X147300000Y-83900000D01*
X150000000Y-85400000D02*
X148500000Y-83900000D01*
X150000000Y-95643629D02*
X150000000Y-85400000D01*
X148961218Y-96682411D02*
X150000000Y-95643629D01*
D28*
%TO.N,/D9*%
X139700000Y-100428197D02*
X142146477Y-97981720D01*
X139700000Y-104800000D02*
X139700000Y-100428197D01*
X137160000Y-107340000D02*
X139700000Y-104800000D01*
X137160000Y-107547058D02*
X137160000Y-107340000D01*
%TO.N,/DIRECT*%
X145200000Y-104400000D02*
X147300000Y-104400000D01*
X143700000Y-105900000D02*
X145200000Y-104400000D01*
X143700000Y-109600000D02*
X143700000Y-105900000D01*
X142400000Y-110900000D02*
X143700000Y-109600000D01*
X140000000Y-112800000D02*
X140700000Y-113500000D01*
X140700000Y-113500000D02*
X141800000Y-113500000D01*
X142400000Y-112900000D02*
X142400000Y-110900000D01*
X140000000Y-112000000D02*
X140000000Y-112800000D01*
X141800000Y-113500000D02*
X142400000Y-112900000D01*
D29*
%TO.N,GND*%
X143500000Y-95900000D02*
X143200000Y-96900000D01*
X149200000Y-110850000D02*
X149250000Y-110900000D01*
D28*
X144859999Y-107309585D02*
X144890415Y-107309585D01*
D29*
X143200000Y-96900000D02*
X146000000Y-99700000D01*
X149200000Y-108960000D02*
X149200000Y-110850000D01*
D30*
X147300000Y-87000000D02*
X147300000Y-85900000D01*
D29*
X144890415Y-107309585D02*
X145960000Y-106240000D01*
D30*
X142900000Y-87000000D02*
X142900000Y-85850000D01*
D28*
X149200000Y-112500000D02*
X149200000Y-110950000D01*
D30*
X143000000Y-95900000D02*
X143500000Y-95900000D01*
X140628249Y-93528249D02*
X143000000Y-95900000D01*
D28*
X146500000Y-97305152D02*
X144905152Y-97305152D01*
D30*
X145100000Y-87400000D02*
X145100000Y-85850000D01*
X145100000Y-87400000D02*
X146900000Y-87400000D01*
D28*
X144905152Y-97305152D02*
X143500000Y-95900000D01*
D29*
X146000000Y-100562870D02*
X145363814Y-101199056D01*
D30*
X140300000Y-85850000D02*
X140300000Y-87400000D01*
D28*
X148033141Y-95772011D02*
X146500000Y-97305152D01*
D29*
X145960000Y-106240000D02*
X147400000Y-106240000D01*
X146000000Y-99700000D02*
X146000000Y-100562870D01*
D30*
X140628249Y-93471751D02*
X140628249Y-93528249D01*
X143300000Y-87400000D02*
X142900000Y-87000000D01*
D28*
X149200000Y-110950000D02*
X149250000Y-110900000D01*
D30*
X145000000Y-108950000D02*
X145000000Y-107449586D01*
X146900000Y-87400000D02*
X147300000Y-87000000D01*
X143300000Y-87400000D02*
X145100000Y-87400000D01*
X145000000Y-107449586D02*
X144859999Y-107309585D01*
%TO.N,+3V3*%
X145000000Y-112300000D02*
X144800000Y-112500000D01*
X142900000Y-83000000D02*
X142900000Y-83950000D01*
D29*
X148600000Y-97962869D02*
X149420838Y-97142031D01*
D30*
X143500000Y-90700000D02*
X143400000Y-90700000D01*
D29*
X148600000Y-99100000D02*
X148600000Y-97962869D01*
D30*
X144300000Y-82300000D02*
X143600000Y-82300000D01*
X145200000Y-82300000D02*
X145200000Y-83850000D01*
X143600000Y-82300000D02*
X142900000Y-83000000D01*
X145200000Y-83850000D02*
X145100000Y-83950000D01*
D31*
X149300000Y-99800000D02*
X148600000Y-99100000D01*
X144300000Y-82300000D02*
X145200000Y-82300000D01*
D30*
X145000000Y-110850000D02*
X145000000Y-112300000D01*
X143400000Y-90700000D02*
X141971751Y-92128249D01*
D31*
X147800000Y-89700000D02*
X148700000Y-89700000D01*
D30*
%TO.N,+BATT*%
X139347058Y-82147058D02*
X140300000Y-83100000D01*
X140300000Y-83100000D02*
X140300000Y-83950000D01*
X137160000Y-82147058D02*
X137160000Y-82160000D01*
X137160000Y-82147058D02*
X139347058Y-82147058D01*
D28*
%TO.N,/NRST*%
X147900000Y-114100000D02*
X147300000Y-113500000D01*
X147350000Y-112450000D02*
X147300000Y-112500000D01*
X147300000Y-113500000D02*
X147300000Y-112500000D01*
X147350000Y-110900000D02*
X147350000Y-112450000D01*
X147900000Y-115600000D02*
X147900000Y-114100000D01*
D29*
%TO.N,/D1SP*%
X138700000Y-86227057D02*
X137160000Y-84687057D01*
D28*
X146800000Y-90200000D02*
X145200000Y-88600000D01*
X145200000Y-88600000D02*
X141600000Y-88600000D01*
D29*
X141600000Y-83000000D02*
X143700000Y-80900000D01*
X138700000Y-87308148D02*
X138700000Y-86227057D01*
X141600000Y-88600000D02*
X141600000Y-83000000D01*
X139991852Y-88600000D02*
X138700000Y-87308148D01*
D28*
X146800000Y-92408958D02*
X146800000Y-90200000D01*
X145735044Y-93473914D02*
X146800000Y-92408958D01*
D29*
X141600000Y-88600000D02*
X139991852Y-88600000D01*
X143700000Y-80900000D02*
X146200000Y-80900000D01*
D28*
%TO.N,/D2*%
X145000000Y-89200000D02*
X139400000Y-89200000D01*
X146200000Y-92089719D02*
X146200000Y-90400000D01*
X137427058Y-87227058D02*
X137160000Y-87227058D01*
X145285705Y-93014295D02*
X145275424Y-93014295D01*
X139400000Y-89200000D02*
X137427058Y-87227058D01*
X145275424Y-93014295D02*
X146200000Y-92089719D01*
X146200000Y-90400000D02*
X145000000Y-89200000D01*
%TO.N,/D3*%
X145600000Y-91770481D02*
X144815805Y-92554676D01*
X137160000Y-89767058D02*
X144767058Y-89767058D01*
X144767058Y-89767058D02*
X145600000Y-90600000D01*
X145600000Y-90600000D02*
X145600000Y-91770481D01*
%TO.N,/D5*%
X137160000Y-94847058D02*
X139047058Y-94847058D01*
X140307999Y-96107999D02*
X140307999Y-96143242D01*
X139047058Y-94847058D02*
X140307999Y-96107999D01*
%TO.N,/D7*%
X139189719Y-99100000D02*
X141227238Y-97062481D01*
X137987054Y-99100000D02*
X139189719Y-99100000D01*
X137159997Y-99927057D02*
X137987054Y-99100000D01*
%TO.N,/D8*%
X141191027Y-98008973D02*
X141199985Y-98008973D01*
X137160000Y-102467058D02*
X137661139Y-102467058D01*
X138900000Y-100300000D02*
X141191027Y-98008973D01*
X141199985Y-98008973D02*
X141686857Y-97522101D01*
X138900000Y-101228197D02*
X138900000Y-100300000D01*
X137661139Y-102467058D02*
X138900000Y-101228197D01*
X137160000Y-102467056D02*
X137661142Y-102467056D01*
%TO.N,/D10*%
X137160000Y-109940000D02*
X140700000Y-106400000D01*
X137160000Y-110087058D02*
X137160000Y-109940000D01*
X140700000Y-106400000D02*
X140700000Y-100347435D01*
X140700000Y-100347435D02*
X142606096Y-98441339D01*
%TO.N,/D11*%
X141300000Y-100666675D02*
X143065716Y-98900959D01*
X137172942Y-112627058D02*
X138900000Y-110900000D01*
X138900000Y-110900000D02*
X138900000Y-109200000D01*
X137159999Y-112627058D02*
X137172942Y-112627058D01*
X141300000Y-106800000D02*
X141300000Y-100666675D01*
X138900000Y-109200000D02*
X141300000Y-106800000D01*
%TO.N,/SA*%
X152347056Y-94847056D02*
X152360000Y-94847056D01*
%TO.N,/D12SD*%
X152312944Y-97387056D02*
X152360000Y-97387056D01*
X149300000Y-102500000D02*
X150000000Y-101800000D01*
X142250000Y-100635913D02*
X142250000Y-101250000D01*
X143516496Y-99369417D02*
X142250000Y-100635913D01*
X149300000Y-104400000D02*
X149300000Y-102500000D01*
%TO.N,/K5*%
X149960000Y-106240000D02*
X150600000Y-105600000D01*
X150600000Y-105600000D02*
X150600000Y-104227056D01*
X150600000Y-104227056D02*
X152360000Y-102467056D01*
X152360000Y-102840000D02*
X152360000Y-102467056D01*
X149200000Y-106240000D02*
X149960000Y-106240000D01*
%TO.N,/K4*%
X150407056Y-106960000D02*
X152360000Y-105007056D01*
X149200000Y-106960000D02*
X150407056Y-106960000D01*
%TO.N,/K3*%
X149200000Y-107600000D02*
X152307056Y-107600000D01*
X152312944Y-107500000D02*
X152360000Y-107547056D01*
X152307056Y-107600000D02*
X152360000Y-107547056D01*
%TO.N,/K2*%
X152360000Y-110000000D02*
X152360000Y-110087056D01*
X150512944Y-108240000D02*
X152360000Y-110087056D01*
X149200000Y-108240000D02*
X150512944Y-108240000D01*
%TO.N,/K1*%
X147400000Y-108240000D02*
X148040000Y-108240000D01*
X148040000Y-108240000D02*
X148300000Y-108500000D01*
X148300000Y-108500000D02*
X148300000Y-113000000D01*
X151287056Y-113700000D02*
X152360000Y-112627056D01*
X149000000Y-113700000D02*
X151287056Y-113700000D01*
X148300000Y-113000000D02*
X149000000Y-113700000D01*
%TO.N,/BOOT0*%
X145900000Y-114000000D02*
X146300000Y-113600000D01*
X146640000Y-108960000D02*
X147400000Y-108960000D01*
X146300000Y-109300000D02*
X146640000Y-108960000D01*
X146300000Y-113600000D02*
X146300000Y-109300000D01*
X145900000Y-115600000D02*
X145900000Y-114000000D01*
%TD*%
M02*
