%TF.GenerationSoftware,KiCad,Pcbnew,7.0.8*%
%TF.CreationDate,2024-04-19T17:39:31-04:00*%
%TF.ProjectId,rcl57_mcu,72636c35-375f-46d6-9375-2e6b69636164,rev?*%
%TF.SameCoordinates,Original*%
%TF.FileFunction,Other,Comment*%
%FSLAX46Y46*%
G04 Gerber Fmt 4.6, Leading zero omitted, Abs format (unit mm)*
G04 Created by KiCad (PCBNEW 7.0.8) date 2024-04-19 17:39:31*
%MOMM*%
%LPD*%
G01*
G04 APERTURE LIST*
%ADD10C,0.200000*%
%ADD11C,0.400000*%
G04 APERTURE END LIST*
D10*
X92888720Y-142375171D02*
X92817292Y-142446600D01*
X92817292Y-142446600D02*
X92603006Y-142518028D01*
X92603006Y-142518028D02*
X92460149Y-142518028D01*
X92460149Y-142518028D02*
X92245863Y-142446600D01*
X92245863Y-142446600D02*
X92103006Y-142303742D01*
X92103006Y-142303742D02*
X92031577Y-142160885D01*
X92031577Y-142160885D02*
X91960149Y-141875171D01*
X91960149Y-141875171D02*
X91960149Y-141660885D01*
X91960149Y-141660885D02*
X92031577Y-141375171D01*
X92031577Y-141375171D02*
X92103006Y-141232314D01*
X92103006Y-141232314D02*
X92245863Y-141089457D01*
X92245863Y-141089457D02*
X92460149Y-141018028D01*
X92460149Y-141018028D02*
X92603006Y-141018028D01*
X92603006Y-141018028D02*
X92817292Y-141089457D01*
X92817292Y-141089457D02*
X92888720Y-141160885D01*
X93745863Y-142518028D02*
X93603006Y-142446600D01*
X93603006Y-142446600D02*
X93531577Y-142375171D01*
X93531577Y-142375171D02*
X93460149Y-142232314D01*
X93460149Y-142232314D02*
X93460149Y-141803742D01*
X93460149Y-141803742D02*
X93531577Y-141660885D01*
X93531577Y-141660885D02*
X93603006Y-141589457D01*
X93603006Y-141589457D02*
X93745863Y-141518028D01*
X93745863Y-141518028D02*
X93960149Y-141518028D01*
X93960149Y-141518028D02*
X94103006Y-141589457D01*
X94103006Y-141589457D02*
X94174435Y-141660885D01*
X94174435Y-141660885D02*
X94245863Y-141803742D01*
X94245863Y-141803742D02*
X94245863Y-142232314D01*
X94245863Y-142232314D02*
X94174435Y-142375171D01*
X94174435Y-142375171D02*
X94103006Y-142446600D01*
X94103006Y-142446600D02*
X93960149Y-142518028D01*
X93960149Y-142518028D02*
X93745863Y-142518028D01*
X94888720Y-141518028D02*
X94888720Y-143018028D01*
X94888720Y-141589457D02*
X95031578Y-141518028D01*
X95031578Y-141518028D02*
X95317292Y-141518028D01*
X95317292Y-141518028D02*
X95460149Y-141589457D01*
X95460149Y-141589457D02*
X95531578Y-141660885D01*
X95531578Y-141660885D02*
X95603006Y-141803742D01*
X95603006Y-141803742D02*
X95603006Y-142232314D01*
X95603006Y-142232314D02*
X95531578Y-142375171D01*
X95531578Y-142375171D02*
X95460149Y-142446600D01*
X95460149Y-142446600D02*
X95317292Y-142518028D01*
X95317292Y-142518028D02*
X95031578Y-142518028D01*
X95031578Y-142518028D02*
X94888720Y-142446600D01*
X96245863Y-141518028D02*
X96245863Y-143018028D01*
X96245863Y-141589457D02*
X96388721Y-141518028D01*
X96388721Y-141518028D02*
X96674435Y-141518028D01*
X96674435Y-141518028D02*
X96817292Y-141589457D01*
X96817292Y-141589457D02*
X96888721Y-141660885D01*
X96888721Y-141660885D02*
X96960149Y-141803742D01*
X96960149Y-141803742D02*
X96960149Y-142232314D01*
X96960149Y-142232314D02*
X96888721Y-142375171D01*
X96888721Y-142375171D02*
X96817292Y-142446600D01*
X96817292Y-142446600D02*
X96674435Y-142518028D01*
X96674435Y-142518028D02*
X96388721Y-142518028D01*
X96388721Y-142518028D02*
X96245863Y-142446600D01*
X98174435Y-142446600D02*
X98031578Y-142518028D01*
X98031578Y-142518028D02*
X97745864Y-142518028D01*
X97745864Y-142518028D02*
X97603006Y-142446600D01*
X97603006Y-142446600D02*
X97531578Y-142303742D01*
X97531578Y-142303742D02*
X97531578Y-141732314D01*
X97531578Y-141732314D02*
X97603006Y-141589457D01*
X97603006Y-141589457D02*
X97745864Y-141518028D01*
X97745864Y-141518028D02*
X98031578Y-141518028D01*
X98031578Y-141518028D02*
X98174435Y-141589457D01*
X98174435Y-141589457D02*
X98245864Y-141732314D01*
X98245864Y-141732314D02*
X98245864Y-141875171D01*
X98245864Y-141875171D02*
X97531578Y-142018028D01*
X98888720Y-142518028D02*
X98888720Y-141518028D01*
X98888720Y-141803742D02*
X98960149Y-141660885D01*
X98960149Y-141660885D02*
X99031578Y-141589457D01*
X99031578Y-141589457D02*
X99174435Y-141518028D01*
X99174435Y-141518028D02*
X99317292Y-141518028D01*
X101460148Y-141732314D02*
X100960148Y-141732314D01*
X100960148Y-142518028D02*
X100960148Y-141018028D01*
X100960148Y-141018028D02*
X101674434Y-141018028D01*
X102245862Y-142518028D02*
X102245862Y-141518028D01*
X102245862Y-141018028D02*
X102174434Y-141089457D01*
X102174434Y-141089457D02*
X102245862Y-141160885D01*
X102245862Y-141160885D02*
X102317291Y-141089457D01*
X102317291Y-141089457D02*
X102245862Y-141018028D01*
X102245862Y-141018028D02*
X102245862Y-141160885D01*
X102960148Y-141518028D02*
X102960148Y-142518028D01*
X102960148Y-141660885D02*
X103031577Y-141589457D01*
X103031577Y-141589457D02*
X103174434Y-141518028D01*
X103174434Y-141518028D02*
X103388720Y-141518028D01*
X103388720Y-141518028D02*
X103531577Y-141589457D01*
X103531577Y-141589457D02*
X103603006Y-141732314D01*
X103603006Y-141732314D02*
X103603006Y-142518028D01*
X104317291Y-142518028D02*
X104317291Y-141518028D01*
X104317291Y-141018028D02*
X104245863Y-141089457D01*
X104245863Y-141089457D02*
X104317291Y-141160885D01*
X104317291Y-141160885D02*
X104388720Y-141089457D01*
X104388720Y-141089457D02*
X104317291Y-141018028D01*
X104317291Y-141018028D02*
X104317291Y-141160885D01*
X104960149Y-142446600D02*
X105103006Y-142518028D01*
X105103006Y-142518028D02*
X105388720Y-142518028D01*
X105388720Y-142518028D02*
X105531577Y-142446600D01*
X105531577Y-142446600D02*
X105603006Y-142303742D01*
X105603006Y-142303742D02*
X105603006Y-142232314D01*
X105603006Y-142232314D02*
X105531577Y-142089457D01*
X105531577Y-142089457D02*
X105388720Y-142018028D01*
X105388720Y-142018028D02*
X105174435Y-142018028D01*
X105174435Y-142018028D02*
X105031577Y-141946600D01*
X105031577Y-141946600D02*
X104960149Y-141803742D01*
X104960149Y-141803742D02*
X104960149Y-141732314D01*
X104960149Y-141732314D02*
X105031577Y-141589457D01*
X105031577Y-141589457D02*
X105174435Y-141518028D01*
X105174435Y-141518028D02*
X105388720Y-141518028D01*
X105388720Y-141518028D02*
X105531577Y-141589457D01*
X106245863Y-142518028D02*
X106245863Y-141018028D01*
X106888721Y-142518028D02*
X106888721Y-141732314D01*
X106888721Y-141732314D02*
X106817292Y-141589457D01*
X106817292Y-141589457D02*
X106674435Y-141518028D01*
X106674435Y-141518028D02*
X106460149Y-141518028D01*
X106460149Y-141518028D02*
X106317292Y-141589457D01*
X106317292Y-141589457D02*
X106245863Y-141660885D01*
X107603006Y-142375171D02*
X107674435Y-142446600D01*
X107674435Y-142446600D02*
X107603006Y-142518028D01*
X107603006Y-142518028D02*
X107531578Y-142446600D01*
X107531578Y-142446600D02*
X107603006Y-142375171D01*
X107603006Y-142375171D02*
X107603006Y-142518028D01*
X107603006Y-141589457D02*
X107674435Y-141660885D01*
X107674435Y-141660885D02*
X107603006Y-141732314D01*
X107603006Y-141732314D02*
X107531578Y-141660885D01*
X107531578Y-141660885D02*
X107603006Y-141589457D01*
X107603006Y-141589457D02*
X107603006Y-141732314D01*
X184074430Y-137061028D02*
X184217287Y-137061028D01*
X184217287Y-137061028D02*
X184360144Y-137132457D01*
X184360144Y-137132457D02*
X184431573Y-137203885D01*
X184431573Y-137203885D02*
X184503001Y-137346742D01*
X184503001Y-137346742D02*
X184574430Y-137632457D01*
X184574430Y-137632457D02*
X184574430Y-137989600D01*
X184574430Y-137989600D02*
X184503001Y-138275314D01*
X184503001Y-138275314D02*
X184431573Y-138418171D01*
X184431573Y-138418171D02*
X184360144Y-138489600D01*
X184360144Y-138489600D02*
X184217287Y-138561028D01*
X184217287Y-138561028D02*
X184074430Y-138561028D01*
X184074430Y-138561028D02*
X183931573Y-138489600D01*
X183931573Y-138489600D02*
X183860144Y-138418171D01*
X183860144Y-138418171D02*
X183788715Y-138275314D01*
X183788715Y-138275314D02*
X183717287Y-137989600D01*
X183717287Y-137989600D02*
X183717287Y-137632457D01*
X183717287Y-137632457D02*
X183788715Y-137346742D01*
X183788715Y-137346742D02*
X183860144Y-137203885D01*
X183860144Y-137203885D02*
X183931573Y-137132457D01*
X183931573Y-137132457D02*
X184074430Y-137061028D01*
X185217286Y-138418171D02*
X185288715Y-138489600D01*
X185288715Y-138489600D02*
X185217286Y-138561028D01*
X185217286Y-138561028D02*
X185145858Y-138489600D01*
X185145858Y-138489600D02*
X185217286Y-138418171D01*
X185217286Y-138418171D02*
X185217286Y-138561028D01*
X185860144Y-137203885D02*
X185931572Y-137132457D01*
X185931572Y-137132457D02*
X186074430Y-137061028D01*
X186074430Y-137061028D02*
X186431572Y-137061028D01*
X186431572Y-137061028D02*
X186574430Y-137132457D01*
X186574430Y-137132457D02*
X186645858Y-137203885D01*
X186645858Y-137203885D02*
X186717287Y-137346742D01*
X186717287Y-137346742D02*
X186717287Y-137489600D01*
X186717287Y-137489600D02*
X186645858Y-137703885D01*
X186645858Y-137703885D02*
X185788715Y-138561028D01*
X185788715Y-138561028D02*
X186717287Y-138561028D01*
X187645858Y-137061028D02*
X187788715Y-137061028D01*
X187788715Y-137061028D02*
X187931572Y-137132457D01*
X187931572Y-137132457D02*
X188003001Y-137203885D01*
X188003001Y-137203885D02*
X188074429Y-137346742D01*
X188074429Y-137346742D02*
X188145858Y-137632457D01*
X188145858Y-137632457D02*
X188145858Y-137989600D01*
X188145858Y-137989600D02*
X188074429Y-138275314D01*
X188074429Y-138275314D02*
X188003001Y-138418171D01*
X188003001Y-138418171D02*
X187931572Y-138489600D01*
X187931572Y-138489600D02*
X187788715Y-138561028D01*
X187788715Y-138561028D02*
X187645858Y-138561028D01*
X187645858Y-138561028D02*
X187503001Y-138489600D01*
X187503001Y-138489600D02*
X187431572Y-138418171D01*
X187431572Y-138418171D02*
X187360143Y-138275314D01*
X187360143Y-138275314D02*
X187288715Y-137989600D01*
X187288715Y-137989600D02*
X187288715Y-137632457D01*
X187288715Y-137632457D02*
X187360143Y-137346742D01*
X187360143Y-137346742D02*
X187431572Y-137203885D01*
X187431572Y-137203885D02*
X187503001Y-137132457D01*
X187503001Y-137132457D02*
X187645858Y-137061028D01*
X189074429Y-137061028D02*
X189217286Y-137061028D01*
X189217286Y-137061028D02*
X189360143Y-137132457D01*
X189360143Y-137132457D02*
X189431572Y-137203885D01*
X189431572Y-137203885D02*
X189503000Y-137346742D01*
X189503000Y-137346742D02*
X189574429Y-137632457D01*
X189574429Y-137632457D02*
X189574429Y-137989600D01*
X189574429Y-137989600D02*
X189503000Y-138275314D01*
X189503000Y-138275314D02*
X189431572Y-138418171D01*
X189431572Y-138418171D02*
X189360143Y-138489600D01*
X189360143Y-138489600D02*
X189217286Y-138561028D01*
X189217286Y-138561028D02*
X189074429Y-138561028D01*
X189074429Y-138561028D02*
X188931572Y-138489600D01*
X188931572Y-138489600D02*
X188860143Y-138418171D01*
X188860143Y-138418171D02*
X188788714Y-138275314D01*
X188788714Y-138275314D02*
X188717286Y-137989600D01*
X188717286Y-137989600D02*
X188717286Y-137632457D01*
X188717286Y-137632457D02*
X188788714Y-137346742D01*
X188788714Y-137346742D02*
X188860143Y-137203885D01*
X188860143Y-137203885D02*
X188931572Y-137132457D01*
X188931572Y-137132457D02*
X189074429Y-137061028D01*
X190503000Y-137061028D02*
X190645857Y-137061028D01*
X190645857Y-137061028D02*
X190788714Y-137132457D01*
X190788714Y-137132457D02*
X190860143Y-137203885D01*
X190860143Y-137203885D02*
X190931571Y-137346742D01*
X190931571Y-137346742D02*
X191003000Y-137632457D01*
X191003000Y-137632457D02*
X191003000Y-137989600D01*
X191003000Y-137989600D02*
X190931571Y-138275314D01*
X190931571Y-138275314D02*
X190860143Y-138418171D01*
X190860143Y-138418171D02*
X190788714Y-138489600D01*
X190788714Y-138489600D02*
X190645857Y-138561028D01*
X190645857Y-138561028D02*
X190503000Y-138561028D01*
X190503000Y-138561028D02*
X190360143Y-138489600D01*
X190360143Y-138489600D02*
X190288714Y-138418171D01*
X190288714Y-138418171D02*
X190217285Y-138275314D01*
X190217285Y-138275314D02*
X190145857Y-137989600D01*
X190145857Y-137989600D02*
X190145857Y-137632457D01*
X190145857Y-137632457D02*
X190217285Y-137346742D01*
X190217285Y-137346742D02*
X190288714Y-137203885D01*
X190288714Y-137203885D02*
X190360143Y-137132457D01*
X190360143Y-137132457D02*
X190503000Y-137061028D01*
X192788713Y-138561028D02*
X192788713Y-137561028D01*
X192788713Y-137703885D02*
X192860142Y-137632457D01*
X192860142Y-137632457D02*
X193002999Y-137561028D01*
X193002999Y-137561028D02*
X193217285Y-137561028D01*
X193217285Y-137561028D02*
X193360142Y-137632457D01*
X193360142Y-137632457D02*
X193431571Y-137775314D01*
X193431571Y-137775314D02*
X193431571Y-138561028D01*
X193431571Y-137775314D02*
X193502999Y-137632457D01*
X193502999Y-137632457D02*
X193645856Y-137561028D01*
X193645856Y-137561028D02*
X193860142Y-137561028D01*
X193860142Y-137561028D02*
X194002999Y-137632457D01*
X194002999Y-137632457D02*
X194074428Y-137775314D01*
X194074428Y-137775314D02*
X194074428Y-138561028D01*
X194788713Y-138561028D02*
X194788713Y-137561028D01*
X194788713Y-137703885D02*
X194860142Y-137632457D01*
X194860142Y-137632457D02*
X195002999Y-137561028D01*
X195002999Y-137561028D02*
X195217285Y-137561028D01*
X195217285Y-137561028D02*
X195360142Y-137632457D01*
X195360142Y-137632457D02*
X195431571Y-137775314D01*
X195431571Y-137775314D02*
X195431571Y-138561028D01*
X195431571Y-137775314D02*
X195502999Y-137632457D01*
X195502999Y-137632457D02*
X195645856Y-137561028D01*
X195645856Y-137561028D02*
X195860142Y-137561028D01*
X195860142Y-137561028D02*
X196002999Y-137632457D01*
X196002999Y-137632457D02*
X196074428Y-137775314D01*
X196074428Y-137775314D02*
X196074428Y-138561028D01*
X92031577Y-138561028D02*
X92031577Y-137061028D01*
X92031577Y-137061028D02*
X92531577Y-138132457D01*
X92531577Y-138132457D02*
X93031577Y-137061028D01*
X93031577Y-137061028D02*
X93031577Y-138561028D01*
X93745863Y-138561028D02*
X93745863Y-137561028D01*
X93745863Y-137061028D02*
X93674435Y-137132457D01*
X93674435Y-137132457D02*
X93745863Y-137203885D01*
X93745863Y-137203885D02*
X93817292Y-137132457D01*
X93817292Y-137132457D02*
X93745863Y-137061028D01*
X93745863Y-137061028D02*
X93745863Y-137203885D01*
X94460149Y-137561028D02*
X94460149Y-138561028D01*
X94460149Y-137703885D02*
X94531578Y-137632457D01*
X94531578Y-137632457D02*
X94674435Y-137561028D01*
X94674435Y-137561028D02*
X94888721Y-137561028D01*
X94888721Y-137561028D02*
X95031578Y-137632457D01*
X95031578Y-137632457D02*
X95103007Y-137775314D01*
X95103007Y-137775314D02*
X95103007Y-138561028D01*
X96745864Y-137561028D02*
X97317292Y-137561028D01*
X96960149Y-137061028D02*
X96960149Y-138346742D01*
X96960149Y-138346742D02*
X97031578Y-138489600D01*
X97031578Y-138489600D02*
X97174435Y-138561028D01*
X97174435Y-138561028D02*
X97317292Y-138561028D01*
X97817292Y-138561028D02*
X97817292Y-137561028D01*
X97817292Y-137846742D02*
X97888721Y-137703885D01*
X97888721Y-137703885D02*
X97960150Y-137632457D01*
X97960150Y-137632457D02*
X98103007Y-137561028D01*
X98103007Y-137561028D02*
X98245864Y-137561028D01*
X99388721Y-138561028D02*
X99388721Y-137775314D01*
X99388721Y-137775314D02*
X99317292Y-137632457D01*
X99317292Y-137632457D02*
X99174435Y-137561028D01*
X99174435Y-137561028D02*
X98888721Y-137561028D01*
X98888721Y-137561028D02*
X98745863Y-137632457D01*
X99388721Y-138489600D02*
X99245863Y-138561028D01*
X99245863Y-138561028D02*
X98888721Y-138561028D01*
X98888721Y-138561028D02*
X98745863Y-138489600D01*
X98745863Y-138489600D02*
X98674435Y-138346742D01*
X98674435Y-138346742D02*
X98674435Y-138203885D01*
X98674435Y-138203885D02*
X98745863Y-138061028D01*
X98745863Y-138061028D02*
X98888721Y-137989600D01*
X98888721Y-137989600D02*
X99245863Y-137989600D01*
X99245863Y-137989600D02*
X99388721Y-137918171D01*
X100745864Y-138489600D02*
X100603006Y-138561028D01*
X100603006Y-138561028D02*
X100317292Y-138561028D01*
X100317292Y-138561028D02*
X100174435Y-138489600D01*
X100174435Y-138489600D02*
X100103006Y-138418171D01*
X100103006Y-138418171D02*
X100031578Y-138275314D01*
X100031578Y-138275314D02*
X100031578Y-137846742D01*
X100031578Y-137846742D02*
X100103006Y-137703885D01*
X100103006Y-137703885D02*
X100174435Y-137632457D01*
X100174435Y-137632457D02*
X100317292Y-137561028D01*
X100317292Y-137561028D02*
X100603006Y-137561028D01*
X100603006Y-137561028D02*
X100745864Y-137632457D01*
X101388720Y-138561028D02*
X101388720Y-137061028D01*
X101531578Y-137989600D02*
X101960149Y-138561028D01*
X101960149Y-137561028D02*
X101388720Y-138132457D01*
X103674435Y-136989600D02*
X102388721Y-138918171D01*
X104103007Y-138489600D02*
X104245864Y-138561028D01*
X104245864Y-138561028D02*
X104531578Y-138561028D01*
X104531578Y-138561028D02*
X104674435Y-138489600D01*
X104674435Y-138489600D02*
X104745864Y-138346742D01*
X104745864Y-138346742D02*
X104745864Y-138275314D01*
X104745864Y-138275314D02*
X104674435Y-138132457D01*
X104674435Y-138132457D02*
X104531578Y-138061028D01*
X104531578Y-138061028D02*
X104317293Y-138061028D01*
X104317293Y-138061028D02*
X104174435Y-137989600D01*
X104174435Y-137989600D02*
X104103007Y-137846742D01*
X104103007Y-137846742D02*
X104103007Y-137775314D01*
X104103007Y-137775314D02*
X104174435Y-137632457D01*
X104174435Y-137632457D02*
X104317293Y-137561028D01*
X104317293Y-137561028D02*
X104531578Y-137561028D01*
X104531578Y-137561028D02*
X104674435Y-137632457D01*
X105388721Y-137561028D02*
X105388721Y-139061028D01*
X105388721Y-137632457D02*
X105531579Y-137561028D01*
X105531579Y-137561028D02*
X105817293Y-137561028D01*
X105817293Y-137561028D02*
X105960150Y-137632457D01*
X105960150Y-137632457D02*
X106031579Y-137703885D01*
X106031579Y-137703885D02*
X106103007Y-137846742D01*
X106103007Y-137846742D02*
X106103007Y-138275314D01*
X106103007Y-138275314D02*
X106031579Y-138418171D01*
X106031579Y-138418171D02*
X105960150Y-138489600D01*
X105960150Y-138489600D02*
X105817293Y-138561028D01*
X105817293Y-138561028D02*
X105531579Y-138561028D01*
X105531579Y-138561028D02*
X105388721Y-138489600D01*
X107388722Y-138561028D02*
X107388722Y-137775314D01*
X107388722Y-137775314D02*
X107317293Y-137632457D01*
X107317293Y-137632457D02*
X107174436Y-137561028D01*
X107174436Y-137561028D02*
X106888722Y-137561028D01*
X106888722Y-137561028D02*
X106745864Y-137632457D01*
X107388722Y-138489600D02*
X107245864Y-138561028D01*
X107245864Y-138561028D02*
X106888722Y-138561028D01*
X106888722Y-138561028D02*
X106745864Y-138489600D01*
X106745864Y-138489600D02*
X106674436Y-138346742D01*
X106674436Y-138346742D02*
X106674436Y-138203885D01*
X106674436Y-138203885D02*
X106745864Y-138061028D01*
X106745864Y-138061028D02*
X106888722Y-137989600D01*
X106888722Y-137989600D02*
X107245864Y-137989600D01*
X107245864Y-137989600D02*
X107388722Y-137918171D01*
X108745865Y-138489600D02*
X108603007Y-138561028D01*
X108603007Y-138561028D02*
X108317293Y-138561028D01*
X108317293Y-138561028D02*
X108174436Y-138489600D01*
X108174436Y-138489600D02*
X108103007Y-138418171D01*
X108103007Y-138418171D02*
X108031579Y-138275314D01*
X108031579Y-138275314D02*
X108031579Y-137846742D01*
X108031579Y-137846742D02*
X108103007Y-137703885D01*
X108103007Y-137703885D02*
X108174436Y-137632457D01*
X108174436Y-137632457D02*
X108317293Y-137561028D01*
X108317293Y-137561028D02*
X108603007Y-137561028D01*
X108603007Y-137561028D02*
X108745865Y-137632457D01*
X109388721Y-138561028D02*
X109388721Y-137561028D01*
X109388721Y-137061028D02*
X109317293Y-137132457D01*
X109317293Y-137132457D02*
X109388721Y-137203885D01*
X109388721Y-137203885D02*
X109460150Y-137132457D01*
X109460150Y-137132457D02*
X109388721Y-137061028D01*
X109388721Y-137061028D02*
X109388721Y-137203885D01*
X110103007Y-137561028D02*
X110103007Y-138561028D01*
X110103007Y-137703885D02*
X110174436Y-137632457D01*
X110174436Y-137632457D02*
X110317293Y-137561028D01*
X110317293Y-137561028D02*
X110531579Y-137561028D01*
X110531579Y-137561028D02*
X110674436Y-137632457D01*
X110674436Y-137632457D02*
X110745865Y-137775314D01*
X110745865Y-137775314D02*
X110745865Y-138561028D01*
X112103008Y-137561028D02*
X112103008Y-138775314D01*
X112103008Y-138775314D02*
X112031579Y-138918171D01*
X112031579Y-138918171D02*
X111960150Y-138989600D01*
X111960150Y-138989600D02*
X111817293Y-139061028D01*
X111817293Y-139061028D02*
X111603008Y-139061028D01*
X111603008Y-139061028D02*
X111460150Y-138989600D01*
X112103008Y-138489600D02*
X111960150Y-138561028D01*
X111960150Y-138561028D02*
X111674436Y-138561028D01*
X111674436Y-138561028D02*
X111531579Y-138489600D01*
X111531579Y-138489600D02*
X111460150Y-138418171D01*
X111460150Y-138418171D02*
X111388722Y-138275314D01*
X111388722Y-138275314D02*
X111388722Y-137846742D01*
X111388722Y-137846742D02*
X111460150Y-137703885D01*
X111460150Y-137703885D02*
X111531579Y-137632457D01*
X111531579Y-137632457D02*
X111674436Y-137561028D01*
X111674436Y-137561028D02*
X111960150Y-137561028D01*
X111960150Y-137561028D02*
X112103008Y-137632457D01*
X112817293Y-138418171D02*
X112888722Y-138489600D01*
X112888722Y-138489600D02*
X112817293Y-138561028D01*
X112817293Y-138561028D02*
X112745865Y-138489600D01*
X112745865Y-138489600D02*
X112817293Y-138418171D01*
X112817293Y-138418171D02*
X112817293Y-138561028D01*
X112817293Y-137632457D02*
X112888722Y-137703885D01*
X112888722Y-137703885D02*
X112817293Y-137775314D01*
X112817293Y-137775314D02*
X112745865Y-137703885D01*
X112745865Y-137703885D02*
X112817293Y-137632457D01*
X112817293Y-137632457D02*
X112817293Y-137775314D01*
X92888720Y-130504171D02*
X92817292Y-130575600D01*
X92817292Y-130575600D02*
X92603006Y-130647028D01*
X92603006Y-130647028D02*
X92460149Y-130647028D01*
X92460149Y-130647028D02*
X92245863Y-130575600D01*
X92245863Y-130575600D02*
X92103006Y-130432742D01*
X92103006Y-130432742D02*
X92031577Y-130289885D01*
X92031577Y-130289885D02*
X91960149Y-130004171D01*
X91960149Y-130004171D02*
X91960149Y-129789885D01*
X91960149Y-129789885D02*
X92031577Y-129504171D01*
X92031577Y-129504171D02*
X92103006Y-129361314D01*
X92103006Y-129361314D02*
X92245863Y-129218457D01*
X92245863Y-129218457D02*
X92460149Y-129147028D01*
X92460149Y-129147028D02*
X92603006Y-129147028D01*
X92603006Y-129147028D02*
X92817292Y-129218457D01*
X92817292Y-129218457D02*
X92888720Y-129289885D01*
X93745863Y-130647028D02*
X93603006Y-130575600D01*
X93603006Y-130575600D02*
X93531577Y-130504171D01*
X93531577Y-130504171D02*
X93460149Y-130361314D01*
X93460149Y-130361314D02*
X93460149Y-129932742D01*
X93460149Y-129932742D02*
X93531577Y-129789885D01*
X93531577Y-129789885D02*
X93603006Y-129718457D01*
X93603006Y-129718457D02*
X93745863Y-129647028D01*
X93745863Y-129647028D02*
X93960149Y-129647028D01*
X93960149Y-129647028D02*
X94103006Y-129718457D01*
X94103006Y-129718457D02*
X94174435Y-129789885D01*
X94174435Y-129789885D02*
X94245863Y-129932742D01*
X94245863Y-129932742D02*
X94245863Y-130361314D01*
X94245863Y-130361314D02*
X94174435Y-130504171D01*
X94174435Y-130504171D02*
X94103006Y-130575600D01*
X94103006Y-130575600D02*
X93960149Y-130647028D01*
X93960149Y-130647028D02*
X93745863Y-130647028D01*
X94888720Y-129647028D02*
X94888720Y-131147028D01*
X94888720Y-129718457D02*
X95031578Y-129647028D01*
X95031578Y-129647028D02*
X95317292Y-129647028D01*
X95317292Y-129647028D02*
X95460149Y-129718457D01*
X95460149Y-129718457D02*
X95531578Y-129789885D01*
X95531578Y-129789885D02*
X95603006Y-129932742D01*
X95603006Y-129932742D02*
X95603006Y-130361314D01*
X95603006Y-130361314D02*
X95531578Y-130504171D01*
X95531578Y-130504171D02*
X95460149Y-130575600D01*
X95460149Y-130575600D02*
X95317292Y-130647028D01*
X95317292Y-130647028D02*
X95031578Y-130647028D01*
X95031578Y-130647028D02*
X94888720Y-130575600D01*
X96245863Y-129647028D02*
X96245863Y-131147028D01*
X96245863Y-129718457D02*
X96388721Y-129647028D01*
X96388721Y-129647028D02*
X96674435Y-129647028D01*
X96674435Y-129647028D02*
X96817292Y-129718457D01*
X96817292Y-129718457D02*
X96888721Y-129789885D01*
X96888721Y-129789885D02*
X96960149Y-129932742D01*
X96960149Y-129932742D02*
X96960149Y-130361314D01*
X96960149Y-130361314D02*
X96888721Y-130504171D01*
X96888721Y-130504171D02*
X96817292Y-130575600D01*
X96817292Y-130575600D02*
X96674435Y-130647028D01*
X96674435Y-130647028D02*
X96388721Y-130647028D01*
X96388721Y-130647028D02*
X96245863Y-130575600D01*
X98174435Y-130575600D02*
X98031578Y-130647028D01*
X98031578Y-130647028D02*
X97745864Y-130647028D01*
X97745864Y-130647028D02*
X97603006Y-130575600D01*
X97603006Y-130575600D02*
X97531578Y-130432742D01*
X97531578Y-130432742D02*
X97531578Y-129861314D01*
X97531578Y-129861314D02*
X97603006Y-129718457D01*
X97603006Y-129718457D02*
X97745864Y-129647028D01*
X97745864Y-129647028D02*
X98031578Y-129647028D01*
X98031578Y-129647028D02*
X98174435Y-129718457D01*
X98174435Y-129718457D02*
X98245864Y-129861314D01*
X98245864Y-129861314D02*
X98245864Y-130004171D01*
X98245864Y-130004171D02*
X97531578Y-130147028D01*
X98888720Y-130647028D02*
X98888720Y-129647028D01*
X98888720Y-129932742D02*
X98960149Y-129789885D01*
X98960149Y-129789885D02*
X99031578Y-129718457D01*
X99031578Y-129718457D02*
X99174435Y-129647028D01*
X99174435Y-129647028D02*
X99317292Y-129647028D01*
X101674434Y-130647028D02*
X100960148Y-130647028D01*
X100960148Y-130647028D02*
X100960148Y-129147028D01*
X102817292Y-130647028D02*
X102817292Y-129861314D01*
X102817292Y-129861314D02*
X102745863Y-129718457D01*
X102745863Y-129718457D02*
X102603006Y-129647028D01*
X102603006Y-129647028D02*
X102317292Y-129647028D01*
X102317292Y-129647028D02*
X102174434Y-129718457D01*
X102817292Y-130575600D02*
X102674434Y-130647028D01*
X102674434Y-130647028D02*
X102317292Y-130647028D01*
X102317292Y-130647028D02*
X102174434Y-130575600D01*
X102174434Y-130575600D02*
X102103006Y-130432742D01*
X102103006Y-130432742D02*
X102103006Y-130289885D01*
X102103006Y-130289885D02*
X102174434Y-130147028D01*
X102174434Y-130147028D02*
X102317292Y-130075600D01*
X102317292Y-130075600D02*
X102674434Y-130075600D01*
X102674434Y-130075600D02*
X102817292Y-130004171D01*
X103388720Y-129647028D02*
X103745863Y-130647028D01*
X104103006Y-129647028D02*
X103745863Y-130647028D01*
X103745863Y-130647028D02*
X103603006Y-131004171D01*
X103603006Y-131004171D02*
X103531577Y-131075600D01*
X103531577Y-131075600D02*
X103388720Y-131147028D01*
X105245863Y-130575600D02*
X105103006Y-130647028D01*
X105103006Y-130647028D02*
X104817292Y-130647028D01*
X104817292Y-130647028D02*
X104674434Y-130575600D01*
X104674434Y-130575600D02*
X104603006Y-130432742D01*
X104603006Y-130432742D02*
X104603006Y-129861314D01*
X104603006Y-129861314D02*
X104674434Y-129718457D01*
X104674434Y-129718457D02*
X104817292Y-129647028D01*
X104817292Y-129647028D02*
X105103006Y-129647028D01*
X105103006Y-129647028D02*
X105245863Y-129718457D01*
X105245863Y-129718457D02*
X105317292Y-129861314D01*
X105317292Y-129861314D02*
X105317292Y-130004171D01*
X105317292Y-130004171D02*
X104603006Y-130147028D01*
X105960148Y-130647028D02*
X105960148Y-129647028D01*
X105960148Y-129932742D02*
X106031577Y-129789885D01*
X106031577Y-129789885D02*
X106103006Y-129718457D01*
X106103006Y-129718457D02*
X106245863Y-129647028D01*
X106245863Y-129647028D02*
X106388720Y-129647028D01*
X108888719Y-130504171D02*
X108817291Y-130575600D01*
X108817291Y-130575600D02*
X108603005Y-130647028D01*
X108603005Y-130647028D02*
X108460148Y-130647028D01*
X108460148Y-130647028D02*
X108245862Y-130575600D01*
X108245862Y-130575600D02*
X108103005Y-130432742D01*
X108103005Y-130432742D02*
X108031576Y-130289885D01*
X108031576Y-130289885D02*
X107960148Y-130004171D01*
X107960148Y-130004171D02*
X107960148Y-129789885D01*
X107960148Y-129789885D02*
X108031576Y-129504171D01*
X108031576Y-129504171D02*
X108103005Y-129361314D01*
X108103005Y-129361314D02*
X108245862Y-129218457D01*
X108245862Y-129218457D02*
X108460148Y-129147028D01*
X108460148Y-129147028D02*
X108603005Y-129147028D01*
X108603005Y-129147028D02*
X108817291Y-129218457D01*
X108817291Y-129218457D02*
X108888719Y-129289885D01*
X109745862Y-130647028D02*
X109603005Y-130575600D01*
X109603005Y-130575600D02*
X109531576Y-130504171D01*
X109531576Y-130504171D02*
X109460148Y-130361314D01*
X109460148Y-130361314D02*
X109460148Y-129932742D01*
X109460148Y-129932742D02*
X109531576Y-129789885D01*
X109531576Y-129789885D02*
X109603005Y-129718457D01*
X109603005Y-129718457D02*
X109745862Y-129647028D01*
X109745862Y-129647028D02*
X109960148Y-129647028D01*
X109960148Y-129647028D02*
X110103005Y-129718457D01*
X110103005Y-129718457D02*
X110174434Y-129789885D01*
X110174434Y-129789885D02*
X110245862Y-129932742D01*
X110245862Y-129932742D02*
X110245862Y-130361314D01*
X110245862Y-130361314D02*
X110174434Y-130504171D01*
X110174434Y-130504171D02*
X110103005Y-130575600D01*
X110103005Y-130575600D02*
X109960148Y-130647028D01*
X109960148Y-130647028D02*
X109745862Y-130647028D01*
X111531577Y-129647028D02*
X111531577Y-130647028D01*
X110888719Y-129647028D02*
X110888719Y-130432742D01*
X110888719Y-130432742D02*
X110960148Y-130575600D01*
X110960148Y-130575600D02*
X111103005Y-130647028D01*
X111103005Y-130647028D02*
X111317291Y-130647028D01*
X111317291Y-130647028D02*
X111460148Y-130575600D01*
X111460148Y-130575600D02*
X111531577Y-130504171D01*
X112245862Y-129647028D02*
X112245862Y-130647028D01*
X112245862Y-129789885D02*
X112317291Y-129718457D01*
X112317291Y-129718457D02*
X112460148Y-129647028D01*
X112460148Y-129647028D02*
X112674434Y-129647028D01*
X112674434Y-129647028D02*
X112817291Y-129718457D01*
X112817291Y-129718457D02*
X112888720Y-129861314D01*
X112888720Y-129861314D02*
X112888720Y-130647028D01*
X113388720Y-129647028D02*
X113960148Y-129647028D01*
X113603005Y-129147028D02*
X113603005Y-130432742D01*
X113603005Y-130432742D02*
X113674434Y-130575600D01*
X113674434Y-130575600D02*
X113817291Y-130647028D01*
X113817291Y-130647028D02*
X113960148Y-130647028D01*
X114460148Y-130504171D02*
X114531577Y-130575600D01*
X114531577Y-130575600D02*
X114460148Y-130647028D01*
X114460148Y-130647028D02*
X114388720Y-130575600D01*
X114388720Y-130575600D02*
X114460148Y-130504171D01*
X114460148Y-130504171D02*
X114460148Y-130647028D01*
X114460148Y-129718457D02*
X114531577Y-129789885D01*
X114531577Y-129789885D02*
X114460148Y-129861314D01*
X114460148Y-129861314D02*
X114388720Y-129789885D01*
X114388720Y-129789885D02*
X114460148Y-129718457D01*
X114460148Y-129718457D02*
X114460148Y-129861314D01*
X92888720Y-146332171D02*
X92817292Y-146403600D01*
X92817292Y-146403600D02*
X92603006Y-146475028D01*
X92603006Y-146475028D02*
X92460149Y-146475028D01*
X92460149Y-146475028D02*
X92245863Y-146403600D01*
X92245863Y-146403600D02*
X92103006Y-146260742D01*
X92103006Y-146260742D02*
X92031577Y-146117885D01*
X92031577Y-146117885D02*
X91960149Y-145832171D01*
X91960149Y-145832171D02*
X91960149Y-145617885D01*
X91960149Y-145617885D02*
X92031577Y-145332171D01*
X92031577Y-145332171D02*
X92103006Y-145189314D01*
X92103006Y-145189314D02*
X92245863Y-145046457D01*
X92245863Y-145046457D02*
X92460149Y-144975028D01*
X92460149Y-144975028D02*
X92603006Y-144975028D01*
X92603006Y-144975028D02*
X92817292Y-145046457D01*
X92817292Y-145046457D02*
X92888720Y-145117885D01*
X94174435Y-146475028D02*
X94174435Y-145689314D01*
X94174435Y-145689314D02*
X94103006Y-145546457D01*
X94103006Y-145546457D02*
X93960149Y-145475028D01*
X93960149Y-145475028D02*
X93674435Y-145475028D01*
X93674435Y-145475028D02*
X93531577Y-145546457D01*
X94174435Y-146403600D02*
X94031577Y-146475028D01*
X94031577Y-146475028D02*
X93674435Y-146475028D01*
X93674435Y-146475028D02*
X93531577Y-146403600D01*
X93531577Y-146403600D02*
X93460149Y-146260742D01*
X93460149Y-146260742D02*
X93460149Y-146117885D01*
X93460149Y-146117885D02*
X93531577Y-145975028D01*
X93531577Y-145975028D02*
X93674435Y-145903600D01*
X93674435Y-145903600D02*
X94031577Y-145903600D01*
X94031577Y-145903600D02*
X94174435Y-145832171D01*
X94817292Y-146403600D02*
X94960149Y-146475028D01*
X94960149Y-146475028D02*
X95245863Y-146475028D01*
X95245863Y-146475028D02*
X95388720Y-146403600D01*
X95388720Y-146403600D02*
X95460149Y-146260742D01*
X95460149Y-146260742D02*
X95460149Y-146189314D01*
X95460149Y-146189314D02*
X95388720Y-146046457D01*
X95388720Y-146046457D02*
X95245863Y-145975028D01*
X95245863Y-145975028D02*
X95031578Y-145975028D01*
X95031578Y-145975028D02*
X94888720Y-145903600D01*
X94888720Y-145903600D02*
X94817292Y-145760742D01*
X94817292Y-145760742D02*
X94817292Y-145689314D01*
X94817292Y-145689314D02*
X94888720Y-145546457D01*
X94888720Y-145546457D02*
X95031578Y-145475028D01*
X95031578Y-145475028D02*
X95245863Y-145475028D01*
X95245863Y-145475028D02*
X95388720Y-145546457D01*
X95888721Y-145475028D02*
X96460149Y-145475028D01*
X96103006Y-144975028D02*
X96103006Y-146260742D01*
X96103006Y-146260742D02*
X96174435Y-146403600D01*
X96174435Y-146403600D02*
X96317292Y-146475028D01*
X96317292Y-146475028D02*
X96460149Y-146475028D01*
X97531578Y-146403600D02*
X97388721Y-146475028D01*
X97388721Y-146475028D02*
X97103007Y-146475028D01*
X97103007Y-146475028D02*
X96960149Y-146403600D01*
X96960149Y-146403600D02*
X96888721Y-146260742D01*
X96888721Y-146260742D02*
X96888721Y-145689314D01*
X96888721Y-145689314D02*
X96960149Y-145546457D01*
X96960149Y-145546457D02*
X97103007Y-145475028D01*
X97103007Y-145475028D02*
X97388721Y-145475028D01*
X97388721Y-145475028D02*
X97531578Y-145546457D01*
X97531578Y-145546457D02*
X97603007Y-145689314D01*
X97603007Y-145689314D02*
X97603007Y-145832171D01*
X97603007Y-145832171D02*
X96888721Y-145975028D01*
X98460149Y-146475028D02*
X98317292Y-146403600D01*
X98317292Y-146403600D02*
X98245863Y-146260742D01*
X98245863Y-146260742D02*
X98245863Y-144975028D01*
X99245863Y-146475028D02*
X99103006Y-146403600D01*
X99103006Y-146403600D02*
X99031577Y-146260742D01*
X99031577Y-146260742D02*
X99031577Y-144975028D01*
X100460149Y-146475028D02*
X100460149Y-145689314D01*
X100460149Y-145689314D02*
X100388720Y-145546457D01*
X100388720Y-145546457D02*
X100245863Y-145475028D01*
X100245863Y-145475028D02*
X99960149Y-145475028D01*
X99960149Y-145475028D02*
X99817291Y-145546457D01*
X100460149Y-146403600D02*
X100317291Y-146475028D01*
X100317291Y-146475028D02*
X99960149Y-146475028D01*
X99960149Y-146475028D02*
X99817291Y-146403600D01*
X99817291Y-146403600D02*
X99745863Y-146260742D01*
X99745863Y-146260742D02*
X99745863Y-146117885D01*
X99745863Y-146117885D02*
X99817291Y-145975028D01*
X99817291Y-145975028D02*
X99960149Y-145903600D01*
X99960149Y-145903600D02*
X100317291Y-145903600D01*
X100317291Y-145903600D02*
X100460149Y-145832171D01*
X100960149Y-145475028D02*
X101531577Y-145475028D01*
X101174434Y-144975028D02*
X101174434Y-146260742D01*
X101174434Y-146260742D02*
X101245863Y-146403600D01*
X101245863Y-146403600D02*
X101388720Y-146475028D01*
X101388720Y-146475028D02*
X101531577Y-146475028D01*
X102603006Y-146403600D02*
X102460149Y-146475028D01*
X102460149Y-146475028D02*
X102174435Y-146475028D01*
X102174435Y-146475028D02*
X102031577Y-146403600D01*
X102031577Y-146403600D02*
X101960149Y-146260742D01*
X101960149Y-146260742D02*
X101960149Y-145689314D01*
X101960149Y-145689314D02*
X102031577Y-145546457D01*
X102031577Y-145546457D02*
X102174435Y-145475028D01*
X102174435Y-145475028D02*
X102460149Y-145475028D01*
X102460149Y-145475028D02*
X102603006Y-145546457D01*
X102603006Y-145546457D02*
X102674435Y-145689314D01*
X102674435Y-145689314D02*
X102674435Y-145832171D01*
X102674435Y-145832171D02*
X101960149Y-145975028D01*
X103960149Y-146475028D02*
X103960149Y-144975028D01*
X103960149Y-146403600D02*
X103817291Y-146475028D01*
X103817291Y-146475028D02*
X103531577Y-146475028D01*
X103531577Y-146475028D02*
X103388720Y-146403600D01*
X103388720Y-146403600D02*
X103317291Y-146332171D01*
X103317291Y-146332171D02*
X103245863Y-146189314D01*
X103245863Y-146189314D02*
X103245863Y-145760742D01*
X103245863Y-145760742D02*
X103317291Y-145617885D01*
X103317291Y-145617885D02*
X103388720Y-145546457D01*
X103388720Y-145546457D02*
X103531577Y-145475028D01*
X103531577Y-145475028D02*
X103817291Y-145475028D01*
X103817291Y-145475028D02*
X103960149Y-145546457D01*
X105817291Y-145475028D02*
X105817291Y-146975028D01*
X105817291Y-145546457D02*
X105960149Y-145475028D01*
X105960149Y-145475028D02*
X106245863Y-145475028D01*
X106245863Y-145475028D02*
X106388720Y-145546457D01*
X106388720Y-145546457D02*
X106460149Y-145617885D01*
X106460149Y-145617885D02*
X106531577Y-145760742D01*
X106531577Y-145760742D02*
X106531577Y-146189314D01*
X106531577Y-146189314D02*
X106460149Y-146332171D01*
X106460149Y-146332171D02*
X106388720Y-146403600D01*
X106388720Y-146403600D02*
X106245863Y-146475028D01*
X106245863Y-146475028D02*
X105960149Y-146475028D01*
X105960149Y-146475028D02*
X105817291Y-146403600D01*
X107817292Y-146475028D02*
X107817292Y-145689314D01*
X107817292Y-145689314D02*
X107745863Y-145546457D01*
X107745863Y-145546457D02*
X107603006Y-145475028D01*
X107603006Y-145475028D02*
X107317292Y-145475028D01*
X107317292Y-145475028D02*
X107174434Y-145546457D01*
X107817292Y-146403600D02*
X107674434Y-146475028D01*
X107674434Y-146475028D02*
X107317292Y-146475028D01*
X107317292Y-146475028D02*
X107174434Y-146403600D01*
X107174434Y-146403600D02*
X107103006Y-146260742D01*
X107103006Y-146260742D02*
X107103006Y-146117885D01*
X107103006Y-146117885D02*
X107174434Y-145975028D01*
X107174434Y-145975028D02*
X107317292Y-145903600D01*
X107317292Y-145903600D02*
X107674434Y-145903600D01*
X107674434Y-145903600D02*
X107817292Y-145832171D01*
X109174435Y-146475028D02*
X109174435Y-144975028D01*
X109174435Y-146403600D02*
X109031577Y-146475028D01*
X109031577Y-146475028D02*
X108745863Y-146475028D01*
X108745863Y-146475028D02*
X108603006Y-146403600D01*
X108603006Y-146403600D02*
X108531577Y-146332171D01*
X108531577Y-146332171D02*
X108460149Y-146189314D01*
X108460149Y-146189314D02*
X108460149Y-145760742D01*
X108460149Y-145760742D02*
X108531577Y-145617885D01*
X108531577Y-145617885D02*
X108603006Y-145546457D01*
X108603006Y-145546457D02*
X108745863Y-145475028D01*
X108745863Y-145475028D02*
X109031577Y-145475028D01*
X109031577Y-145475028D02*
X109174435Y-145546457D01*
X109817292Y-146403600D02*
X109960149Y-146475028D01*
X109960149Y-146475028D02*
X110245863Y-146475028D01*
X110245863Y-146475028D02*
X110388720Y-146403600D01*
X110388720Y-146403600D02*
X110460149Y-146260742D01*
X110460149Y-146260742D02*
X110460149Y-146189314D01*
X110460149Y-146189314D02*
X110388720Y-146046457D01*
X110388720Y-146046457D02*
X110245863Y-145975028D01*
X110245863Y-145975028D02*
X110031578Y-145975028D01*
X110031578Y-145975028D02*
X109888720Y-145903600D01*
X109888720Y-145903600D02*
X109817292Y-145760742D01*
X109817292Y-145760742D02*
X109817292Y-145689314D01*
X109817292Y-145689314D02*
X109888720Y-145546457D01*
X109888720Y-145546457D02*
X110031578Y-145475028D01*
X110031578Y-145475028D02*
X110245863Y-145475028D01*
X110245863Y-145475028D02*
X110388720Y-145546457D01*
X111103006Y-146332171D02*
X111174435Y-146403600D01*
X111174435Y-146403600D02*
X111103006Y-146475028D01*
X111103006Y-146475028D02*
X111031578Y-146403600D01*
X111031578Y-146403600D02*
X111103006Y-146332171D01*
X111103006Y-146332171D02*
X111103006Y-146475028D01*
X111103006Y-145546457D02*
X111174435Y-145617885D01*
X111174435Y-145617885D02*
X111103006Y-145689314D01*
X111103006Y-145689314D02*
X111031578Y-145617885D01*
X111031578Y-145617885D02*
X111103006Y-145546457D01*
X111103006Y-145546457D02*
X111103006Y-145689314D01*
X124688720Y-142518028D02*
X124688720Y-141018028D01*
X124688720Y-141018028D02*
X125545863Y-142518028D01*
X125545863Y-142518028D02*
X125545863Y-141018028D01*
X126474435Y-142518028D02*
X126331578Y-142446600D01*
X126331578Y-142446600D02*
X126260149Y-142375171D01*
X126260149Y-142375171D02*
X126188721Y-142232314D01*
X126188721Y-142232314D02*
X126188721Y-141803742D01*
X126188721Y-141803742D02*
X126260149Y-141660885D01*
X126260149Y-141660885D02*
X126331578Y-141589457D01*
X126331578Y-141589457D02*
X126474435Y-141518028D01*
X126474435Y-141518028D02*
X126688721Y-141518028D01*
X126688721Y-141518028D02*
X126831578Y-141589457D01*
X126831578Y-141589457D02*
X126903007Y-141660885D01*
X126903007Y-141660885D02*
X126974435Y-141803742D01*
X126974435Y-141803742D02*
X126974435Y-142232314D01*
X126974435Y-142232314D02*
X126903007Y-142375171D01*
X126903007Y-142375171D02*
X126831578Y-142446600D01*
X126831578Y-142446600D02*
X126688721Y-142518028D01*
X126688721Y-142518028D02*
X126474435Y-142518028D01*
X127617292Y-141518028D02*
X127617292Y-142518028D01*
X127617292Y-141660885D02*
X127688721Y-141589457D01*
X127688721Y-141589457D02*
X127831578Y-141518028D01*
X127831578Y-141518028D02*
X128045864Y-141518028D01*
X128045864Y-141518028D02*
X128188721Y-141589457D01*
X128188721Y-141589457D02*
X128260150Y-141732314D01*
X128260150Y-141732314D02*
X128260150Y-142518028D01*
X129545864Y-142446600D02*
X129403007Y-142518028D01*
X129403007Y-142518028D02*
X129117293Y-142518028D01*
X129117293Y-142518028D02*
X128974435Y-142446600D01*
X128974435Y-142446600D02*
X128903007Y-142303742D01*
X128903007Y-142303742D02*
X128903007Y-141732314D01*
X128903007Y-141732314D02*
X128974435Y-141589457D01*
X128974435Y-141589457D02*
X129117293Y-141518028D01*
X129117293Y-141518028D02*
X129403007Y-141518028D01*
X129403007Y-141518028D02*
X129545864Y-141589457D01*
X129545864Y-141589457D02*
X129617293Y-141732314D01*
X129617293Y-141732314D02*
X129617293Y-141875171D01*
X129617293Y-141875171D02*
X128903007Y-142018028D01*
X184574430Y-130647028D02*
X183717287Y-130647028D01*
X184145858Y-130647028D02*
X184145858Y-129147028D01*
X184145858Y-129147028D02*
X184003001Y-129361314D01*
X184003001Y-129361314D02*
X183860144Y-129504171D01*
X183860144Y-129504171D02*
X183717287Y-129575600D01*
X185217286Y-130504171D02*
X185288715Y-130575600D01*
X185288715Y-130575600D02*
X185217286Y-130647028D01*
X185217286Y-130647028D02*
X185145858Y-130575600D01*
X185145858Y-130575600D02*
X185217286Y-130504171D01*
X185217286Y-130504171D02*
X185217286Y-130647028D01*
X186574430Y-129147028D02*
X186288715Y-129147028D01*
X186288715Y-129147028D02*
X186145858Y-129218457D01*
X186145858Y-129218457D02*
X186074430Y-129289885D01*
X186074430Y-129289885D02*
X185931572Y-129504171D01*
X185931572Y-129504171D02*
X185860144Y-129789885D01*
X185860144Y-129789885D02*
X185860144Y-130361314D01*
X185860144Y-130361314D02*
X185931572Y-130504171D01*
X185931572Y-130504171D02*
X186003001Y-130575600D01*
X186003001Y-130575600D02*
X186145858Y-130647028D01*
X186145858Y-130647028D02*
X186431572Y-130647028D01*
X186431572Y-130647028D02*
X186574430Y-130575600D01*
X186574430Y-130575600D02*
X186645858Y-130504171D01*
X186645858Y-130504171D02*
X186717287Y-130361314D01*
X186717287Y-130361314D02*
X186717287Y-130004171D01*
X186717287Y-130004171D02*
X186645858Y-129861314D01*
X186645858Y-129861314D02*
X186574430Y-129789885D01*
X186574430Y-129789885D02*
X186431572Y-129718457D01*
X186431572Y-129718457D02*
X186145858Y-129718457D01*
X186145858Y-129718457D02*
X186003001Y-129789885D01*
X186003001Y-129789885D02*
X185931572Y-129861314D01*
X185931572Y-129861314D02*
X185860144Y-130004171D01*
X187645858Y-129147028D02*
X187788715Y-129147028D01*
X187788715Y-129147028D02*
X187931572Y-129218457D01*
X187931572Y-129218457D02*
X188003001Y-129289885D01*
X188003001Y-129289885D02*
X188074429Y-129432742D01*
X188074429Y-129432742D02*
X188145858Y-129718457D01*
X188145858Y-129718457D02*
X188145858Y-130075600D01*
X188145858Y-130075600D02*
X188074429Y-130361314D01*
X188074429Y-130361314D02*
X188003001Y-130504171D01*
X188003001Y-130504171D02*
X187931572Y-130575600D01*
X187931572Y-130575600D02*
X187788715Y-130647028D01*
X187788715Y-130647028D02*
X187645858Y-130647028D01*
X187645858Y-130647028D02*
X187503001Y-130575600D01*
X187503001Y-130575600D02*
X187431572Y-130504171D01*
X187431572Y-130504171D02*
X187360143Y-130361314D01*
X187360143Y-130361314D02*
X187288715Y-130075600D01*
X187288715Y-130075600D02*
X187288715Y-129718457D01*
X187288715Y-129718457D02*
X187360143Y-129432742D01*
X187360143Y-129432742D02*
X187431572Y-129289885D01*
X187431572Y-129289885D02*
X187503001Y-129218457D01*
X187503001Y-129218457D02*
X187645858Y-129147028D01*
X189074429Y-129147028D02*
X189217286Y-129147028D01*
X189217286Y-129147028D02*
X189360143Y-129218457D01*
X189360143Y-129218457D02*
X189431572Y-129289885D01*
X189431572Y-129289885D02*
X189503000Y-129432742D01*
X189503000Y-129432742D02*
X189574429Y-129718457D01*
X189574429Y-129718457D02*
X189574429Y-130075600D01*
X189574429Y-130075600D02*
X189503000Y-130361314D01*
X189503000Y-130361314D02*
X189431572Y-130504171D01*
X189431572Y-130504171D02*
X189360143Y-130575600D01*
X189360143Y-130575600D02*
X189217286Y-130647028D01*
X189217286Y-130647028D02*
X189074429Y-130647028D01*
X189074429Y-130647028D02*
X188931572Y-130575600D01*
X188931572Y-130575600D02*
X188860143Y-130504171D01*
X188860143Y-130504171D02*
X188788714Y-130361314D01*
X188788714Y-130361314D02*
X188717286Y-130075600D01*
X188717286Y-130075600D02*
X188717286Y-129718457D01*
X188717286Y-129718457D02*
X188788714Y-129432742D01*
X188788714Y-129432742D02*
X188860143Y-129289885D01*
X188860143Y-129289885D02*
X188931572Y-129218457D01*
X188931572Y-129218457D02*
X189074429Y-129147028D01*
X190503000Y-129147028D02*
X190645857Y-129147028D01*
X190645857Y-129147028D02*
X190788714Y-129218457D01*
X190788714Y-129218457D02*
X190860143Y-129289885D01*
X190860143Y-129289885D02*
X190931571Y-129432742D01*
X190931571Y-129432742D02*
X191003000Y-129718457D01*
X191003000Y-129718457D02*
X191003000Y-130075600D01*
X191003000Y-130075600D02*
X190931571Y-130361314D01*
X190931571Y-130361314D02*
X190860143Y-130504171D01*
X190860143Y-130504171D02*
X190788714Y-130575600D01*
X190788714Y-130575600D02*
X190645857Y-130647028D01*
X190645857Y-130647028D02*
X190503000Y-130647028D01*
X190503000Y-130647028D02*
X190360143Y-130575600D01*
X190360143Y-130575600D02*
X190288714Y-130504171D01*
X190288714Y-130504171D02*
X190217285Y-130361314D01*
X190217285Y-130361314D02*
X190145857Y-130075600D01*
X190145857Y-130075600D02*
X190145857Y-129718457D01*
X190145857Y-129718457D02*
X190217285Y-129432742D01*
X190217285Y-129432742D02*
X190288714Y-129289885D01*
X190288714Y-129289885D02*
X190360143Y-129218457D01*
X190360143Y-129218457D02*
X190503000Y-129147028D01*
X192788713Y-130647028D02*
X192788713Y-129647028D01*
X192788713Y-129789885D02*
X192860142Y-129718457D01*
X192860142Y-129718457D02*
X193002999Y-129647028D01*
X193002999Y-129647028D02*
X193217285Y-129647028D01*
X193217285Y-129647028D02*
X193360142Y-129718457D01*
X193360142Y-129718457D02*
X193431571Y-129861314D01*
X193431571Y-129861314D02*
X193431571Y-130647028D01*
X193431571Y-129861314D02*
X193502999Y-129718457D01*
X193502999Y-129718457D02*
X193645856Y-129647028D01*
X193645856Y-129647028D02*
X193860142Y-129647028D01*
X193860142Y-129647028D02*
X194002999Y-129718457D01*
X194002999Y-129718457D02*
X194074428Y-129861314D01*
X194074428Y-129861314D02*
X194074428Y-130647028D01*
X194788713Y-130647028D02*
X194788713Y-129647028D01*
X194788713Y-129789885D02*
X194860142Y-129718457D01*
X194860142Y-129718457D02*
X195002999Y-129647028D01*
X195002999Y-129647028D02*
X195217285Y-129647028D01*
X195217285Y-129647028D02*
X195360142Y-129718457D01*
X195360142Y-129718457D02*
X195431571Y-129861314D01*
X195431571Y-129861314D02*
X195431571Y-130647028D01*
X195431571Y-129861314D02*
X195502999Y-129718457D01*
X195502999Y-129718457D02*
X195645856Y-129647028D01*
X195645856Y-129647028D02*
X195860142Y-129647028D01*
X195860142Y-129647028D02*
X196002999Y-129718457D01*
X196002999Y-129718457D02*
X196074428Y-129861314D01*
X196074428Y-129861314D02*
X196074428Y-130647028D01*
X124688720Y-150432028D02*
X124688720Y-148932028D01*
X124688720Y-148932028D02*
X125545863Y-150432028D01*
X125545863Y-150432028D02*
X125545863Y-148932028D01*
X126474435Y-150432028D02*
X126331578Y-150360600D01*
X126331578Y-150360600D02*
X126260149Y-150289171D01*
X126260149Y-150289171D02*
X126188721Y-150146314D01*
X126188721Y-150146314D02*
X126188721Y-149717742D01*
X126188721Y-149717742D02*
X126260149Y-149574885D01*
X126260149Y-149574885D02*
X126331578Y-149503457D01*
X126331578Y-149503457D02*
X126474435Y-149432028D01*
X126474435Y-149432028D02*
X126688721Y-149432028D01*
X126688721Y-149432028D02*
X126831578Y-149503457D01*
X126831578Y-149503457D02*
X126903007Y-149574885D01*
X126903007Y-149574885D02*
X126974435Y-149717742D01*
X126974435Y-149717742D02*
X126974435Y-150146314D01*
X126974435Y-150146314D02*
X126903007Y-150289171D01*
X126903007Y-150289171D02*
X126831578Y-150360600D01*
X126831578Y-150360600D02*
X126688721Y-150432028D01*
X126688721Y-150432028D02*
X126474435Y-150432028D01*
D11*
X92198871Y-124618819D02*
X92484585Y-124714057D01*
X92484585Y-124714057D02*
X92579823Y-124809295D01*
X92579823Y-124809295D02*
X92675061Y-124999771D01*
X92675061Y-124999771D02*
X92675061Y-125285485D01*
X92675061Y-125285485D02*
X92579823Y-125475961D01*
X92579823Y-125475961D02*
X92484585Y-125571200D01*
X92484585Y-125571200D02*
X92294109Y-125666438D01*
X92294109Y-125666438D02*
X91532204Y-125666438D01*
X91532204Y-125666438D02*
X91532204Y-123666438D01*
X91532204Y-123666438D02*
X92198871Y-123666438D01*
X92198871Y-123666438D02*
X92389347Y-123761676D01*
X92389347Y-123761676D02*
X92484585Y-123856914D01*
X92484585Y-123856914D02*
X92579823Y-124047390D01*
X92579823Y-124047390D02*
X92579823Y-124237866D01*
X92579823Y-124237866D02*
X92484585Y-124428342D01*
X92484585Y-124428342D02*
X92389347Y-124523580D01*
X92389347Y-124523580D02*
X92198871Y-124618819D01*
X92198871Y-124618819D02*
X91532204Y-124618819D01*
X93913156Y-123666438D02*
X94294109Y-123666438D01*
X94294109Y-123666438D02*
X94484585Y-123761676D01*
X94484585Y-123761676D02*
X94675061Y-123952152D01*
X94675061Y-123952152D02*
X94770299Y-124333104D01*
X94770299Y-124333104D02*
X94770299Y-124999771D01*
X94770299Y-124999771D02*
X94675061Y-125380723D01*
X94675061Y-125380723D02*
X94484585Y-125571200D01*
X94484585Y-125571200D02*
X94294109Y-125666438D01*
X94294109Y-125666438D02*
X93913156Y-125666438D01*
X93913156Y-125666438D02*
X93722680Y-125571200D01*
X93722680Y-125571200D02*
X93532204Y-125380723D01*
X93532204Y-125380723D02*
X93436966Y-124999771D01*
X93436966Y-124999771D02*
X93436966Y-124333104D01*
X93436966Y-124333104D02*
X93532204Y-123952152D01*
X93532204Y-123952152D02*
X93722680Y-123761676D01*
X93722680Y-123761676D02*
X93913156Y-123666438D01*
X95532204Y-125095009D02*
X96484585Y-125095009D01*
X95341728Y-125666438D02*
X96008394Y-123666438D01*
X96008394Y-123666438D02*
X96675061Y-125666438D01*
X98484585Y-125666438D02*
X97817918Y-124714057D01*
X97341728Y-125666438D02*
X97341728Y-123666438D01*
X97341728Y-123666438D02*
X98103633Y-123666438D01*
X98103633Y-123666438D02*
X98294109Y-123761676D01*
X98294109Y-123761676D02*
X98389347Y-123856914D01*
X98389347Y-123856914D02*
X98484585Y-124047390D01*
X98484585Y-124047390D02*
X98484585Y-124333104D01*
X98484585Y-124333104D02*
X98389347Y-124523580D01*
X98389347Y-124523580D02*
X98294109Y-124618819D01*
X98294109Y-124618819D02*
X98103633Y-124714057D01*
X98103633Y-124714057D02*
X97341728Y-124714057D01*
X99341728Y-125666438D02*
X99341728Y-123666438D01*
X99341728Y-123666438D02*
X99817918Y-123666438D01*
X99817918Y-123666438D02*
X100103633Y-123761676D01*
X100103633Y-123761676D02*
X100294109Y-123952152D01*
X100294109Y-123952152D02*
X100389347Y-124142628D01*
X100389347Y-124142628D02*
X100484585Y-124523580D01*
X100484585Y-124523580D02*
X100484585Y-124809295D01*
X100484585Y-124809295D02*
X100389347Y-125190247D01*
X100389347Y-125190247D02*
X100294109Y-125380723D01*
X100294109Y-125380723D02*
X100103633Y-125571200D01*
X100103633Y-125571200D02*
X99817918Y-125666438D01*
X99817918Y-125666438D02*
X99341728Y-125666438D01*
X104008395Y-125475961D02*
X103913157Y-125571200D01*
X103913157Y-125571200D02*
X103627443Y-125666438D01*
X103627443Y-125666438D02*
X103436967Y-125666438D01*
X103436967Y-125666438D02*
X103151252Y-125571200D01*
X103151252Y-125571200D02*
X102960776Y-125380723D01*
X102960776Y-125380723D02*
X102865538Y-125190247D01*
X102865538Y-125190247D02*
X102770300Y-124809295D01*
X102770300Y-124809295D02*
X102770300Y-124523580D01*
X102770300Y-124523580D02*
X102865538Y-124142628D01*
X102865538Y-124142628D02*
X102960776Y-123952152D01*
X102960776Y-123952152D02*
X103151252Y-123761676D01*
X103151252Y-123761676D02*
X103436967Y-123666438D01*
X103436967Y-123666438D02*
X103627443Y-123666438D01*
X103627443Y-123666438D02*
X103913157Y-123761676D01*
X103913157Y-123761676D02*
X104008395Y-123856914D01*
X104865538Y-125666438D02*
X104865538Y-123666438D01*
X104865538Y-124618819D02*
X106008395Y-124618819D01*
X106008395Y-125666438D02*
X106008395Y-123666438D01*
X106865538Y-125095009D02*
X107817919Y-125095009D01*
X106675062Y-125666438D02*
X107341728Y-123666438D01*
X107341728Y-123666438D02*
X108008395Y-125666438D01*
X109817919Y-125666438D02*
X109151252Y-124714057D01*
X108675062Y-125666438D02*
X108675062Y-123666438D01*
X108675062Y-123666438D02*
X109436967Y-123666438D01*
X109436967Y-123666438D02*
X109627443Y-123761676D01*
X109627443Y-123761676D02*
X109722681Y-123856914D01*
X109722681Y-123856914D02*
X109817919Y-124047390D01*
X109817919Y-124047390D02*
X109817919Y-124333104D01*
X109817919Y-124333104D02*
X109722681Y-124523580D01*
X109722681Y-124523580D02*
X109627443Y-124618819D01*
X109627443Y-124618819D02*
X109436967Y-124714057D01*
X109436967Y-124714057D02*
X108675062Y-124714057D01*
X110579824Y-125095009D02*
X111532205Y-125095009D01*
X110389348Y-125666438D02*
X111056014Y-123666438D01*
X111056014Y-123666438D02*
X111722681Y-125666438D01*
X113532205Y-125475961D02*
X113436967Y-125571200D01*
X113436967Y-125571200D02*
X113151253Y-125666438D01*
X113151253Y-125666438D02*
X112960777Y-125666438D01*
X112960777Y-125666438D02*
X112675062Y-125571200D01*
X112675062Y-125571200D02*
X112484586Y-125380723D01*
X112484586Y-125380723D02*
X112389348Y-125190247D01*
X112389348Y-125190247D02*
X112294110Y-124809295D01*
X112294110Y-124809295D02*
X112294110Y-124523580D01*
X112294110Y-124523580D02*
X112389348Y-124142628D01*
X112389348Y-124142628D02*
X112484586Y-123952152D01*
X112484586Y-123952152D02*
X112675062Y-123761676D01*
X112675062Y-123761676D02*
X112960777Y-123666438D01*
X112960777Y-123666438D02*
X113151253Y-123666438D01*
X113151253Y-123666438D02*
X113436967Y-123761676D01*
X113436967Y-123761676D02*
X113532205Y-123856914D01*
X114103634Y-123666438D02*
X115246491Y-123666438D01*
X114675062Y-125666438D02*
X114675062Y-123666438D01*
X115913158Y-124618819D02*
X116579825Y-124618819D01*
X116865539Y-125666438D02*
X115913158Y-125666438D01*
X115913158Y-125666438D02*
X115913158Y-123666438D01*
X115913158Y-123666438D02*
X116865539Y-123666438D01*
X118865539Y-125666438D02*
X118198872Y-124714057D01*
X117722682Y-125666438D02*
X117722682Y-123666438D01*
X117722682Y-123666438D02*
X118484587Y-123666438D01*
X118484587Y-123666438D02*
X118675063Y-123761676D01*
X118675063Y-123761676D02*
X118770301Y-123856914D01*
X118770301Y-123856914D02*
X118865539Y-124047390D01*
X118865539Y-124047390D02*
X118865539Y-124333104D01*
X118865539Y-124333104D02*
X118770301Y-124523580D01*
X118770301Y-124523580D02*
X118675063Y-124618819D01*
X118675063Y-124618819D02*
X118484587Y-124714057D01*
X118484587Y-124714057D02*
X117722682Y-124714057D01*
X119722682Y-125666438D02*
X119722682Y-123666438D01*
X120579825Y-125571200D02*
X120865539Y-125666438D01*
X120865539Y-125666438D02*
X121341730Y-125666438D01*
X121341730Y-125666438D02*
X121532206Y-125571200D01*
X121532206Y-125571200D02*
X121627444Y-125475961D01*
X121627444Y-125475961D02*
X121722682Y-125285485D01*
X121722682Y-125285485D02*
X121722682Y-125095009D01*
X121722682Y-125095009D02*
X121627444Y-124904533D01*
X121627444Y-124904533D02*
X121532206Y-124809295D01*
X121532206Y-124809295D02*
X121341730Y-124714057D01*
X121341730Y-124714057D02*
X120960777Y-124618819D01*
X120960777Y-124618819D02*
X120770301Y-124523580D01*
X120770301Y-124523580D02*
X120675063Y-124428342D01*
X120675063Y-124428342D02*
X120579825Y-124237866D01*
X120579825Y-124237866D02*
X120579825Y-124047390D01*
X120579825Y-124047390D02*
X120675063Y-123856914D01*
X120675063Y-123856914D02*
X120770301Y-123761676D01*
X120770301Y-123761676D02*
X120960777Y-123666438D01*
X120960777Y-123666438D02*
X121436968Y-123666438D01*
X121436968Y-123666438D02*
X121722682Y-123761676D01*
X122294111Y-123666438D02*
X123436968Y-123666438D01*
X122865539Y-125666438D02*
X122865539Y-123666438D01*
X124103635Y-125666438D02*
X124103635Y-123666438D01*
X126198873Y-125475961D02*
X126103635Y-125571200D01*
X126103635Y-125571200D02*
X125817921Y-125666438D01*
X125817921Y-125666438D02*
X125627445Y-125666438D01*
X125627445Y-125666438D02*
X125341730Y-125571200D01*
X125341730Y-125571200D02*
X125151254Y-125380723D01*
X125151254Y-125380723D02*
X125056016Y-125190247D01*
X125056016Y-125190247D02*
X124960778Y-124809295D01*
X124960778Y-124809295D02*
X124960778Y-124523580D01*
X124960778Y-124523580D02*
X125056016Y-124142628D01*
X125056016Y-124142628D02*
X125151254Y-123952152D01*
X125151254Y-123952152D02*
X125341730Y-123761676D01*
X125341730Y-123761676D02*
X125627445Y-123666438D01*
X125627445Y-123666438D02*
X125817921Y-123666438D01*
X125817921Y-123666438D02*
X126103635Y-123761676D01*
X126103635Y-123761676D02*
X126198873Y-123856914D01*
X126960778Y-125571200D02*
X127246492Y-125666438D01*
X127246492Y-125666438D02*
X127722683Y-125666438D01*
X127722683Y-125666438D02*
X127913159Y-125571200D01*
X127913159Y-125571200D02*
X128008397Y-125475961D01*
X128008397Y-125475961D02*
X128103635Y-125285485D01*
X128103635Y-125285485D02*
X128103635Y-125095009D01*
X128103635Y-125095009D02*
X128008397Y-124904533D01*
X128008397Y-124904533D02*
X127913159Y-124809295D01*
X127913159Y-124809295D02*
X127722683Y-124714057D01*
X127722683Y-124714057D02*
X127341730Y-124618819D01*
X127341730Y-124618819D02*
X127151254Y-124523580D01*
X127151254Y-124523580D02*
X127056016Y-124428342D01*
X127056016Y-124428342D02*
X126960778Y-124237866D01*
X126960778Y-124237866D02*
X126960778Y-124047390D01*
X126960778Y-124047390D02*
X127056016Y-123856914D01*
X127056016Y-123856914D02*
X127151254Y-123761676D01*
X127151254Y-123761676D02*
X127341730Y-123666438D01*
X127341730Y-123666438D02*
X127817921Y-123666438D01*
X127817921Y-123666438D02*
X128103635Y-123761676D01*
D10*
X92531577Y-133818314D02*
X92745863Y-133889742D01*
X92745863Y-133889742D02*
X92817292Y-133961171D01*
X92817292Y-133961171D02*
X92888720Y-134104028D01*
X92888720Y-134104028D02*
X92888720Y-134318314D01*
X92888720Y-134318314D02*
X92817292Y-134461171D01*
X92817292Y-134461171D02*
X92745863Y-134532600D01*
X92745863Y-134532600D02*
X92603006Y-134604028D01*
X92603006Y-134604028D02*
X92031577Y-134604028D01*
X92031577Y-134604028D02*
X92031577Y-133104028D01*
X92031577Y-133104028D02*
X92531577Y-133104028D01*
X92531577Y-133104028D02*
X92674435Y-133175457D01*
X92674435Y-133175457D02*
X92745863Y-133246885D01*
X92745863Y-133246885D02*
X92817292Y-133389742D01*
X92817292Y-133389742D02*
X92817292Y-133532600D01*
X92817292Y-133532600D02*
X92745863Y-133675457D01*
X92745863Y-133675457D02*
X92674435Y-133746885D01*
X92674435Y-133746885D02*
X92531577Y-133818314D01*
X92531577Y-133818314D02*
X92031577Y-133818314D01*
X93745863Y-134604028D02*
X93603006Y-134532600D01*
X93603006Y-134532600D02*
X93531577Y-134461171D01*
X93531577Y-134461171D02*
X93460149Y-134318314D01*
X93460149Y-134318314D02*
X93460149Y-133889742D01*
X93460149Y-133889742D02*
X93531577Y-133746885D01*
X93531577Y-133746885D02*
X93603006Y-133675457D01*
X93603006Y-133675457D02*
X93745863Y-133604028D01*
X93745863Y-133604028D02*
X93960149Y-133604028D01*
X93960149Y-133604028D02*
X94103006Y-133675457D01*
X94103006Y-133675457D02*
X94174435Y-133746885D01*
X94174435Y-133746885D02*
X94245863Y-133889742D01*
X94245863Y-133889742D02*
X94245863Y-134318314D01*
X94245863Y-134318314D02*
X94174435Y-134461171D01*
X94174435Y-134461171D02*
X94103006Y-134532600D01*
X94103006Y-134532600D02*
X93960149Y-134604028D01*
X93960149Y-134604028D02*
X93745863Y-134604028D01*
X95531578Y-134604028D02*
X95531578Y-133818314D01*
X95531578Y-133818314D02*
X95460149Y-133675457D01*
X95460149Y-133675457D02*
X95317292Y-133604028D01*
X95317292Y-133604028D02*
X95031578Y-133604028D01*
X95031578Y-133604028D02*
X94888720Y-133675457D01*
X95531578Y-134532600D02*
X95388720Y-134604028D01*
X95388720Y-134604028D02*
X95031578Y-134604028D01*
X95031578Y-134604028D02*
X94888720Y-134532600D01*
X94888720Y-134532600D02*
X94817292Y-134389742D01*
X94817292Y-134389742D02*
X94817292Y-134246885D01*
X94817292Y-134246885D02*
X94888720Y-134104028D01*
X94888720Y-134104028D02*
X95031578Y-134032600D01*
X95031578Y-134032600D02*
X95388720Y-134032600D01*
X95388720Y-134032600D02*
X95531578Y-133961171D01*
X96245863Y-134604028D02*
X96245863Y-133604028D01*
X96245863Y-133889742D02*
X96317292Y-133746885D01*
X96317292Y-133746885D02*
X96388721Y-133675457D01*
X96388721Y-133675457D02*
X96531578Y-133604028D01*
X96531578Y-133604028D02*
X96674435Y-133604028D01*
X97817292Y-134604028D02*
X97817292Y-133104028D01*
X97817292Y-134532600D02*
X97674434Y-134604028D01*
X97674434Y-134604028D02*
X97388720Y-134604028D01*
X97388720Y-134604028D02*
X97245863Y-134532600D01*
X97245863Y-134532600D02*
X97174434Y-134461171D01*
X97174434Y-134461171D02*
X97103006Y-134318314D01*
X97103006Y-134318314D02*
X97103006Y-133889742D01*
X97103006Y-133889742D02*
X97174434Y-133746885D01*
X97174434Y-133746885D02*
X97245863Y-133675457D01*
X97245863Y-133675457D02*
X97388720Y-133604028D01*
X97388720Y-133604028D02*
X97674434Y-133604028D01*
X97674434Y-133604028D02*
X97817292Y-133675457D01*
X99888720Y-134604028D02*
X99745863Y-134532600D01*
X99745863Y-134532600D02*
X99674434Y-134461171D01*
X99674434Y-134461171D02*
X99603006Y-134318314D01*
X99603006Y-134318314D02*
X99603006Y-133889742D01*
X99603006Y-133889742D02*
X99674434Y-133746885D01*
X99674434Y-133746885D02*
X99745863Y-133675457D01*
X99745863Y-133675457D02*
X99888720Y-133604028D01*
X99888720Y-133604028D02*
X100103006Y-133604028D01*
X100103006Y-133604028D02*
X100245863Y-133675457D01*
X100245863Y-133675457D02*
X100317292Y-133746885D01*
X100317292Y-133746885D02*
X100388720Y-133889742D01*
X100388720Y-133889742D02*
X100388720Y-134318314D01*
X100388720Y-134318314D02*
X100317292Y-134461171D01*
X100317292Y-134461171D02*
X100245863Y-134532600D01*
X100245863Y-134532600D02*
X100103006Y-134604028D01*
X100103006Y-134604028D02*
X99888720Y-134604028D01*
X100888720Y-133604028D02*
X101245863Y-134604028D01*
X101245863Y-134604028D02*
X101603006Y-133604028D01*
X102745863Y-134532600D02*
X102603006Y-134604028D01*
X102603006Y-134604028D02*
X102317292Y-134604028D01*
X102317292Y-134604028D02*
X102174434Y-134532600D01*
X102174434Y-134532600D02*
X102103006Y-134389742D01*
X102103006Y-134389742D02*
X102103006Y-133818314D01*
X102103006Y-133818314D02*
X102174434Y-133675457D01*
X102174434Y-133675457D02*
X102317292Y-133604028D01*
X102317292Y-133604028D02*
X102603006Y-133604028D01*
X102603006Y-133604028D02*
X102745863Y-133675457D01*
X102745863Y-133675457D02*
X102817292Y-133818314D01*
X102817292Y-133818314D02*
X102817292Y-133961171D01*
X102817292Y-133961171D02*
X102103006Y-134104028D01*
X103460148Y-134604028D02*
X103460148Y-133604028D01*
X103460148Y-133889742D02*
X103531577Y-133746885D01*
X103531577Y-133746885D02*
X103603006Y-133675457D01*
X103603006Y-133675457D02*
X103745863Y-133604028D01*
X103745863Y-133604028D02*
X103888720Y-133604028D01*
X105031577Y-134604028D02*
X105031577Y-133818314D01*
X105031577Y-133818314D02*
X104960148Y-133675457D01*
X104960148Y-133675457D02*
X104817291Y-133604028D01*
X104817291Y-133604028D02*
X104531577Y-133604028D01*
X104531577Y-133604028D02*
X104388719Y-133675457D01*
X105031577Y-134532600D02*
X104888719Y-134604028D01*
X104888719Y-134604028D02*
X104531577Y-134604028D01*
X104531577Y-134604028D02*
X104388719Y-134532600D01*
X104388719Y-134532600D02*
X104317291Y-134389742D01*
X104317291Y-134389742D02*
X104317291Y-134246885D01*
X104317291Y-134246885D02*
X104388719Y-134104028D01*
X104388719Y-134104028D02*
X104531577Y-134032600D01*
X104531577Y-134032600D02*
X104888719Y-134032600D01*
X104888719Y-134032600D02*
X105031577Y-133961171D01*
X105960148Y-134604028D02*
X105817291Y-134532600D01*
X105817291Y-134532600D02*
X105745862Y-134389742D01*
X105745862Y-134389742D02*
X105745862Y-133104028D01*
X106745862Y-134604028D02*
X106603005Y-134532600D01*
X106603005Y-134532600D02*
X106531576Y-134389742D01*
X106531576Y-134389742D02*
X106531576Y-133104028D01*
X109103005Y-134604028D02*
X109103005Y-133104028D01*
X109103005Y-134532600D02*
X108960147Y-134604028D01*
X108960147Y-134604028D02*
X108674433Y-134604028D01*
X108674433Y-134604028D02*
X108531576Y-134532600D01*
X108531576Y-134532600D02*
X108460147Y-134461171D01*
X108460147Y-134461171D02*
X108388719Y-134318314D01*
X108388719Y-134318314D02*
X108388719Y-133889742D01*
X108388719Y-133889742D02*
X108460147Y-133746885D01*
X108460147Y-133746885D02*
X108531576Y-133675457D01*
X108531576Y-133675457D02*
X108674433Y-133604028D01*
X108674433Y-133604028D02*
X108960147Y-133604028D01*
X108960147Y-133604028D02*
X109103005Y-133675457D01*
X109817290Y-134604028D02*
X109817290Y-133604028D01*
X109817290Y-133104028D02*
X109745862Y-133175457D01*
X109745862Y-133175457D02*
X109817290Y-133246885D01*
X109817290Y-133246885D02*
X109888719Y-133175457D01*
X109888719Y-133175457D02*
X109817290Y-133104028D01*
X109817290Y-133104028D02*
X109817290Y-133246885D01*
X110531576Y-134604028D02*
X110531576Y-133604028D01*
X110531576Y-133746885D02*
X110603005Y-133675457D01*
X110603005Y-133675457D02*
X110745862Y-133604028D01*
X110745862Y-133604028D02*
X110960148Y-133604028D01*
X110960148Y-133604028D02*
X111103005Y-133675457D01*
X111103005Y-133675457D02*
X111174434Y-133818314D01*
X111174434Y-133818314D02*
X111174434Y-134604028D01*
X111174434Y-133818314D02*
X111245862Y-133675457D01*
X111245862Y-133675457D02*
X111388719Y-133604028D01*
X111388719Y-133604028D02*
X111603005Y-133604028D01*
X111603005Y-133604028D02*
X111745862Y-133675457D01*
X111745862Y-133675457D02*
X111817291Y-133818314D01*
X111817291Y-133818314D02*
X111817291Y-134604028D01*
X113103005Y-134532600D02*
X112960148Y-134604028D01*
X112960148Y-134604028D02*
X112674434Y-134604028D01*
X112674434Y-134604028D02*
X112531576Y-134532600D01*
X112531576Y-134532600D02*
X112460148Y-134389742D01*
X112460148Y-134389742D02*
X112460148Y-133818314D01*
X112460148Y-133818314D02*
X112531576Y-133675457D01*
X112531576Y-133675457D02*
X112674434Y-133604028D01*
X112674434Y-133604028D02*
X112960148Y-133604028D01*
X112960148Y-133604028D02*
X113103005Y-133675457D01*
X113103005Y-133675457D02*
X113174434Y-133818314D01*
X113174434Y-133818314D02*
X113174434Y-133961171D01*
X113174434Y-133961171D02*
X112460148Y-134104028D01*
X113817290Y-133604028D02*
X113817290Y-134604028D01*
X113817290Y-133746885D02*
X113888719Y-133675457D01*
X113888719Y-133675457D02*
X114031576Y-133604028D01*
X114031576Y-133604028D02*
X114245862Y-133604028D01*
X114245862Y-133604028D02*
X114388719Y-133675457D01*
X114388719Y-133675457D02*
X114460148Y-133818314D01*
X114460148Y-133818314D02*
X114460148Y-134604028D01*
X115103005Y-134532600D02*
X115245862Y-134604028D01*
X115245862Y-134604028D02*
X115531576Y-134604028D01*
X115531576Y-134604028D02*
X115674433Y-134532600D01*
X115674433Y-134532600D02*
X115745862Y-134389742D01*
X115745862Y-134389742D02*
X115745862Y-134318314D01*
X115745862Y-134318314D02*
X115674433Y-134175457D01*
X115674433Y-134175457D02*
X115531576Y-134104028D01*
X115531576Y-134104028D02*
X115317291Y-134104028D01*
X115317291Y-134104028D02*
X115174433Y-134032600D01*
X115174433Y-134032600D02*
X115103005Y-133889742D01*
X115103005Y-133889742D02*
X115103005Y-133818314D01*
X115103005Y-133818314D02*
X115174433Y-133675457D01*
X115174433Y-133675457D02*
X115317291Y-133604028D01*
X115317291Y-133604028D02*
X115531576Y-133604028D01*
X115531576Y-133604028D02*
X115674433Y-133675457D01*
X116388719Y-134604028D02*
X116388719Y-133604028D01*
X116388719Y-133104028D02*
X116317291Y-133175457D01*
X116317291Y-133175457D02*
X116388719Y-133246885D01*
X116388719Y-133246885D02*
X116460148Y-133175457D01*
X116460148Y-133175457D02*
X116388719Y-133104028D01*
X116388719Y-133104028D02*
X116388719Y-133246885D01*
X117317291Y-134604028D02*
X117174434Y-134532600D01*
X117174434Y-134532600D02*
X117103005Y-134461171D01*
X117103005Y-134461171D02*
X117031577Y-134318314D01*
X117031577Y-134318314D02*
X117031577Y-133889742D01*
X117031577Y-133889742D02*
X117103005Y-133746885D01*
X117103005Y-133746885D02*
X117174434Y-133675457D01*
X117174434Y-133675457D02*
X117317291Y-133604028D01*
X117317291Y-133604028D02*
X117531577Y-133604028D01*
X117531577Y-133604028D02*
X117674434Y-133675457D01*
X117674434Y-133675457D02*
X117745863Y-133746885D01*
X117745863Y-133746885D02*
X117817291Y-133889742D01*
X117817291Y-133889742D02*
X117817291Y-134318314D01*
X117817291Y-134318314D02*
X117745863Y-134461171D01*
X117745863Y-134461171D02*
X117674434Y-134532600D01*
X117674434Y-134532600D02*
X117531577Y-134604028D01*
X117531577Y-134604028D02*
X117317291Y-134604028D01*
X118460148Y-133604028D02*
X118460148Y-134604028D01*
X118460148Y-133746885D02*
X118531577Y-133675457D01*
X118531577Y-133675457D02*
X118674434Y-133604028D01*
X118674434Y-133604028D02*
X118888720Y-133604028D01*
X118888720Y-133604028D02*
X119031577Y-133675457D01*
X119031577Y-133675457D02*
X119103006Y-133818314D01*
X119103006Y-133818314D02*
X119103006Y-134604028D01*
X119745863Y-134532600D02*
X119888720Y-134604028D01*
X119888720Y-134604028D02*
X120174434Y-134604028D01*
X120174434Y-134604028D02*
X120317291Y-134532600D01*
X120317291Y-134532600D02*
X120388720Y-134389742D01*
X120388720Y-134389742D02*
X120388720Y-134318314D01*
X120388720Y-134318314D02*
X120317291Y-134175457D01*
X120317291Y-134175457D02*
X120174434Y-134104028D01*
X120174434Y-134104028D02*
X119960149Y-134104028D01*
X119960149Y-134104028D02*
X119817291Y-134032600D01*
X119817291Y-134032600D02*
X119745863Y-133889742D01*
X119745863Y-133889742D02*
X119745863Y-133818314D01*
X119745863Y-133818314D02*
X119817291Y-133675457D01*
X119817291Y-133675457D02*
X119960149Y-133604028D01*
X119960149Y-133604028D02*
X120174434Y-133604028D01*
X120174434Y-133604028D02*
X120317291Y-133675457D01*
X121031577Y-134461171D02*
X121103006Y-134532600D01*
X121103006Y-134532600D02*
X121031577Y-134604028D01*
X121031577Y-134604028D02*
X120960149Y-134532600D01*
X120960149Y-134532600D02*
X121031577Y-134461171D01*
X121031577Y-134461171D02*
X121031577Y-134604028D01*
X121031577Y-133675457D02*
X121103006Y-133746885D01*
X121103006Y-133746885D02*
X121031577Y-133818314D01*
X121031577Y-133818314D02*
X120960149Y-133746885D01*
X120960149Y-133746885D02*
X121031577Y-133675457D01*
X121031577Y-133675457D02*
X121031577Y-133818314D01*
X124688720Y-146475028D02*
X124688720Y-144975028D01*
X124688720Y-144975028D02*
X125545863Y-146475028D01*
X125545863Y-146475028D02*
X125545863Y-144975028D01*
X126474435Y-146475028D02*
X126331578Y-146403600D01*
X126331578Y-146403600D02*
X126260149Y-146332171D01*
X126260149Y-146332171D02*
X126188721Y-146189314D01*
X126188721Y-146189314D02*
X126188721Y-145760742D01*
X126188721Y-145760742D02*
X126260149Y-145617885D01*
X126260149Y-145617885D02*
X126331578Y-145546457D01*
X126331578Y-145546457D02*
X126474435Y-145475028D01*
X126474435Y-145475028D02*
X126688721Y-145475028D01*
X126688721Y-145475028D02*
X126831578Y-145546457D01*
X126831578Y-145546457D02*
X126903007Y-145617885D01*
X126903007Y-145617885D02*
X126974435Y-145760742D01*
X126974435Y-145760742D02*
X126974435Y-146189314D01*
X126974435Y-146189314D02*
X126903007Y-146332171D01*
X126903007Y-146332171D02*
X126831578Y-146403600D01*
X126831578Y-146403600D02*
X126688721Y-146475028D01*
X126688721Y-146475028D02*
X126474435Y-146475028D01*
X125474435Y-134604028D02*
X124617292Y-134604028D01*
X125045863Y-134604028D02*
X125045863Y-133104028D01*
X125045863Y-133104028D02*
X124903006Y-133318314D01*
X124903006Y-133318314D02*
X124760149Y-133461171D01*
X124760149Y-133461171D02*
X124617292Y-133532600D01*
X126331577Y-133746885D02*
X126188720Y-133675457D01*
X126188720Y-133675457D02*
X126117291Y-133604028D01*
X126117291Y-133604028D02*
X126045863Y-133461171D01*
X126045863Y-133461171D02*
X126045863Y-133389742D01*
X126045863Y-133389742D02*
X126117291Y-133246885D01*
X126117291Y-133246885D02*
X126188720Y-133175457D01*
X126188720Y-133175457D02*
X126331577Y-133104028D01*
X126331577Y-133104028D02*
X126617291Y-133104028D01*
X126617291Y-133104028D02*
X126760149Y-133175457D01*
X126760149Y-133175457D02*
X126831577Y-133246885D01*
X126831577Y-133246885D02*
X126903006Y-133389742D01*
X126903006Y-133389742D02*
X126903006Y-133461171D01*
X126903006Y-133461171D02*
X126831577Y-133604028D01*
X126831577Y-133604028D02*
X126760149Y-133675457D01*
X126760149Y-133675457D02*
X126617291Y-133746885D01*
X126617291Y-133746885D02*
X126331577Y-133746885D01*
X126331577Y-133746885D02*
X126188720Y-133818314D01*
X126188720Y-133818314D02*
X126117291Y-133889742D01*
X126117291Y-133889742D02*
X126045863Y-134032600D01*
X126045863Y-134032600D02*
X126045863Y-134318314D01*
X126045863Y-134318314D02*
X126117291Y-134461171D01*
X126117291Y-134461171D02*
X126188720Y-134532600D01*
X126188720Y-134532600D02*
X126331577Y-134604028D01*
X126331577Y-134604028D02*
X126617291Y-134604028D01*
X126617291Y-134604028D02*
X126760149Y-134532600D01*
X126760149Y-134532600D02*
X126831577Y-134461171D01*
X126831577Y-134461171D02*
X126903006Y-134318314D01*
X126903006Y-134318314D02*
X126903006Y-134032600D01*
X126903006Y-134032600D02*
X126831577Y-133889742D01*
X126831577Y-133889742D02*
X126760149Y-133818314D01*
X126760149Y-133818314D02*
X126617291Y-133746885D01*
X127545862Y-134461171D02*
X127617291Y-134532600D01*
X127617291Y-134532600D02*
X127545862Y-134604028D01*
X127545862Y-134604028D02*
X127474434Y-134532600D01*
X127474434Y-134532600D02*
X127545862Y-134461171D01*
X127545862Y-134461171D02*
X127545862Y-134604028D01*
X128545863Y-133104028D02*
X128688720Y-133104028D01*
X128688720Y-133104028D02*
X128831577Y-133175457D01*
X128831577Y-133175457D02*
X128903006Y-133246885D01*
X128903006Y-133246885D02*
X128974434Y-133389742D01*
X128974434Y-133389742D02*
X129045863Y-133675457D01*
X129045863Y-133675457D02*
X129045863Y-134032600D01*
X129045863Y-134032600D02*
X128974434Y-134318314D01*
X128974434Y-134318314D02*
X128903006Y-134461171D01*
X128903006Y-134461171D02*
X128831577Y-134532600D01*
X128831577Y-134532600D02*
X128688720Y-134604028D01*
X128688720Y-134604028D02*
X128545863Y-134604028D01*
X128545863Y-134604028D02*
X128403006Y-134532600D01*
X128403006Y-134532600D02*
X128331577Y-134461171D01*
X128331577Y-134461171D02*
X128260148Y-134318314D01*
X128260148Y-134318314D02*
X128188720Y-134032600D01*
X128188720Y-134032600D02*
X128188720Y-133675457D01*
X128188720Y-133675457D02*
X128260148Y-133389742D01*
X128260148Y-133389742D02*
X128331577Y-133246885D01*
X128331577Y-133246885D02*
X128403006Y-133175457D01*
X128403006Y-133175457D02*
X128545863Y-133104028D01*
X129974434Y-133104028D02*
X130117291Y-133104028D01*
X130117291Y-133104028D02*
X130260148Y-133175457D01*
X130260148Y-133175457D02*
X130331577Y-133246885D01*
X130331577Y-133246885D02*
X130403005Y-133389742D01*
X130403005Y-133389742D02*
X130474434Y-133675457D01*
X130474434Y-133675457D02*
X130474434Y-134032600D01*
X130474434Y-134032600D02*
X130403005Y-134318314D01*
X130403005Y-134318314D02*
X130331577Y-134461171D01*
X130331577Y-134461171D02*
X130260148Y-134532600D01*
X130260148Y-134532600D02*
X130117291Y-134604028D01*
X130117291Y-134604028D02*
X129974434Y-134604028D01*
X129974434Y-134604028D02*
X129831577Y-134532600D01*
X129831577Y-134532600D02*
X129760148Y-134461171D01*
X129760148Y-134461171D02*
X129688719Y-134318314D01*
X129688719Y-134318314D02*
X129617291Y-134032600D01*
X129617291Y-134032600D02*
X129617291Y-133675457D01*
X129617291Y-133675457D02*
X129688719Y-133389742D01*
X129688719Y-133389742D02*
X129760148Y-133246885D01*
X129760148Y-133246885D02*
X129831577Y-133175457D01*
X129831577Y-133175457D02*
X129974434Y-133104028D01*
X131403005Y-133104028D02*
X131545862Y-133104028D01*
X131545862Y-133104028D02*
X131688719Y-133175457D01*
X131688719Y-133175457D02*
X131760148Y-133246885D01*
X131760148Y-133246885D02*
X131831576Y-133389742D01*
X131831576Y-133389742D02*
X131903005Y-133675457D01*
X131903005Y-133675457D02*
X131903005Y-134032600D01*
X131903005Y-134032600D02*
X131831576Y-134318314D01*
X131831576Y-134318314D02*
X131760148Y-134461171D01*
X131760148Y-134461171D02*
X131688719Y-134532600D01*
X131688719Y-134532600D02*
X131545862Y-134604028D01*
X131545862Y-134604028D02*
X131403005Y-134604028D01*
X131403005Y-134604028D02*
X131260148Y-134532600D01*
X131260148Y-134532600D02*
X131188719Y-134461171D01*
X131188719Y-134461171D02*
X131117290Y-134318314D01*
X131117290Y-134318314D02*
X131045862Y-134032600D01*
X131045862Y-134032600D02*
X131045862Y-133675457D01*
X131045862Y-133675457D02*
X131117290Y-133389742D01*
X131117290Y-133389742D02*
X131188719Y-133246885D01*
X131188719Y-133246885D02*
X131260148Y-133175457D01*
X131260148Y-133175457D02*
X131403005Y-133104028D01*
X132831576Y-133104028D02*
X132974433Y-133104028D01*
X132974433Y-133104028D02*
X133117290Y-133175457D01*
X133117290Y-133175457D02*
X133188719Y-133246885D01*
X133188719Y-133246885D02*
X133260147Y-133389742D01*
X133260147Y-133389742D02*
X133331576Y-133675457D01*
X133331576Y-133675457D02*
X133331576Y-134032600D01*
X133331576Y-134032600D02*
X133260147Y-134318314D01*
X133260147Y-134318314D02*
X133188719Y-134461171D01*
X133188719Y-134461171D02*
X133117290Y-134532600D01*
X133117290Y-134532600D02*
X132974433Y-134604028D01*
X132974433Y-134604028D02*
X132831576Y-134604028D01*
X132831576Y-134604028D02*
X132688719Y-134532600D01*
X132688719Y-134532600D02*
X132617290Y-134461171D01*
X132617290Y-134461171D02*
X132545861Y-134318314D01*
X132545861Y-134318314D02*
X132474433Y-134032600D01*
X132474433Y-134032600D02*
X132474433Y-133675457D01*
X132474433Y-133675457D02*
X132545861Y-133389742D01*
X132545861Y-133389742D02*
X132617290Y-133246885D01*
X132617290Y-133246885D02*
X132688719Y-133175457D01*
X132688719Y-133175457D02*
X132831576Y-133104028D01*
X135117289Y-134604028D02*
X135117289Y-133604028D01*
X135117289Y-133746885D02*
X135188718Y-133675457D01*
X135188718Y-133675457D02*
X135331575Y-133604028D01*
X135331575Y-133604028D02*
X135545861Y-133604028D01*
X135545861Y-133604028D02*
X135688718Y-133675457D01*
X135688718Y-133675457D02*
X135760147Y-133818314D01*
X135760147Y-133818314D02*
X135760147Y-134604028D01*
X135760147Y-133818314D02*
X135831575Y-133675457D01*
X135831575Y-133675457D02*
X135974432Y-133604028D01*
X135974432Y-133604028D02*
X136188718Y-133604028D01*
X136188718Y-133604028D02*
X136331575Y-133675457D01*
X136331575Y-133675457D02*
X136403004Y-133818314D01*
X136403004Y-133818314D02*
X136403004Y-134604028D01*
X137117289Y-134604028D02*
X137117289Y-133604028D01*
X137117289Y-133746885D02*
X137188718Y-133675457D01*
X137188718Y-133675457D02*
X137331575Y-133604028D01*
X137331575Y-133604028D02*
X137545861Y-133604028D01*
X137545861Y-133604028D02*
X137688718Y-133675457D01*
X137688718Y-133675457D02*
X137760147Y-133818314D01*
X137760147Y-133818314D02*
X137760147Y-134604028D01*
X137760147Y-133818314D02*
X137831575Y-133675457D01*
X137831575Y-133675457D02*
X137974432Y-133604028D01*
X137974432Y-133604028D02*
X138188718Y-133604028D01*
X138188718Y-133604028D02*
X138331575Y-133675457D01*
X138331575Y-133675457D02*
X138403004Y-133818314D01*
X138403004Y-133818314D02*
X138403004Y-134604028D01*
X140117289Y-134604028D02*
X140903004Y-133604028D01*
X140117289Y-133604028D02*
X140903004Y-134604028D01*
X142474432Y-133104028D02*
X143403004Y-133104028D01*
X143403004Y-133104028D02*
X142903004Y-133675457D01*
X142903004Y-133675457D02*
X143117289Y-133675457D01*
X143117289Y-133675457D02*
X143260147Y-133746885D01*
X143260147Y-133746885D02*
X143331575Y-133818314D01*
X143331575Y-133818314D02*
X143403004Y-133961171D01*
X143403004Y-133961171D02*
X143403004Y-134318314D01*
X143403004Y-134318314D02*
X143331575Y-134461171D01*
X143331575Y-134461171D02*
X143260147Y-134532600D01*
X143260147Y-134532600D02*
X143117289Y-134604028D01*
X143117289Y-134604028D02*
X142688718Y-134604028D01*
X142688718Y-134604028D02*
X142545861Y-134532600D01*
X142545861Y-134532600D02*
X142474432Y-134461171D01*
X143903003Y-133104028D02*
X144903003Y-133104028D01*
X144903003Y-133104028D02*
X144260146Y-134604028D01*
X145474431Y-134461171D02*
X145545860Y-134532600D01*
X145545860Y-134532600D02*
X145474431Y-134604028D01*
X145474431Y-134604028D02*
X145403003Y-134532600D01*
X145403003Y-134532600D02*
X145474431Y-134461171D01*
X145474431Y-134461171D02*
X145474431Y-134604028D01*
X146474432Y-133104028D02*
X146617289Y-133104028D01*
X146617289Y-133104028D02*
X146760146Y-133175457D01*
X146760146Y-133175457D02*
X146831575Y-133246885D01*
X146831575Y-133246885D02*
X146903003Y-133389742D01*
X146903003Y-133389742D02*
X146974432Y-133675457D01*
X146974432Y-133675457D02*
X146974432Y-134032600D01*
X146974432Y-134032600D02*
X146903003Y-134318314D01*
X146903003Y-134318314D02*
X146831575Y-134461171D01*
X146831575Y-134461171D02*
X146760146Y-134532600D01*
X146760146Y-134532600D02*
X146617289Y-134604028D01*
X146617289Y-134604028D02*
X146474432Y-134604028D01*
X146474432Y-134604028D02*
X146331575Y-134532600D01*
X146331575Y-134532600D02*
X146260146Y-134461171D01*
X146260146Y-134461171D02*
X146188717Y-134318314D01*
X146188717Y-134318314D02*
X146117289Y-134032600D01*
X146117289Y-134032600D02*
X146117289Y-133675457D01*
X146117289Y-133675457D02*
X146188717Y-133389742D01*
X146188717Y-133389742D02*
X146260146Y-133246885D01*
X146260146Y-133246885D02*
X146331575Y-133175457D01*
X146331575Y-133175457D02*
X146474432Y-133104028D01*
X147903003Y-133104028D02*
X148045860Y-133104028D01*
X148045860Y-133104028D02*
X148188717Y-133175457D01*
X148188717Y-133175457D02*
X148260146Y-133246885D01*
X148260146Y-133246885D02*
X148331574Y-133389742D01*
X148331574Y-133389742D02*
X148403003Y-133675457D01*
X148403003Y-133675457D02*
X148403003Y-134032600D01*
X148403003Y-134032600D02*
X148331574Y-134318314D01*
X148331574Y-134318314D02*
X148260146Y-134461171D01*
X148260146Y-134461171D02*
X148188717Y-134532600D01*
X148188717Y-134532600D02*
X148045860Y-134604028D01*
X148045860Y-134604028D02*
X147903003Y-134604028D01*
X147903003Y-134604028D02*
X147760146Y-134532600D01*
X147760146Y-134532600D02*
X147688717Y-134461171D01*
X147688717Y-134461171D02*
X147617288Y-134318314D01*
X147617288Y-134318314D02*
X147545860Y-134032600D01*
X147545860Y-134032600D02*
X147545860Y-133675457D01*
X147545860Y-133675457D02*
X147617288Y-133389742D01*
X147617288Y-133389742D02*
X147688717Y-133246885D01*
X147688717Y-133246885D02*
X147760146Y-133175457D01*
X147760146Y-133175457D02*
X147903003Y-133104028D01*
X149331574Y-133104028D02*
X149474431Y-133104028D01*
X149474431Y-133104028D02*
X149617288Y-133175457D01*
X149617288Y-133175457D02*
X149688717Y-133246885D01*
X149688717Y-133246885D02*
X149760145Y-133389742D01*
X149760145Y-133389742D02*
X149831574Y-133675457D01*
X149831574Y-133675457D02*
X149831574Y-134032600D01*
X149831574Y-134032600D02*
X149760145Y-134318314D01*
X149760145Y-134318314D02*
X149688717Y-134461171D01*
X149688717Y-134461171D02*
X149617288Y-134532600D01*
X149617288Y-134532600D02*
X149474431Y-134604028D01*
X149474431Y-134604028D02*
X149331574Y-134604028D01*
X149331574Y-134604028D02*
X149188717Y-134532600D01*
X149188717Y-134532600D02*
X149117288Y-134461171D01*
X149117288Y-134461171D02*
X149045859Y-134318314D01*
X149045859Y-134318314D02*
X148974431Y-134032600D01*
X148974431Y-134032600D02*
X148974431Y-133675457D01*
X148974431Y-133675457D02*
X149045859Y-133389742D01*
X149045859Y-133389742D02*
X149117288Y-133246885D01*
X149117288Y-133246885D02*
X149188717Y-133175457D01*
X149188717Y-133175457D02*
X149331574Y-133104028D01*
X150760145Y-133104028D02*
X150903002Y-133104028D01*
X150903002Y-133104028D02*
X151045859Y-133175457D01*
X151045859Y-133175457D02*
X151117288Y-133246885D01*
X151117288Y-133246885D02*
X151188716Y-133389742D01*
X151188716Y-133389742D02*
X151260145Y-133675457D01*
X151260145Y-133675457D02*
X151260145Y-134032600D01*
X151260145Y-134032600D02*
X151188716Y-134318314D01*
X151188716Y-134318314D02*
X151117288Y-134461171D01*
X151117288Y-134461171D02*
X151045859Y-134532600D01*
X151045859Y-134532600D02*
X150903002Y-134604028D01*
X150903002Y-134604028D02*
X150760145Y-134604028D01*
X150760145Y-134604028D02*
X150617288Y-134532600D01*
X150617288Y-134532600D02*
X150545859Y-134461171D01*
X150545859Y-134461171D02*
X150474430Y-134318314D01*
X150474430Y-134318314D02*
X150403002Y-134032600D01*
X150403002Y-134032600D02*
X150403002Y-133675457D01*
X150403002Y-133675457D02*
X150474430Y-133389742D01*
X150474430Y-133389742D02*
X150545859Y-133246885D01*
X150545859Y-133246885D02*
X150617288Y-133175457D01*
X150617288Y-133175457D02*
X150760145Y-133104028D01*
X153045858Y-134604028D02*
X153045858Y-133604028D01*
X153045858Y-133746885D02*
X153117287Y-133675457D01*
X153117287Y-133675457D02*
X153260144Y-133604028D01*
X153260144Y-133604028D02*
X153474430Y-133604028D01*
X153474430Y-133604028D02*
X153617287Y-133675457D01*
X153617287Y-133675457D02*
X153688716Y-133818314D01*
X153688716Y-133818314D02*
X153688716Y-134604028D01*
X153688716Y-133818314D02*
X153760144Y-133675457D01*
X153760144Y-133675457D02*
X153903001Y-133604028D01*
X153903001Y-133604028D02*
X154117287Y-133604028D01*
X154117287Y-133604028D02*
X154260144Y-133675457D01*
X154260144Y-133675457D02*
X154331573Y-133818314D01*
X154331573Y-133818314D02*
X154331573Y-134604028D01*
X155045858Y-134604028D02*
X155045858Y-133604028D01*
X155045858Y-133746885D02*
X155117287Y-133675457D01*
X155117287Y-133675457D02*
X155260144Y-133604028D01*
X155260144Y-133604028D02*
X155474430Y-133604028D01*
X155474430Y-133604028D02*
X155617287Y-133675457D01*
X155617287Y-133675457D02*
X155688716Y-133818314D01*
X155688716Y-133818314D02*
X155688716Y-134604028D01*
X155688716Y-133818314D02*
X155760144Y-133675457D01*
X155760144Y-133675457D02*
X155903001Y-133604028D01*
X155903001Y-133604028D02*
X156117287Y-133604028D01*
X156117287Y-133604028D02*
X156260144Y-133675457D01*
X156260144Y-133675457D02*
X156331573Y-133818314D01*
X156331573Y-133818314D02*
X156331573Y-134604028D01*
X125331578Y-129647028D02*
X125331578Y-130647028D01*
X124974435Y-129075600D02*
X124617292Y-130147028D01*
X124617292Y-130147028D02*
X125545863Y-130147028D01*
X158845858Y-146475028D02*
X158845858Y-144975028D01*
X158845858Y-144975028D02*
X159417287Y-144975028D01*
X159417287Y-144975028D02*
X159560144Y-145046457D01*
X159560144Y-145046457D02*
X159631573Y-145117885D01*
X159631573Y-145117885D02*
X159703001Y-145260742D01*
X159703001Y-145260742D02*
X159703001Y-145475028D01*
X159703001Y-145475028D02*
X159631573Y-145617885D01*
X159631573Y-145617885D02*
X159560144Y-145689314D01*
X159560144Y-145689314D02*
X159417287Y-145760742D01*
X159417287Y-145760742D02*
X158845858Y-145760742D01*
X160560144Y-146475028D02*
X160417287Y-146403600D01*
X160417287Y-146403600D02*
X160345858Y-146260742D01*
X160345858Y-146260742D02*
X160345858Y-144975028D01*
X161774430Y-146475028D02*
X161774430Y-145689314D01*
X161774430Y-145689314D02*
X161703001Y-145546457D01*
X161703001Y-145546457D02*
X161560144Y-145475028D01*
X161560144Y-145475028D02*
X161274430Y-145475028D01*
X161274430Y-145475028D02*
X161131572Y-145546457D01*
X161774430Y-146403600D02*
X161631572Y-146475028D01*
X161631572Y-146475028D02*
X161274430Y-146475028D01*
X161274430Y-146475028D02*
X161131572Y-146403600D01*
X161131572Y-146403600D02*
X161060144Y-146260742D01*
X161060144Y-146260742D02*
X161060144Y-146117885D01*
X161060144Y-146117885D02*
X161131572Y-145975028D01*
X161131572Y-145975028D02*
X161274430Y-145903600D01*
X161274430Y-145903600D02*
X161631572Y-145903600D01*
X161631572Y-145903600D02*
X161774430Y-145832171D01*
X162274430Y-145475028D02*
X162845858Y-145475028D01*
X162488715Y-144975028D02*
X162488715Y-146260742D01*
X162488715Y-146260742D02*
X162560144Y-146403600D01*
X162560144Y-146403600D02*
X162703001Y-146475028D01*
X162703001Y-146475028D02*
X162845858Y-146475028D01*
X163917287Y-146403600D02*
X163774430Y-146475028D01*
X163774430Y-146475028D02*
X163488716Y-146475028D01*
X163488716Y-146475028D02*
X163345858Y-146403600D01*
X163345858Y-146403600D02*
X163274430Y-146260742D01*
X163274430Y-146260742D02*
X163274430Y-145689314D01*
X163274430Y-145689314D02*
X163345858Y-145546457D01*
X163345858Y-145546457D02*
X163488716Y-145475028D01*
X163488716Y-145475028D02*
X163774430Y-145475028D01*
X163774430Y-145475028D02*
X163917287Y-145546457D01*
X163917287Y-145546457D02*
X163988716Y-145689314D01*
X163988716Y-145689314D02*
X163988716Y-145832171D01*
X163988716Y-145832171D02*
X163274430Y-145975028D01*
X165274430Y-146475028D02*
X165274430Y-144975028D01*
X165274430Y-146403600D02*
X165131572Y-146475028D01*
X165131572Y-146475028D02*
X164845858Y-146475028D01*
X164845858Y-146475028D02*
X164703001Y-146403600D01*
X164703001Y-146403600D02*
X164631572Y-146332171D01*
X164631572Y-146332171D02*
X164560144Y-146189314D01*
X164560144Y-146189314D02*
X164560144Y-145760742D01*
X164560144Y-145760742D02*
X164631572Y-145617885D01*
X164631572Y-145617885D02*
X164703001Y-145546457D01*
X164703001Y-145546457D02*
X164845858Y-145475028D01*
X164845858Y-145475028D02*
X165131572Y-145475028D01*
X165131572Y-145475028D02*
X165274430Y-145546457D01*
X167631572Y-145689314D02*
X167845858Y-145760742D01*
X167845858Y-145760742D02*
X167917287Y-145832171D01*
X167917287Y-145832171D02*
X167988715Y-145975028D01*
X167988715Y-145975028D02*
X167988715Y-146189314D01*
X167988715Y-146189314D02*
X167917287Y-146332171D01*
X167917287Y-146332171D02*
X167845858Y-146403600D01*
X167845858Y-146403600D02*
X167703001Y-146475028D01*
X167703001Y-146475028D02*
X167131572Y-146475028D01*
X167131572Y-146475028D02*
X167131572Y-144975028D01*
X167131572Y-144975028D02*
X167631572Y-144975028D01*
X167631572Y-144975028D02*
X167774430Y-145046457D01*
X167774430Y-145046457D02*
X167845858Y-145117885D01*
X167845858Y-145117885D02*
X167917287Y-145260742D01*
X167917287Y-145260742D02*
X167917287Y-145403600D01*
X167917287Y-145403600D02*
X167845858Y-145546457D01*
X167845858Y-145546457D02*
X167774430Y-145617885D01*
X167774430Y-145617885D02*
X167631572Y-145689314D01*
X167631572Y-145689314D02*
X167131572Y-145689314D01*
X168845858Y-146475028D02*
X168703001Y-146403600D01*
X168703001Y-146403600D02*
X168631572Y-146332171D01*
X168631572Y-146332171D02*
X168560144Y-146189314D01*
X168560144Y-146189314D02*
X168560144Y-145760742D01*
X168560144Y-145760742D02*
X168631572Y-145617885D01*
X168631572Y-145617885D02*
X168703001Y-145546457D01*
X168703001Y-145546457D02*
X168845858Y-145475028D01*
X168845858Y-145475028D02*
X169060144Y-145475028D01*
X169060144Y-145475028D02*
X169203001Y-145546457D01*
X169203001Y-145546457D02*
X169274430Y-145617885D01*
X169274430Y-145617885D02*
X169345858Y-145760742D01*
X169345858Y-145760742D02*
X169345858Y-146189314D01*
X169345858Y-146189314D02*
X169274430Y-146332171D01*
X169274430Y-146332171D02*
X169203001Y-146403600D01*
X169203001Y-146403600D02*
X169060144Y-146475028D01*
X169060144Y-146475028D02*
X168845858Y-146475028D01*
X170631573Y-146475028D02*
X170631573Y-145689314D01*
X170631573Y-145689314D02*
X170560144Y-145546457D01*
X170560144Y-145546457D02*
X170417287Y-145475028D01*
X170417287Y-145475028D02*
X170131573Y-145475028D01*
X170131573Y-145475028D02*
X169988715Y-145546457D01*
X170631573Y-146403600D02*
X170488715Y-146475028D01*
X170488715Y-146475028D02*
X170131573Y-146475028D01*
X170131573Y-146475028D02*
X169988715Y-146403600D01*
X169988715Y-146403600D02*
X169917287Y-146260742D01*
X169917287Y-146260742D02*
X169917287Y-146117885D01*
X169917287Y-146117885D02*
X169988715Y-145975028D01*
X169988715Y-145975028D02*
X170131573Y-145903600D01*
X170131573Y-145903600D02*
X170488715Y-145903600D01*
X170488715Y-145903600D02*
X170631573Y-145832171D01*
X171345858Y-146475028D02*
X171345858Y-145475028D01*
X171345858Y-145760742D02*
X171417287Y-145617885D01*
X171417287Y-145617885D02*
X171488716Y-145546457D01*
X171488716Y-145546457D02*
X171631573Y-145475028D01*
X171631573Y-145475028D02*
X171774430Y-145475028D01*
X172917287Y-146475028D02*
X172917287Y-144975028D01*
X172917287Y-146403600D02*
X172774429Y-146475028D01*
X172774429Y-146475028D02*
X172488715Y-146475028D01*
X172488715Y-146475028D02*
X172345858Y-146403600D01*
X172345858Y-146403600D02*
X172274429Y-146332171D01*
X172274429Y-146332171D02*
X172203001Y-146189314D01*
X172203001Y-146189314D02*
X172203001Y-145760742D01*
X172203001Y-145760742D02*
X172274429Y-145617885D01*
X172274429Y-145617885D02*
X172345858Y-145546457D01*
X172345858Y-145546457D02*
X172488715Y-145475028D01*
X172488715Y-145475028D02*
X172774429Y-145475028D01*
X172774429Y-145475028D02*
X172917287Y-145546457D01*
X174774429Y-145689314D02*
X175274429Y-145689314D01*
X175488715Y-146475028D02*
X174774429Y-146475028D01*
X174774429Y-146475028D02*
X174774429Y-144975028D01*
X174774429Y-144975028D02*
X175488715Y-144975028D01*
X176774430Y-146475028D02*
X176774430Y-144975028D01*
X176774430Y-146403600D02*
X176631572Y-146475028D01*
X176631572Y-146475028D02*
X176345858Y-146475028D01*
X176345858Y-146475028D02*
X176203001Y-146403600D01*
X176203001Y-146403600D02*
X176131572Y-146332171D01*
X176131572Y-146332171D02*
X176060144Y-146189314D01*
X176060144Y-146189314D02*
X176060144Y-145760742D01*
X176060144Y-145760742D02*
X176131572Y-145617885D01*
X176131572Y-145617885D02*
X176203001Y-145546457D01*
X176203001Y-145546457D02*
X176345858Y-145475028D01*
X176345858Y-145475028D02*
X176631572Y-145475028D01*
X176631572Y-145475028D02*
X176774430Y-145546457D01*
X178131573Y-145475028D02*
X178131573Y-146689314D01*
X178131573Y-146689314D02*
X178060144Y-146832171D01*
X178060144Y-146832171D02*
X177988715Y-146903600D01*
X177988715Y-146903600D02*
X177845858Y-146975028D01*
X177845858Y-146975028D02*
X177631573Y-146975028D01*
X177631573Y-146975028D02*
X177488715Y-146903600D01*
X178131573Y-146403600D02*
X177988715Y-146475028D01*
X177988715Y-146475028D02*
X177703001Y-146475028D01*
X177703001Y-146475028D02*
X177560144Y-146403600D01*
X177560144Y-146403600D02*
X177488715Y-146332171D01*
X177488715Y-146332171D02*
X177417287Y-146189314D01*
X177417287Y-146189314D02*
X177417287Y-145760742D01*
X177417287Y-145760742D02*
X177488715Y-145617885D01*
X177488715Y-145617885D02*
X177560144Y-145546457D01*
X177560144Y-145546457D02*
X177703001Y-145475028D01*
X177703001Y-145475028D02*
X177988715Y-145475028D01*
X177988715Y-145475028D02*
X178131573Y-145546457D01*
X179417287Y-146403600D02*
X179274430Y-146475028D01*
X179274430Y-146475028D02*
X178988716Y-146475028D01*
X178988716Y-146475028D02*
X178845858Y-146403600D01*
X178845858Y-146403600D02*
X178774430Y-146260742D01*
X178774430Y-146260742D02*
X178774430Y-145689314D01*
X178774430Y-145689314D02*
X178845858Y-145546457D01*
X178845858Y-145546457D02*
X178988716Y-145475028D01*
X178988716Y-145475028D02*
X179274430Y-145475028D01*
X179274430Y-145475028D02*
X179417287Y-145546457D01*
X179417287Y-145546457D02*
X179488716Y-145689314D01*
X179488716Y-145689314D02*
X179488716Y-145832171D01*
X179488716Y-145832171D02*
X178774430Y-145975028D01*
X180131572Y-146332171D02*
X180203001Y-146403600D01*
X180203001Y-146403600D02*
X180131572Y-146475028D01*
X180131572Y-146475028D02*
X180060144Y-146403600D01*
X180060144Y-146403600D02*
X180131572Y-146332171D01*
X180131572Y-146332171D02*
X180131572Y-146475028D01*
X180131572Y-145546457D02*
X180203001Y-145617885D01*
X180203001Y-145617885D02*
X180131572Y-145689314D01*
X180131572Y-145689314D02*
X180060144Y-145617885D01*
X180060144Y-145617885D02*
X180131572Y-145546457D01*
X180131572Y-145546457D02*
X180131572Y-145689314D01*
X158845858Y-142518028D02*
X158845858Y-141018028D01*
X159560144Y-142518028D02*
X159560144Y-141518028D01*
X159560144Y-141660885D02*
X159631573Y-141589457D01*
X159631573Y-141589457D02*
X159774430Y-141518028D01*
X159774430Y-141518028D02*
X159988716Y-141518028D01*
X159988716Y-141518028D02*
X160131573Y-141589457D01*
X160131573Y-141589457D02*
X160203002Y-141732314D01*
X160203002Y-141732314D02*
X160203002Y-142518028D01*
X160203002Y-141732314D02*
X160274430Y-141589457D01*
X160274430Y-141589457D02*
X160417287Y-141518028D01*
X160417287Y-141518028D02*
X160631573Y-141518028D01*
X160631573Y-141518028D02*
X160774430Y-141589457D01*
X160774430Y-141589457D02*
X160845859Y-141732314D01*
X160845859Y-141732314D02*
X160845859Y-142518028D01*
X161560144Y-141518028D02*
X161560144Y-143018028D01*
X161560144Y-141589457D02*
X161703002Y-141518028D01*
X161703002Y-141518028D02*
X161988716Y-141518028D01*
X161988716Y-141518028D02*
X162131573Y-141589457D01*
X162131573Y-141589457D02*
X162203002Y-141660885D01*
X162203002Y-141660885D02*
X162274430Y-141803742D01*
X162274430Y-141803742D02*
X162274430Y-142232314D01*
X162274430Y-142232314D02*
X162203002Y-142375171D01*
X162203002Y-142375171D02*
X162131573Y-142446600D01*
X162131573Y-142446600D02*
X161988716Y-142518028D01*
X161988716Y-142518028D02*
X161703002Y-142518028D01*
X161703002Y-142518028D02*
X161560144Y-142446600D01*
X163488716Y-142446600D02*
X163345859Y-142518028D01*
X163345859Y-142518028D02*
X163060145Y-142518028D01*
X163060145Y-142518028D02*
X162917287Y-142446600D01*
X162917287Y-142446600D02*
X162845859Y-142303742D01*
X162845859Y-142303742D02*
X162845859Y-141732314D01*
X162845859Y-141732314D02*
X162917287Y-141589457D01*
X162917287Y-141589457D02*
X163060145Y-141518028D01*
X163060145Y-141518028D02*
X163345859Y-141518028D01*
X163345859Y-141518028D02*
X163488716Y-141589457D01*
X163488716Y-141589457D02*
X163560145Y-141732314D01*
X163560145Y-141732314D02*
X163560145Y-141875171D01*
X163560145Y-141875171D02*
X162845859Y-142018028D01*
X164845859Y-142518028D02*
X164845859Y-141018028D01*
X164845859Y-142446600D02*
X164703001Y-142518028D01*
X164703001Y-142518028D02*
X164417287Y-142518028D01*
X164417287Y-142518028D02*
X164274430Y-142446600D01*
X164274430Y-142446600D02*
X164203001Y-142375171D01*
X164203001Y-142375171D02*
X164131573Y-142232314D01*
X164131573Y-142232314D02*
X164131573Y-141803742D01*
X164131573Y-141803742D02*
X164203001Y-141660885D01*
X164203001Y-141660885D02*
X164274430Y-141589457D01*
X164274430Y-141589457D02*
X164417287Y-141518028D01*
X164417287Y-141518028D02*
X164703001Y-141518028D01*
X164703001Y-141518028D02*
X164845859Y-141589457D01*
X166203002Y-142518028D02*
X166203002Y-141732314D01*
X166203002Y-141732314D02*
X166131573Y-141589457D01*
X166131573Y-141589457D02*
X165988716Y-141518028D01*
X165988716Y-141518028D02*
X165703002Y-141518028D01*
X165703002Y-141518028D02*
X165560144Y-141589457D01*
X166203002Y-142446600D02*
X166060144Y-142518028D01*
X166060144Y-142518028D02*
X165703002Y-142518028D01*
X165703002Y-142518028D02*
X165560144Y-142446600D01*
X165560144Y-142446600D02*
X165488716Y-142303742D01*
X165488716Y-142303742D02*
X165488716Y-142160885D01*
X165488716Y-142160885D02*
X165560144Y-142018028D01*
X165560144Y-142018028D02*
X165703002Y-141946600D01*
X165703002Y-141946600D02*
X166060144Y-141946600D01*
X166060144Y-141946600D02*
X166203002Y-141875171D01*
X166917287Y-141518028D02*
X166917287Y-142518028D01*
X166917287Y-141660885D02*
X166988716Y-141589457D01*
X166988716Y-141589457D02*
X167131573Y-141518028D01*
X167131573Y-141518028D02*
X167345859Y-141518028D01*
X167345859Y-141518028D02*
X167488716Y-141589457D01*
X167488716Y-141589457D02*
X167560145Y-141732314D01*
X167560145Y-141732314D02*
X167560145Y-142518028D01*
X168917288Y-142446600D02*
X168774430Y-142518028D01*
X168774430Y-142518028D02*
X168488716Y-142518028D01*
X168488716Y-142518028D02*
X168345859Y-142446600D01*
X168345859Y-142446600D02*
X168274430Y-142375171D01*
X168274430Y-142375171D02*
X168203002Y-142232314D01*
X168203002Y-142232314D02*
X168203002Y-141803742D01*
X168203002Y-141803742D02*
X168274430Y-141660885D01*
X168274430Y-141660885D02*
X168345859Y-141589457D01*
X168345859Y-141589457D02*
X168488716Y-141518028D01*
X168488716Y-141518028D02*
X168774430Y-141518028D01*
X168774430Y-141518028D02*
X168917288Y-141589457D01*
X170131573Y-142446600D02*
X169988716Y-142518028D01*
X169988716Y-142518028D02*
X169703002Y-142518028D01*
X169703002Y-142518028D02*
X169560144Y-142446600D01*
X169560144Y-142446600D02*
X169488716Y-142303742D01*
X169488716Y-142303742D02*
X169488716Y-141732314D01*
X169488716Y-141732314D02*
X169560144Y-141589457D01*
X169560144Y-141589457D02*
X169703002Y-141518028D01*
X169703002Y-141518028D02*
X169988716Y-141518028D01*
X169988716Y-141518028D02*
X170131573Y-141589457D01*
X170131573Y-141589457D02*
X170203002Y-141732314D01*
X170203002Y-141732314D02*
X170203002Y-141875171D01*
X170203002Y-141875171D02*
X169488716Y-142018028D01*
X172845858Y-142375171D02*
X172774430Y-142446600D01*
X172774430Y-142446600D02*
X172560144Y-142518028D01*
X172560144Y-142518028D02*
X172417287Y-142518028D01*
X172417287Y-142518028D02*
X172203001Y-142446600D01*
X172203001Y-142446600D02*
X172060144Y-142303742D01*
X172060144Y-142303742D02*
X171988715Y-142160885D01*
X171988715Y-142160885D02*
X171917287Y-141875171D01*
X171917287Y-141875171D02*
X171917287Y-141660885D01*
X171917287Y-141660885D02*
X171988715Y-141375171D01*
X171988715Y-141375171D02*
X172060144Y-141232314D01*
X172060144Y-141232314D02*
X172203001Y-141089457D01*
X172203001Y-141089457D02*
X172417287Y-141018028D01*
X172417287Y-141018028D02*
X172560144Y-141018028D01*
X172560144Y-141018028D02*
X172774430Y-141089457D01*
X172774430Y-141089457D02*
X172845858Y-141160885D01*
X173703001Y-142518028D02*
X173560144Y-142446600D01*
X173560144Y-142446600D02*
X173488715Y-142375171D01*
X173488715Y-142375171D02*
X173417287Y-142232314D01*
X173417287Y-142232314D02*
X173417287Y-141803742D01*
X173417287Y-141803742D02*
X173488715Y-141660885D01*
X173488715Y-141660885D02*
X173560144Y-141589457D01*
X173560144Y-141589457D02*
X173703001Y-141518028D01*
X173703001Y-141518028D02*
X173917287Y-141518028D01*
X173917287Y-141518028D02*
X174060144Y-141589457D01*
X174060144Y-141589457D02*
X174131573Y-141660885D01*
X174131573Y-141660885D02*
X174203001Y-141803742D01*
X174203001Y-141803742D02*
X174203001Y-142232314D01*
X174203001Y-142232314D02*
X174131573Y-142375171D01*
X174131573Y-142375171D02*
X174060144Y-142446600D01*
X174060144Y-142446600D02*
X173917287Y-142518028D01*
X173917287Y-142518028D02*
X173703001Y-142518028D01*
X174845858Y-141518028D02*
X174845858Y-142518028D01*
X174845858Y-141660885D02*
X174917287Y-141589457D01*
X174917287Y-141589457D02*
X175060144Y-141518028D01*
X175060144Y-141518028D02*
X175274430Y-141518028D01*
X175274430Y-141518028D02*
X175417287Y-141589457D01*
X175417287Y-141589457D02*
X175488716Y-141732314D01*
X175488716Y-141732314D02*
X175488716Y-142518028D01*
X175988716Y-141518028D02*
X176560144Y-141518028D01*
X176203001Y-141018028D02*
X176203001Y-142303742D01*
X176203001Y-142303742D02*
X176274430Y-142446600D01*
X176274430Y-142446600D02*
X176417287Y-142518028D01*
X176417287Y-142518028D02*
X176560144Y-142518028D01*
X177060144Y-142518028D02*
X177060144Y-141518028D01*
X177060144Y-141803742D02*
X177131573Y-141660885D01*
X177131573Y-141660885D02*
X177203002Y-141589457D01*
X177203002Y-141589457D02*
X177345859Y-141518028D01*
X177345859Y-141518028D02*
X177488716Y-141518028D01*
X178203001Y-142518028D02*
X178060144Y-142446600D01*
X178060144Y-142446600D02*
X177988715Y-142375171D01*
X177988715Y-142375171D02*
X177917287Y-142232314D01*
X177917287Y-142232314D02*
X177917287Y-141803742D01*
X177917287Y-141803742D02*
X177988715Y-141660885D01*
X177988715Y-141660885D02*
X178060144Y-141589457D01*
X178060144Y-141589457D02*
X178203001Y-141518028D01*
X178203001Y-141518028D02*
X178417287Y-141518028D01*
X178417287Y-141518028D02*
X178560144Y-141589457D01*
X178560144Y-141589457D02*
X178631573Y-141660885D01*
X178631573Y-141660885D02*
X178703001Y-141803742D01*
X178703001Y-141803742D02*
X178703001Y-142232314D01*
X178703001Y-142232314D02*
X178631573Y-142375171D01*
X178631573Y-142375171D02*
X178560144Y-142446600D01*
X178560144Y-142446600D02*
X178417287Y-142518028D01*
X178417287Y-142518028D02*
X178203001Y-142518028D01*
X179560144Y-142518028D02*
X179417287Y-142446600D01*
X179417287Y-142446600D02*
X179345858Y-142303742D01*
X179345858Y-142303742D02*
X179345858Y-141018028D01*
X180131572Y-142375171D02*
X180203001Y-142446600D01*
X180203001Y-142446600D02*
X180131572Y-142518028D01*
X180131572Y-142518028D02*
X180060144Y-142446600D01*
X180060144Y-142446600D02*
X180131572Y-142375171D01*
X180131572Y-142375171D02*
X180131572Y-142518028D01*
X180131572Y-141589457D02*
X180203001Y-141660885D01*
X180203001Y-141660885D02*
X180131572Y-141732314D01*
X180131572Y-141732314D02*
X180060144Y-141660885D01*
X180060144Y-141660885D02*
X180131572Y-141589457D01*
X180131572Y-141589457D02*
X180131572Y-141732314D01*
X159345858Y-129861314D02*
X159560144Y-129932742D01*
X159560144Y-129932742D02*
X159631573Y-130004171D01*
X159631573Y-130004171D02*
X159703001Y-130147028D01*
X159703001Y-130147028D02*
X159703001Y-130361314D01*
X159703001Y-130361314D02*
X159631573Y-130504171D01*
X159631573Y-130504171D02*
X159560144Y-130575600D01*
X159560144Y-130575600D02*
X159417287Y-130647028D01*
X159417287Y-130647028D02*
X158845858Y-130647028D01*
X158845858Y-130647028D02*
X158845858Y-129147028D01*
X158845858Y-129147028D02*
X159345858Y-129147028D01*
X159345858Y-129147028D02*
X159488716Y-129218457D01*
X159488716Y-129218457D02*
X159560144Y-129289885D01*
X159560144Y-129289885D02*
X159631573Y-129432742D01*
X159631573Y-129432742D02*
X159631573Y-129575600D01*
X159631573Y-129575600D02*
X159560144Y-129718457D01*
X159560144Y-129718457D02*
X159488716Y-129789885D01*
X159488716Y-129789885D02*
X159345858Y-129861314D01*
X159345858Y-129861314D02*
X158845858Y-129861314D01*
X160560144Y-130647028D02*
X160417287Y-130575600D01*
X160417287Y-130575600D02*
X160345858Y-130504171D01*
X160345858Y-130504171D02*
X160274430Y-130361314D01*
X160274430Y-130361314D02*
X160274430Y-129932742D01*
X160274430Y-129932742D02*
X160345858Y-129789885D01*
X160345858Y-129789885D02*
X160417287Y-129718457D01*
X160417287Y-129718457D02*
X160560144Y-129647028D01*
X160560144Y-129647028D02*
X160774430Y-129647028D01*
X160774430Y-129647028D02*
X160917287Y-129718457D01*
X160917287Y-129718457D02*
X160988716Y-129789885D01*
X160988716Y-129789885D02*
X161060144Y-129932742D01*
X161060144Y-129932742D02*
X161060144Y-130361314D01*
X161060144Y-130361314D02*
X160988716Y-130504171D01*
X160988716Y-130504171D02*
X160917287Y-130575600D01*
X160917287Y-130575600D02*
X160774430Y-130647028D01*
X160774430Y-130647028D02*
X160560144Y-130647028D01*
X162345859Y-130647028D02*
X162345859Y-129861314D01*
X162345859Y-129861314D02*
X162274430Y-129718457D01*
X162274430Y-129718457D02*
X162131573Y-129647028D01*
X162131573Y-129647028D02*
X161845859Y-129647028D01*
X161845859Y-129647028D02*
X161703001Y-129718457D01*
X162345859Y-130575600D02*
X162203001Y-130647028D01*
X162203001Y-130647028D02*
X161845859Y-130647028D01*
X161845859Y-130647028D02*
X161703001Y-130575600D01*
X161703001Y-130575600D02*
X161631573Y-130432742D01*
X161631573Y-130432742D02*
X161631573Y-130289885D01*
X161631573Y-130289885D02*
X161703001Y-130147028D01*
X161703001Y-130147028D02*
X161845859Y-130075600D01*
X161845859Y-130075600D02*
X162203001Y-130075600D01*
X162203001Y-130075600D02*
X162345859Y-130004171D01*
X163060144Y-130647028D02*
X163060144Y-129647028D01*
X163060144Y-129932742D02*
X163131573Y-129789885D01*
X163131573Y-129789885D02*
X163203002Y-129718457D01*
X163203002Y-129718457D02*
X163345859Y-129647028D01*
X163345859Y-129647028D02*
X163488716Y-129647028D01*
X164631573Y-130647028D02*
X164631573Y-129147028D01*
X164631573Y-130575600D02*
X164488715Y-130647028D01*
X164488715Y-130647028D02*
X164203001Y-130647028D01*
X164203001Y-130647028D02*
X164060144Y-130575600D01*
X164060144Y-130575600D02*
X163988715Y-130504171D01*
X163988715Y-130504171D02*
X163917287Y-130361314D01*
X163917287Y-130361314D02*
X163917287Y-129932742D01*
X163917287Y-129932742D02*
X163988715Y-129789885D01*
X163988715Y-129789885D02*
X164060144Y-129718457D01*
X164060144Y-129718457D02*
X164203001Y-129647028D01*
X164203001Y-129647028D02*
X164488715Y-129647028D01*
X164488715Y-129647028D02*
X164631573Y-129718457D01*
X166274430Y-129147028D02*
X167131573Y-129147028D01*
X166703001Y-130647028D02*
X166703001Y-129147028D01*
X167631572Y-130647028D02*
X167631572Y-129147028D01*
X168274430Y-130647028D02*
X168274430Y-129861314D01*
X168274430Y-129861314D02*
X168203001Y-129718457D01*
X168203001Y-129718457D02*
X168060144Y-129647028D01*
X168060144Y-129647028D02*
X167845858Y-129647028D01*
X167845858Y-129647028D02*
X167703001Y-129718457D01*
X167703001Y-129718457D02*
X167631572Y-129789885D01*
X168988715Y-130647028D02*
X168988715Y-129647028D01*
X168988715Y-129147028D02*
X168917287Y-129218457D01*
X168917287Y-129218457D02*
X168988715Y-129289885D01*
X168988715Y-129289885D02*
X169060144Y-129218457D01*
X169060144Y-129218457D02*
X168988715Y-129147028D01*
X168988715Y-129147028D02*
X168988715Y-129289885D01*
X170345859Y-130575600D02*
X170203001Y-130647028D01*
X170203001Y-130647028D02*
X169917287Y-130647028D01*
X169917287Y-130647028D02*
X169774430Y-130575600D01*
X169774430Y-130575600D02*
X169703001Y-130504171D01*
X169703001Y-130504171D02*
X169631573Y-130361314D01*
X169631573Y-130361314D02*
X169631573Y-129932742D01*
X169631573Y-129932742D02*
X169703001Y-129789885D01*
X169703001Y-129789885D02*
X169774430Y-129718457D01*
X169774430Y-129718457D02*
X169917287Y-129647028D01*
X169917287Y-129647028D02*
X170203001Y-129647028D01*
X170203001Y-129647028D02*
X170345859Y-129718457D01*
X170988715Y-130647028D02*
X170988715Y-129147028D01*
X171131573Y-130075600D02*
X171560144Y-130647028D01*
X171560144Y-129647028D02*
X170988715Y-130218457D01*
X172203001Y-129647028D02*
X172203001Y-130647028D01*
X172203001Y-129789885D02*
X172274430Y-129718457D01*
X172274430Y-129718457D02*
X172417287Y-129647028D01*
X172417287Y-129647028D02*
X172631573Y-129647028D01*
X172631573Y-129647028D02*
X172774430Y-129718457D01*
X172774430Y-129718457D02*
X172845859Y-129861314D01*
X172845859Y-129861314D02*
X172845859Y-130647028D01*
X174131573Y-130575600D02*
X173988716Y-130647028D01*
X173988716Y-130647028D02*
X173703002Y-130647028D01*
X173703002Y-130647028D02*
X173560144Y-130575600D01*
X173560144Y-130575600D02*
X173488716Y-130432742D01*
X173488716Y-130432742D02*
X173488716Y-129861314D01*
X173488716Y-129861314D02*
X173560144Y-129718457D01*
X173560144Y-129718457D02*
X173703002Y-129647028D01*
X173703002Y-129647028D02*
X173988716Y-129647028D01*
X173988716Y-129647028D02*
X174131573Y-129718457D01*
X174131573Y-129718457D02*
X174203002Y-129861314D01*
X174203002Y-129861314D02*
X174203002Y-130004171D01*
X174203002Y-130004171D02*
X173488716Y-130147028D01*
X174774430Y-130575600D02*
X174917287Y-130647028D01*
X174917287Y-130647028D02*
X175203001Y-130647028D01*
X175203001Y-130647028D02*
X175345858Y-130575600D01*
X175345858Y-130575600D02*
X175417287Y-130432742D01*
X175417287Y-130432742D02*
X175417287Y-130361314D01*
X175417287Y-130361314D02*
X175345858Y-130218457D01*
X175345858Y-130218457D02*
X175203001Y-130147028D01*
X175203001Y-130147028D02*
X174988716Y-130147028D01*
X174988716Y-130147028D02*
X174845858Y-130075600D01*
X174845858Y-130075600D02*
X174774430Y-129932742D01*
X174774430Y-129932742D02*
X174774430Y-129861314D01*
X174774430Y-129861314D02*
X174845858Y-129718457D01*
X174845858Y-129718457D02*
X174988716Y-129647028D01*
X174988716Y-129647028D02*
X175203001Y-129647028D01*
X175203001Y-129647028D02*
X175345858Y-129718457D01*
X175988716Y-130575600D02*
X176131573Y-130647028D01*
X176131573Y-130647028D02*
X176417287Y-130647028D01*
X176417287Y-130647028D02*
X176560144Y-130575600D01*
X176560144Y-130575600D02*
X176631573Y-130432742D01*
X176631573Y-130432742D02*
X176631573Y-130361314D01*
X176631573Y-130361314D02*
X176560144Y-130218457D01*
X176560144Y-130218457D02*
X176417287Y-130147028D01*
X176417287Y-130147028D02*
X176203002Y-130147028D01*
X176203002Y-130147028D02*
X176060144Y-130075600D01*
X176060144Y-130075600D02*
X175988716Y-129932742D01*
X175988716Y-129932742D02*
X175988716Y-129861314D01*
X175988716Y-129861314D02*
X176060144Y-129718457D01*
X176060144Y-129718457D02*
X176203002Y-129647028D01*
X176203002Y-129647028D02*
X176417287Y-129647028D01*
X176417287Y-129647028D02*
X176560144Y-129718457D01*
X177274430Y-130504171D02*
X177345859Y-130575600D01*
X177345859Y-130575600D02*
X177274430Y-130647028D01*
X177274430Y-130647028D02*
X177203002Y-130575600D01*
X177203002Y-130575600D02*
X177274430Y-130504171D01*
X177274430Y-130504171D02*
X177274430Y-130647028D01*
X177274430Y-129718457D02*
X177345859Y-129789885D01*
X177345859Y-129789885D02*
X177274430Y-129861314D01*
X177274430Y-129861314D02*
X177203002Y-129789885D01*
X177203002Y-129789885D02*
X177274430Y-129718457D01*
X177274430Y-129718457D02*
X177274430Y-129861314D01*
X124974435Y-137061028D02*
X125117292Y-137061028D01*
X125117292Y-137061028D02*
X125260149Y-137132457D01*
X125260149Y-137132457D02*
X125331578Y-137203885D01*
X125331578Y-137203885D02*
X125403006Y-137346742D01*
X125403006Y-137346742D02*
X125474435Y-137632457D01*
X125474435Y-137632457D02*
X125474435Y-137989600D01*
X125474435Y-137989600D02*
X125403006Y-138275314D01*
X125403006Y-138275314D02*
X125331578Y-138418171D01*
X125331578Y-138418171D02*
X125260149Y-138489600D01*
X125260149Y-138489600D02*
X125117292Y-138561028D01*
X125117292Y-138561028D02*
X124974435Y-138561028D01*
X124974435Y-138561028D02*
X124831578Y-138489600D01*
X124831578Y-138489600D02*
X124760149Y-138418171D01*
X124760149Y-138418171D02*
X124688720Y-138275314D01*
X124688720Y-138275314D02*
X124617292Y-137989600D01*
X124617292Y-137989600D02*
X124617292Y-137632457D01*
X124617292Y-137632457D02*
X124688720Y-137346742D01*
X124688720Y-137346742D02*
X124760149Y-137203885D01*
X124760149Y-137203885D02*
X124831578Y-137132457D01*
X124831578Y-137132457D02*
X124974435Y-137061028D01*
X126117291Y-138418171D02*
X126188720Y-138489600D01*
X126188720Y-138489600D02*
X126117291Y-138561028D01*
X126117291Y-138561028D02*
X126045863Y-138489600D01*
X126045863Y-138489600D02*
X126117291Y-138418171D01*
X126117291Y-138418171D02*
X126117291Y-138561028D01*
X126760149Y-137203885D02*
X126831577Y-137132457D01*
X126831577Y-137132457D02*
X126974435Y-137061028D01*
X126974435Y-137061028D02*
X127331577Y-137061028D01*
X127331577Y-137061028D02*
X127474435Y-137132457D01*
X127474435Y-137132457D02*
X127545863Y-137203885D01*
X127545863Y-137203885D02*
X127617292Y-137346742D01*
X127617292Y-137346742D02*
X127617292Y-137489600D01*
X127617292Y-137489600D02*
X127545863Y-137703885D01*
X127545863Y-137703885D02*
X126688720Y-138561028D01*
X126688720Y-138561028D02*
X127617292Y-138561028D01*
X128545863Y-137061028D02*
X128688720Y-137061028D01*
X128688720Y-137061028D02*
X128831577Y-137132457D01*
X128831577Y-137132457D02*
X128903006Y-137203885D01*
X128903006Y-137203885D02*
X128974434Y-137346742D01*
X128974434Y-137346742D02*
X129045863Y-137632457D01*
X129045863Y-137632457D02*
X129045863Y-137989600D01*
X129045863Y-137989600D02*
X128974434Y-138275314D01*
X128974434Y-138275314D02*
X128903006Y-138418171D01*
X128903006Y-138418171D02*
X128831577Y-138489600D01*
X128831577Y-138489600D02*
X128688720Y-138561028D01*
X128688720Y-138561028D02*
X128545863Y-138561028D01*
X128545863Y-138561028D02*
X128403006Y-138489600D01*
X128403006Y-138489600D02*
X128331577Y-138418171D01*
X128331577Y-138418171D02*
X128260148Y-138275314D01*
X128260148Y-138275314D02*
X128188720Y-137989600D01*
X128188720Y-137989600D02*
X128188720Y-137632457D01*
X128188720Y-137632457D02*
X128260148Y-137346742D01*
X128260148Y-137346742D02*
X128331577Y-137203885D01*
X128331577Y-137203885D02*
X128403006Y-137132457D01*
X128403006Y-137132457D02*
X128545863Y-137061028D01*
X129974434Y-137061028D02*
X130117291Y-137061028D01*
X130117291Y-137061028D02*
X130260148Y-137132457D01*
X130260148Y-137132457D02*
X130331577Y-137203885D01*
X130331577Y-137203885D02*
X130403005Y-137346742D01*
X130403005Y-137346742D02*
X130474434Y-137632457D01*
X130474434Y-137632457D02*
X130474434Y-137989600D01*
X130474434Y-137989600D02*
X130403005Y-138275314D01*
X130403005Y-138275314D02*
X130331577Y-138418171D01*
X130331577Y-138418171D02*
X130260148Y-138489600D01*
X130260148Y-138489600D02*
X130117291Y-138561028D01*
X130117291Y-138561028D02*
X129974434Y-138561028D01*
X129974434Y-138561028D02*
X129831577Y-138489600D01*
X129831577Y-138489600D02*
X129760148Y-138418171D01*
X129760148Y-138418171D02*
X129688719Y-138275314D01*
X129688719Y-138275314D02*
X129617291Y-137989600D01*
X129617291Y-137989600D02*
X129617291Y-137632457D01*
X129617291Y-137632457D02*
X129688719Y-137346742D01*
X129688719Y-137346742D02*
X129760148Y-137203885D01*
X129760148Y-137203885D02*
X129831577Y-137132457D01*
X129831577Y-137132457D02*
X129974434Y-137061028D01*
X131403005Y-137061028D02*
X131545862Y-137061028D01*
X131545862Y-137061028D02*
X131688719Y-137132457D01*
X131688719Y-137132457D02*
X131760148Y-137203885D01*
X131760148Y-137203885D02*
X131831576Y-137346742D01*
X131831576Y-137346742D02*
X131903005Y-137632457D01*
X131903005Y-137632457D02*
X131903005Y-137989600D01*
X131903005Y-137989600D02*
X131831576Y-138275314D01*
X131831576Y-138275314D02*
X131760148Y-138418171D01*
X131760148Y-138418171D02*
X131688719Y-138489600D01*
X131688719Y-138489600D02*
X131545862Y-138561028D01*
X131545862Y-138561028D02*
X131403005Y-138561028D01*
X131403005Y-138561028D02*
X131260148Y-138489600D01*
X131260148Y-138489600D02*
X131188719Y-138418171D01*
X131188719Y-138418171D02*
X131117290Y-138275314D01*
X131117290Y-138275314D02*
X131045862Y-137989600D01*
X131045862Y-137989600D02*
X131045862Y-137632457D01*
X131045862Y-137632457D02*
X131117290Y-137346742D01*
X131117290Y-137346742D02*
X131188719Y-137203885D01*
X131188719Y-137203885D02*
X131260148Y-137132457D01*
X131260148Y-137132457D02*
X131403005Y-137061028D01*
X133688718Y-138561028D02*
X133688718Y-137561028D01*
X133688718Y-137703885D02*
X133760147Y-137632457D01*
X133760147Y-137632457D02*
X133903004Y-137561028D01*
X133903004Y-137561028D02*
X134117290Y-137561028D01*
X134117290Y-137561028D02*
X134260147Y-137632457D01*
X134260147Y-137632457D02*
X134331576Y-137775314D01*
X134331576Y-137775314D02*
X134331576Y-138561028D01*
X134331576Y-137775314D02*
X134403004Y-137632457D01*
X134403004Y-137632457D02*
X134545861Y-137561028D01*
X134545861Y-137561028D02*
X134760147Y-137561028D01*
X134760147Y-137561028D02*
X134903004Y-137632457D01*
X134903004Y-137632457D02*
X134974433Y-137775314D01*
X134974433Y-137775314D02*
X134974433Y-138561028D01*
X135688718Y-138561028D02*
X135688718Y-137561028D01*
X135688718Y-137703885D02*
X135760147Y-137632457D01*
X135760147Y-137632457D02*
X135903004Y-137561028D01*
X135903004Y-137561028D02*
X136117290Y-137561028D01*
X136117290Y-137561028D02*
X136260147Y-137632457D01*
X136260147Y-137632457D02*
X136331576Y-137775314D01*
X136331576Y-137775314D02*
X136331576Y-138561028D01*
X136331576Y-137775314D02*
X136403004Y-137632457D01*
X136403004Y-137632457D02*
X136545861Y-137561028D01*
X136545861Y-137561028D02*
X136760147Y-137561028D01*
X136760147Y-137561028D02*
X136903004Y-137632457D01*
X136903004Y-137632457D02*
X136974433Y-137775314D01*
X136974433Y-137775314D02*
X136974433Y-138561028D01*
X139903004Y-136989600D02*
X138617290Y-138918171D01*
X141831576Y-137061028D02*
X141974433Y-137061028D01*
X141974433Y-137061028D02*
X142117290Y-137132457D01*
X142117290Y-137132457D02*
X142188719Y-137203885D01*
X142188719Y-137203885D02*
X142260147Y-137346742D01*
X142260147Y-137346742D02*
X142331576Y-137632457D01*
X142331576Y-137632457D02*
X142331576Y-137989600D01*
X142331576Y-137989600D02*
X142260147Y-138275314D01*
X142260147Y-138275314D02*
X142188719Y-138418171D01*
X142188719Y-138418171D02*
X142117290Y-138489600D01*
X142117290Y-138489600D02*
X141974433Y-138561028D01*
X141974433Y-138561028D02*
X141831576Y-138561028D01*
X141831576Y-138561028D02*
X141688719Y-138489600D01*
X141688719Y-138489600D02*
X141617290Y-138418171D01*
X141617290Y-138418171D02*
X141545861Y-138275314D01*
X141545861Y-138275314D02*
X141474433Y-137989600D01*
X141474433Y-137989600D02*
X141474433Y-137632457D01*
X141474433Y-137632457D02*
X141545861Y-137346742D01*
X141545861Y-137346742D02*
X141617290Y-137203885D01*
X141617290Y-137203885D02*
X141688719Y-137132457D01*
X141688719Y-137132457D02*
X141831576Y-137061028D01*
X142974432Y-138418171D02*
X143045861Y-138489600D01*
X143045861Y-138489600D02*
X142974432Y-138561028D01*
X142974432Y-138561028D02*
X142903004Y-138489600D01*
X142903004Y-138489600D02*
X142974432Y-138418171D01*
X142974432Y-138418171D02*
X142974432Y-138561028D01*
X143617290Y-137203885D02*
X143688718Y-137132457D01*
X143688718Y-137132457D02*
X143831576Y-137061028D01*
X143831576Y-137061028D02*
X144188718Y-137061028D01*
X144188718Y-137061028D02*
X144331576Y-137132457D01*
X144331576Y-137132457D02*
X144403004Y-137203885D01*
X144403004Y-137203885D02*
X144474433Y-137346742D01*
X144474433Y-137346742D02*
X144474433Y-137489600D01*
X144474433Y-137489600D02*
X144403004Y-137703885D01*
X144403004Y-137703885D02*
X143545861Y-138561028D01*
X143545861Y-138561028D02*
X144474433Y-138561028D01*
X145403004Y-137061028D02*
X145545861Y-137061028D01*
X145545861Y-137061028D02*
X145688718Y-137132457D01*
X145688718Y-137132457D02*
X145760147Y-137203885D01*
X145760147Y-137203885D02*
X145831575Y-137346742D01*
X145831575Y-137346742D02*
X145903004Y-137632457D01*
X145903004Y-137632457D02*
X145903004Y-137989600D01*
X145903004Y-137989600D02*
X145831575Y-138275314D01*
X145831575Y-138275314D02*
X145760147Y-138418171D01*
X145760147Y-138418171D02*
X145688718Y-138489600D01*
X145688718Y-138489600D02*
X145545861Y-138561028D01*
X145545861Y-138561028D02*
X145403004Y-138561028D01*
X145403004Y-138561028D02*
X145260147Y-138489600D01*
X145260147Y-138489600D02*
X145188718Y-138418171D01*
X145188718Y-138418171D02*
X145117289Y-138275314D01*
X145117289Y-138275314D02*
X145045861Y-137989600D01*
X145045861Y-137989600D02*
X145045861Y-137632457D01*
X145045861Y-137632457D02*
X145117289Y-137346742D01*
X145117289Y-137346742D02*
X145188718Y-137203885D01*
X145188718Y-137203885D02*
X145260147Y-137132457D01*
X145260147Y-137132457D02*
X145403004Y-137061028D01*
X146831575Y-137061028D02*
X146974432Y-137061028D01*
X146974432Y-137061028D02*
X147117289Y-137132457D01*
X147117289Y-137132457D02*
X147188718Y-137203885D01*
X147188718Y-137203885D02*
X147260146Y-137346742D01*
X147260146Y-137346742D02*
X147331575Y-137632457D01*
X147331575Y-137632457D02*
X147331575Y-137989600D01*
X147331575Y-137989600D02*
X147260146Y-138275314D01*
X147260146Y-138275314D02*
X147188718Y-138418171D01*
X147188718Y-138418171D02*
X147117289Y-138489600D01*
X147117289Y-138489600D02*
X146974432Y-138561028D01*
X146974432Y-138561028D02*
X146831575Y-138561028D01*
X146831575Y-138561028D02*
X146688718Y-138489600D01*
X146688718Y-138489600D02*
X146617289Y-138418171D01*
X146617289Y-138418171D02*
X146545860Y-138275314D01*
X146545860Y-138275314D02*
X146474432Y-137989600D01*
X146474432Y-137989600D02*
X146474432Y-137632457D01*
X146474432Y-137632457D02*
X146545860Y-137346742D01*
X146545860Y-137346742D02*
X146617289Y-137203885D01*
X146617289Y-137203885D02*
X146688718Y-137132457D01*
X146688718Y-137132457D02*
X146831575Y-137061028D01*
X148260146Y-137061028D02*
X148403003Y-137061028D01*
X148403003Y-137061028D02*
X148545860Y-137132457D01*
X148545860Y-137132457D02*
X148617289Y-137203885D01*
X148617289Y-137203885D02*
X148688717Y-137346742D01*
X148688717Y-137346742D02*
X148760146Y-137632457D01*
X148760146Y-137632457D02*
X148760146Y-137989600D01*
X148760146Y-137989600D02*
X148688717Y-138275314D01*
X148688717Y-138275314D02*
X148617289Y-138418171D01*
X148617289Y-138418171D02*
X148545860Y-138489600D01*
X148545860Y-138489600D02*
X148403003Y-138561028D01*
X148403003Y-138561028D02*
X148260146Y-138561028D01*
X148260146Y-138561028D02*
X148117289Y-138489600D01*
X148117289Y-138489600D02*
X148045860Y-138418171D01*
X148045860Y-138418171D02*
X147974431Y-138275314D01*
X147974431Y-138275314D02*
X147903003Y-137989600D01*
X147903003Y-137989600D02*
X147903003Y-137632457D01*
X147903003Y-137632457D02*
X147974431Y-137346742D01*
X147974431Y-137346742D02*
X148045860Y-137203885D01*
X148045860Y-137203885D02*
X148117289Y-137132457D01*
X148117289Y-137132457D02*
X148260146Y-137061028D01*
X150545859Y-138561028D02*
X150545859Y-137561028D01*
X150545859Y-137703885D02*
X150617288Y-137632457D01*
X150617288Y-137632457D02*
X150760145Y-137561028D01*
X150760145Y-137561028D02*
X150974431Y-137561028D01*
X150974431Y-137561028D02*
X151117288Y-137632457D01*
X151117288Y-137632457D02*
X151188717Y-137775314D01*
X151188717Y-137775314D02*
X151188717Y-138561028D01*
X151188717Y-137775314D02*
X151260145Y-137632457D01*
X151260145Y-137632457D02*
X151403002Y-137561028D01*
X151403002Y-137561028D02*
X151617288Y-137561028D01*
X151617288Y-137561028D02*
X151760145Y-137632457D01*
X151760145Y-137632457D02*
X151831574Y-137775314D01*
X151831574Y-137775314D02*
X151831574Y-138561028D01*
X152545859Y-138561028D02*
X152545859Y-137561028D01*
X152545859Y-137703885D02*
X152617288Y-137632457D01*
X152617288Y-137632457D02*
X152760145Y-137561028D01*
X152760145Y-137561028D02*
X152974431Y-137561028D01*
X152974431Y-137561028D02*
X153117288Y-137632457D01*
X153117288Y-137632457D02*
X153188717Y-137775314D01*
X153188717Y-137775314D02*
X153188717Y-138561028D01*
X153188717Y-137775314D02*
X153260145Y-137632457D01*
X153260145Y-137632457D02*
X153403002Y-137561028D01*
X153403002Y-137561028D02*
X153617288Y-137561028D01*
X153617288Y-137561028D02*
X153760145Y-137632457D01*
X153760145Y-137632457D02*
X153831574Y-137775314D01*
X153831574Y-137775314D02*
X153831574Y-138561028D01*
X183788715Y-146475028D02*
X183788715Y-144975028D01*
X183788715Y-144975028D02*
X184645858Y-146475028D01*
X184645858Y-146475028D02*
X184645858Y-144975028D01*
X185574430Y-146475028D02*
X185431573Y-146403600D01*
X185431573Y-146403600D02*
X185360144Y-146332171D01*
X185360144Y-146332171D02*
X185288716Y-146189314D01*
X185288716Y-146189314D02*
X185288716Y-145760742D01*
X185288716Y-145760742D02*
X185360144Y-145617885D01*
X185360144Y-145617885D02*
X185431573Y-145546457D01*
X185431573Y-145546457D02*
X185574430Y-145475028D01*
X185574430Y-145475028D02*
X185788716Y-145475028D01*
X185788716Y-145475028D02*
X185931573Y-145546457D01*
X185931573Y-145546457D02*
X186003002Y-145617885D01*
X186003002Y-145617885D02*
X186074430Y-145760742D01*
X186074430Y-145760742D02*
X186074430Y-146189314D01*
X186074430Y-146189314D02*
X186003002Y-146332171D01*
X186003002Y-146332171D02*
X185931573Y-146403600D01*
X185931573Y-146403600D02*
X185788716Y-146475028D01*
X185788716Y-146475028D02*
X185574430Y-146475028D01*
X183788715Y-142518028D02*
X183788715Y-141018028D01*
X183788715Y-141018028D02*
X184645858Y-142518028D01*
X184645858Y-142518028D02*
X184645858Y-141018028D01*
X185574430Y-142518028D02*
X185431573Y-142446600D01*
X185431573Y-142446600D02*
X185360144Y-142375171D01*
X185360144Y-142375171D02*
X185288716Y-142232314D01*
X185288716Y-142232314D02*
X185288716Y-141803742D01*
X185288716Y-141803742D02*
X185360144Y-141660885D01*
X185360144Y-141660885D02*
X185431573Y-141589457D01*
X185431573Y-141589457D02*
X185574430Y-141518028D01*
X185574430Y-141518028D02*
X185788716Y-141518028D01*
X185788716Y-141518028D02*
X185931573Y-141589457D01*
X185931573Y-141589457D02*
X186003002Y-141660885D01*
X186003002Y-141660885D02*
X186074430Y-141803742D01*
X186074430Y-141803742D02*
X186074430Y-142232314D01*
X186074430Y-142232314D02*
X186003002Y-142375171D01*
X186003002Y-142375171D02*
X185931573Y-142446600D01*
X185931573Y-142446600D02*
X185788716Y-142518028D01*
X185788716Y-142518028D02*
X185574430Y-142518028D01*
X92031577Y-149646314D02*
X92531577Y-149646314D01*
X92745863Y-150432028D02*
X92031577Y-150432028D01*
X92031577Y-150432028D02*
X92031577Y-148932028D01*
X92031577Y-148932028D02*
X92745863Y-148932028D01*
X94031578Y-150432028D02*
X94031578Y-148932028D01*
X94031578Y-150360600D02*
X93888720Y-150432028D01*
X93888720Y-150432028D02*
X93603006Y-150432028D01*
X93603006Y-150432028D02*
X93460149Y-150360600D01*
X93460149Y-150360600D02*
X93388720Y-150289171D01*
X93388720Y-150289171D02*
X93317292Y-150146314D01*
X93317292Y-150146314D02*
X93317292Y-149717742D01*
X93317292Y-149717742D02*
X93388720Y-149574885D01*
X93388720Y-149574885D02*
X93460149Y-149503457D01*
X93460149Y-149503457D02*
X93603006Y-149432028D01*
X93603006Y-149432028D02*
X93888720Y-149432028D01*
X93888720Y-149432028D02*
X94031578Y-149503457D01*
X95388721Y-149432028D02*
X95388721Y-150646314D01*
X95388721Y-150646314D02*
X95317292Y-150789171D01*
X95317292Y-150789171D02*
X95245863Y-150860600D01*
X95245863Y-150860600D02*
X95103006Y-150932028D01*
X95103006Y-150932028D02*
X94888721Y-150932028D01*
X94888721Y-150932028D02*
X94745863Y-150860600D01*
X95388721Y-150360600D02*
X95245863Y-150432028D01*
X95245863Y-150432028D02*
X94960149Y-150432028D01*
X94960149Y-150432028D02*
X94817292Y-150360600D01*
X94817292Y-150360600D02*
X94745863Y-150289171D01*
X94745863Y-150289171D02*
X94674435Y-150146314D01*
X94674435Y-150146314D02*
X94674435Y-149717742D01*
X94674435Y-149717742D02*
X94745863Y-149574885D01*
X94745863Y-149574885D02*
X94817292Y-149503457D01*
X94817292Y-149503457D02*
X94960149Y-149432028D01*
X94960149Y-149432028D02*
X95245863Y-149432028D01*
X95245863Y-149432028D02*
X95388721Y-149503457D01*
X96674435Y-150360600D02*
X96531578Y-150432028D01*
X96531578Y-150432028D02*
X96245864Y-150432028D01*
X96245864Y-150432028D02*
X96103006Y-150360600D01*
X96103006Y-150360600D02*
X96031578Y-150217742D01*
X96031578Y-150217742D02*
X96031578Y-149646314D01*
X96031578Y-149646314D02*
X96103006Y-149503457D01*
X96103006Y-149503457D02*
X96245864Y-149432028D01*
X96245864Y-149432028D02*
X96531578Y-149432028D01*
X96531578Y-149432028D02*
X96674435Y-149503457D01*
X96674435Y-149503457D02*
X96745864Y-149646314D01*
X96745864Y-149646314D02*
X96745864Y-149789171D01*
X96745864Y-149789171D02*
X96031578Y-149932028D01*
X99174435Y-150360600D02*
X99031577Y-150432028D01*
X99031577Y-150432028D02*
X98745863Y-150432028D01*
X98745863Y-150432028D02*
X98603006Y-150360600D01*
X98603006Y-150360600D02*
X98531577Y-150289171D01*
X98531577Y-150289171D02*
X98460149Y-150146314D01*
X98460149Y-150146314D02*
X98460149Y-149717742D01*
X98460149Y-149717742D02*
X98531577Y-149574885D01*
X98531577Y-149574885D02*
X98603006Y-149503457D01*
X98603006Y-149503457D02*
X98745863Y-149432028D01*
X98745863Y-149432028D02*
X99031577Y-149432028D01*
X99031577Y-149432028D02*
X99174435Y-149503457D01*
X100460149Y-150432028D02*
X100460149Y-149646314D01*
X100460149Y-149646314D02*
X100388720Y-149503457D01*
X100388720Y-149503457D02*
X100245863Y-149432028D01*
X100245863Y-149432028D02*
X99960149Y-149432028D01*
X99960149Y-149432028D02*
X99817291Y-149503457D01*
X100460149Y-150360600D02*
X100317291Y-150432028D01*
X100317291Y-150432028D02*
X99960149Y-150432028D01*
X99960149Y-150432028D02*
X99817291Y-150360600D01*
X99817291Y-150360600D02*
X99745863Y-150217742D01*
X99745863Y-150217742D02*
X99745863Y-150074885D01*
X99745863Y-150074885D02*
X99817291Y-149932028D01*
X99817291Y-149932028D02*
X99960149Y-149860600D01*
X99960149Y-149860600D02*
X100317291Y-149860600D01*
X100317291Y-149860600D02*
X100460149Y-149789171D01*
X101174434Y-150432028D02*
X101174434Y-149432028D01*
X101174434Y-149717742D02*
X101245863Y-149574885D01*
X101245863Y-149574885D02*
X101317292Y-149503457D01*
X101317292Y-149503457D02*
X101460149Y-149432028D01*
X101460149Y-149432028D02*
X101603006Y-149432028D01*
X102745863Y-150432028D02*
X102745863Y-148932028D01*
X102745863Y-150360600D02*
X102603005Y-150432028D01*
X102603005Y-150432028D02*
X102317291Y-150432028D01*
X102317291Y-150432028D02*
X102174434Y-150360600D01*
X102174434Y-150360600D02*
X102103005Y-150289171D01*
X102103005Y-150289171D02*
X102031577Y-150146314D01*
X102031577Y-150146314D02*
X102031577Y-149717742D01*
X102031577Y-149717742D02*
X102103005Y-149574885D01*
X102103005Y-149574885D02*
X102174434Y-149503457D01*
X102174434Y-149503457D02*
X102317291Y-149432028D01*
X102317291Y-149432028D02*
X102603005Y-149432028D01*
X102603005Y-149432028D02*
X102745863Y-149503457D01*
X105245863Y-150360600D02*
X105103005Y-150432028D01*
X105103005Y-150432028D02*
X104817291Y-150432028D01*
X104817291Y-150432028D02*
X104674434Y-150360600D01*
X104674434Y-150360600D02*
X104603005Y-150289171D01*
X104603005Y-150289171D02*
X104531577Y-150146314D01*
X104531577Y-150146314D02*
X104531577Y-149717742D01*
X104531577Y-149717742D02*
X104603005Y-149574885D01*
X104603005Y-149574885D02*
X104674434Y-149503457D01*
X104674434Y-149503457D02*
X104817291Y-149432028D01*
X104817291Y-149432028D02*
X105103005Y-149432028D01*
X105103005Y-149432028D02*
X105245863Y-149503457D01*
X106103005Y-150432028D02*
X105960148Y-150360600D01*
X105960148Y-150360600D02*
X105888719Y-150289171D01*
X105888719Y-150289171D02*
X105817291Y-150146314D01*
X105817291Y-150146314D02*
X105817291Y-149717742D01*
X105817291Y-149717742D02*
X105888719Y-149574885D01*
X105888719Y-149574885D02*
X105960148Y-149503457D01*
X105960148Y-149503457D02*
X106103005Y-149432028D01*
X106103005Y-149432028D02*
X106317291Y-149432028D01*
X106317291Y-149432028D02*
X106460148Y-149503457D01*
X106460148Y-149503457D02*
X106531577Y-149574885D01*
X106531577Y-149574885D02*
X106603005Y-149717742D01*
X106603005Y-149717742D02*
X106603005Y-150146314D01*
X106603005Y-150146314D02*
X106531577Y-150289171D01*
X106531577Y-150289171D02*
X106460148Y-150360600D01*
X106460148Y-150360600D02*
X106317291Y-150432028D01*
X106317291Y-150432028D02*
X106103005Y-150432028D01*
X107245862Y-149432028D02*
X107245862Y-150432028D01*
X107245862Y-149574885D02*
X107317291Y-149503457D01*
X107317291Y-149503457D02*
X107460148Y-149432028D01*
X107460148Y-149432028D02*
X107674434Y-149432028D01*
X107674434Y-149432028D02*
X107817291Y-149503457D01*
X107817291Y-149503457D02*
X107888720Y-149646314D01*
X107888720Y-149646314D02*
X107888720Y-150432028D01*
X108603005Y-149432028D02*
X108603005Y-150432028D01*
X108603005Y-149574885D02*
X108674434Y-149503457D01*
X108674434Y-149503457D02*
X108817291Y-149432028D01*
X108817291Y-149432028D02*
X109031577Y-149432028D01*
X109031577Y-149432028D02*
X109174434Y-149503457D01*
X109174434Y-149503457D02*
X109245863Y-149646314D01*
X109245863Y-149646314D02*
X109245863Y-150432028D01*
X110531577Y-150360600D02*
X110388720Y-150432028D01*
X110388720Y-150432028D02*
X110103006Y-150432028D01*
X110103006Y-150432028D02*
X109960148Y-150360600D01*
X109960148Y-150360600D02*
X109888720Y-150217742D01*
X109888720Y-150217742D02*
X109888720Y-149646314D01*
X109888720Y-149646314D02*
X109960148Y-149503457D01*
X109960148Y-149503457D02*
X110103006Y-149432028D01*
X110103006Y-149432028D02*
X110388720Y-149432028D01*
X110388720Y-149432028D02*
X110531577Y-149503457D01*
X110531577Y-149503457D02*
X110603006Y-149646314D01*
X110603006Y-149646314D02*
X110603006Y-149789171D01*
X110603006Y-149789171D02*
X109888720Y-149932028D01*
X111888720Y-150360600D02*
X111745862Y-150432028D01*
X111745862Y-150432028D02*
X111460148Y-150432028D01*
X111460148Y-150432028D02*
X111317291Y-150360600D01*
X111317291Y-150360600D02*
X111245862Y-150289171D01*
X111245862Y-150289171D02*
X111174434Y-150146314D01*
X111174434Y-150146314D02*
X111174434Y-149717742D01*
X111174434Y-149717742D02*
X111245862Y-149574885D01*
X111245862Y-149574885D02*
X111317291Y-149503457D01*
X111317291Y-149503457D02*
X111460148Y-149432028D01*
X111460148Y-149432028D02*
X111745862Y-149432028D01*
X111745862Y-149432028D02*
X111888720Y-149503457D01*
X112317291Y-149432028D02*
X112888719Y-149432028D01*
X112531576Y-148932028D02*
X112531576Y-150217742D01*
X112531576Y-150217742D02*
X112603005Y-150360600D01*
X112603005Y-150360600D02*
X112745862Y-150432028D01*
X112745862Y-150432028D02*
X112888719Y-150432028D01*
X113603005Y-150432028D02*
X113460148Y-150360600D01*
X113460148Y-150360600D02*
X113388719Y-150289171D01*
X113388719Y-150289171D02*
X113317291Y-150146314D01*
X113317291Y-150146314D02*
X113317291Y-149717742D01*
X113317291Y-149717742D02*
X113388719Y-149574885D01*
X113388719Y-149574885D02*
X113460148Y-149503457D01*
X113460148Y-149503457D02*
X113603005Y-149432028D01*
X113603005Y-149432028D02*
X113817291Y-149432028D01*
X113817291Y-149432028D02*
X113960148Y-149503457D01*
X113960148Y-149503457D02*
X114031577Y-149574885D01*
X114031577Y-149574885D02*
X114103005Y-149717742D01*
X114103005Y-149717742D02*
X114103005Y-150146314D01*
X114103005Y-150146314D02*
X114031577Y-150289171D01*
X114031577Y-150289171D02*
X113960148Y-150360600D01*
X113960148Y-150360600D02*
X113817291Y-150432028D01*
X113817291Y-150432028D02*
X113603005Y-150432028D01*
X114745862Y-150432028D02*
X114745862Y-149432028D01*
X114745862Y-149717742D02*
X114817291Y-149574885D01*
X114817291Y-149574885D02*
X114888720Y-149503457D01*
X114888720Y-149503457D02*
X115031577Y-149432028D01*
X115031577Y-149432028D02*
X115174434Y-149432028D01*
X115603005Y-150360600D02*
X115745862Y-150432028D01*
X115745862Y-150432028D02*
X116031576Y-150432028D01*
X116031576Y-150432028D02*
X116174433Y-150360600D01*
X116174433Y-150360600D02*
X116245862Y-150217742D01*
X116245862Y-150217742D02*
X116245862Y-150146314D01*
X116245862Y-150146314D02*
X116174433Y-150003457D01*
X116174433Y-150003457D02*
X116031576Y-149932028D01*
X116031576Y-149932028D02*
X115817291Y-149932028D01*
X115817291Y-149932028D02*
X115674433Y-149860600D01*
X115674433Y-149860600D02*
X115603005Y-149717742D01*
X115603005Y-149717742D02*
X115603005Y-149646314D01*
X115603005Y-149646314D02*
X115674433Y-149503457D01*
X115674433Y-149503457D02*
X115817291Y-149432028D01*
X115817291Y-149432028D02*
X116031576Y-149432028D01*
X116031576Y-149432028D02*
X116174433Y-149503457D01*
X116888719Y-150289171D02*
X116960148Y-150360600D01*
X116960148Y-150360600D02*
X116888719Y-150432028D01*
X116888719Y-150432028D02*
X116817291Y-150360600D01*
X116817291Y-150360600D02*
X116888719Y-150289171D01*
X116888719Y-150289171D02*
X116888719Y-150432028D01*
X116888719Y-149503457D02*
X116960148Y-149574885D01*
X116960148Y-149574885D02*
X116888719Y-149646314D01*
X116888719Y-149646314D02*
X116817291Y-149574885D01*
X116817291Y-149574885D02*
X116888719Y-149503457D01*
X116888719Y-149503457D02*
X116888719Y-149646314D01*
X158845858Y-138561028D02*
X158845858Y-137061028D01*
X158845858Y-137061028D02*
X159345858Y-138132457D01*
X159345858Y-138132457D02*
X159845858Y-137061028D01*
X159845858Y-137061028D02*
X159845858Y-138561028D01*
X160560144Y-138561028D02*
X160560144Y-137561028D01*
X160560144Y-137061028D02*
X160488716Y-137132457D01*
X160488716Y-137132457D02*
X160560144Y-137203885D01*
X160560144Y-137203885D02*
X160631573Y-137132457D01*
X160631573Y-137132457D02*
X160560144Y-137061028D01*
X160560144Y-137061028D02*
X160560144Y-137203885D01*
X161274430Y-137561028D02*
X161274430Y-138561028D01*
X161274430Y-137703885D02*
X161345859Y-137632457D01*
X161345859Y-137632457D02*
X161488716Y-137561028D01*
X161488716Y-137561028D02*
X161703002Y-137561028D01*
X161703002Y-137561028D02*
X161845859Y-137632457D01*
X161845859Y-137632457D02*
X161917288Y-137775314D01*
X161917288Y-137775314D02*
X161917288Y-138561028D01*
X163774430Y-138561028D02*
X163774430Y-137061028D01*
X164417288Y-138561028D02*
X164417288Y-137775314D01*
X164417288Y-137775314D02*
X164345859Y-137632457D01*
X164345859Y-137632457D02*
X164203002Y-137561028D01*
X164203002Y-137561028D02*
X163988716Y-137561028D01*
X163988716Y-137561028D02*
X163845859Y-137632457D01*
X163845859Y-137632457D02*
X163774430Y-137703885D01*
X165345859Y-138561028D02*
X165203002Y-138489600D01*
X165203002Y-138489600D02*
X165131573Y-138418171D01*
X165131573Y-138418171D02*
X165060145Y-138275314D01*
X165060145Y-138275314D02*
X165060145Y-137846742D01*
X165060145Y-137846742D02*
X165131573Y-137703885D01*
X165131573Y-137703885D02*
X165203002Y-137632457D01*
X165203002Y-137632457D02*
X165345859Y-137561028D01*
X165345859Y-137561028D02*
X165560145Y-137561028D01*
X165560145Y-137561028D02*
X165703002Y-137632457D01*
X165703002Y-137632457D02*
X165774431Y-137703885D01*
X165774431Y-137703885D02*
X165845859Y-137846742D01*
X165845859Y-137846742D02*
X165845859Y-138275314D01*
X165845859Y-138275314D02*
X165774431Y-138418171D01*
X165774431Y-138418171D02*
X165703002Y-138489600D01*
X165703002Y-138489600D02*
X165560145Y-138561028D01*
X165560145Y-138561028D02*
X165345859Y-138561028D01*
X166703002Y-138561028D02*
X166560145Y-138489600D01*
X166560145Y-138489600D02*
X166488716Y-138346742D01*
X166488716Y-138346742D02*
X166488716Y-137061028D01*
X167845859Y-138489600D02*
X167703002Y-138561028D01*
X167703002Y-138561028D02*
X167417288Y-138561028D01*
X167417288Y-138561028D02*
X167274430Y-138489600D01*
X167274430Y-138489600D02*
X167203002Y-138346742D01*
X167203002Y-138346742D02*
X167203002Y-137775314D01*
X167203002Y-137775314D02*
X167274430Y-137632457D01*
X167274430Y-137632457D02*
X167417288Y-137561028D01*
X167417288Y-137561028D02*
X167703002Y-137561028D01*
X167703002Y-137561028D02*
X167845859Y-137632457D01*
X167845859Y-137632457D02*
X167917288Y-137775314D01*
X167917288Y-137775314D02*
X167917288Y-137918171D01*
X167917288Y-137918171D02*
X167203002Y-138061028D01*
X170345859Y-138561028D02*
X170345859Y-137061028D01*
X170345859Y-138489600D02*
X170203001Y-138561028D01*
X170203001Y-138561028D02*
X169917287Y-138561028D01*
X169917287Y-138561028D02*
X169774430Y-138489600D01*
X169774430Y-138489600D02*
X169703001Y-138418171D01*
X169703001Y-138418171D02*
X169631573Y-138275314D01*
X169631573Y-138275314D02*
X169631573Y-137846742D01*
X169631573Y-137846742D02*
X169703001Y-137703885D01*
X169703001Y-137703885D02*
X169774430Y-137632457D01*
X169774430Y-137632457D02*
X169917287Y-137561028D01*
X169917287Y-137561028D02*
X170203001Y-137561028D01*
X170203001Y-137561028D02*
X170345859Y-137632457D01*
X171060144Y-138561028D02*
X171060144Y-137561028D01*
X171060144Y-137061028D02*
X170988716Y-137132457D01*
X170988716Y-137132457D02*
X171060144Y-137203885D01*
X171060144Y-137203885D02*
X171131573Y-137132457D01*
X171131573Y-137132457D02*
X171060144Y-137061028D01*
X171060144Y-137061028D02*
X171060144Y-137203885D01*
X172417288Y-138561028D02*
X172417288Y-137775314D01*
X172417288Y-137775314D02*
X172345859Y-137632457D01*
X172345859Y-137632457D02*
X172203002Y-137561028D01*
X172203002Y-137561028D02*
X171917288Y-137561028D01*
X171917288Y-137561028D02*
X171774430Y-137632457D01*
X172417288Y-138489600D02*
X172274430Y-138561028D01*
X172274430Y-138561028D02*
X171917288Y-138561028D01*
X171917288Y-138561028D02*
X171774430Y-138489600D01*
X171774430Y-138489600D02*
X171703002Y-138346742D01*
X171703002Y-138346742D02*
X171703002Y-138203885D01*
X171703002Y-138203885D02*
X171774430Y-138061028D01*
X171774430Y-138061028D02*
X171917288Y-137989600D01*
X171917288Y-137989600D02*
X172274430Y-137989600D01*
X172274430Y-137989600D02*
X172417288Y-137918171D01*
X173131573Y-138561028D02*
X173131573Y-137561028D01*
X173131573Y-137703885D02*
X173203002Y-137632457D01*
X173203002Y-137632457D02*
X173345859Y-137561028D01*
X173345859Y-137561028D02*
X173560145Y-137561028D01*
X173560145Y-137561028D02*
X173703002Y-137632457D01*
X173703002Y-137632457D02*
X173774431Y-137775314D01*
X173774431Y-137775314D02*
X173774431Y-138561028D01*
X173774431Y-137775314D02*
X173845859Y-137632457D01*
X173845859Y-137632457D02*
X173988716Y-137561028D01*
X173988716Y-137561028D02*
X174203002Y-137561028D01*
X174203002Y-137561028D02*
X174345859Y-137632457D01*
X174345859Y-137632457D02*
X174417288Y-137775314D01*
X174417288Y-137775314D02*
X174417288Y-138561028D01*
X175703002Y-138489600D02*
X175560145Y-138561028D01*
X175560145Y-138561028D02*
X175274431Y-138561028D01*
X175274431Y-138561028D02*
X175131573Y-138489600D01*
X175131573Y-138489600D02*
X175060145Y-138346742D01*
X175060145Y-138346742D02*
X175060145Y-137775314D01*
X175060145Y-137775314D02*
X175131573Y-137632457D01*
X175131573Y-137632457D02*
X175274431Y-137561028D01*
X175274431Y-137561028D02*
X175560145Y-137561028D01*
X175560145Y-137561028D02*
X175703002Y-137632457D01*
X175703002Y-137632457D02*
X175774431Y-137775314D01*
X175774431Y-137775314D02*
X175774431Y-137918171D01*
X175774431Y-137918171D02*
X175060145Y-138061028D01*
X176203002Y-137561028D02*
X176774430Y-137561028D01*
X176417287Y-137061028D02*
X176417287Y-138346742D01*
X176417287Y-138346742D02*
X176488716Y-138489600D01*
X176488716Y-138489600D02*
X176631573Y-138561028D01*
X176631573Y-138561028D02*
X176774430Y-138561028D01*
X177845859Y-138489600D02*
X177703002Y-138561028D01*
X177703002Y-138561028D02*
X177417288Y-138561028D01*
X177417288Y-138561028D02*
X177274430Y-138489600D01*
X177274430Y-138489600D02*
X177203002Y-138346742D01*
X177203002Y-138346742D02*
X177203002Y-137775314D01*
X177203002Y-137775314D02*
X177274430Y-137632457D01*
X177274430Y-137632457D02*
X177417288Y-137561028D01*
X177417288Y-137561028D02*
X177703002Y-137561028D01*
X177703002Y-137561028D02*
X177845859Y-137632457D01*
X177845859Y-137632457D02*
X177917288Y-137775314D01*
X177917288Y-137775314D02*
X177917288Y-137918171D01*
X177917288Y-137918171D02*
X177203002Y-138061028D01*
X178560144Y-138561028D02*
X178560144Y-137561028D01*
X178560144Y-137846742D02*
X178631573Y-137703885D01*
X178631573Y-137703885D02*
X178703002Y-137632457D01*
X178703002Y-137632457D02*
X178845859Y-137561028D01*
X178845859Y-137561028D02*
X178988716Y-137561028D01*
X179488715Y-138418171D02*
X179560144Y-138489600D01*
X179560144Y-138489600D02*
X179488715Y-138561028D01*
X179488715Y-138561028D02*
X179417287Y-138489600D01*
X179417287Y-138489600D02*
X179488715Y-138418171D01*
X179488715Y-138418171D02*
X179488715Y-138561028D01*
X179488715Y-137632457D02*
X179560144Y-137703885D01*
X179560144Y-137703885D02*
X179488715Y-137775314D01*
X179488715Y-137775314D02*
X179417287Y-137703885D01*
X179417287Y-137703885D02*
X179488715Y-137632457D01*
X179488715Y-137632457D02*
X179488715Y-137775314D01*
M02*
