%TF.GenerationSoftware,KiCad,Pcbnew,7.0.8*%
%TF.CreationDate,2024-04-19T17:39:30-04:00*%
%TF.ProjectId,rcl57_mcu,72636c35-375f-46d6-9375-2e6b69636164,rev?*%
%TF.SameCoordinates,Original*%
%TF.FileFunction,Legend,Top*%
%TF.FilePolarity,Positive*%
%FSLAX46Y46*%
G04 Gerber Fmt 4.6, Leading zero omitted, Abs format (unit mm)*
G04 Created by KiCad (PCBNEW 7.0.8) date 2024-04-19 17:39:30*
%MOMM*%
%LPD*%
G01*
G04 APERTURE LIST*
G04 Aperture macros list*
%AMRoundRect*
0 Rectangle with rounded corners*
0 $1 Rounding radius*
0 $2 $3 $4 $5 $6 $7 $8 $9 X,Y pos of 4 corners*
0 Add a 4 corners polygon primitive as box body*
4,1,4,$2,$3,$4,$5,$6,$7,$8,$9,$2,$3,0*
0 Add four circle primitives for the rounded corners*
1,1,$1+$1,$2,$3*
1,1,$1+$1,$4,$5*
1,1,$1+$1,$6,$7*
1,1,$1+$1,$8,$9*
0 Add four rect primitives between the rounded corners*
20,1,$1+$1,$2,$3,$4,$5,0*
20,1,$1+$1,$4,$5,$6,$7,0*
20,1,$1+$1,$6,$7,$8,$9,0*
20,1,$1+$1,$8,$9,$2,$3,0*%
%AMRotRect*
0 Rectangle, with rotation*
0 The origin of the aperture is its center*
0 $1 length*
0 $2 width*
0 $3 Rotation angle, in degrees counterclockwise*
0 Add horizontal line*
21,1,$1,$2,0,0,$3*%
G04 Aperture macros list end*
%ADD10C,0.375000*%
%ADD11C,0.150000*%
%ADD12C,0.250000*%
%ADD13C,0.300000*%
%ADD14C,0.280000*%
%ADD15C,0.120000*%
%ADD16RoundRect,0.062500X0.380070X-0.291682X-0.291682X0.380070X-0.380070X0.291682X0.291682X-0.380070X0*%
%ADD17RoundRect,0.062500X0.380070X0.291682X0.291682X0.380070X-0.380070X-0.291682X-0.291682X-0.380070X0*%
%ADD18RotRect,4.100000X4.100000X135.000000*%
%ADD19RoundRect,0.150000X-0.512500X-0.150000X0.512500X-0.150000X0.512500X0.150000X-0.512500X0.150000X0*%
%ADD20R,1.350000X1.350000*%
%ADD21O,1.350000X1.350000*%
%ADD22RoundRect,0.250000X0.450000X-0.350000X0.450000X0.350000X-0.450000X0.350000X-0.450000X-0.350000X0*%
%ADD23RoundRect,0.150000X-0.150000X0.650000X-0.150000X-0.650000X0.150000X-0.650000X0.150000X0.650000X0*%
%ADD24RoundRect,0.150000X-0.600000X-0.150000X0.600000X-0.150000X0.600000X0.150000X-0.600000X0.150000X0*%
%ADD25R,1.700000X1.700000*%
%ADD26O,1.700000X1.700000*%
%ADD27C,1.700000*%
G04 APERTURE END LIST*
D10*
X146287500Y-90600000D02*
G75*
G03*
X146287500Y-90600000I-187500J0D01*
G01*
D11*
X141250000Y-82300000D02*
X138550000Y-82300000D01*
D10*
X146287500Y-81700000D02*
G75*
G03*
X146287500Y-81700000I-187500J0D01*
G01*
D11*
X138550000Y-80400000D02*
X141250000Y-80400000D01*
X141250000Y-80400000D02*
X141250000Y-82300000D01*
D10*
X146287500Y-85600000D02*
G75*
G03*
X146287500Y-85600000I-187500J0D01*
G01*
X146387500Y-111800000D02*
G75*
G03*
X146387500Y-111800000I-187500J0D01*
G01*
D11*
X138550000Y-82300000D02*
X138550000Y-80400000D01*
D10*
X146287500Y-94500000D02*
G75*
G03*
X146287500Y-94500000I-187500J0D01*
G01*
D11*
X137679636Y-114669819D02*
X137679636Y-113669819D01*
X137679636Y-113669819D02*
X137960588Y-113669819D01*
X137960588Y-113669819D02*
X138129160Y-113717438D01*
X138129160Y-113717438D02*
X138241541Y-113812676D01*
X138241541Y-113812676D02*
X138297731Y-113907914D01*
X138297731Y-113907914D02*
X138353922Y-114098390D01*
X138353922Y-114098390D02*
X138353922Y-114241247D01*
X138353922Y-114241247D02*
X138297731Y-114431723D01*
X138297731Y-114431723D02*
X138241541Y-114526961D01*
X138241541Y-114526961D02*
X138129160Y-114622200D01*
X138129160Y-114622200D02*
X137960588Y-114669819D01*
X137960588Y-114669819D02*
X137679636Y-114669819D01*
X140432970Y-114574580D02*
X140376779Y-114622200D01*
X140376779Y-114622200D02*
X140208208Y-114669819D01*
X140208208Y-114669819D02*
X140095827Y-114669819D01*
X140095827Y-114669819D02*
X139927255Y-114622200D01*
X139927255Y-114622200D02*
X139814874Y-114526961D01*
X139814874Y-114526961D02*
X139758684Y-114431723D01*
X139758684Y-114431723D02*
X139702493Y-114241247D01*
X139702493Y-114241247D02*
X139702493Y-114098390D01*
X139702493Y-114098390D02*
X139758684Y-113907914D01*
X139758684Y-113907914D02*
X139814874Y-113812676D01*
X139814874Y-113812676D02*
X139927255Y-113717438D01*
X139927255Y-113717438D02*
X140095827Y-113669819D01*
X140095827Y-113669819D02*
X140208208Y-113669819D01*
X140208208Y-113669819D02*
X140376779Y-113717438D01*
X140376779Y-113717438D02*
X140432970Y-113765057D01*
X141669160Y-113669819D02*
X142343446Y-113669819D01*
X142006303Y-114669819D02*
X142006303Y-113669819D01*
X144310114Y-114669819D02*
X143916780Y-114193628D01*
X143635828Y-114669819D02*
X143635828Y-113669819D01*
X143635828Y-113669819D02*
X144085352Y-113669819D01*
X144085352Y-113669819D02*
X144197733Y-113717438D01*
X144197733Y-113717438D02*
X144253923Y-113765057D01*
X144253923Y-113765057D02*
X144310114Y-113860295D01*
X144310114Y-113860295D02*
X144310114Y-114003152D01*
X144310114Y-114003152D02*
X144253923Y-114098390D01*
X144253923Y-114098390D02*
X144197733Y-114146009D01*
X144197733Y-114146009D02*
X144085352Y-114193628D01*
X144085352Y-114193628D02*
X143635828Y-114193628D01*
X146108209Y-114146009D02*
X146276781Y-114193628D01*
X146276781Y-114193628D02*
X146332971Y-114241247D01*
X146332971Y-114241247D02*
X146389162Y-114336485D01*
X146389162Y-114336485D02*
X146389162Y-114479342D01*
X146389162Y-114479342D02*
X146332971Y-114574580D01*
X146332971Y-114574580D02*
X146276781Y-114622200D01*
X146276781Y-114622200D02*
X146164400Y-114669819D01*
X146164400Y-114669819D02*
X145714876Y-114669819D01*
X145714876Y-114669819D02*
X145714876Y-113669819D01*
X145714876Y-113669819D02*
X146108209Y-113669819D01*
X146108209Y-113669819D02*
X146220590Y-113717438D01*
X146220590Y-113717438D02*
X146276781Y-113765057D01*
X146276781Y-113765057D02*
X146332971Y-113860295D01*
X146332971Y-113860295D02*
X146332971Y-113955533D01*
X146332971Y-113955533D02*
X146276781Y-114050771D01*
X146276781Y-114050771D02*
X146220590Y-114098390D01*
X146220590Y-114098390D02*
X146108209Y-114146009D01*
X146108209Y-114146009D02*
X145714876Y-114146009D01*
X147793924Y-114669819D02*
X147793924Y-113669819D01*
X147793924Y-113669819D02*
X148468210Y-114669819D01*
X148468210Y-114669819D02*
X148468210Y-113669819D01*
X149760590Y-113669819D02*
X150153924Y-114669819D01*
X150153924Y-114669819D02*
X150547257Y-113669819D01*
X152457734Y-113717438D02*
X152345353Y-113669819D01*
X152345353Y-113669819D02*
X152176782Y-113669819D01*
X152176782Y-113669819D02*
X152008210Y-113717438D01*
X152008210Y-113717438D02*
X151895829Y-113812676D01*
X151895829Y-113812676D02*
X151839639Y-113907914D01*
X151839639Y-113907914D02*
X151783448Y-114098390D01*
X151783448Y-114098390D02*
X151783448Y-114241247D01*
X151783448Y-114241247D02*
X151839639Y-114431723D01*
X151839639Y-114431723D02*
X151895829Y-114526961D01*
X151895829Y-114526961D02*
X152008210Y-114622200D01*
X152008210Y-114622200D02*
X152176782Y-114669819D01*
X152176782Y-114669819D02*
X152289163Y-114669819D01*
X152289163Y-114669819D02*
X152457734Y-114622200D01*
X152457734Y-114622200D02*
X152513925Y-114574580D01*
X152513925Y-114574580D02*
X152513925Y-114241247D01*
X152513925Y-114241247D02*
X152289163Y-114241247D01*
D12*
X140296571Y-89188282D02*
X140296571Y-89683520D01*
X140796571Y-89373996D02*
X139510857Y-89373996D01*
X139510857Y-89373996D02*
X139368000Y-89435901D01*
X139368000Y-89435901D02*
X139296571Y-89559711D01*
X139296571Y-89559711D02*
X139296571Y-89683520D01*
X139296571Y-90302568D02*
X139368000Y-90178758D01*
X139368000Y-90178758D02*
X139439428Y-90116853D01*
X139439428Y-90116853D02*
X139582285Y-90054949D01*
X139582285Y-90054949D02*
X140010857Y-90054949D01*
X140010857Y-90054949D02*
X140153714Y-90116853D01*
X140153714Y-90116853D02*
X140225142Y-90178758D01*
X140225142Y-90178758D02*
X140296571Y-90302568D01*
X140296571Y-90302568D02*
X140296571Y-90488282D01*
X140296571Y-90488282D02*
X140225142Y-90612091D01*
X140225142Y-90612091D02*
X140153714Y-90673996D01*
X140153714Y-90673996D02*
X140010857Y-90735901D01*
X140010857Y-90735901D02*
X139582285Y-90735901D01*
X139582285Y-90735901D02*
X139439428Y-90673996D01*
X139439428Y-90673996D02*
X139368000Y-90612091D01*
X139368000Y-90612091D02*
X139296571Y-90488282D01*
X139296571Y-90488282D02*
X139296571Y-90302568D01*
X139296571Y-91293043D02*
X140296571Y-91293043D01*
X140153714Y-91293043D02*
X140225142Y-91354948D01*
X140225142Y-91354948D02*
X140296571Y-91478758D01*
X140296571Y-91478758D02*
X140296571Y-91664472D01*
X140296571Y-91664472D02*
X140225142Y-91788281D01*
X140225142Y-91788281D02*
X140082285Y-91850186D01*
X140082285Y-91850186D02*
X139296571Y-91850186D01*
X140082285Y-91850186D02*
X140225142Y-91912091D01*
X140225142Y-91912091D02*
X140296571Y-92035900D01*
X140296571Y-92035900D02*
X140296571Y-92221615D01*
X140296571Y-92221615D02*
X140225142Y-92345424D01*
X140225142Y-92345424D02*
X140082285Y-92407329D01*
X140082285Y-92407329D02*
X139296571Y-92407329D01*
X139368000Y-93583519D02*
X139296571Y-93459710D01*
X139296571Y-93459710D02*
X139296571Y-93212091D01*
X139296571Y-93212091D02*
X139368000Y-93088281D01*
X139368000Y-93088281D02*
X139439428Y-93026376D01*
X139439428Y-93026376D02*
X139582285Y-92964472D01*
X139582285Y-92964472D02*
X140010857Y-92964472D01*
X140010857Y-92964472D02*
X140153714Y-93026376D01*
X140153714Y-93026376D02*
X140225142Y-93088281D01*
X140225142Y-93088281D02*
X140296571Y-93212091D01*
X140296571Y-93212091D02*
X140296571Y-93459710D01*
X140296571Y-93459710D02*
X140225142Y-93583519D01*
X139296571Y-94140662D02*
X140296571Y-94140662D01*
X140796571Y-94140662D02*
X140725142Y-94078758D01*
X140725142Y-94078758D02*
X140653714Y-94140662D01*
X140653714Y-94140662D02*
X140725142Y-94202567D01*
X140725142Y-94202567D02*
X140796571Y-94140662D01*
X140796571Y-94140662D02*
X140653714Y-94140662D01*
X139296571Y-94759710D02*
X140296571Y-94759710D01*
X140010857Y-94759710D02*
X140153714Y-94821615D01*
X140153714Y-94821615D02*
X140225142Y-94883520D01*
X140225142Y-94883520D02*
X140296571Y-95007329D01*
X140296571Y-95007329D02*
X140296571Y-95131139D01*
X139368000Y-96121615D02*
X139296571Y-95997806D01*
X139296571Y-95997806D02*
X139296571Y-95750187D01*
X139296571Y-95750187D02*
X139368000Y-95626377D01*
X139368000Y-95626377D02*
X139439428Y-95564472D01*
X139439428Y-95564472D02*
X139582285Y-95502568D01*
X139582285Y-95502568D02*
X140010857Y-95502568D01*
X140010857Y-95502568D02*
X140153714Y-95564472D01*
X140153714Y-95564472D02*
X140225142Y-95626377D01*
X140225142Y-95626377D02*
X140296571Y-95750187D01*
X140296571Y-95750187D02*
X140296571Y-95997806D01*
X140296571Y-95997806D02*
X140225142Y-96121615D01*
X140296571Y-97235901D02*
X139296571Y-97235901D01*
X140296571Y-96678758D02*
X139510857Y-96678758D01*
X139510857Y-96678758D02*
X139368000Y-96740663D01*
X139368000Y-96740663D02*
X139296571Y-96864473D01*
X139296571Y-96864473D02*
X139296571Y-97050187D01*
X139296571Y-97050187D02*
X139368000Y-97173996D01*
X139368000Y-97173996D02*
X139439428Y-97235901D01*
X139296571Y-97854948D02*
X140296571Y-97854948D01*
X140796571Y-97854948D02*
X140725142Y-97793044D01*
X140725142Y-97793044D02*
X140653714Y-97854948D01*
X140653714Y-97854948D02*
X140725142Y-97916853D01*
X140725142Y-97916853D02*
X140796571Y-97854948D01*
X140796571Y-97854948D02*
X140653714Y-97854948D01*
X140296571Y-98288282D02*
X140296571Y-98783520D01*
X140796571Y-98473996D02*
X139510857Y-98473996D01*
X139510857Y-98473996D02*
X139368000Y-98535901D01*
X139368000Y-98535901D02*
X139296571Y-98659711D01*
X139296571Y-98659711D02*
X139296571Y-98783520D01*
X140296571Y-100764472D02*
X139296571Y-100764472D01*
X140868000Y-100454948D02*
X139796571Y-100145425D01*
X139796571Y-100145425D02*
X139796571Y-100950186D01*
X140868000Y-102373996D02*
X138939428Y-101259710D01*
X140653714Y-102745425D02*
X140725142Y-102807329D01*
X140725142Y-102807329D02*
X140796571Y-102931139D01*
X140796571Y-102931139D02*
X140796571Y-103240663D01*
X140796571Y-103240663D02*
X140725142Y-103364472D01*
X140725142Y-103364472D02*
X140653714Y-103426377D01*
X140653714Y-103426377D02*
X140510857Y-103488282D01*
X140510857Y-103488282D02*
X140368000Y-103488282D01*
X140368000Y-103488282D02*
X140153714Y-103426377D01*
X140153714Y-103426377D02*
X139296571Y-102683520D01*
X139296571Y-102683520D02*
X139296571Y-103488282D01*
X140296571Y-104602567D02*
X139296571Y-104602567D01*
X140868000Y-104293043D02*
X139796571Y-103983520D01*
X139796571Y-103983520D02*
X139796571Y-104788281D01*
D13*
X139149171Y-81840225D02*
X139149171Y-80983082D01*
X139149171Y-81411653D02*
X140649171Y-81411653D01*
X140649171Y-81411653D02*
X140434885Y-81268796D01*
X140434885Y-81268796D02*
X140292028Y-81125939D01*
X140292028Y-81125939D02*
X140220600Y-80983082D01*
D12*
X148519071Y-100947619D02*
X147019071Y-101380952D01*
X147019071Y-101380952D02*
X148519071Y-101814286D01*
X148519071Y-102123810D02*
X148519071Y-102928572D01*
X148519071Y-102928572D02*
X147947642Y-102495238D01*
X147947642Y-102495238D02*
X147947642Y-102680953D01*
X147947642Y-102680953D02*
X147876214Y-102804762D01*
X147876214Y-102804762D02*
X147804785Y-102866667D01*
X147804785Y-102866667D02*
X147661928Y-102928572D01*
X147661928Y-102928572D02*
X147304785Y-102928572D01*
X147304785Y-102928572D02*
X147161928Y-102866667D01*
X147161928Y-102866667D02*
X147090500Y-102804762D01*
X147090500Y-102804762D02*
X147019071Y-102680953D01*
X147019071Y-102680953D02*
X147019071Y-102309524D01*
X147019071Y-102309524D02*
X147090500Y-102185715D01*
X147090500Y-102185715D02*
X147161928Y-102123810D01*
D14*
X149198131Y-100936590D02*
X149912417Y-100503257D01*
X149198131Y-100193733D02*
X150698131Y-100193733D01*
X150698131Y-100193733D02*
X150698131Y-100688971D01*
X150698131Y-100688971D02*
X150626702Y-100812781D01*
X150626702Y-100812781D02*
X150555274Y-100874686D01*
X150555274Y-100874686D02*
X150412417Y-100936590D01*
X150412417Y-100936590D02*
X150198131Y-100936590D01*
X150198131Y-100936590D02*
X150055274Y-100874686D01*
X150055274Y-100874686D02*
X149983845Y-100812781D01*
X149983845Y-100812781D02*
X149912417Y-100688971D01*
X149912417Y-100688971D02*
X149912417Y-100193733D01*
X149340988Y-102236590D02*
X149269560Y-102174686D01*
X149269560Y-102174686D02*
X149198131Y-101988971D01*
X149198131Y-101988971D02*
X149198131Y-101865162D01*
X149198131Y-101865162D02*
X149269560Y-101679448D01*
X149269560Y-101679448D02*
X149412417Y-101555638D01*
X149412417Y-101555638D02*
X149555274Y-101493733D01*
X149555274Y-101493733D02*
X149840988Y-101431829D01*
X149840988Y-101431829D02*
X150055274Y-101431829D01*
X150055274Y-101431829D02*
X150340988Y-101493733D01*
X150340988Y-101493733D02*
X150483845Y-101555638D01*
X150483845Y-101555638D02*
X150626702Y-101679448D01*
X150626702Y-101679448D02*
X150698131Y-101865162D01*
X150698131Y-101865162D02*
X150698131Y-101988971D01*
X150698131Y-101988971D02*
X150626702Y-102174686D01*
X150626702Y-102174686D02*
X150555274Y-102236590D01*
X149198131Y-103412781D02*
X149198131Y-102793733D01*
X149198131Y-102793733D02*
X150698131Y-102793733D01*
X150698131Y-104465162D02*
X150698131Y-103846114D01*
X150698131Y-103846114D02*
X149983845Y-103784210D01*
X149983845Y-103784210D02*
X150055274Y-103846114D01*
X150055274Y-103846114D02*
X150126702Y-103969924D01*
X150126702Y-103969924D02*
X150126702Y-104279448D01*
X150126702Y-104279448D02*
X150055274Y-104403257D01*
X150055274Y-104403257D02*
X149983845Y-104465162D01*
X149983845Y-104465162D02*
X149840988Y-104527067D01*
X149840988Y-104527067D02*
X149483845Y-104527067D01*
X149483845Y-104527067D02*
X149340988Y-104465162D01*
X149340988Y-104465162D02*
X149269560Y-104403257D01*
X149269560Y-104403257D02*
X149198131Y-104279448D01*
X149198131Y-104279448D02*
X149198131Y-103969924D01*
X149198131Y-103969924D02*
X149269560Y-103846114D01*
X149269560Y-103846114D02*
X149340988Y-103784210D01*
X150698131Y-104960400D02*
X150698131Y-105827066D01*
X150698131Y-105827066D02*
X149198131Y-105269924D01*
D11*
X140546753Y-110675750D02*
X139974333Y-111248170D01*
X139974333Y-111248170D02*
X139940661Y-111349185D01*
X139940661Y-111349185D02*
X139940661Y-111416529D01*
X139940661Y-111416529D02*
X139974333Y-111517544D01*
X139974333Y-111517544D02*
X140109020Y-111652231D01*
X140109020Y-111652231D02*
X140210035Y-111685903D01*
X140210035Y-111685903D02*
X140277379Y-111685903D01*
X140277379Y-111685903D02*
X140378394Y-111652231D01*
X140378394Y-111652231D02*
X140950814Y-111079811D01*
X140950814Y-112494025D02*
X140546753Y-112089964D01*
X140748783Y-112291994D02*
X141455890Y-111584888D01*
X141455890Y-111584888D02*
X141287531Y-111618559D01*
X141287531Y-111618559D02*
X141152844Y-111618559D01*
X141152844Y-111618559D02*
X141051829Y-111584888D01*
X138765521Y-108082699D02*
X138826131Y-108203918D01*
X138826131Y-108203918D02*
X138977653Y-108355440D01*
X138977653Y-108355440D02*
X139068567Y-108385745D01*
X139068567Y-108385745D02*
X139129176Y-108385745D01*
X139129176Y-108385745D02*
X139220090Y-108355440D01*
X139220090Y-108355440D02*
X139280699Y-108294831D01*
X139280699Y-108294831D02*
X139311004Y-108203918D01*
X139311004Y-108203918D02*
X139311004Y-108143308D01*
X139311004Y-108143308D02*
X139280699Y-108052395D01*
X139280699Y-108052395D02*
X139189785Y-107900872D01*
X139189785Y-107900872D02*
X139159481Y-107809958D01*
X139159481Y-107809958D02*
X139159481Y-107749349D01*
X139159481Y-107749349D02*
X139189785Y-107658435D01*
X139189785Y-107658435D02*
X139250395Y-107597826D01*
X139250395Y-107597826D02*
X139341308Y-107567521D01*
X139341308Y-107567521D02*
X139401917Y-107567521D01*
X139401917Y-107567521D02*
X139492831Y-107597826D01*
X139492831Y-107597826D02*
X139644354Y-107749349D01*
X139644354Y-107749349D02*
X139704963Y-107870567D01*
X139917095Y-108022090D02*
X140280750Y-108385745D01*
X139462527Y-108840314D02*
X140098923Y-108203918D01*
X139856486Y-109234273D02*
X140492882Y-108597877D01*
X140492882Y-108597877D02*
X140250445Y-109264578D01*
X140250445Y-109264578D02*
X140917146Y-109022141D01*
X140917146Y-109022141D02*
X140280750Y-109658537D01*
X141159582Y-109264577D02*
X141553542Y-109658537D01*
X141553542Y-109658537D02*
X141098973Y-109688841D01*
X141098973Y-109688841D02*
X141189887Y-109779755D01*
X141189887Y-109779755D02*
X141220192Y-109870669D01*
X141220192Y-109870669D02*
X141220192Y-109931278D01*
X141220192Y-109931278D02*
X141189887Y-110022192D01*
X141189887Y-110022192D02*
X141038364Y-110173715D01*
X141038364Y-110173715D02*
X140947450Y-110204019D01*
X140947450Y-110204019D02*
X140886841Y-110204019D01*
X140886841Y-110204019D02*
X140795928Y-110173715D01*
X140795928Y-110173715D02*
X140614100Y-109991887D01*
X140614100Y-109991887D02*
X140583796Y-109900973D01*
X140583796Y-109900973D02*
X140583796Y-109840364D01*
X141735370Y-109961583D02*
X141795979Y-109961583D01*
X141795979Y-109961583D02*
X141886892Y-109991887D01*
X141886892Y-109991887D02*
X142038415Y-110143410D01*
X142038415Y-110143410D02*
X142068720Y-110234324D01*
X142068720Y-110234324D02*
X142068720Y-110294933D01*
X142068720Y-110294933D02*
X142038415Y-110385847D01*
X142038415Y-110385847D02*
X141977806Y-110446456D01*
X141977806Y-110446456D02*
X141856588Y-110507065D01*
X141856588Y-110507065D02*
X141129278Y-110507065D01*
X141129278Y-110507065D02*
X141523238Y-110901025D01*
X142341461Y-111052548D02*
X142129329Y-110840416D01*
X141795979Y-111173766D02*
X142432375Y-110537370D01*
X142432375Y-110537370D02*
X142735421Y-110840416D01*
X142674812Y-112052599D02*
X142311157Y-111688944D01*
X142492984Y-111870771D02*
X143129380Y-111234375D01*
X143129380Y-111234375D02*
X142977858Y-111264680D01*
X142977858Y-111264680D02*
X142856639Y-111264680D01*
X142856639Y-111264680D02*
X142765726Y-111234375D01*
X143705168Y-111810162D02*
X143765777Y-111870772D01*
X143765777Y-111870772D02*
X143796081Y-111961685D01*
X143796081Y-111961685D02*
X143796081Y-112022294D01*
X143796081Y-112022294D02*
X143765777Y-112113208D01*
X143765777Y-112113208D02*
X143674863Y-112264731D01*
X143674863Y-112264731D02*
X143523340Y-112416254D01*
X143523340Y-112416254D02*
X143371817Y-112507168D01*
X143371817Y-112507168D02*
X143280903Y-112537472D01*
X143280903Y-112537472D02*
X143220294Y-112537472D01*
X143220294Y-112537472D02*
X143129381Y-112507168D01*
X143129381Y-112507168D02*
X143068771Y-112446558D01*
X143068771Y-112446558D02*
X143038467Y-112355645D01*
X143038467Y-112355645D02*
X143038467Y-112295036D01*
X143038467Y-112295036D02*
X143068771Y-112204122D01*
X143068771Y-112204122D02*
X143159685Y-112052599D01*
X143159685Y-112052599D02*
X143311208Y-111901076D01*
X143311208Y-111901076D02*
X143462731Y-111810162D01*
X143462731Y-111810162D02*
X143553645Y-111779858D01*
X143553645Y-111779858D02*
X143614254Y-111779858D01*
X143614254Y-111779858D02*
X143705168Y-111810162D01*
X144129432Y-112234427D02*
X144523391Y-112628386D01*
X144523391Y-112628386D02*
X144068823Y-112658691D01*
X144068823Y-112658691D02*
X144159736Y-112749604D01*
X144159736Y-112749604D02*
X144190041Y-112840518D01*
X144190041Y-112840518D02*
X144190041Y-112901127D01*
X144190041Y-112901127D02*
X144159736Y-112992041D01*
X144159736Y-112992041D02*
X144008213Y-113143564D01*
X144008213Y-113143564D02*
X143917300Y-113173868D01*
X143917300Y-113173868D02*
X143856690Y-113173868D01*
X143856690Y-113173868D02*
X143765777Y-113143564D01*
X143765777Y-113143564D02*
X143583949Y-112961736D01*
X143583949Y-112961736D02*
X143553645Y-112870823D01*
X143553645Y-112870823D02*
X143553645Y-112810213D01*
X145249942Y-92104761D02*
X145297561Y-92009523D01*
X145297561Y-92009523D02*
X145392800Y-91914285D01*
X145392800Y-91914285D02*
X145535657Y-91771428D01*
X145535657Y-91771428D02*
X145583276Y-91676190D01*
X145583276Y-91676190D02*
X145583276Y-91580952D01*
X145345180Y-91628571D02*
X145392800Y-91533333D01*
X145392800Y-91533333D02*
X145488038Y-91438095D01*
X145488038Y-91438095D02*
X145678514Y-91390476D01*
X145678514Y-91390476D02*
X146011847Y-91390476D01*
X146011847Y-91390476D02*
X146202323Y-91438095D01*
X146202323Y-91438095D02*
X146297561Y-91533333D01*
X146297561Y-91533333D02*
X146345180Y-91628571D01*
X146345180Y-91628571D02*
X146345180Y-91819047D01*
X146345180Y-91819047D02*
X146297561Y-91914285D01*
X146297561Y-91914285D02*
X146202323Y-92009523D01*
X146202323Y-92009523D02*
X146011847Y-92057142D01*
X146011847Y-92057142D02*
X145678514Y-92057142D01*
X145678514Y-92057142D02*
X145488038Y-92009523D01*
X145488038Y-92009523D02*
X145392800Y-91914285D01*
X145392800Y-91914285D02*
X145345180Y-91819047D01*
X145345180Y-91819047D02*
X145345180Y-91628571D01*
X146249942Y-92438095D02*
X146297561Y-92485714D01*
X146297561Y-92485714D02*
X146345180Y-92580952D01*
X146345180Y-92580952D02*
X146345180Y-92819047D01*
X146345180Y-92819047D02*
X146297561Y-92914285D01*
X146297561Y-92914285D02*
X146249942Y-92961904D01*
X146249942Y-92961904D02*
X146154704Y-93009523D01*
X146154704Y-93009523D02*
X146059466Y-93009523D01*
X146059466Y-93009523D02*
X145916609Y-92961904D01*
X145916609Y-92961904D02*
X145345180Y-92390476D01*
X145345180Y-92390476D02*
X145345180Y-93009523D01*
X145249942Y-87004761D02*
X145297561Y-86909523D01*
X145297561Y-86909523D02*
X145392800Y-86814285D01*
X145392800Y-86814285D02*
X145535657Y-86671428D01*
X145535657Y-86671428D02*
X145583276Y-86576190D01*
X145583276Y-86576190D02*
X145583276Y-86480952D01*
X145345180Y-86528571D02*
X145392800Y-86433333D01*
X145392800Y-86433333D02*
X145488038Y-86338095D01*
X145488038Y-86338095D02*
X145678514Y-86290476D01*
X145678514Y-86290476D02*
X146011847Y-86290476D01*
X146011847Y-86290476D02*
X146202323Y-86338095D01*
X146202323Y-86338095D02*
X146297561Y-86433333D01*
X146297561Y-86433333D02*
X146345180Y-86528571D01*
X146345180Y-86528571D02*
X146345180Y-86719047D01*
X146345180Y-86719047D02*
X146297561Y-86814285D01*
X146297561Y-86814285D02*
X146202323Y-86909523D01*
X146202323Y-86909523D02*
X146011847Y-86957142D01*
X146011847Y-86957142D02*
X145678514Y-86957142D01*
X145678514Y-86957142D02*
X145488038Y-86909523D01*
X145488038Y-86909523D02*
X145392800Y-86814285D01*
X145392800Y-86814285D02*
X145345180Y-86719047D01*
X145345180Y-86719047D02*
X145345180Y-86528571D01*
X146011847Y-87814285D02*
X145345180Y-87814285D01*
X146392800Y-87576190D02*
X145678514Y-87338095D01*
X145678514Y-87338095D02*
X145678514Y-87957142D01*
X143945180Y-98533333D02*
X144421371Y-98200000D01*
X143945180Y-97961905D02*
X144945180Y-97961905D01*
X144945180Y-97961905D02*
X144945180Y-98342857D01*
X144945180Y-98342857D02*
X144897561Y-98438095D01*
X144897561Y-98438095D02*
X144849942Y-98485714D01*
X144849942Y-98485714D02*
X144754704Y-98533333D01*
X144754704Y-98533333D02*
X144611847Y-98533333D01*
X144611847Y-98533333D02*
X144516609Y-98485714D01*
X144516609Y-98485714D02*
X144468990Y-98438095D01*
X144468990Y-98438095D02*
X144421371Y-98342857D01*
X144421371Y-98342857D02*
X144421371Y-97961905D01*
X144945180Y-98866667D02*
X144945180Y-99485714D01*
X144945180Y-99485714D02*
X144564228Y-99152381D01*
X144564228Y-99152381D02*
X144564228Y-99295238D01*
X144564228Y-99295238D02*
X144516609Y-99390476D01*
X144516609Y-99390476D02*
X144468990Y-99438095D01*
X144468990Y-99438095D02*
X144373752Y-99485714D01*
X144373752Y-99485714D02*
X144135657Y-99485714D01*
X144135657Y-99485714D02*
X144040419Y-99438095D01*
X144040419Y-99438095D02*
X143992800Y-99390476D01*
X143992800Y-99390476D02*
X143945180Y-99295238D01*
X143945180Y-99295238D02*
X143945180Y-99009524D01*
X143945180Y-99009524D02*
X143992800Y-98914286D01*
X143992800Y-98914286D02*
X144040419Y-98866667D01*
X145249942Y-96004761D02*
X145297561Y-95909523D01*
X145297561Y-95909523D02*
X145392800Y-95814285D01*
X145392800Y-95814285D02*
X145535657Y-95671428D01*
X145535657Y-95671428D02*
X145583276Y-95576190D01*
X145583276Y-95576190D02*
X145583276Y-95480952D01*
X145345180Y-95528571D02*
X145392800Y-95433333D01*
X145392800Y-95433333D02*
X145488038Y-95338095D01*
X145488038Y-95338095D02*
X145678514Y-95290476D01*
X145678514Y-95290476D02*
X146011847Y-95290476D01*
X146011847Y-95290476D02*
X146202323Y-95338095D01*
X146202323Y-95338095D02*
X146297561Y-95433333D01*
X146297561Y-95433333D02*
X146345180Y-95528571D01*
X146345180Y-95528571D02*
X146345180Y-95719047D01*
X146345180Y-95719047D02*
X146297561Y-95814285D01*
X146297561Y-95814285D02*
X146202323Y-95909523D01*
X146202323Y-95909523D02*
X146011847Y-95957142D01*
X146011847Y-95957142D02*
X145678514Y-95957142D01*
X145678514Y-95957142D02*
X145488038Y-95909523D01*
X145488038Y-95909523D02*
X145392800Y-95814285D01*
X145392800Y-95814285D02*
X145345180Y-95719047D01*
X145345180Y-95719047D02*
X145345180Y-95528571D01*
X146345180Y-96290476D02*
X146345180Y-96909523D01*
X146345180Y-96909523D02*
X145964228Y-96576190D01*
X145964228Y-96576190D02*
X145964228Y-96719047D01*
X145964228Y-96719047D02*
X145916609Y-96814285D01*
X145916609Y-96814285D02*
X145868990Y-96861904D01*
X145868990Y-96861904D02*
X145773752Y-96909523D01*
X145773752Y-96909523D02*
X145535657Y-96909523D01*
X145535657Y-96909523D02*
X145440419Y-96861904D01*
X145440419Y-96861904D02*
X145392800Y-96814285D01*
X145392800Y-96814285D02*
X145345180Y-96719047D01*
X145345180Y-96719047D02*
X145345180Y-96433333D01*
X145345180Y-96433333D02*
X145392800Y-96338095D01*
X145392800Y-96338095D02*
X145440419Y-96290476D01*
X142545180Y-94438095D02*
X141735657Y-94438095D01*
X141735657Y-94438095D02*
X141640419Y-94485714D01*
X141640419Y-94485714D02*
X141592800Y-94533333D01*
X141592800Y-94533333D02*
X141545180Y-94628571D01*
X141545180Y-94628571D02*
X141545180Y-94819047D01*
X141545180Y-94819047D02*
X141592800Y-94914285D01*
X141592800Y-94914285D02*
X141640419Y-94961904D01*
X141640419Y-94961904D02*
X141735657Y-95009523D01*
X141735657Y-95009523D02*
X142545180Y-95009523D01*
X142211847Y-95914285D02*
X141545180Y-95914285D01*
X142592800Y-95676190D02*
X141878514Y-95438095D01*
X141878514Y-95438095D02*
X141878514Y-96057142D01*
X145249942Y-83404761D02*
X145297561Y-83309523D01*
X145297561Y-83309523D02*
X145392800Y-83214285D01*
X145392800Y-83214285D02*
X145535657Y-83071428D01*
X145535657Y-83071428D02*
X145583276Y-82976190D01*
X145583276Y-82976190D02*
X145583276Y-82880952D01*
X145345180Y-82928571D02*
X145392800Y-82833333D01*
X145392800Y-82833333D02*
X145488038Y-82738095D01*
X145488038Y-82738095D02*
X145678514Y-82690476D01*
X145678514Y-82690476D02*
X146011847Y-82690476D01*
X146011847Y-82690476D02*
X146202323Y-82738095D01*
X146202323Y-82738095D02*
X146297561Y-82833333D01*
X146297561Y-82833333D02*
X146345180Y-82928571D01*
X146345180Y-82928571D02*
X146345180Y-83119047D01*
X146345180Y-83119047D02*
X146297561Y-83214285D01*
X146297561Y-83214285D02*
X146202323Y-83309523D01*
X146202323Y-83309523D02*
X146011847Y-83357142D01*
X146011847Y-83357142D02*
X145678514Y-83357142D01*
X145678514Y-83357142D02*
X145488038Y-83309523D01*
X145488038Y-83309523D02*
X145392800Y-83214285D01*
X145392800Y-83214285D02*
X145345180Y-83119047D01*
X145345180Y-83119047D02*
X145345180Y-82928571D01*
X145345180Y-84309523D02*
X145345180Y-83738095D01*
X145345180Y-84023809D02*
X146345180Y-84023809D01*
X146345180Y-84023809D02*
X146202323Y-83928571D01*
X146202323Y-83928571D02*
X146107085Y-83833333D01*
X146107085Y-83833333D02*
X146059466Y-83738095D01*
X144345180Y-83438095D02*
X143535657Y-83438095D01*
X143535657Y-83438095D02*
X143440419Y-83485714D01*
X143440419Y-83485714D02*
X143392800Y-83533333D01*
X143392800Y-83533333D02*
X143345180Y-83628571D01*
X143345180Y-83628571D02*
X143345180Y-83819047D01*
X143345180Y-83819047D02*
X143392800Y-83914285D01*
X143392800Y-83914285D02*
X143440419Y-83961904D01*
X143440419Y-83961904D02*
X143535657Y-84009523D01*
X143535657Y-84009523D02*
X144345180Y-84009523D01*
X144345180Y-84390476D02*
X144345180Y-85009523D01*
X144345180Y-85009523D02*
X143964228Y-84676190D01*
X143964228Y-84676190D02*
X143964228Y-84819047D01*
X143964228Y-84819047D02*
X143916609Y-84914285D01*
X143916609Y-84914285D02*
X143868990Y-84961904D01*
X143868990Y-84961904D02*
X143773752Y-85009523D01*
X143773752Y-85009523D02*
X143535657Y-85009523D01*
X143535657Y-85009523D02*
X143440419Y-84961904D01*
X143440419Y-84961904D02*
X143392800Y-84914285D01*
X143392800Y-84914285D02*
X143345180Y-84819047D01*
X143345180Y-84819047D02*
X143345180Y-84533333D01*
X143345180Y-84533333D02*
X143392800Y-84438095D01*
X143392800Y-84438095D02*
X143440419Y-84390476D01*
D15*
%TO.C,U1*%
X149258203Y-107309585D02*
X148745551Y-107822237D01*
X144347347Y-111195137D02*
X144859999Y-111707789D01*
X148745551Y-106796933D02*
X149258203Y-107309585D01*
X140974447Y-107822237D02*
X140461795Y-107309585D01*
X145372651Y-103424033D02*
X144859999Y-102911381D01*
X140461795Y-107309585D02*
X140974447Y-106796933D01*
X144859999Y-102911381D02*
X144347347Y-103424033D01*
%TO.C,Q2*%
X148700000Y-90640000D02*
X146900000Y-90640000D01*
X148700000Y-90640000D02*
X149500000Y-90640000D01*
X148700000Y-93760000D02*
X147900000Y-93760000D01*
X148700000Y-93760000D02*
X149500000Y-93760000D01*
%TO.C,J3*%
X136840000Y-116660000D02*
X136840000Y-115600000D01*
X137900000Y-116660000D02*
X136840000Y-116660000D01*
X152960000Y-116660000D02*
X152960000Y-114540000D01*
%TO.C,Q4*%
X148700000Y-85640000D02*
X146900000Y-85640000D01*
X148700000Y-85640000D02*
X149500000Y-85640000D01*
X148700000Y-88760000D02*
X147900000Y-88760000D01*
X148700000Y-88760000D02*
X149500000Y-88760000D01*
%TO.C,R3*%
X141965000Y-98927064D02*
X141965000Y-98472936D01*
X143435000Y-98927064D02*
X143435000Y-98472936D01*
%TO.C,Q3*%
X148700000Y-94540000D02*
X146900000Y-94540000D01*
X148700000Y-94540000D02*
X149500000Y-94540000D01*
X148700000Y-97660000D02*
X147900000Y-97660000D01*
X148700000Y-97660000D02*
X149500000Y-97660000D01*
%TO.C,U4*%
X144760000Y-93300000D02*
X144760000Y-91625000D01*
X144760000Y-93300000D02*
X144760000Y-93950000D01*
X141640000Y-93300000D02*
X141640000Y-92650000D01*
X141640000Y-93300000D02*
X141640000Y-93950000D01*
%TO.C,Q1*%
X148700000Y-84860000D02*
X149500000Y-84860000D01*
X148700000Y-84860000D02*
X147900000Y-84860000D01*
X148700000Y-81740000D02*
X149500000Y-81740000D01*
X148700000Y-81740000D02*
X146900000Y-81740000D01*
%TO.C,U3*%
X141260000Y-82690000D02*
X139460000Y-82690000D01*
X141260000Y-82690000D02*
X142060000Y-82690000D01*
X141260000Y-85810000D02*
X140460000Y-85810000D01*
X141260000Y-85810000D02*
X142060000Y-85810000D01*
%TD*%
%LPC*%
D16*
%TO.C,U1*%
X145452201Y-110730214D03*
X145805754Y-110376661D03*
X146159308Y-110023107D03*
X146512861Y-109669554D03*
X146866414Y-109316000D03*
X147219968Y-108962447D03*
X147573521Y-108608894D03*
X147927075Y-108255340D03*
X148280628Y-107901787D03*
D17*
X148280628Y-106717383D03*
X147927075Y-106363830D03*
X147573521Y-106010276D03*
X147219968Y-105656723D03*
X146866414Y-105303170D03*
X146512861Y-104949616D03*
X146159308Y-104596063D03*
X145805754Y-104242509D03*
X145452201Y-103888956D03*
D16*
X144267797Y-103888956D03*
X143914244Y-104242509D03*
X143560690Y-104596063D03*
X143207137Y-104949616D03*
X142853584Y-105303170D03*
X142500030Y-105656723D03*
X142146477Y-106010276D03*
X141792923Y-106363830D03*
X141439370Y-106717383D03*
D17*
X141439370Y-107901787D03*
X141792923Y-108255340D03*
X142146477Y-108608894D03*
X142500030Y-108962447D03*
X142853584Y-109316000D03*
X143207137Y-109669554D03*
X143560690Y-110023107D03*
X143914244Y-110376661D03*
X144267797Y-110730214D03*
D18*
X144859999Y-107309585D03*
%TD*%
D19*
%TO.C,Q2*%
X147562500Y-91250000D03*
X147562500Y-92200000D03*
X147562500Y-93150000D03*
X149837500Y-93150000D03*
X149837500Y-92200000D03*
X149837500Y-91250000D03*
%TD*%
D20*
%TO.C,J3*%
X137900000Y-115600000D03*
D21*
X139900000Y-115600000D03*
X141900000Y-115600000D03*
X143900000Y-115600000D03*
X145900000Y-115600000D03*
X147900000Y-115600000D03*
X149900000Y-115600000D03*
X151900000Y-115600000D03*
%TD*%
D19*
%TO.C,Q4*%
X147562500Y-86250000D03*
X147562500Y-87200000D03*
X147562500Y-88150000D03*
X149837500Y-88150000D03*
X149837500Y-87200000D03*
X149837500Y-86250000D03*
%TD*%
D22*
%TO.C,R3*%
X142700000Y-99700000D03*
X142700000Y-97700000D03*
%TD*%
D19*
%TO.C,Q3*%
X147562500Y-95150000D03*
X147562500Y-96100000D03*
X147562500Y-97050000D03*
X149837500Y-97050000D03*
X149837500Y-96100000D03*
X149837500Y-95150000D03*
%TD*%
D23*
%TO.C,U4*%
X144150000Y-92362500D03*
X142250000Y-92362500D03*
X143200000Y-94237500D03*
%TD*%
D19*
%TO.C,Q1*%
X149837500Y-82350000D03*
X149837500Y-83300000D03*
X149837500Y-84250000D03*
X147562500Y-84250000D03*
X147562500Y-83300000D03*
X147562500Y-82350000D03*
%TD*%
D24*
%TO.C,U3*%
X140122500Y-83300000D03*
X140122500Y-84250000D03*
D19*
X140122500Y-85200000D03*
X142397500Y-85200000D03*
D24*
X142397500Y-83300000D03*
%TD*%
D25*
%TO.C,J1*%
X137160000Y-82147058D03*
D26*
X137160000Y-84687058D03*
X137160000Y-87227058D03*
X137160000Y-89767058D03*
X137160000Y-92307058D03*
X137160000Y-94847058D03*
X137160000Y-97387058D03*
X137160000Y-99927058D03*
X137160000Y-102467058D03*
X137160000Y-105007058D03*
X137160000Y-107547058D03*
X137160000Y-110087058D03*
X137160000Y-112627058D03*
%TD*%
D27*
%TO.C,J2*%
X152360000Y-82147056D03*
D26*
X152360000Y-84687056D03*
X152360000Y-87227056D03*
X152360000Y-89767056D03*
X152360000Y-92307056D03*
X152360000Y-94847056D03*
X152360000Y-97387056D03*
X152360000Y-99927056D03*
X152360000Y-102467056D03*
X152360000Y-105007056D03*
X152360000Y-107547056D03*
X152360000Y-110087056D03*
X152360000Y-112627056D03*
%TD*%
%LPD*%
M02*
