%TF.GenerationSoftware,KiCad,Pcbnew,7.0.8*%
%TF.CreationDate,2024-04-19T17:39:31-04:00*%
%TF.ProjectId,rcl57_mcu,72636c35-375f-46d6-9375-2e6b69636164,rev?*%
%TF.SameCoordinates,Original*%
%TF.FileFunction,Paste,Top*%
%TF.FilePolarity,Positive*%
%FSLAX46Y46*%
G04 Gerber Fmt 4.6, Leading zero omitted, Abs format (unit mm)*
G04 Created by KiCad (PCBNEW 7.0.8) date 2024-04-19 17:39:31*
%MOMM*%
%LPD*%
G01*
G04 APERTURE LIST*
G04 Aperture macros list*
%AMRoundRect*
0 Rectangle with rounded corners*
0 $1 Rounding radius*
0 $2 $3 $4 $5 $6 $7 $8 $9 X,Y pos of 4 corners*
0 Add a 4 corners polygon primitive as box body*
4,1,4,$2,$3,$4,$5,$6,$7,$8,$9,$2,$3,0*
0 Add four circle primitives for the rounded corners*
1,1,$1+$1,$2,$3*
1,1,$1+$1,$4,$5*
1,1,$1+$1,$6,$7*
1,1,$1+$1,$8,$9*
0 Add four rect primitives between the rounded corners*
20,1,$1+$1,$2,$3,$4,$5,0*
20,1,$1+$1,$4,$5,$6,$7,0*
20,1,$1+$1,$6,$7,$8,$9,0*
20,1,$1+$1,$8,$9,$2,$3,0*%
G04 Aperture macros list end*
%ADD10RoundRect,0.250000X0.424264X0.000000X0.000000X0.424264X-0.424264X0.000000X0.000000X-0.424264X0*%
%ADD11RoundRect,0.062500X0.380070X-0.291682X-0.291682X0.380070X-0.380070X0.291682X0.291682X-0.380070X0*%
%ADD12RoundRect,0.062500X0.380070X0.291682X0.291682X0.380070X-0.380070X-0.291682X-0.291682X-0.380070X0*%
%ADD13RoundRect,0.150000X-0.512500X-0.150000X0.512500X-0.150000X0.512500X0.150000X-0.512500X0.150000X0*%
%ADD14RoundRect,0.250000X0.450000X-0.350000X0.450000X0.350000X-0.450000X0.350000X-0.450000X-0.350000X0*%
%ADD15RoundRect,0.150000X-0.150000X0.650000X-0.150000X-0.650000X0.150000X-0.650000X0.150000X0.650000X0*%
%ADD16RoundRect,0.150000X-0.600000X-0.150000X0.600000X-0.150000X0.600000X0.150000X-0.600000X0.150000X0*%
G04 APERTURE END LIST*
D10*
%TO.C,U1*%
X144859999Y-109247058D03*
X145828735Y-108278321D03*
X146797472Y-107309585D03*
X143891263Y-108278321D03*
X144859999Y-107309585D03*
X145828735Y-106340849D03*
X142922526Y-107309585D03*
X143891263Y-106340849D03*
X144859999Y-105372112D03*
D11*
X145452201Y-110730214D03*
X145805754Y-110376661D03*
X146159308Y-110023107D03*
X146512861Y-109669554D03*
X146866414Y-109316000D03*
X147219968Y-108962447D03*
X147573521Y-108608894D03*
X147927075Y-108255340D03*
X148280628Y-107901787D03*
D12*
X148280628Y-106717383D03*
X147927075Y-106363830D03*
X147573521Y-106010276D03*
X147219968Y-105656723D03*
X146866414Y-105303170D03*
X146512861Y-104949616D03*
X146159308Y-104596063D03*
X145805754Y-104242509D03*
X145452201Y-103888956D03*
D11*
X144267797Y-103888956D03*
X143914244Y-104242509D03*
X143560690Y-104596063D03*
X143207137Y-104949616D03*
X142853584Y-105303170D03*
X142500030Y-105656723D03*
X142146477Y-106010276D03*
X141792923Y-106363830D03*
X141439370Y-106717383D03*
D12*
X141439370Y-107901787D03*
X141792923Y-108255340D03*
X142146477Y-108608894D03*
X142500030Y-108962447D03*
X142853584Y-109316000D03*
X143207137Y-109669554D03*
X143560690Y-110023107D03*
X143914244Y-110376661D03*
X144267797Y-110730214D03*
%TD*%
D13*
%TO.C,Q2*%
X147562500Y-91250000D03*
X147562500Y-92200000D03*
X147562500Y-93150000D03*
X149837500Y-93150000D03*
X149837500Y-92200000D03*
X149837500Y-91250000D03*
%TD*%
%TO.C,Q4*%
X147562500Y-86250000D03*
X147562500Y-87200000D03*
X147562500Y-88150000D03*
X149837500Y-88150000D03*
X149837500Y-87200000D03*
X149837500Y-86250000D03*
%TD*%
D14*
%TO.C,R3*%
X142700000Y-99700000D03*
X142700000Y-97700000D03*
%TD*%
D13*
%TO.C,Q3*%
X147562500Y-95150000D03*
X147562500Y-96100000D03*
X147562500Y-97050000D03*
X149837500Y-97050000D03*
X149837500Y-96100000D03*
X149837500Y-95150000D03*
%TD*%
D15*
%TO.C,U4*%
X144150000Y-92362500D03*
X142250000Y-92362500D03*
X143200000Y-94237500D03*
%TD*%
D13*
%TO.C,Q1*%
X149837500Y-82350000D03*
X149837500Y-83300000D03*
X149837500Y-84250000D03*
X147562500Y-84250000D03*
X147562500Y-83300000D03*
X147562500Y-82350000D03*
%TD*%
D16*
%TO.C,U3*%
X140122500Y-83300000D03*
X140122500Y-84250000D03*
D13*
X140122500Y-85200000D03*
X142397500Y-85200000D03*
D16*
X142397500Y-83300000D03*
%TD*%
M02*
