%TF.GenerationSoftware,KiCad,Pcbnew,7.0.8*%
%TF.CreationDate,2024-04-19T17:39:31-04:00*%
%TF.ProjectId,rcl57_mcu,72636c35-375f-46d6-9375-2e6b69636164,rev?*%
%TF.SameCoordinates,Original*%
%TF.FileFunction,Paste,Bot*%
%TF.FilePolarity,Positive*%
%FSLAX46Y46*%
G04 Gerber Fmt 4.6, Leading zero omitted, Abs format (unit mm)*
G04 Created by KiCad (PCBNEW 7.0.8) date 2024-04-19 17:39:31*
%MOMM*%
%LPD*%
G01*
G04 APERTURE LIST*
G04 Aperture macros list*
%AMRoundRect*
0 Rectangle with rounded corners*
0 $1 Rounding radius*
0 $2 $3 $4 $5 $6 $7 $8 $9 X,Y pos of 4 corners*
0 Add a 4 corners polygon primitive as box body*
4,1,4,$2,$3,$4,$5,$6,$7,$8,$9,$2,$3,0*
0 Add four circle primitives for the rounded corners*
1,1,$1+$1,$2,$3*
1,1,$1+$1,$4,$5*
1,1,$1+$1,$6,$7*
1,1,$1+$1,$8,$9*
0 Add four rect primitives between the rounded corners*
20,1,$1+$1,$2,$3,$4,$5,0*
20,1,$1+$1,$4,$5,$6,$7,0*
20,1,$1+$1,$6,$7,$8,$9,0*
20,1,$1+$1,$8,$9,$2,$3,0*%
G04 Aperture macros list end*
%ADD10RoundRect,0.250000X0.350000X0.450000X-0.350000X0.450000X-0.350000X-0.450000X0.350000X-0.450000X0*%
%ADD11RoundRect,0.250000X0.475000X-0.250000X0.475000X0.250000X-0.475000X0.250000X-0.475000X-0.250000X0*%
%ADD12RoundRect,0.250000X-0.475000X0.250000X-0.475000X-0.250000X0.475000X-0.250000X0.475000X0.250000X0*%
%ADD13R,0.800000X0.480000*%
%ADD14R,0.900000X0.320000*%
%ADD15RoundRect,0.250000X-0.159099X0.512652X-0.512652X0.159099X0.159099X-0.512652X0.512652X-0.159099X0*%
%ADD16RoundRect,0.250000X-0.450000X0.350000X-0.450000X-0.350000X0.450000X-0.350000X0.450000X0.350000X0*%
%ADD17RoundRect,0.249999X0.017678X-0.576293X0.576293X-0.017678X-0.017678X0.576293X-0.576293X0.017678X0*%
%ADD18RoundRect,0.100000X-0.388909X-0.530330X0.530330X0.388909X0.388909X0.530330X-0.530330X-0.388909X0*%
%ADD19RoundRect,0.250000X0.250000X0.475000X-0.250000X0.475000X-0.250000X-0.475000X0.250000X-0.475000X0*%
G04 APERTURE END LIST*
D10*
%TO.C,R4*%
X149300000Y-104400000D03*
X147300000Y-104400000D03*
%TD*%
D11*
%TO.C,C2*%
X145000000Y-110850000D03*
X145000000Y-108950000D03*
%TD*%
D12*
%TO.C,C3*%
X142900000Y-83950000D03*
X142900000Y-85850000D03*
%TD*%
%TO.C,C5*%
X140300000Y-83950000D03*
X140300000Y-85850000D03*
%TD*%
D13*
%TO.C,RN1*%
X149200000Y-106240000D03*
D14*
X149200000Y-106960000D03*
X149200000Y-107600000D03*
X149200000Y-108240000D03*
D13*
X149200000Y-108960000D03*
X147400000Y-108960000D03*
D14*
X147400000Y-108240000D03*
X147400000Y-107600000D03*
X147400000Y-106960000D03*
D13*
X147400000Y-106240000D03*
%TD*%
D12*
%TO.C,C6*%
X145100000Y-83950000D03*
X145100000Y-85850000D03*
%TD*%
D15*
%TO.C,C4*%
X141971751Y-92128249D03*
X140628249Y-93471751D03*
%TD*%
D16*
%TO.C,R1*%
X147300000Y-85900000D03*
X147300000Y-83900000D03*
%TD*%
D17*
%TO.C,U2*%
X143113445Y-96031873D03*
X144294314Y-97212741D03*
X145475182Y-98393610D03*
X144244816Y-94900502D03*
X145425684Y-96081371D03*
X146606553Y-97262239D03*
D18*
X145354974Y-101207895D03*
X144895354Y-100748275D03*
X144435735Y-100288656D03*
X143976116Y-99829037D03*
X143516496Y-99369417D03*
X143056877Y-98909798D03*
X142597257Y-98450178D03*
X142137638Y-97990559D03*
X141678018Y-97530939D03*
X141218399Y-97071320D03*
X140758780Y-96611701D03*
X140299160Y-96152081D03*
X144365024Y-92086217D03*
X144824644Y-92545837D03*
X145284263Y-93005456D03*
X145743882Y-93465075D03*
X146203502Y-93924695D03*
X146663121Y-94384314D03*
X147122741Y-94843934D03*
X147582360Y-95303553D03*
X148041980Y-95763173D03*
X148501599Y-96222792D03*
X148961218Y-96682411D03*
X149420838Y-97142031D03*
%TD*%
D19*
%TO.C,C1*%
X149250000Y-110900000D03*
X147350000Y-110900000D03*
%TD*%
M02*
